%
M48
M72
T01C0.02362
T02C0.02756
T03C0.03150
T04C0.03200
T05C0.03937
T06C0.04000
T07C0.07480
%
T01
X74300Y141800
X104300Y106800
X99300Y96800
X26800Y84300
X139300Y174300
X144300Y169300
T02
X64280Y80650
X64280Y71044
X64280Y61650
T03
X143670Y15560
X163670Y15560
X173020Y15560
X193020Y15560
X36879Y170501
X32154Y173650
X36879Y176800
X32154Y179950
X36879Y183099
X56426Y186131
X64300Y186131
X72174Y186131
T04
X99300Y189300
X99300Y179300
X99300Y169300
X113670Y168670
X113670Y178670
X111800Y188670
X121800Y188670
X147450Y187410
X157450Y187410
X167430Y183020
X131800Y151800
X131800Y141800
X120540Y142430
X120540Y152430
X120540Y132430
X120540Y122430
X120540Y112430
X120540Y102430
X120540Y92430
X120540Y82430
X120540Y72430
X120540Y62430
X120540Y52430
X120540Y42430
X120540Y32430
X120540Y22430
X90540Y22430
X90540Y32430
X90540Y42430
X90540Y52430
X90540Y62430
X90540Y72430
X90540Y82430
X90540Y92430
X90540Y102430
X90540Y112430
X90540Y122430
X90540Y132430
X90540Y142430
X90540Y152430
X72450Y151800
X36800Y131800
X32450Y151800
X36800Y91800
X37410Y82410
X37410Y42410
X36111Y29871
X36111Y19871
X68670Y32410
X78670Y32410
X136170Y62430
X136170Y72430
X167430Y143020
T05
X48552Y186131
X80048Y186131
T06
X6800Y136800
X6800Y126800
X6800Y116800
X6800Y106800
X6800Y96800
X6800Y86800
X6800Y76800
X6800Y66800
X194300Y66800
X194300Y76800
X194300Y86800
X194300Y96800
X194300Y106800
X194300Y116800
X194300Y126800
X194300Y136800
X194300Y149320
X194300Y159320
X194300Y169320
X194300Y179320
X194300Y189320
T07
X16800Y191170
X16800Y162430
M30
