G75*
%MOIN*%
%OFA0B0*%
%FSLAX25Y25*%
%IPPOS*%
%LPD*%
%AMOC8*
5,1,8,0,0,1.08239X$1,22.5*
%
%ADD10C,0.00000*%
%ADD11OC8,0.05200*%
%ADD12C,0.07400*%
%ADD13C,0.04756*%
%ADD14C,0.05200*%
%ADD15C,0.05150*%
%ADD16C,0.11220*%
%ADD17C,0.01600*%
%ADD18C,0.03962*%
D10*
X0001800Y0001800D02*
X0001800Y0198650D01*
X0198650Y0198650D01*
X0198650Y0001800D01*
X0001800Y0001800D01*
X0046583Y0186131D02*
X0046585Y0186219D01*
X0046591Y0186307D01*
X0046601Y0186395D01*
X0046615Y0186483D01*
X0046632Y0186569D01*
X0046654Y0186655D01*
X0046679Y0186739D01*
X0046709Y0186823D01*
X0046741Y0186905D01*
X0046778Y0186985D01*
X0046818Y0187064D01*
X0046862Y0187141D01*
X0046909Y0187216D01*
X0046959Y0187288D01*
X0047013Y0187359D01*
X0047069Y0187426D01*
X0047129Y0187492D01*
X0047191Y0187554D01*
X0047257Y0187614D01*
X0047324Y0187670D01*
X0047395Y0187724D01*
X0047467Y0187774D01*
X0047542Y0187821D01*
X0047619Y0187865D01*
X0047698Y0187905D01*
X0047778Y0187942D01*
X0047860Y0187974D01*
X0047944Y0188004D01*
X0048028Y0188029D01*
X0048114Y0188051D01*
X0048200Y0188068D01*
X0048288Y0188082D01*
X0048376Y0188092D01*
X0048464Y0188098D01*
X0048552Y0188100D01*
X0048640Y0188098D01*
X0048728Y0188092D01*
X0048816Y0188082D01*
X0048904Y0188068D01*
X0048990Y0188051D01*
X0049076Y0188029D01*
X0049160Y0188004D01*
X0049244Y0187974D01*
X0049326Y0187942D01*
X0049406Y0187905D01*
X0049485Y0187865D01*
X0049562Y0187821D01*
X0049637Y0187774D01*
X0049709Y0187724D01*
X0049780Y0187670D01*
X0049847Y0187614D01*
X0049913Y0187554D01*
X0049975Y0187492D01*
X0050035Y0187426D01*
X0050091Y0187359D01*
X0050145Y0187288D01*
X0050195Y0187216D01*
X0050242Y0187141D01*
X0050286Y0187064D01*
X0050326Y0186985D01*
X0050363Y0186905D01*
X0050395Y0186823D01*
X0050425Y0186739D01*
X0050450Y0186655D01*
X0050472Y0186569D01*
X0050489Y0186483D01*
X0050503Y0186395D01*
X0050513Y0186307D01*
X0050519Y0186219D01*
X0050521Y0186131D01*
X0050519Y0186043D01*
X0050513Y0185955D01*
X0050503Y0185867D01*
X0050489Y0185779D01*
X0050472Y0185693D01*
X0050450Y0185607D01*
X0050425Y0185523D01*
X0050395Y0185439D01*
X0050363Y0185357D01*
X0050326Y0185277D01*
X0050286Y0185198D01*
X0050242Y0185121D01*
X0050195Y0185046D01*
X0050145Y0184974D01*
X0050091Y0184903D01*
X0050035Y0184836D01*
X0049975Y0184770D01*
X0049913Y0184708D01*
X0049847Y0184648D01*
X0049780Y0184592D01*
X0049709Y0184538D01*
X0049637Y0184488D01*
X0049562Y0184441D01*
X0049485Y0184397D01*
X0049406Y0184357D01*
X0049326Y0184320D01*
X0049244Y0184288D01*
X0049160Y0184258D01*
X0049076Y0184233D01*
X0048990Y0184211D01*
X0048904Y0184194D01*
X0048816Y0184180D01*
X0048728Y0184170D01*
X0048640Y0184164D01*
X0048552Y0184162D01*
X0048464Y0184164D01*
X0048376Y0184170D01*
X0048288Y0184180D01*
X0048200Y0184194D01*
X0048114Y0184211D01*
X0048028Y0184233D01*
X0047944Y0184258D01*
X0047860Y0184288D01*
X0047778Y0184320D01*
X0047698Y0184357D01*
X0047619Y0184397D01*
X0047542Y0184441D01*
X0047467Y0184488D01*
X0047395Y0184538D01*
X0047324Y0184592D01*
X0047257Y0184648D01*
X0047191Y0184708D01*
X0047129Y0184770D01*
X0047069Y0184836D01*
X0047013Y0184903D01*
X0046959Y0184974D01*
X0046909Y0185046D01*
X0046862Y0185121D01*
X0046818Y0185198D01*
X0046778Y0185277D01*
X0046741Y0185357D01*
X0046709Y0185439D01*
X0046679Y0185523D01*
X0046654Y0185607D01*
X0046632Y0185693D01*
X0046615Y0185779D01*
X0046601Y0185867D01*
X0046591Y0185955D01*
X0046585Y0186043D01*
X0046583Y0186131D01*
X0078079Y0186131D02*
X0078081Y0186219D01*
X0078087Y0186307D01*
X0078097Y0186395D01*
X0078111Y0186483D01*
X0078128Y0186569D01*
X0078150Y0186655D01*
X0078175Y0186739D01*
X0078205Y0186823D01*
X0078237Y0186905D01*
X0078274Y0186985D01*
X0078314Y0187064D01*
X0078358Y0187141D01*
X0078405Y0187216D01*
X0078455Y0187288D01*
X0078509Y0187359D01*
X0078565Y0187426D01*
X0078625Y0187492D01*
X0078687Y0187554D01*
X0078753Y0187614D01*
X0078820Y0187670D01*
X0078891Y0187724D01*
X0078963Y0187774D01*
X0079038Y0187821D01*
X0079115Y0187865D01*
X0079194Y0187905D01*
X0079274Y0187942D01*
X0079356Y0187974D01*
X0079440Y0188004D01*
X0079524Y0188029D01*
X0079610Y0188051D01*
X0079696Y0188068D01*
X0079784Y0188082D01*
X0079872Y0188092D01*
X0079960Y0188098D01*
X0080048Y0188100D01*
X0080136Y0188098D01*
X0080224Y0188092D01*
X0080312Y0188082D01*
X0080400Y0188068D01*
X0080486Y0188051D01*
X0080572Y0188029D01*
X0080656Y0188004D01*
X0080740Y0187974D01*
X0080822Y0187942D01*
X0080902Y0187905D01*
X0080981Y0187865D01*
X0081058Y0187821D01*
X0081133Y0187774D01*
X0081205Y0187724D01*
X0081276Y0187670D01*
X0081343Y0187614D01*
X0081409Y0187554D01*
X0081471Y0187492D01*
X0081531Y0187426D01*
X0081587Y0187359D01*
X0081641Y0187288D01*
X0081691Y0187216D01*
X0081738Y0187141D01*
X0081782Y0187064D01*
X0081822Y0186985D01*
X0081859Y0186905D01*
X0081891Y0186823D01*
X0081921Y0186739D01*
X0081946Y0186655D01*
X0081968Y0186569D01*
X0081985Y0186483D01*
X0081999Y0186395D01*
X0082009Y0186307D01*
X0082015Y0186219D01*
X0082017Y0186131D01*
X0082015Y0186043D01*
X0082009Y0185955D01*
X0081999Y0185867D01*
X0081985Y0185779D01*
X0081968Y0185693D01*
X0081946Y0185607D01*
X0081921Y0185523D01*
X0081891Y0185439D01*
X0081859Y0185357D01*
X0081822Y0185277D01*
X0081782Y0185198D01*
X0081738Y0185121D01*
X0081691Y0185046D01*
X0081641Y0184974D01*
X0081587Y0184903D01*
X0081531Y0184836D01*
X0081471Y0184770D01*
X0081409Y0184708D01*
X0081343Y0184648D01*
X0081276Y0184592D01*
X0081205Y0184538D01*
X0081133Y0184488D01*
X0081058Y0184441D01*
X0080981Y0184397D01*
X0080902Y0184357D01*
X0080822Y0184320D01*
X0080740Y0184288D01*
X0080656Y0184258D01*
X0080572Y0184233D01*
X0080486Y0184211D01*
X0080400Y0184194D01*
X0080312Y0184180D01*
X0080224Y0184170D01*
X0080136Y0184164D01*
X0080048Y0184162D01*
X0079960Y0184164D01*
X0079872Y0184170D01*
X0079784Y0184180D01*
X0079696Y0184194D01*
X0079610Y0184211D01*
X0079524Y0184233D01*
X0079440Y0184258D01*
X0079356Y0184288D01*
X0079274Y0184320D01*
X0079194Y0184357D01*
X0079115Y0184397D01*
X0079038Y0184441D01*
X0078963Y0184488D01*
X0078891Y0184538D01*
X0078820Y0184592D01*
X0078753Y0184648D01*
X0078687Y0184708D01*
X0078625Y0184770D01*
X0078565Y0184836D01*
X0078509Y0184903D01*
X0078455Y0184974D01*
X0078405Y0185046D01*
X0078358Y0185121D01*
X0078314Y0185198D01*
X0078274Y0185277D01*
X0078237Y0185357D01*
X0078205Y0185439D01*
X0078175Y0185523D01*
X0078150Y0185607D01*
X0078128Y0185693D01*
X0078111Y0185779D01*
X0078097Y0185867D01*
X0078087Y0185955D01*
X0078081Y0186043D01*
X0078079Y0186131D01*
D11*
X0111800Y0188670D03*
X0121800Y0188670D03*
X0113670Y0178670D03*
X0113670Y0168670D03*
X0131800Y0151800D03*
X0131800Y0141800D03*
X0167430Y0143020D03*
X0167430Y0183020D03*
X0157450Y0187410D03*
X0147450Y0187410D03*
X0072450Y0151800D03*
X0036800Y0131800D03*
X0032450Y0151800D03*
X0036800Y0091800D03*
X0037410Y0082410D03*
X0037410Y0042410D03*
X0036111Y0029871D03*
X0036111Y0019871D03*
X0068670Y0032410D03*
X0078670Y0032410D03*
X0136170Y0062430D03*
X0136170Y0072430D03*
D12*
X0194300Y0076800D03*
X0194300Y0066800D03*
X0194300Y0086800D03*
X0194300Y0096800D03*
X0194300Y0106800D03*
X0194300Y0116800D03*
X0194300Y0126800D03*
X0194300Y0136800D03*
X0194300Y0149320D03*
X0194300Y0159320D03*
X0194300Y0169320D03*
X0194300Y0179320D03*
X0194300Y0189320D03*
X0006800Y0136800D03*
X0006800Y0126800D03*
X0006800Y0116800D03*
X0006800Y0106800D03*
X0006800Y0096800D03*
X0006800Y0086800D03*
X0006800Y0076800D03*
X0006800Y0066800D03*
D13*
X0064280Y0071044D03*
X0064280Y0061650D03*
X0064280Y0080650D03*
D14*
X0087940Y0082430D02*
X0093140Y0082430D01*
X0093140Y0092430D02*
X0087940Y0092430D01*
X0087940Y0102430D02*
X0093140Y0102430D01*
X0093140Y0112430D02*
X0087940Y0112430D01*
X0087940Y0122430D02*
X0093140Y0122430D01*
X0093140Y0132430D02*
X0087940Y0132430D01*
X0087940Y0142430D02*
X0093140Y0142430D01*
X0093140Y0152430D02*
X0087940Y0152430D01*
X0096700Y0169300D02*
X0101900Y0169300D01*
X0101900Y0179300D02*
X0096700Y0179300D01*
X0096700Y0189300D02*
X0101900Y0189300D01*
X0117940Y0152430D02*
X0123140Y0152430D01*
X0123140Y0142430D02*
X0117940Y0142430D01*
X0117940Y0132430D02*
X0123140Y0132430D01*
X0123140Y0122430D02*
X0117940Y0122430D01*
X0117940Y0112430D02*
X0123140Y0112430D01*
X0123140Y0102430D02*
X0117940Y0102430D01*
X0117940Y0092430D02*
X0123140Y0092430D01*
X0123140Y0082430D02*
X0117940Y0082430D01*
X0117940Y0072430D02*
X0123140Y0072430D01*
X0123140Y0062430D02*
X0117940Y0062430D01*
X0117940Y0052430D02*
X0123140Y0052430D01*
X0123140Y0042430D02*
X0117940Y0042430D01*
X0117940Y0032430D02*
X0123140Y0032430D01*
X0123140Y0022430D02*
X0117940Y0022430D01*
X0093140Y0022430D02*
X0087940Y0022430D01*
X0087940Y0032430D02*
X0093140Y0032430D01*
X0093140Y0042430D02*
X0087940Y0042430D01*
X0087940Y0052430D02*
X0093140Y0052430D01*
X0093140Y0062430D02*
X0087940Y0062430D01*
X0087940Y0072430D02*
X0093140Y0072430D01*
D15*
X0143670Y0015560D03*
X0163670Y0015560D03*
X0173020Y0015560D03*
X0193020Y0015560D03*
X0036879Y0170501D03*
X0032154Y0173650D03*
X0036879Y0176800D03*
X0032154Y0179950D03*
X0036879Y0183099D03*
X0056426Y0186131D03*
X0064300Y0186131D03*
X0072174Y0186131D03*
D16*
X0016800Y0191170D03*
X0016800Y0162430D03*
D17*
X0012218Y0168045D02*
X0006600Y0168045D01*
X0006600Y0166447D02*
X0010659Y0166447D01*
X0010687Y0166514D02*
X0009590Y0163864D01*
X0009590Y0160996D01*
X0010687Y0158346D01*
X0012716Y0156317D01*
X0015366Y0155220D01*
X0018234Y0155220D01*
X0020884Y0156317D01*
X0022913Y0158346D01*
X0024010Y0160996D01*
X0024010Y0163864D01*
X0022913Y0166514D01*
X0020884Y0168542D01*
X0018234Y0169640D01*
X0015366Y0169640D01*
X0012716Y0168542D01*
X0010687Y0166514D01*
X0009997Y0164848D02*
X0006600Y0164848D01*
X0006600Y0163250D02*
X0009590Y0163250D01*
X0009590Y0161651D02*
X0006600Y0161651D01*
X0006600Y0160053D02*
X0009980Y0160053D01*
X0010643Y0158454D02*
X0006600Y0158454D01*
X0006600Y0156856D02*
X0012177Y0156856D01*
X0015275Y0155257D02*
X0006600Y0155257D01*
X0006600Y0153659D02*
X0028368Y0153659D01*
X0028250Y0153540D02*
X0028250Y0150060D01*
X0030710Y0147600D01*
X0032274Y0147600D01*
X0034400Y0144252D01*
X0034400Y0135340D01*
X0032600Y0133540D01*
X0032600Y0130994D01*
X0024765Y0123159D01*
X0024400Y0122277D01*
X0024400Y0086964D01*
X0023764Y0086329D01*
X0023219Y0085012D01*
X0023219Y0083588D01*
X0023764Y0082271D01*
X0024771Y0081264D01*
X0026088Y0080719D01*
X0027512Y0080719D01*
X0028829Y0081264D01*
X0029836Y0082271D01*
X0030381Y0083588D01*
X0030381Y0085012D01*
X0029836Y0086329D01*
X0029200Y0086964D01*
X0029200Y0120806D01*
X0035994Y0127600D01*
X0038540Y0127600D01*
X0041000Y0130060D01*
X0041000Y0133540D01*
X0039200Y0135340D01*
X0039200Y0144685D01*
X0039246Y0144893D01*
X0039200Y0145158D01*
X0039200Y0145427D01*
X0039119Y0145624D01*
X0039082Y0145833D01*
X0038938Y0146060D01*
X0038835Y0146309D01*
X0038684Y0146460D01*
X0036495Y0149906D01*
X0036650Y0150060D01*
X0036650Y0153540D01*
X0034189Y0156000D01*
X0030710Y0156000D01*
X0028250Y0153540D01*
X0028250Y0152060D02*
X0006600Y0152060D01*
X0006600Y0150462D02*
X0028250Y0150462D01*
X0029447Y0148863D02*
X0006600Y0148863D01*
X0006600Y0147265D02*
X0032487Y0147265D01*
X0033502Y0145666D02*
X0006600Y0145666D01*
X0006600Y0144068D02*
X0034400Y0144068D01*
X0034400Y0142469D02*
X0006600Y0142469D01*
X0006600Y0142100D02*
X0006600Y0193850D01*
X0010106Y0193850D01*
X0009590Y0192604D01*
X0009590Y0189736D01*
X0010687Y0187086D01*
X0012716Y0185058D01*
X0015366Y0183960D01*
X0018234Y0183960D01*
X0020884Y0185058D01*
X0022913Y0187086D01*
X0024010Y0189736D01*
X0024010Y0192604D01*
X0023494Y0193850D01*
X0191389Y0193850D01*
X0191298Y0193813D01*
X0189807Y0192322D01*
X0189557Y0191720D01*
X0188842Y0191720D01*
X0187960Y0191354D01*
X0187285Y0190679D01*
X0186920Y0189797D01*
X0186920Y0188842D01*
X0187285Y0187960D01*
X0187960Y0187285D01*
X0188842Y0186920D01*
X0189557Y0186920D01*
X0189807Y0186317D01*
X0191298Y0184827D01*
X0192522Y0184320D01*
X0191298Y0183813D01*
X0189807Y0182322D01*
X0189557Y0181720D01*
X0183842Y0181720D01*
X0182960Y0181354D01*
X0182285Y0180679D01*
X0180806Y0179200D01*
X0169549Y0179200D01*
X0171630Y0181281D01*
X0171630Y0184760D01*
X0169170Y0187220D01*
X0166624Y0187220D01*
X0164400Y0189445D01*
X0163518Y0189810D01*
X0160989Y0189810D01*
X0159189Y0191610D01*
X0155710Y0191610D01*
X0153250Y0189150D01*
X0153250Y0185671D01*
X0155710Y0183210D01*
X0159189Y0183210D01*
X0160989Y0185010D01*
X0162046Y0185010D01*
X0163230Y0183826D01*
X0163230Y0181281D01*
X0165311Y0179200D01*
X0159054Y0179200D01*
X0151650Y0186604D01*
X0151650Y0189150D01*
X0149189Y0191610D01*
X0145710Y0191610D01*
X0143250Y0189150D01*
X0143250Y0185671D01*
X0145710Y0183210D01*
X0148255Y0183210D01*
X0156025Y0175441D01*
X0156700Y0174765D01*
X0157582Y0174400D01*
X0182277Y0174400D01*
X0183159Y0174765D01*
X0185314Y0176920D01*
X0189557Y0176920D01*
X0189807Y0176317D01*
X0191298Y0174827D01*
X0192244Y0174435D01*
X0192189Y0174417D01*
X0191417Y0174024D01*
X0190717Y0173515D01*
X0190105Y0172903D01*
X0189596Y0172202D01*
X0189203Y0171431D01*
X0188935Y0170608D01*
X0188800Y0169753D01*
X0188800Y0169520D01*
X0193850Y0169520D01*
X0193850Y0169120D01*
X0188800Y0169120D01*
X0188800Y0168887D01*
X0188935Y0168032D01*
X0189203Y0167208D01*
X0189596Y0166437D01*
X0190105Y0165737D01*
X0190717Y0165125D01*
X0191417Y0164616D01*
X0192189Y0164223D01*
X0192244Y0164205D01*
X0191298Y0163813D01*
X0189807Y0162322D01*
X0189000Y0160374D01*
X0189000Y0158265D01*
X0189807Y0156317D01*
X0191298Y0154827D01*
X0192522Y0154320D01*
X0191298Y0153813D01*
X0189807Y0152322D01*
X0189000Y0150374D01*
X0189000Y0148265D01*
X0189807Y0146317D01*
X0191298Y0144827D01*
X0193246Y0144020D01*
X0193850Y0144020D01*
X0193850Y0142100D01*
X0193246Y0142100D01*
X0191298Y0141293D01*
X0189807Y0139802D01*
X0189000Y0137854D01*
X0189000Y0135746D01*
X0189807Y0133798D01*
X0191298Y0132307D01*
X0192522Y0131800D01*
X0191298Y0131293D01*
X0189807Y0129802D01*
X0189000Y0127854D01*
X0189000Y0125746D01*
X0189807Y0123798D01*
X0191298Y0122307D01*
X0192522Y0121800D01*
X0191298Y0121293D01*
X0189807Y0119802D01*
X0189000Y0117854D01*
X0189000Y0115746D01*
X0189807Y0113798D01*
X0191298Y0112307D01*
X0192522Y0111800D01*
X0191298Y0111293D01*
X0189807Y0109802D01*
X0189000Y0107854D01*
X0189000Y0105746D01*
X0189807Y0103798D01*
X0191298Y0102307D01*
X0192522Y0101800D01*
X0191298Y0101293D01*
X0189807Y0099802D01*
X0189000Y0097854D01*
X0189000Y0095746D01*
X0189807Y0093798D01*
X0191298Y0092307D01*
X0192522Y0091800D01*
X0191298Y0091293D01*
X0189807Y0089802D01*
X0189000Y0087854D01*
X0189000Y0085746D01*
X0189807Y0083798D01*
X0191298Y0082307D01*
X0192522Y0081800D01*
X0191298Y0081293D01*
X0189807Y0079802D01*
X0189557Y0079200D01*
X0172794Y0079200D01*
X0159200Y0092794D01*
X0159200Y0156354D01*
X0159211Y0156384D01*
X0159200Y0156831D01*
X0159200Y0157277D01*
X0159188Y0157307D01*
X0159187Y0157338D01*
X0159006Y0157747D01*
X0158835Y0158159D01*
X0158812Y0158182D01*
X0148996Y0180268D01*
X0148808Y0180698D01*
X0148803Y0180704D01*
X0148799Y0180711D01*
X0148459Y0181034D01*
X0148121Y0181360D01*
X0148113Y0181363D01*
X0148107Y0181369D01*
X0147668Y0181538D01*
X0147232Y0181709D01*
X0147224Y0181708D01*
X0147216Y0181711D01*
X0146746Y0181699D01*
X0117143Y0181137D01*
X0115410Y0182870D01*
X0111930Y0182870D01*
X0110281Y0181221D01*
X0105565Y0181428D01*
X0105461Y0181679D01*
X0104279Y0182861D01*
X0102735Y0183500D01*
X0095865Y0183500D01*
X0094321Y0182861D01*
X0093160Y0181700D01*
X0085189Y0181700D01*
X0085786Y0182297D01*
X0086817Y0184784D01*
X0086817Y0187477D01*
X0085786Y0189965D01*
X0083882Y0191869D01*
X0081394Y0192899D01*
X0078702Y0192899D01*
X0076214Y0191869D01*
X0074310Y0189965D01*
X0074239Y0189794D01*
X0073004Y0190305D01*
X0071344Y0190305D01*
X0069809Y0189670D01*
X0068635Y0188496D01*
X0068237Y0187535D01*
X0067839Y0188496D01*
X0066665Y0189670D01*
X0065130Y0190305D01*
X0063470Y0190305D01*
X0061935Y0189670D01*
X0060761Y0188496D01*
X0060363Y0187535D01*
X0059965Y0188496D01*
X0058791Y0189670D01*
X0057256Y0190305D01*
X0055596Y0190305D01*
X0054361Y0189794D01*
X0054290Y0189965D01*
X0052386Y0191869D01*
X0049898Y0192899D01*
X0047206Y0192899D01*
X0044718Y0191869D01*
X0042814Y0189965D01*
X0041783Y0187477D01*
X0041783Y0184784D01*
X0042814Y0182297D01*
X0044718Y0180393D01*
X0047206Y0179362D01*
X0049898Y0179362D01*
X0052386Y0180393D01*
X0054290Y0182297D01*
X0054361Y0182467D01*
X0055596Y0181956D01*
X0057256Y0181956D01*
X0058791Y0182591D01*
X0059965Y0183766D01*
X0060363Y0184726D01*
X0060761Y0183766D01*
X0061935Y0182591D01*
X0063470Y0181956D01*
X0065130Y0181956D01*
X0066665Y0182591D01*
X0067839Y0183766D01*
X0068237Y0184726D01*
X0068635Y0183766D01*
X0069400Y0183001D01*
X0069400Y0181323D01*
X0069765Y0180441D01*
X0072265Y0177941D01*
X0072941Y0177265D01*
X0073823Y0176900D01*
X0093160Y0176900D01*
X0094321Y0175739D01*
X0095865Y0175100D01*
X0102735Y0175100D01*
X0104279Y0175739D01*
X0105180Y0176640D01*
X0109971Y0176430D01*
X0111930Y0174470D01*
X0115410Y0174470D01*
X0117278Y0176338D01*
X0136642Y0176706D01*
X0136264Y0176329D01*
X0135719Y0175012D01*
X0135719Y0173588D01*
X0136264Y0172271D01*
X0136900Y0171636D01*
X0136900Y0160924D01*
X0136616Y0160640D01*
X0131976Y0156000D01*
X0130060Y0156000D01*
X0128890Y0154830D01*
X0126680Y0154830D01*
X0125519Y0155991D01*
X0123976Y0156630D01*
X0117105Y0156630D01*
X0115561Y0155991D01*
X0114380Y0154809D01*
X0113740Y0153265D01*
X0113740Y0151594D01*
X0114380Y0150051D01*
X0115561Y0148869D01*
X0117105Y0148230D01*
X0123976Y0148230D01*
X0125519Y0148869D01*
X0126680Y0150030D01*
X0127630Y0150030D01*
X0130060Y0147600D01*
X0133540Y0147600D01*
X0136000Y0150060D01*
X0136000Y0153236D01*
X0136900Y0154136D01*
X0136900Y0122184D01*
X0127340Y0112624D01*
X0127340Y0113265D01*
X0126701Y0114809D01*
X0125519Y0115991D01*
X0123976Y0116630D01*
X0117105Y0116630D01*
X0115561Y0115991D01*
X0114380Y0114809D01*
X0113740Y0113265D01*
X0113740Y0111594D01*
X0114380Y0110051D01*
X0115561Y0108869D01*
X0117105Y0108230D01*
X0122946Y0108230D01*
X0121346Y0106630D01*
X0117105Y0106630D01*
X0115561Y0105991D01*
X0114380Y0104809D01*
X0113740Y0103265D01*
X0113740Y0101594D01*
X0114380Y0100051D01*
X0114573Y0099857D01*
X0104765Y0090049D01*
X0104400Y0089167D01*
X0104400Y0042794D01*
X0096558Y0034952D01*
X0095519Y0035991D01*
X0093976Y0036630D01*
X0087105Y0036630D01*
X0085561Y0035991D01*
X0084380Y0034809D01*
X0083740Y0033265D01*
X0083740Y0031594D01*
X0084380Y0030051D01*
X0085561Y0028869D01*
X0087105Y0028230D01*
X0093976Y0028230D01*
X0095519Y0028869D01*
X0096680Y0030030D01*
X0097907Y0030030D01*
X0098789Y0030395D01*
X0099465Y0031070D01*
X0099465Y0031070D01*
X0108835Y0040441D01*
X0109200Y0041323D01*
X0109200Y0087696D01*
X0113740Y0092236D01*
X0113740Y0091594D01*
X0114380Y0090051D01*
X0115561Y0088869D01*
X0117105Y0088230D01*
X0123976Y0088230D01*
X0125519Y0088869D01*
X0126701Y0090051D01*
X0127340Y0091594D01*
X0127340Y0093265D01*
X0126701Y0094809D01*
X0125519Y0095991D01*
X0123976Y0096630D01*
X0118134Y0096630D01*
X0119734Y0098230D01*
X0123976Y0098230D01*
X0125519Y0098869D01*
X0126701Y0100051D01*
X0127340Y0101594D01*
X0127340Y0103265D01*
X0126701Y0104809D01*
X0126507Y0105003D01*
X0140659Y0119155D01*
X0141335Y0119830D01*
X0141700Y0120712D01*
X0141700Y0166836D01*
X0141900Y0166636D01*
X0141900Y0046830D01*
X0141882Y0046403D01*
X0141900Y0046355D01*
X0141900Y0046303D01*
X0142064Y0045908D01*
X0142210Y0045507D01*
X0142246Y0045469D01*
X0142265Y0045421D01*
X0142568Y0045119D01*
X0168892Y0016503D01*
X0168846Y0016390D01*
X0168846Y0014729D01*
X0169481Y0013195D01*
X0170656Y0012021D01*
X0172190Y0011385D01*
X0173851Y0011385D01*
X0175385Y0012021D01*
X0176560Y0013195D01*
X0177195Y0014729D01*
X0177195Y0016390D01*
X0176560Y0017925D01*
X0175385Y0019099D01*
X0173851Y0019735D01*
X0172441Y0019735D01*
X0146700Y0047716D01*
X0146700Y0166636D01*
X0147336Y0167271D01*
X0147881Y0168588D01*
X0147881Y0170012D01*
X0147336Y0171329D01*
X0146329Y0172336D01*
X0145012Y0172881D01*
X0143588Y0172881D01*
X0142381Y0172381D01*
X0142881Y0173588D01*
X0142881Y0175012D01*
X0142336Y0176329D01*
X0141859Y0176806D01*
X0145254Y0176870D01*
X0154400Y0156291D01*
X0154400Y0091323D01*
X0154765Y0090441D01*
X0169765Y0075441D01*
X0170441Y0074765D01*
X0171323Y0074400D01*
X0189557Y0074400D01*
X0189807Y0073798D01*
X0191298Y0072307D01*
X0192244Y0071915D01*
X0192189Y0071897D01*
X0191417Y0071504D01*
X0190717Y0070995D01*
X0190105Y0070383D01*
X0189596Y0069683D01*
X0189203Y0068911D01*
X0188935Y0068088D01*
X0188800Y0067233D01*
X0188800Y0067000D01*
X0193850Y0067000D01*
X0193850Y0066600D01*
X0188800Y0066600D01*
X0188800Y0066367D01*
X0188935Y0065512D01*
X0189203Y0064689D01*
X0189596Y0063917D01*
X0190105Y0063217D01*
X0190717Y0062605D01*
X0191417Y0062096D01*
X0192189Y0061703D01*
X0193012Y0061435D01*
X0193850Y0061303D01*
X0193850Y0019858D01*
X0193365Y0019935D01*
X0193021Y0019935D01*
X0193021Y0015560D01*
X0193020Y0015560D01*
X0193020Y0015560D01*
X0188646Y0015560D01*
X0188646Y0015904D01*
X0188753Y0016584D01*
X0188966Y0017239D01*
X0189279Y0017853D01*
X0189684Y0018410D01*
X0190170Y0018897D01*
X0190728Y0019302D01*
X0191341Y0019614D01*
X0191996Y0019827D01*
X0192676Y0019935D01*
X0193020Y0019935D01*
X0193020Y0015560D01*
X0188646Y0015560D01*
X0188646Y0015216D01*
X0188753Y0014535D01*
X0188966Y0013880D01*
X0189279Y0013267D01*
X0189684Y0012710D01*
X0190170Y0012223D01*
X0190728Y0011818D01*
X0191341Y0011506D01*
X0191996Y0011293D01*
X0192676Y0011185D01*
X0193020Y0011185D01*
X0193020Y0015560D01*
X0193021Y0015560D01*
X0193021Y0011185D01*
X0193365Y0011185D01*
X0193850Y0011262D01*
X0193850Y0006600D01*
X0006600Y0006600D01*
X0006600Y0066600D01*
X0007000Y0066600D01*
X0007000Y0067000D01*
X0012300Y0067000D01*
X0012300Y0067233D01*
X0012165Y0068088D01*
X0011897Y0068911D01*
X0011504Y0069683D01*
X0010995Y0070383D01*
X0010383Y0070995D01*
X0009683Y0071504D01*
X0008911Y0071897D01*
X0008856Y0071915D01*
X0009802Y0072307D01*
X0011293Y0073798D01*
X0012100Y0075746D01*
X0012100Y0077854D01*
X0011922Y0078284D01*
X0019400Y0070806D01*
X0019400Y0026323D01*
X0019765Y0025441D01*
X0026695Y0018511D01*
X0027370Y0017836D01*
X0028252Y0017471D01*
X0032571Y0017471D01*
X0034371Y0015671D01*
X0037851Y0015671D01*
X0040311Y0018131D01*
X0040311Y0021611D01*
X0037851Y0024071D01*
X0034371Y0024071D01*
X0032571Y0022271D01*
X0029723Y0022271D01*
X0024200Y0027794D01*
X0024200Y0072277D01*
X0023835Y0073159D01*
X0023159Y0073835D01*
X0011851Y0085144D01*
X0012100Y0085746D01*
X0012100Y0087854D01*
X0011293Y0089802D01*
X0009802Y0091293D01*
X0008578Y0091800D01*
X0009802Y0092307D01*
X0011293Y0093798D01*
X0012100Y0095746D01*
X0012100Y0097854D01*
X0011293Y0099802D01*
X0009802Y0101293D01*
X0008578Y0101800D01*
X0009802Y0102307D01*
X0011293Y0103798D01*
X0012100Y0105746D01*
X0012100Y0107854D01*
X0011293Y0109802D01*
X0009802Y0111293D01*
X0008578Y0111800D01*
X0009802Y0112307D01*
X0011293Y0113798D01*
X0012100Y0115746D01*
X0012100Y0117854D01*
X0011293Y0119802D01*
X0009802Y0121293D01*
X0008578Y0121800D01*
X0009802Y0122307D01*
X0011293Y0123798D01*
X0012100Y0125746D01*
X0012100Y0127854D01*
X0011293Y0129802D01*
X0009802Y0131293D01*
X0008578Y0131800D01*
X0009802Y0132307D01*
X0011293Y0133798D01*
X0012100Y0135746D01*
X0012100Y0137854D01*
X0011293Y0139802D01*
X0009802Y0141293D01*
X0007854Y0142100D01*
X0006600Y0142100D01*
X0010225Y0140870D02*
X0034400Y0140870D01*
X0034400Y0139272D02*
X0011513Y0139272D01*
X0012100Y0137673D02*
X0034400Y0137673D01*
X0034400Y0136075D02*
X0012100Y0136075D01*
X0011574Y0134476D02*
X0033537Y0134476D01*
X0032600Y0132878D02*
X0010373Y0132878D01*
X0009816Y0131279D02*
X0032600Y0131279D01*
X0031287Y0129681D02*
X0011343Y0129681D01*
X0012005Y0128082D02*
X0029688Y0128082D01*
X0028090Y0126484D02*
X0012100Y0126484D01*
X0011744Y0124885D02*
X0026491Y0124885D01*
X0024893Y0123287D02*
X0010782Y0123287D01*
X0008848Y0121688D02*
X0024400Y0121688D01*
X0024400Y0120090D02*
X0011005Y0120090D01*
X0011836Y0118491D02*
X0024400Y0118491D01*
X0024400Y0116893D02*
X0012100Y0116893D01*
X0011913Y0115294D02*
X0024400Y0115294D01*
X0024400Y0113696D02*
X0011191Y0113696D01*
X0009296Y0112097D02*
X0024400Y0112097D01*
X0024400Y0110499D02*
X0010597Y0110499D01*
X0011667Y0108900D02*
X0024400Y0108900D01*
X0024400Y0107302D02*
X0012100Y0107302D01*
X0012082Y0105703D02*
X0024400Y0105703D01*
X0024400Y0104105D02*
X0011420Y0104105D01*
X0010002Y0102506D02*
X0024400Y0102506D01*
X0024400Y0100908D02*
X0010188Y0100908D01*
X0011497Y0099309D02*
X0024400Y0099309D01*
X0024400Y0097711D02*
X0012100Y0097711D01*
X0012100Y0096112D02*
X0024400Y0096112D01*
X0024400Y0094514D02*
X0011590Y0094514D01*
X0010410Y0092915D02*
X0024400Y0092915D01*
X0024400Y0091317D02*
X0009745Y0091317D01*
X0011328Y0089718D02*
X0024400Y0089718D01*
X0024400Y0088120D02*
X0011990Y0088120D01*
X0012100Y0086521D02*
X0023957Y0086521D01*
X0023219Y0084923D02*
X0012072Y0084923D01*
X0013670Y0083324D02*
X0023328Y0083324D01*
X0024310Y0081726D02*
X0015269Y0081726D01*
X0016867Y0080127D02*
X0033471Y0080127D01*
X0033010Y0080588D02*
X0035588Y0078010D01*
X0037410Y0078010D01*
X0037410Y0082410D01*
X0033010Y0082410D01*
X0033010Y0080588D01*
X0033010Y0081726D02*
X0029290Y0081726D01*
X0030272Y0083324D02*
X0033010Y0083324D01*
X0033010Y0084233D02*
X0033010Y0082410D01*
X0037410Y0082410D01*
X0037410Y0082410D01*
X0037410Y0082410D01*
X0037410Y0078010D01*
X0039233Y0078010D01*
X0041810Y0080588D01*
X0041810Y0082410D01*
X0037410Y0082410D01*
X0037410Y0086810D01*
X0035588Y0086810D01*
X0033010Y0084233D01*
X0033700Y0084923D02*
X0030381Y0084923D01*
X0029643Y0086521D02*
X0035299Y0086521D01*
X0035060Y0087600D02*
X0038540Y0087600D01*
X0041000Y0090060D01*
X0041000Y0093540D01*
X0038540Y0096000D01*
X0035060Y0096000D01*
X0032600Y0093540D01*
X0032600Y0090060D01*
X0035060Y0087600D01*
X0034541Y0088120D02*
X0029200Y0088120D01*
X0029200Y0089718D02*
X0032942Y0089718D01*
X0032600Y0091317D02*
X0029200Y0091317D01*
X0029200Y0092915D02*
X0032600Y0092915D01*
X0033574Y0094514D02*
X0029200Y0094514D01*
X0029200Y0096112D02*
X0046900Y0096112D01*
X0046900Y0094514D02*
X0040026Y0094514D01*
X0041000Y0092915D02*
X0046900Y0092915D01*
X0046900Y0091317D02*
X0041000Y0091317D01*
X0040658Y0089718D02*
X0046900Y0089718D01*
X0046900Y0088120D02*
X0039059Y0088120D01*
X0039233Y0086810D02*
X0037410Y0086810D01*
X0037410Y0082410D01*
X0037410Y0082410D01*
X0037410Y0082410D01*
X0041810Y0082410D01*
X0041810Y0084233D01*
X0039233Y0086810D01*
X0039522Y0086521D02*
X0046900Y0086521D01*
X0046900Y0084923D02*
X0041120Y0084923D01*
X0041810Y0083324D02*
X0046900Y0083324D01*
X0046900Y0081726D02*
X0041810Y0081726D01*
X0041350Y0080127D02*
X0046900Y0080127D01*
X0046900Y0078529D02*
X0039751Y0078529D01*
X0037410Y0078529D02*
X0037410Y0078529D01*
X0037410Y0080127D02*
X0037410Y0080127D01*
X0037410Y0081726D02*
X0037410Y0081726D01*
X0037410Y0083324D02*
X0037410Y0083324D01*
X0037410Y0084923D02*
X0037410Y0084923D01*
X0037410Y0086521D02*
X0037410Y0086521D01*
X0035069Y0078529D02*
X0018466Y0078529D01*
X0020064Y0076930D02*
X0046900Y0076930D01*
X0046900Y0075332D02*
X0021663Y0075332D01*
X0023261Y0073733D02*
X0046900Y0073733D01*
X0046900Y0072134D02*
X0024200Y0072134D01*
X0024200Y0070536D02*
X0046900Y0070536D01*
X0046900Y0068937D02*
X0024200Y0068937D01*
X0024200Y0067339D02*
X0046900Y0067339D01*
X0046900Y0065740D02*
X0024200Y0065740D01*
X0024200Y0064142D02*
X0046900Y0064142D01*
X0046900Y0062543D02*
X0024200Y0062543D01*
X0024200Y0060945D02*
X0046900Y0060945D01*
X0046900Y0059346D02*
X0024200Y0059346D01*
X0024200Y0057748D02*
X0046900Y0057748D01*
X0046900Y0056149D02*
X0024200Y0056149D01*
X0024200Y0054551D02*
X0046900Y0054551D01*
X0046900Y0052952D02*
X0024200Y0052952D01*
X0024200Y0051354D02*
X0046900Y0051354D01*
X0046900Y0049755D02*
X0024200Y0049755D01*
X0024200Y0048157D02*
X0046900Y0048157D01*
X0046900Y0046558D02*
X0039202Y0046558D01*
X0039150Y0046610D02*
X0035671Y0046610D01*
X0033210Y0044150D01*
X0033210Y0040671D01*
X0035671Y0038210D01*
X0039150Y0038210D01*
X0041610Y0040671D01*
X0041610Y0044150D01*
X0039150Y0046610D01*
X0040800Y0044960D02*
X0046900Y0044960D01*
X0046900Y0043361D02*
X0041610Y0043361D01*
X0041610Y0041763D02*
X0046900Y0041763D01*
X0046900Y0040164D02*
X0041104Y0040164D01*
X0039505Y0038566D02*
X0047006Y0038566D01*
X0046900Y0038823D02*
X0047265Y0037941D01*
X0064765Y0020441D01*
X0065441Y0019765D01*
X0066323Y0019400D01*
X0069777Y0019400D01*
X0070659Y0019765D01*
X0070924Y0020030D01*
X0084400Y0020030D01*
X0085561Y0018869D01*
X0087105Y0018230D01*
X0093976Y0018230D01*
X0095519Y0018869D01*
X0096701Y0020051D01*
X0097340Y0021594D01*
X0097340Y0023265D01*
X0096701Y0024809D01*
X0095519Y0025991D01*
X0093976Y0026630D01*
X0087105Y0026630D01*
X0085561Y0025991D01*
X0084400Y0024830D01*
X0069453Y0024830D01*
X0068570Y0024465D01*
X0068306Y0024200D01*
X0067794Y0024200D01*
X0051700Y0040294D01*
X0051700Y0144777D01*
X0051335Y0145659D01*
X0050659Y0146335D01*
X0034200Y0162794D01*
X0034200Y0167039D01*
X0034586Y0166759D01*
X0035199Y0166446D01*
X0035854Y0166234D01*
X0036534Y0166126D01*
X0036879Y0166126D01*
X0037223Y0166126D01*
X0037903Y0166234D01*
X0038558Y0166446D01*
X0039172Y0166759D01*
X0039729Y0167164D01*
X0040216Y0167651D01*
X0040620Y0168208D01*
X0040933Y0168821D01*
X0041063Y0169222D01*
X0059400Y0150885D01*
X0059400Y0106323D01*
X0059765Y0105441D01*
X0060441Y0104765D01*
X0069765Y0095441D01*
X0069765Y0095441D01*
X0070441Y0094765D01*
X0071323Y0094400D01*
X0084210Y0094400D01*
X0083740Y0093265D01*
X0083740Y0091594D01*
X0084380Y0090051D01*
X0085561Y0088869D01*
X0087105Y0088230D01*
X0093976Y0088230D01*
X0095519Y0088869D01*
X0096701Y0090051D01*
X0097340Y0091594D01*
X0097340Y0093265D01*
X0097036Y0094000D01*
X0097271Y0093764D01*
X0098588Y0093219D01*
X0100012Y0093219D01*
X0101329Y0093764D01*
X0102336Y0094771D01*
X0102881Y0096088D01*
X0102881Y0097512D01*
X0102336Y0098829D01*
X0101329Y0099836D01*
X0100012Y0100381D01*
X0098588Y0100381D01*
X0097271Y0099836D01*
X0096636Y0099200D01*
X0095850Y0099200D01*
X0096701Y0100051D01*
X0097340Y0101594D01*
X0097340Y0103265D01*
X0096870Y0104400D01*
X0101636Y0104400D01*
X0102271Y0103764D01*
X0103588Y0103219D01*
X0105012Y0103219D01*
X0106329Y0103764D01*
X0107336Y0104771D01*
X0107881Y0106088D01*
X0107881Y0107512D01*
X0107336Y0108829D01*
X0106329Y0109836D01*
X0105012Y0110381D01*
X0103588Y0110381D01*
X0102271Y0109836D01*
X0101636Y0109200D01*
X0095850Y0109200D01*
X0096701Y0110051D01*
X0097340Y0111594D01*
X0097340Y0113265D01*
X0096701Y0114809D01*
X0095519Y0115991D01*
X0093976Y0116630D01*
X0087105Y0116630D01*
X0085561Y0115991D01*
X0084380Y0114809D01*
X0083740Y0113265D01*
X0083740Y0111594D01*
X0084380Y0110051D01*
X0085230Y0109200D01*
X0082794Y0109200D01*
X0076700Y0115294D01*
X0076700Y0139136D01*
X0077336Y0139771D01*
X0077881Y0141088D01*
X0077881Y0142512D01*
X0077336Y0143829D01*
X0076329Y0144836D01*
X0075012Y0145381D01*
X0073588Y0145381D01*
X0072271Y0144836D01*
X0071264Y0143829D01*
X0070719Y0142512D01*
X0070719Y0141088D01*
X0071264Y0139771D01*
X0071900Y0139136D01*
X0071900Y0113823D01*
X0072265Y0112941D01*
X0079765Y0105441D01*
X0080441Y0104765D01*
X0081323Y0104400D01*
X0084210Y0104400D01*
X0083740Y0103265D01*
X0083740Y0101594D01*
X0084380Y0100051D01*
X0085230Y0099200D01*
X0072794Y0099200D01*
X0064200Y0107794D01*
X0064200Y0152356D01*
X0063835Y0153238D01*
X0063159Y0153913D01*
X0041054Y0176019D01*
X0041054Y0177630D01*
X0040418Y0179165D01*
X0039633Y0179950D01*
X0040418Y0180734D01*
X0041054Y0182269D01*
X0041054Y0183930D01*
X0040418Y0185464D01*
X0039244Y0186638D01*
X0037709Y0187274D01*
X0036048Y0187274D01*
X0034514Y0186638D01*
X0033340Y0185464D01*
X0032785Y0184124D01*
X0031324Y0184124D01*
X0029789Y0183489D01*
X0028615Y0182314D01*
X0027980Y0180780D01*
X0027980Y0179119D01*
X0028615Y0177585D01*
X0029400Y0176800D01*
X0028615Y0176015D01*
X0027980Y0174481D01*
X0027980Y0172820D01*
X0028615Y0171286D01*
X0029400Y0170501D01*
X0029400Y0161323D01*
X0029765Y0160441D01*
X0046900Y0143306D01*
X0046900Y0038823D01*
X0048239Y0036967D02*
X0024200Y0036967D01*
X0024200Y0035369D02*
X0049837Y0035369D01*
X0051436Y0033770D02*
X0038151Y0033770D01*
X0037851Y0034071D02*
X0040311Y0031611D01*
X0040311Y0028131D01*
X0037851Y0025671D01*
X0034371Y0025671D01*
X0031911Y0028131D01*
X0031911Y0031611D01*
X0034371Y0034071D01*
X0037851Y0034071D01*
X0039750Y0032172D02*
X0053034Y0032172D01*
X0054633Y0030573D02*
X0040311Y0030573D01*
X0040311Y0028975D02*
X0056231Y0028975D01*
X0057830Y0027376D02*
X0039556Y0027376D01*
X0037958Y0025778D02*
X0059428Y0025778D01*
X0061027Y0024179D02*
X0027815Y0024179D01*
X0029413Y0022581D02*
X0032881Y0022581D01*
X0034265Y0025778D02*
X0026216Y0025778D01*
X0024618Y0027376D02*
X0032666Y0027376D01*
X0031911Y0028975D02*
X0024200Y0028975D01*
X0024200Y0030573D02*
X0031911Y0030573D01*
X0032472Y0032172D02*
X0024200Y0032172D01*
X0024200Y0033770D02*
X0034071Y0033770D01*
X0035315Y0038566D02*
X0024200Y0038566D01*
X0024200Y0040164D02*
X0033716Y0040164D01*
X0033210Y0041763D02*
X0024200Y0041763D01*
X0024200Y0043361D02*
X0033210Y0043361D01*
X0034020Y0044960D02*
X0024200Y0044960D01*
X0024200Y0046558D02*
X0035619Y0046558D01*
X0049300Y0039300D02*
X0066800Y0021800D01*
X0069300Y0021800D01*
X0069930Y0022430D01*
X0090540Y0022430D01*
X0095732Y0025778D02*
X0115348Y0025778D01*
X0115561Y0025991D02*
X0114380Y0024809D01*
X0113740Y0023265D01*
X0113740Y0021594D01*
X0114380Y0020051D01*
X0115561Y0018869D01*
X0117105Y0018230D01*
X0123976Y0018230D01*
X0125519Y0018869D01*
X0126701Y0020051D01*
X0127340Y0021594D01*
X0127340Y0023265D01*
X0126701Y0024809D01*
X0125519Y0025991D01*
X0123976Y0026630D01*
X0117105Y0026630D01*
X0115561Y0025991D01*
X0114119Y0024179D02*
X0096962Y0024179D01*
X0097340Y0022581D02*
X0113740Y0022581D01*
X0113994Y0020982D02*
X0097087Y0020982D01*
X0096034Y0019384D02*
X0115047Y0019384D01*
X0117105Y0028230D02*
X0115561Y0028869D01*
X0114380Y0030051D01*
X0113740Y0031594D01*
X0113740Y0033265D01*
X0114380Y0034809D01*
X0115561Y0035991D01*
X0117105Y0036630D01*
X0123976Y0036630D01*
X0125519Y0035991D01*
X0126701Y0034809D01*
X0127340Y0033265D01*
X0127340Y0031594D01*
X0126701Y0030051D01*
X0125519Y0028869D01*
X0123976Y0028230D01*
X0117105Y0028230D01*
X0115456Y0028975D02*
X0095625Y0028975D01*
X0098967Y0030573D02*
X0114163Y0030573D01*
X0113740Y0032172D02*
X0100566Y0032172D01*
X0102164Y0033770D02*
X0113949Y0033770D01*
X0114939Y0035369D02*
X0103763Y0035369D01*
X0105361Y0036967D02*
X0150066Y0036967D01*
X0151537Y0035369D02*
X0126141Y0035369D01*
X0127131Y0033770D02*
X0153007Y0033770D01*
X0154478Y0032172D02*
X0127340Y0032172D01*
X0126917Y0030573D02*
X0155948Y0030573D01*
X0157419Y0028975D02*
X0125625Y0028975D01*
X0125732Y0025778D02*
X0160360Y0025778D01*
X0158889Y0027376D02*
X0064618Y0027376D01*
X0065883Y0028975D02*
X0063019Y0028975D01*
X0064285Y0030573D02*
X0061421Y0030573D01*
X0059822Y0032172D02*
X0064270Y0032172D01*
X0064270Y0032410D02*
X0064270Y0030588D01*
X0066848Y0028010D01*
X0068670Y0028010D01*
X0068670Y0032410D01*
X0068670Y0032410D01*
X0068670Y0028010D01*
X0070493Y0028010D01*
X0073070Y0030588D01*
X0073070Y0032410D01*
X0068670Y0032410D01*
X0064270Y0032410D01*
X0068670Y0032410D01*
X0068670Y0032410D01*
X0068670Y0032410D01*
X0073070Y0032410D01*
X0073070Y0034233D01*
X0070493Y0036810D01*
X0068670Y0036810D01*
X0066848Y0036810D01*
X0064270Y0034233D01*
X0064270Y0032410D01*
X0064270Y0033770D02*
X0058224Y0033770D01*
X0056625Y0035369D02*
X0065406Y0035369D01*
X0068670Y0035369D02*
X0068670Y0035369D01*
X0068670Y0036810D02*
X0068670Y0032410D01*
X0068670Y0032410D01*
X0068670Y0036810D01*
X0071934Y0035369D02*
X0075689Y0035369D01*
X0074470Y0034150D02*
X0074470Y0030671D01*
X0076930Y0028210D01*
X0080410Y0028210D01*
X0082870Y0030671D01*
X0082870Y0034150D01*
X0080410Y0036610D01*
X0076930Y0036610D01*
X0074470Y0034150D01*
X0074470Y0033770D02*
X0073070Y0033770D01*
X0073070Y0032172D02*
X0074470Y0032172D01*
X0074567Y0030573D02*
X0073056Y0030573D01*
X0071457Y0028975D02*
X0076166Y0028975D01*
X0081174Y0028975D02*
X0085456Y0028975D01*
X0084163Y0030573D02*
X0082773Y0030573D01*
X0082870Y0032172D02*
X0083740Y0032172D01*
X0083949Y0033770D02*
X0082870Y0033770D01*
X0081651Y0035369D02*
X0084939Y0035369D01*
X0086294Y0038566D02*
X0053428Y0038566D01*
X0051830Y0040164D02*
X0084333Y0040164D01*
X0084380Y0040051D02*
X0085561Y0038869D01*
X0087105Y0038230D01*
X0093976Y0038230D01*
X0095519Y0038869D01*
X0096701Y0040051D01*
X0097340Y0041594D01*
X0097340Y0043265D01*
X0096701Y0044809D01*
X0095519Y0045991D01*
X0093976Y0046630D01*
X0087105Y0046630D01*
X0085561Y0045991D01*
X0084380Y0044809D01*
X0083740Y0043265D01*
X0083740Y0041594D01*
X0084380Y0040051D01*
X0083740Y0041763D02*
X0051700Y0041763D01*
X0051700Y0043361D02*
X0083780Y0043361D01*
X0084530Y0044960D02*
X0051700Y0044960D01*
X0051700Y0046558D02*
X0086932Y0046558D01*
X0087105Y0048230D02*
X0085561Y0048869D01*
X0084380Y0050051D01*
X0083740Y0051594D01*
X0083740Y0053265D01*
X0084380Y0054809D01*
X0085561Y0055991D01*
X0087105Y0056630D01*
X0093976Y0056630D01*
X0095519Y0055991D01*
X0096701Y0054809D01*
X0097340Y0053265D01*
X0097340Y0051594D01*
X0096701Y0050051D01*
X0095519Y0048869D01*
X0093976Y0048230D01*
X0087105Y0048230D01*
X0084675Y0049755D02*
X0051700Y0049755D01*
X0051700Y0048157D02*
X0104400Y0048157D01*
X0104400Y0049755D02*
X0096405Y0049755D01*
X0097240Y0051354D02*
X0104400Y0051354D01*
X0104400Y0052952D02*
X0097340Y0052952D01*
X0096808Y0054551D02*
X0104400Y0054551D01*
X0104400Y0056149D02*
X0095136Y0056149D01*
X0093976Y0058230D02*
X0095519Y0058869D01*
X0096701Y0060051D01*
X0097340Y0061594D01*
X0097340Y0063265D01*
X0096701Y0064809D01*
X0095519Y0065991D01*
X0093976Y0066630D01*
X0087105Y0066630D01*
X0085561Y0065991D01*
X0084380Y0064809D01*
X0083740Y0063265D01*
X0083740Y0061594D01*
X0084380Y0060051D01*
X0085561Y0058869D01*
X0087105Y0058230D01*
X0093976Y0058230D01*
X0095996Y0059346D02*
X0104400Y0059346D01*
X0104400Y0057748D02*
X0065254Y0057748D01*
X0065072Y0057672D02*
X0066534Y0058278D01*
X0067653Y0059397D01*
X0068258Y0060859D01*
X0068258Y0062442D01*
X0067653Y0063904D01*
X0066534Y0065023D01*
X0065072Y0065628D01*
X0063489Y0065628D01*
X0062027Y0065023D01*
X0060908Y0063904D01*
X0060302Y0062442D01*
X0060302Y0060859D01*
X0060908Y0059397D01*
X0062027Y0058278D01*
X0063489Y0057672D01*
X0065072Y0057672D01*
X0063307Y0057748D02*
X0051700Y0057748D01*
X0051700Y0059346D02*
X0060959Y0059346D01*
X0060302Y0060945D02*
X0051700Y0060945D01*
X0051700Y0062543D02*
X0060345Y0062543D01*
X0061146Y0064142D02*
X0051700Y0064142D01*
X0051700Y0065740D02*
X0085311Y0065740D01*
X0084103Y0064142D02*
X0067414Y0064142D01*
X0068216Y0062543D02*
X0083740Y0062543D01*
X0084009Y0060945D02*
X0068258Y0060945D01*
X0067602Y0059346D02*
X0085084Y0059346D01*
X0085945Y0056149D02*
X0051700Y0056149D01*
X0051700Y0054551D02*
X0084273Y0054551D01*
X0083740Y0052952D02*
X0051700Y0052952D01*
X0051700Y0051354D02*
X0083840Y0051354D01*
X0094148Y0046558D02*
X0104400Y0046558D01*
X0104400Y0044960D02*
X0096550Y0044960D01*
X0097300Y0043361D02*
X0104400Y0043361D01*
X0103369Y0041763D02*
X0097340Y0041763D01*
X0096748Y0040164D02*
X0101770Y0040164D01*
X0100172Y0038566D02*
X0094786Y0038566D01*
X0096141Y0035369D02*
X0096975Y0035369D01*
X0098573Y0036967D02*
X0055027Y0036967D01*
X0049300Y0039300D02*
X0049300Y0144300D01*
X0031800Y0161800D01*
X0031800Y0173296D01*
X0032154Y0173650D01*
X0028658Y0171242D02*
X0006600Y0171242D01*
X0006600Y0169644D02*
X0029400Y0169644D01*
X0029400Y0168045D02*
X0021382Y0168045D01*
X0022941Y0166447D02*
X0029400Y0166447D01*
X0029400Y0164848D02*
X0023603Y0164848D01*
X0024010Y0163250D02*
X0029400Y0163250D01*
X0029400Y0161651D02*
X0024010Y0161651D01*
X0023620Y0160053D02*
X0030153Y0160053D01*
X0031752Y0158454D02*
X0022957Y0158454D01*
X0021422Y0156856D02*
X0033350Y0156856D01*
X0034932Y0155257D02*
X0034949Y0155257D01*
X0036531Y0153659D02*
X0036547Y0153659D01*
X0036650Y0152060D02*
X0038146Y0152060D01*
X0036650Y0150462D02*
X0039744Y0150462D01*
X0041343Y0148863D02*
X0037158Y0148863D01*
X0038173Y0147265D02*
X0042941Y0147265D01*
X0044540Y0145666D02*
X0039111Y0145666D01*
X0039200Y0144068D02*
X0046138Y0144068D01*
X0046900Y0142469D02*
X0039200Y0142469D01*
X0039200Y0140870D02*
X0046900Y0140870D01*
X0046900Y0139272D02*
X0039200Y0139272D01*
X0039200Y0137673D02*
X0046900Y0137673D01*
X0046900Y0136075D02*
X0039200Y0136075D01*
X0040063Y0134476D02*
X0046900Y0134476D01*
X0046900Y0132878D02*
X0041000Y0132878D01*
X0041000Y0131279D02*
X0046900Y0131279D01*
X0046900Y0129681D02*
X0040621Y0129681D01*
X0039022Y0128082D02*
X0046900Y0128082D01*
X0046900Y0126484D02*
X0034878Y0126484D01*
X0033279Y0124885D02*
X0046900Y0124885D01*
X0046900Y0123287D02*
X0031681Y0123287D01*
X0030082Y0121688D02*
X0046900Y0121688D01*
X0046900Y0120090D02*
X0029200Y0120090D01*
X0029200Y0118491D02*
X0046900Y0118491D01*
X0046900Y0116893D02*
X0029200Y0116893D01*
X0029200Y0115294D02*
X0046900Y0115294D01*
X0046900Y0113696D02*
X0029200Y0113696D01*
X0029200Y0112097D02*
X0046900Y0112097D01*
X0046900Y0110499D02*
X0029200Y0110499D01*
X0029200Y0108900D02*
X0046900Y0108900D01*
X0046900Y0107302D02*
X0029200Y0107302D01*
X0029200Y0105703D02*
X0046900Y0105703D01*
X0046900Y0104105D02*
X0029200Y0104105D01*
X0029200Y0102506D02*
X0046900Y0102506D01*
X0046900Y0100908D02*
X0029200Y0100908D01*
X0029200Y0099309D02*
X0046900Y0099309D01*
X0046900Y0097711D02*
X0029200Y0097711D01*
X0026800Y0084300D02*
X0026800Y0121800D01*
X0036800Y0131800D01*
X0036800Y0144950D01*
X0032450Y0151800D01*
X0029967Y0155257D02*
X0018324Y0155257D01*
X0034200Y0163250D02*
X0047035Y0163250D01*
X0045436Y0164848D02*
X0034200Y0164848D01*
X0034200Y0166447D02*
X0035199Y0166447D01*
X0036879Y0166447D02*
X0036879Y0166447D01*
X0036879Y0166126D02*
X0036879Y0170501D01*
X0036879Y0170501D01*
X0036879Y0166126D01*
X0038558Y0166447D02*
X0043838Y0166447D01*
X0042239Y0168045D02*
X0040502Y0168045D01*
X0036879Y0168045D02*
X0036879Y0168045D01*
X0036879Y0169644D02*
X0036879Y0169644D01*
X0042634Y0174439D02*
X0135719Y0174439D01*
X0136028Y0172841D02*
X0115722Y0172841D01*
X0115493Y0173070D02*
X0113670Y0173070D01*
X0111848Y0173070D01*
X0109270Y0170493D01*
X0109270Y0168670D01*
X0109270Y0166848D01*
X0111848Y0164270D01*
X0113670Y0164270D01*
X0113670Y0168670D01*
X0109270Y0168670D01*
X0113670Y0168670D01*
X0113670Y0168670D01*
X0113670Y0168670D01*
X0113670Y0164270D01*
X0115493Y0164270D01*
X0118070Y0166848D01*
X0118070Y0168670D01*
X0113670Y0168670D01*
X0113670Y0173070D01*
X0113670Y0168670D01*
X0113670Y0168670D01*
X0113670Y0168670D01*
X0118070Y0168670D01*
X0118070Y0170493D01*
X0115493Y0173070D01*
X0113670Y0172841D02*
X0113670Y0172841D01*
X0113670Y0171242D02*
X0113670Y0171242D01*
X0113670Y0169644D02*
X0113670Y0169644D01*
X0113670Y0168045D02*
X0113670Y0168045D01*
X0113670Y0166447D02*
X0113670Y0166447D01*
X0113670Y0164848D02*
X0113670Y0164848D01*
X0111269Y0164848D02*
X0052225Y0164848D01*
X0053823Y0163250D02*
X0136900Y0163250D01*
X0136900Y0164848D02*
X0116071Y0164848D01*
X0117669Y0166447D02*
X0136900Y0166447D01*
X0136900Y0168045D02*
X0118070Y0168045D01*
X0118070Y0169644D02*
X0136900Y0169644D01*
X0136900Y0171242D02*
X0117320Y0171242D01*
X0116977Y0176038D02*
X0136144Y0176038D01*
X0139300Y0174300D02*
X0139300Y0159280D01*
X0138650Y0159280D01*
X0131800Y0152430D01*
X0131800Y0151800D01*
X0131800Y0152430D02*
X0120540Y0152430D01*
X0125504Y0148863D02*
X0128797Y0148863D01*
X0129977Y0146200D02*
X0127400Y0143623D01*
X0127400Y0143558D01*
X0127218Y0144119D01*
X0126903Y0144736D01*
X0126496Y0145296D01*
X0126007Y0145786D01*
X0125446Y0146193D01*
X0124829Y0146508D01*
X0124170Y0146722D01*
X0123486Y0146830D01*
X0120540Y0146830D01*
X0117594Y0146830D01*
X0116910Y0146722D01*
X0116251Y0146508D01*
X0115634Y0146193D01*
X0115074Y0145786D01*
X0114584Y0145296D01*
X0114177Y0144736D01*
X0113863Y0144119D01*
X0113648Y0143460D01*
X0113540Y0142776D01*
X0113540Y0142430D01*
X0120540Y0142430D01*
X0120540Y0142430D01*
X0120540Y0146830D01*
X0120540Y0142430D01*
X0120540Y0142430D01*
X0113540Y0142430D01*
X0113540Y0142084D01*
X0113648Y0141400D01*
X0113863Y0140741D01*
X0114177Y0140124D01*
X0114584Y0139564D01*
X0115074Y0139074D01*
X0115634Y0138667D01*
X0116251Y0138352D01*
X0116910Y0138138D01*
X0117594Y0138030D01*
X0120540Y0138030D01*
X0120540Y0142430D01*
X0120540Y0142430D01*
X0120540Y0138030D01*
X0123486Y0138030D01*
X0124170Y0138138D01*
X0124829Y0138352D01*
X0125446Y0138667D01*
X0126007Y0139074D01*
X0126496Y0139564D01*
X0126903Y0140124D01*
X0127218Y0140741D01*
X0127400Y0141302D01*
X0127400Y0139977D01*
X0129977Y0137400D01*
X0131800Y0137400D01*
X0133623Y0137400D01*
X0136200Y0139977D01*
X0136200Y0141800D01*
X0136200Y0143623D01*
X0133623Y0146200D01*
X0131800Y0146200D01*
X0131800Y0141800D01*
X0131800Y0141800D01*
X0136200Y0141800D01*
X0131800Y0141800D01*
X0131800Y0141800D01*
X0131800Y0146200D01*
X0129977Y0146200D01*
X0129443Y0145666D02*
X0126127Y0145666D01*
X0127235Y0144068D02*
X0127845Y0144068D01*
X0127400Y0140870D02*
X0127260Y0140870D01*
X0128105Y0139272D02*
X0126205Y0139272D01*
X0125519Y0135991D02*
X0123976Y0136630D01*
X0117105Y0136630D01*
X0115561Y0135991D01*
X0114380Y0134809D01*
X0113740Y0133265D01*
X0113740Y0131594D01*
X0114380Y0130051D01*
X0115561Y0128869D01*
X0117105Y0128230D01*
X0123976Y0128230D01*
X0125519Y0128869D01*
X0126701Y0130051D01*
X0127340Y0131594D01*
X0127340Y0133265D01*
X0126701Y0134809D01*
X0125519Y0135991D01*
X0125315Y0136075D02*
X0136900Y0136075D01*
X0136900Y0137673D02*
X0133896Y0137673D01*
X0131800Y0137673D02*
X0131800Y0137673D01*
X0131800Y0137400D02*
X0131800Y0141800D01*
X0131800Y0141800D01*
X0131800Y0137400D01*
X0131800Y0139272D02*
X0131800Y0139272D01*
X0131800Y0140870D02*
X0131800Y0140870D01*
X0131800Y0142469D02*
X0131800Y0142469D01*
X0131800Y0144068D02*
X0131800Y0144068D01*
X0131800Y0145666D02*
X0131800Y0145666D01*
X0134156Y0145666D02*
X0136900Y0145666D01*
X0136900Y0144068D02*
X0135755Y0144068D01*
X0136200Y0142469D02*
X0136900Y0142469D01*
X0136900Y0140870D02*
X0136200Y0140870D01*
X0136900Y0139272D02*
X0135495Y0139272D01*
X0136900Y0134476D02*
X0126839Y0134476D01*
X0127340Y0132878D02*
X0136900Y0132878D01*
X0136900Y0131279D02*
X0127210Y0131279D01*
X0126331Y0129681D02*
X0136900Y0129681D01*
X0136900Y0128082D02*
X0076700Y0128082D01*
X0076700Y0126484D02*
X0086752Y0126484D01*
X0087105Y0126630D02*
X0085561Y0125991D01*
X0084380Y0124809D01*
X0083740Y0123265D01*
X0083740Y0121594D01*
X0084380Y0120051D01*
X0085561Y0118869D01*
X0087105Y0118230D01*
X0093976Y0118230D01*
X0095519Y0118869D01*
X0096701Y0120051D01*
X0097340Y0121594D01*
X0097340Y0123265D01*
X0096701Y0124809D01*
X0095519Y0125991D01*
X0093976Y0126630D01*
X0087105Y0126630D01*
X0087105Y0128230D02*
X0093976Y0128230D01*
X0095519Y0128869D01*
X0096701Y0130051D01*
X0097340Y0131594D01*
X0097340Y0133265D01*
X0096701Y0134809D01*
X0095519Y0135991D01*
X0093976Y0136630D01*
X0087105Y0136630D01*
X0085561Y0135991D01*
X0084380Y0134809D01*
X0083740Y0133265D01*
X0083740Y0131594D01*
X0084380Y0130051D01*
X0085561Y0128869D01*
X0087105Y0128230D01*
X0084749Y0129681D02*
X0076700Y0129681D01*
X0076700Y0131279D02*
X0083871Y0131279D01*
X0083740Y0132878D02*
X0076700Y0132878D01*
X0076700Y0134476D02*
X0084242Y0134476D01*
X0085765Y0136075D02*
X0076700Y0136075D01*
X0076700Y0137673D02*
X0129704Y0137673D01*
X0120540Y0139272D02*
X0120540Y0139272D01*
X0120540Y0140870D02*
X0120540Y0140870D01*
X0120540Y0142469D02*
X0120540Y0142469D01*
X0120540Y0144068D02*
X0120540Y0144068D01*
X0120540Y0145666D02*
X0120540Y0145666D01*
X0114954Y0145666D02*
X0095844Y0145666D01*
X0095519Y0145991D02*
X0093976Y0146630D01*
X0087105Y0146630D01*
X0085561Y0145991D01*
X0084380Y0144809D01*
X0083740Y0143265D01*
X0083740Y0141594D01*
X0084380Y0140051D01*
X0085561Y0138869D01*
X0087105Y0138230D01*
X0093976Y0138230D01*
X0095519Y0138869D01*
X0096701Y0140051D01*
X0097340Y0141594D01*
X0097340Y0143265D01*
X0096701Y0144809D01*
X0095519Y0145991D01*
X0097008Y0144068D02*
X0113846Y0144068D01*
X0113540Y0142469D02*
X0097340Y0142469D01*
X0097040Y0140870D02*
X0113820Y0140870D01*
X0114876Y0139272D02*
X0095922Y0139272D01*
X0095315Y0136075D02*
X0115765Y0136075D01*
X0114242Y0134476D02*
X0096839Y0134476D01*
X0097340Y0132878D02*
X0113740Y0132878D01*
X0113871Y0131279D02*
X0097210Y0131279D01*
X0096331Y0129681D02*
X0114749Y0129681D01*
X0116752Y0126484D02*
X0094328Y0126484D01*
X0096624Y0124885D02*
X0114456Y0124885D01*
X0114380Y0124809D02*
X0115561Y0125991D01*
X0117105Y0126630D01*
X0123976Y0126630D01*
X0125519Y0125991D01*
X0126701Y0124809D01*
X0127340Y0123265D01*
X0127340Y0121594D01*
X0126701Y0120051D01*
X0125519Y0118869D01*
X0123976Y0118230D01*
X0117105Y0118230D01*
X0115561Y0118869D01*
X0114380Y0120051D01*
X0113740Y0121594D01*
X0113740Y0123265D01*
X0114380Y0124809D01*
X0113749Y0123287D02*
X0097331Y0123287D01*
X0097340Y0121688D02*
X0113740Y0121688D01*
X0114363Y0120090D02*
X0096717Y0120090D01*
X0094607Y0118491D02*
X0116474Y0118491D01*
X0114865Y0115294D02*
X0096215Y0115294D01*
X0097162Y0113696D02*
X0113918Y0113696D01*
X0113740Y0112097D02*
X0097340Y0112097D01*
X0096886Y0110499D02*
X0114194Y0110499D01*
X0115530Y0108900D02*
X0107264Y0108900D01*
X0107881Y0107302D02*
X0122018Y0107302D01*
X0120540Y0102430D02*
X0139300Y0121190D01*
X0139300Y0159280D01*
X0141700Y0160053D02*
X0141900Y0160053D01*
X0141900Y0161651D02*
X0141700Y0161651D01*
X0141700Y0163250D02*
X0141900Y0163250D01*
X0141900Y0164848D02*
X0141700Y0164848D01*
X0141700Y0166447D02*
X0141900Y0166447D01*
X0144300Y0169300D02*
X0144300Y0046780D01*
X0173020Y0015560D01*
X0176354Y0012990D02*
X0189480Y0012990D01*
X0188745Y0014588D02*
X0177137Y0014588D01*
X0177195Y0016187D02*
X0188690Y0016187D01*
X0189244Y0017785D02*
X0176618Y0017785D01*
X0174698Y0019384D02*
X0190889Y0019384D01*
X0193020Y0019384D02*
X0193021Y0019384D01*
X0193020Y0017785D02*
X0193021Y0017785D01*
X0193020Y0016187D02*
X0193021Y0016187D01*
X0193020Y0014588D02*
X0193021Y0014588D01*
X0193020Y0012990D02*
X0193021Y0012990D01*
X0193020Y0011391D02*
X0193021Y0011391D01*
X0191693Y0011391D02*
X0173865Y0011391D01*
X0172175Y0011391D02*
X0164997Y0011391D01*
X0164695Y0011293D02*
X0165349Y0011506D01*
X0165963Y0011818D01*
X0166520Y0012223D01*
X0167007Y0012710D01*
X0167412Y0013267D01*
X0167724Y0013880D01*
X0167937Y0014535D01*
X0168045Y0015216D01*
X0168045Y0015560D01*
X0168045Y0015904D01*
X0167937Y0016584D01*
X0167724Y0017239D01*
X0167412Y0017853D01*
X0167007Y0018410D01*
X0166520Y0018897D01*
X0165963Y0019302D01*
X0165349Y0019614D01*
X0164695Y0019827D01*
X0164014Y0019935D01*
X0163670Y0019935D01*
X0163326Y0019935D01*
X0162646Y0019827D01*
X0161991Y0019614D01*
X0161377Y0019302D01*
X0160820Y0018897D01*
X0160333Y0018410D01*
X0159928Y0017853D01*
X0159616Y0017239D01*
X0159403Y0016584D01*
X0159295Y0015904D01*
X0159295Y0015560D01*
X0163670Y0015560D01*
X0163670Y0019935D01*
X0163670Y0015560D01*
X0163670Y0015560D01*
X0163670Y0015560D01*
X0168045Y0015560D01*
X0163670Y0015560D01*
X0163670Y0015560D01*
X0159295Y0015560D01*
X0159295Y0015216D01*
X0159403Y0014535D01*
X0159616Y0013880D01*
X0159928Y0013267D01*
X0160333Y0012710D01*
X0160820Y0012223D01*
X0161377Y0011818D01*
X0161991Y0011506D01*
X0162646Y0011293D01*
X0163326Y0011185D01*
X0163670Y0011185D01*
X0163670Y0015560D01*
X0163670Y0015560D01*
X0163670Y0011185D01*
X0164014Y0011185D01*
X0164695Y0011293D01*
X0163670Y0011391D02*
X0163670Y0011391D01*
X0162343Y0011391D02*
X0144515Y0011391D01*
X0144500Y0011385D02*
X0146035Y0012021D01*
X0147209Y0013195D01*
X0147845Y0014729D01*
X0147845Y0016390D01*
X0147209Y0017925D01*
X0146035Y0019099D01*
X0144500Y0019735D01*
X0142840Y0019735D01*
X0141305Y0019099D01*
X0140131Y0017925D01*
X0139495Y0016390D01*
X0139495Y0014729D01*
X0140131Y0013195D01*
X0141305Y0012021D01*
X0142840Y0011385D01*
X0144500Y0011385D01*
X0142825Y0011391D02*
X0006600Y0011391D01*
X0006600Y0009793D02*
X0193850Y0009793D01*
X0193850Y0008194D02*
X0006600Y0008194D01*
X0006600Y0012990D02*
X0140336Y0012990D01*
X0139554Y0014588D02*
X0006600Y0014588D01*
X0006600Y0016187D02*
X0033856Y0016187D01*
X0036111Y0019871D02*
X0028729Y0019871D01*
X0021800Y0026800D01*
X0021800Y0071800D01*
X0006800Y0086800D01*
X0012100Y0076930D02*
X0013276Y0076930D01*
X0011928Y0075332D02*
X0014874Y0075332D01*
X0016473Y0073733D02*
X0011228Y0073733D01*
X0009386Y0072134D02*
X0018071Y0072134D01*
X0019400Y0070536D02*
X0010842Y0070536D01*
X0011884Y0068937D02*
X0019400Y0068937D01*
X0019400Y0067339D02*
X0012283Y0067339D01*
X0012300Y0066600D02*
X0007000Y0066600D01*
X0007000Y0061300D01*
X0007233Y0061300D01*
X0008088Y0061435D01*
X0008911Y0061703D01*
X0009683Y0062096D01*
X0010383Y0062605D01*
X0010995Y0063217D01*
X0011504Y0063917D01*
X0011897Y0064689D01*
X0012165Y0065512D01*
X0012300Y0066367D01*
X0012300Y0066600D01*
X0012201Y0065740D02*
X0019400Y0065740D01*
X0019400Y0064142D02*
X0011618Y0064142D01*
X0010298Y0062543D02*
X0019400Y0062543D01*
X0019400Y0060945D02*
X0006600Y0060945D01*
X0006600Y0062543D02*
X0007000Y0062543D01*
X0007000Y0064142D02*
X0006600Y0064142D01*
X0006600Y0065740D02*
X0007000Y0065740D01*
X0006600Y0059346D02*
X0019400Y0059346D01*
X0019400Y0057748D02*
X0006600Y0057748D01*
X0006600Y0056149D02*
X0019400Y0056149D01*
X0019400Y0054551D02*
X0006600Y0054551D01*
X0006600Y0052952D02*
X0019400Y0052952D01*
X0019400Y0051354D02*
X0006600Y0051354D01*
X0006600Y0049755D02*
X0019400Y0049755D01*
X0019400Y0048157D02*
X0006600Y0048157D01*
X0006600Y0046558D02*
X0019400Y0046558D01*
X0019400Y0044960D02*
X0006600Y0044960D01*
X0006600Y0043361D02*
X0019400Y0043361D01*
X0019400Y0041763D02*
X0006600Y0041763D01*
X0006600Y0040164D02*
X0019400Y0040164D01*
X0019400Y0038566D02*
X0006600Y0038566D01*
X0006600Y0036967D02*
X0019400Y0036967D01*
X0019400Y0035369D02*
X0006600Y0035369D01*
X0006600Y0033770D02*
X0019400Y0033770D01*
X0019400Y0032172D02*
X0006600Y0032172D01*
X0006600Y0030573D02*
X0019400Y0030573D01*
X0019400Y0028975D02*
X0006600Y0028975D01*
X0006600Y0027376D02*
X0019400Y0027376D01*
X0019626Y0025778D02*
X0006600Y0025778D01*
X0006600Y0024179D02*
X0021027Y0024179D01*
X0022625Y0022581D02*
X0006600Y0022581D01*
X0006600Y0020982D02*
X0024224Y0020982D01*
X0025822Y0019384D02*
X0006600Y0019384D01*
X0006600Y0017785D02*
X0027493Y0017785D01*
X0038366Y0016187D02*
X0139495Y0016187D01*
X0140073Y0017785D02*
X0039965Y0017785D01*
X0040311Y0019384D02*
X0085047Y0019384D01*
X0085348Y0025778D02*
X0066216Y0025778D01*
X0062625Y0022581D02*
X0039341Y0022581D01*
X0040311Y0020982D02*
X0064224Y0020982D01*
X0068670Y0028975D02*
X0068670Y0028975D01*
X0068670Y0030573D02*
X0068670Y0030573D01*
X0068670Y0032172D02*
X0068670Y0032172D01*
X0068670Y0033770D02*
X0068670Y0033770D01*
X0090540Y0032430D02*
X0097430Y0032430D01*
X0106800Y0041800D01*
X0106800Y0088690D01*
X0120540Y0102430D01*
X0125959Y0099309D02*
X0141900Y0099309D01*
X0141900Y0097711D02*
X0119215Y0097711D01*
X0114025Y0099309D02*
X0101855Y0099309D01*
X0102799Y0097711D02*
X0112427Y0097711D01*
X0110828Y0096112D02*
X0102881Y0096112D01*
X0102078Y0094514D02*
X0109230Y0094514D01*
X0107631Y0092915D02*
X0097340Y0092915D01*
X0097225Y0091317D02*
X0106033Y0091317D01*
X0104628Y0089718D02*
X0096368Y0089718D01*
X0094829Y0086508D02*
X0094170Y0086722D01*
X0093486Y0086830D01*
X0090540Y0086830D01*
X0087594Y0086830D01*
X0086910Y0086722D01*
X0086251Y0086508D01*
X0085634Y0086193D01*
X0085074Y0085786D01*
X0084584Y0085296D01*
X0084177Y0084736D01*
X0083863Y0084119D01*
X0083648Y0083460D01*
X0083540Y0082776D01*
X0083540Y0082430D01*
X0090540Y0082430D01*
X0090540Y0082430D01*
X0090540Y0086830D01*
X0090540Y0082430D01*
X0090540Y0082430D01*
X0083540Y0082430D01*
X0083540Y0082084D01*
X0083648Y0081400D01*
X0083863Y0080741D01*
X0084177Y0080124D01*
X0084584Y0079564D01*
X0085074Y0079074D01*
X0085634Y0078667D01*
X0086251Y0078352D01*
X0086910Y0078138D01*
X0087594Y0078030D01*
X0090540Y0078030D01*
X0090540Y0082430D01*
X0090540Y0082430D01*
X0097540Y0082430D01*
X0097540Y0082776D01*
X0097432Y0083460D01*
X0097218Y0084119D01*
X0096903Y0084736D01*
X0096496Y0085296D01*
X0096007Y0085786D01*
X0095446Y0086193D01*
X0094829Y0086508D01*
X0094787Y0086521D02*
X0104400Y0086521D01*
X0104400Y0084923D02*
X0096768Y0084923D01*
X0097453Y0083324D02*
X0104400Y0083324D01*
X0104400Y0081726D02*
X0097483Y0081726D01*
X0097432Y0081400D02*
X0097540Y0082084D01*
X0097540Y0082430D01*
X0090540Y0082430D01*
X0090540Y0082430D01*
X0090540Y0078030D01*
X0093486Y0078030D01*
X0094170Y0078138D01*
X0094829Y0078352D01*
X0095446Y0078667D01*
X0096007Y0079074D01*
X0096496Y0079564D01*
X0096903Y0080124D01*
X0097218Y0080741D01*
X0097432Y0081400D01*
X0096905Y0080127D02*
X0104400Y0080127D01*
X0104400Y0078529D02*
X0095175Y0078529D01*
X0093976Y0076630D02*
X0095519Y0075991D01*
X0096701Y0074809D01*
X0097340Y0073265D01*
X0097340Y0071594D01*
X0096701Y0070051D01*
X0095519Y0068869D01*
X0093976Y0068230D01*
X0087105Y0068230D01*
X0085561Y0068869D01*
X0084380Y0070051D01*
X0083740Y0071594D01*
X0083740Y0073265D01*
X0084380Y0074809D01*
X0085561Y0075991D01*
X0087105Y0076630D01*
X0093976Y0076630D01*
X0096178Y0075332D02*
X0104400Y0075332D01*
X0104400Y0076930D02*
X0065693Y0076930D01*
X0065072Y0076672D02*
X0066534Y0077278D01*
X0067653Y0078397D01*
X0068258Y0079859D01*
X0068258Y0081442D01*
X0067653Y0082904D01*
X0066534Y0084023D01*
X0065072Y0084628D01*
X0063489Y0084628D01*
X0062027Y0084023D01*
X0060908Y0082904D01*
X0060302Y0081442D01*
X0060302Y0079859D01*
X0060908Y0078397D01*
X0062027Y0077278D01*
X0063489Y0076672D01*
X0065072Y0076672D01*
X0064609Y0075222D02*
X0064280Y0075222D01*
X0063951Y0075222D01*
X0063302Y0075119D01*
X0062677Y0074916D01*
X0062091Y0074617D01*
X0061559Y0074231D01*
X0061094Y0073766D01*
X0060707Y0073234D01*
X0060408Y0072648D01*
X0060205Y0072022D01*
X0060102Y0071373D01*
X0060102Y0071044D01*
X0060102Y0070715D01*
X0060205Y0070066D01*
X0060408Y0069440D01*
X0060707Y0068854D01*
X0061094Y0068322D01*
X0061559Y0067857D01*
X0062091Y0067471D01*
X0062677Y0067172D01*
X0063302Y0066969D01*
X0063951Y0066866D01*
X0064280Y0066866D01*
X0064280Y0071044D01*
X0060102Y0071044D01*
X0064280Y0071044D01*
X0064280Y0071044D01*
X0064280Y0071044D01*
X0064280Y0075222D01*
X0064280Y0071044D01*
X0064280Y0071044D01*
X0064280Y0066866D01*
X0064609Y0066866D01*
X0065259Y0066969D01*
X0065884Y0067172D01*
X0066470Y0067471D01*
X0067002Y0067857D01*
X0067467Y0068322D01*
X0067854Y0068854D01*
X0068152Y0069440D01*
X0068355Y0070066D01*
X0068458Y0070715D01*
X0068458Y0071044D01*
X0064280Y0071044D01*
X0064280Y0071044D01*
X0068458Y0071044D01*
X0068458Y0071373D01*
X0068355Y0072022D01*
X0068152Y0072648D01*
X0067854Y0073234D01*
X0067467Y0073766D01*
X0067002Y0074231D01*
X0066470Y0074617D01*
X0065884Y0074916D01*
X0065259Y0075119D01*
X0064609Y0075222D01*
X0064280Y0073733D02*
X0064280Y0073733D01*
X0064280Y0072134D02*
X0064280Y0072134D01*
X0064280Y0070536D02*
X0064280Y0070536D01*
X0064280Y0068937D02*
X0064280Y0068937D01*
X0064280Y0067339D02*
X0064280Y0067339D01*
X0062349Y0067339D02*
X0051700Y0067339D01*
X0051700Y0068937D02*
X0060665Y0068937D01*
X0060131Y0070536D02*
X0051700Y0070536D01*
X0051700Y0072134D02*
X0060242Y0072134D01*
X0061070Y0073733D02*
X0051700Y0073733D01*
X0051700Y0075332D02*
X0084902Y0075332D01*
X0083934Y0073733D02*
X0067491Y0073733D01*
X0068319Y0072134D02*
X0083740Y0072134D01*
X0084179Y0070536D02*
X0068430Y0070536D01*
X0067896Y0068937D02*
X0085493Y0068937D01*
X0085905Y0078529D02*
X0067707Y0078529D01*
X0068258Y0080127D02*
X0084175Y0080127D01*
X0083597Y0081726D02*
X0068141Y0081726D01*
X0067232Y0083324D02*
X0083627Y0083324D01*
X0084313Y0084923D02*
X0051700Y0084923D01*
X0051700Y0086521D02*
X0086293Y0086521D01*
X0084712Y0089718D02*
X0051700Y0089718D01*
X0051700Y0088120D02*
X0104400Y0088120D01*
X0109200Y0086521D02*
X0116842Y0086521D01*
X0117105Y0086630D02*
X0115561Y0085991D01*
X0114380Y0084809D01*
X0113740Y0083265D01*
X0113740Y0081594D01*
X0114380Y0080051D01*
X0115561Y0078869D01*
X0117105Y0078230D01*
X0123976Y0078230D01*
X0125519Y0078869D01*
X0126701Y0080051D01*
X0127340Y0081594D01*
X0127340Y0083265D01*
X0126701Y0084809D01*
X0125519Y0085991D01*
X0123976Y0086630D01*
X0117105Y0086630D01*
X0114493Y0084923D02*
X0109200Y0084923D01*
X0109200Y0083324D02*
X0113764Y0083324D01*
X0113740Y0081726D02*
X0109200Y0081726D01*
X0109200Y0080127D02*
X0114348Y0080127D01*
X0116384Y0078529D02*
X0109200Y0078529D01*
X0109200Y0076930D02*
X0141900Y0076930D01*
X0141900Y0075332D02*
X0139208Y0075332D01*
X0140370Y0074170D02*
X0137910Y0076630D01*
X0134430Y0076630D01*
X0131970Y0074170D01*
X0131970Y0070690D01*
X0134430Y0068230D01*
X0137910Y0068230D01*
X0140370Y0070690D01*
X0140370Y0074170D01*
X0140370Y0073733D02*
X0141900Y0073733D01*
X0141900Y0072134D02*
X0140370Y0072134D01*
X0140216Y0070536D02*
X0141900Y0070536D01*
X0141900Y0068937D02*
X0138617Y0068937D01*
X0137993Y0066830D02*
X0136170Y0066830D01*
X0134348Y0066830D01*
X0131770Y0064252D01*
X0131770Y0062430D01*
X0136170Y0062430D01*
X0136170Y0066830D01*
X0136170Y0062430D01*
X0136170Y0062430D01*
X0136170Y0062430D01*
X0131770Y0062430D01*
X0131770Y0060607D01*
X0134348Y0058030D01*
X0136170Y0058030D01*
X0136170Y0062430D01*
X0140570Y0062430D01*
X0140570Y0064252D01*
X0137993Y0066830D01*
X0139082Y0065740D02*
X0141900Y0065740D01*
X0141900Y0064142D02*
X0140570Y0064142D01*
X0140570Y0062543D02*
X0141900Y0062543D01*
X0140570Y0062430D02*
X0136170Y0062430D01*
X0136170Y0062430D01*
X0136170Y0062430D01*
X0136170Y0058030D01*
X0137993Y0058030D01*
X0140570Y0060607D01*
X0140570Y0062430D01*
X0140570Y0060945D02*
X0141900Y0060945D01*
X0141900Y0059346D02*
X0139309Y0059346D01*
X0141900Y0057748D02*
X0109200Y0057748D01*
X0109200Y0059346D02*
X0114801Y0059346D01*
X0114584Y0059564D02*
X0115074Y0059074D01*
X0115634Y0058667D01*
X0116251Y0058352D01*
X0116910Y0058138D01*
X0117594Y0058030D01*
X0120540Y0058030D01*
X0120540Y0062430D01*
X0120540Y0062430D01*
X0113540Y0062430D01*
X0113540Y0062776D01*
X0113648Y0063460D01*
X0113863Y0064119D01*
X0114177Y0064736D01*
X0114584Y0065296D01*
X0115074Y0065786D01*
X0115634Y0066193D01*
X0116251Y0066508D01*
X0116910Y0066722D01*
X0117594Y0066830D01*
X0120540Y0066830D01*
X0120540Y0062430D01*
X0120540Y0062430D01*
X0113540Y0062430D01*
X0113540Y0062084D01*
X0113648Y0061400D01*
X0113863Y0060741D01*
X0114177Y0060124D01*
X0114584Y0059564D01*
X0113796Y0060945D02*
X0109200Y0060945D01*
X0109200Y0062543D02*
X0113540Y0062543D01*
X0113874Y0064142D02*
X0109200Y0064142D01*
X0109200Y0065740D02*
X0115028Y0065740D01*
X0115561Y0068869D02*
X0114380Y0070051D01*
X0113740Y0071594D01*
X0113740Y0073265D01*
X0114380Y0074809D01*
X0115561Y0075991D01*
X0117105Y0076630D01*
X0123976Y0076630D01*
X0125519Y0075991D01*
X0126701Y0074809D01*
X0127340Y0073265D01*
X0127340Y0071594D01*
X0126701Y0070051D01*
X0125519Y0068869D01*
X0123976Y0068230D01*
X0117105Y0068230D01*
X0115561Y0068869D01*
X0115493Y0068937D02*
X0109200Y0068937D01*
X0109200Y0067339D02*
X0141900Y0067339D01*
X0146700Y0067339D02*
X0188817Y0067339D01*
X0188899Y0065740D02*
X0146700Y0065740D01*
X0146700Y0064142D02*
X0189482Y0064142D01*
X0190802Y0062543D02*
X0146700Y0062543D01*
X0146700Y0060945D02*
X0193850Y0060945D01*
X0193850Y0059346D02*
X0146700Y0059346D01*
X0146700Y0057748D02*
X0193850Y0057748D01*
X0193850Y0056149D02*
X0146700Y0056149D01*
X0146700Y0054551D02*
X0193850Y0054551D01*
X0193850Y0052952D02*
X0146700Y0052952D01*
X0146700Y0051354D02*
X0193850Y0051354D01*
X0193850Y0049755D02*
X0146700Y0049755D01*
X0146700Y0048157D02*
X0193850Y0048157D01*
X0193850Y0046558D02*
X0147765Y0046558D01*
X0149236Y0044960D02*
X0193850Y0044960D01*
X0193850Y0043361D02*
X0150706Y0043361D01*
X0152177Y0041763D02*
X0193850Y0041763D01*
X0193850Y0040164D02*
X0153647Y0040164D01*
X0155118Y0038566D02*
X0193850Y0038566D01*
X0193850Y0036967D02*
X0156588Y0036967D01*
X0158059Y0035369D02*
X0193850Y0035369D01*
X0193850Y0033770D02*
X0159529Y0033770D01*
X0161000Y0032172D02*
X0193850Y0032172D01*
X0193850Y0030573D02*
X0162470Y0030573D01*
X0163941Y0028975D02*
X0193850Y0028975D01*
X0193850Y0027376D02*
X0165411Y0027376D01*
X0166882Y0025778D02*
X0193850Y0025778D01*
X0193850Y0024179D02*
X0168352Y0024179D01*
X0169823Y0022581D02*
X0193850Y0022581D01*
X0193850Y0020982D02*
X0171293Y0020982D01*
X0167712Y0017785D02*
X0167446Y0017785D01*
X0168000Y0016187D02*
X0168846Y0016187D01*
X0168904Y0014588D02*
X0167945Y0014588D01*
X0167210Y0012990D02*
X0169687Y0012990D01*
X0163670Y0012990D02*
X0163670Y0012990D01*
X0163670Y0014588D02*
X0163670Y0014588D01*
X0163670Y0016187D02*
X0163670Y0016187D01*
X0163670Y0017785D02*
X0163670Y0017785D01*
X0163670Y0019384D02*
X0163670Y0019384D01*
X0164771Y0020982D02*
X0127087Y0020982D01*
X0127340Y0022581D02*
X0163301Y0022581D01*
X0161830Y0024179D02*
X0126962Y0024179D01*
X0126034Y0019384D02*
X0141992Y0019384D01*
X0145348Y0019384D02*
X0161538Y0019384D01*
X0159894Y0017785D02*
X0147267Y0017785D01*
X0147845Y0016187D02*
X0159340Y0016187D01*
X0159395Y0014588D02*
X0147786Y0014588D01*
X0147004Y0012990D02*
X0160130Y0012990D01*
X0165802Y0019384D02*
X0166242Y0019384D01*
X0148596Y0038566D02*
X0124786Y0038566D01*
X0125519Y0038869D02*
X0126701Y0040051D01*
X0127340Y0041594D01*
X0127340Y0043265D01*
X0126701Y0044809D01*
X0125519Y0045991D01*
X0123976Y0046630D01*
X0117105Y0046630D01*
X0115561Y0045991D01*
X0114380Y0044809D01*
X0113740Y0043265D01*
X0113740Y0041594D01*
X0114380Y0040051D01*
X0115561Y0038869D01*
X0117105Y0038230D01*
X0123976Y0038230D01*
X0125519Y0038869D01*
X0126748Y0040164D02*
X0147125Y0040164D01*
X0145655Y0041763D02*
X0127340Y0041763D01*
X0127300Y0043361D02*
X0144184Y0043361D01*
X0142714Y0044960D02*
X0126550Y0044960D01*
X0124148Y0046558D02*
X0141889Y0046558D01*
X0141900Y0048157D02*
X0109200Y0048157D01*
X0109200Y0049755D02*
X0114675Y0049755D01*
X0114380Y0050051D02*
X0115561Y0048869D01*
X0117105Y0048230D01*
X0123976Y0048230D01*
X0125519Y0048869D01*
X0126701Y0050051D01*
X0127340Y0051594D01*
X0127340Y0053265D01*
X0126701Y0054809D01*
X0125519Y0055991D01*
X0123976Y0056630D01*
X0117105Y0056630D01*
X0115561Y0055991D01*
X0114380Y0054809D01*
X0113740Y0053265D01*
X0113740Y0051594D01*
X0114380Y0050051D01*
X0113840Y0051354D02*
X0109200Y0051354D01*
X0109200Y0052952D02*
X0113740Y0052952D01*
X0114273Y0054551D02*
X0109200Y0054551D01*
X0109200Y0056149D02*
X0115945Y0056149D01*
X0120540Y0058030D02*
X0120540Y0062430D01*
X0120540Y0066830D01*
X0123486Y0066830D01*
X0124170Y0066722D01*
X0124829Y0066508D01*
X0125446Y0066193D01*
X0126007Y0065786D01*
X0126496Y0065296D01*
X0126903Y0064736D01*
X0127218Y0064119D01*
X0127432Y0063460D01*
X0127540Y0062776D01*
X0127540Y0062430D01*
X0120540Y0062430D01*
X0120540Y0062430D01*
X0120540Y0062430D01*
X0127540Y0062430D01*
X0127540Y0062084D01*
X0127432Y0061400D01*
X0127218Y0060741D01*
X0126903Y0060124D01*
X0126496Y0059564D01*
X0126007Y0059074D01*
X0125446Y0058667D01*
X0124829Y0058352D01*
X0124170Y0058138D01*
X0123486Y0058030D01*
X0120540Y0058030D01*
X0120540Y0059346D02*
X0120540Y0059346D01*
X0120540Y0060945D02*
X0120540Y0060945D01*
X0120540Y0062543D02*
X0120540Y0062543D01*
X0120540Y0064142D02*
X0120540Y0064142D01*
X0120540Y0065740D02*
X0120540Y0065740D01*
X0126052Y0065740D02*
X0133258Y0065740D01*
X0131770Y0064142D02*
X0127206Y0064142D01*
X0127540Y0062543D02*
X0131770Y0062543D01*
X0131770Y0060945D02*
X0127284Y0060945D01*
X0126279Y0059346D02*
X0133031Y0059346D01*
X0136170Y0059346D02*
X0136170Y0059346D01*
X0136170Y0060945D02*
X0136170Y0060945D01*
X0136170Y0062543D02*
X0136170Y0062543D01*
X0136170Y0064142D02*
X0136170Y0064142D01*
X0136170Y0065740D02*
X0136170Y0065740D01*
X0133723Y0068937D02*
X0125587Y0068937D01*
X0126902Y0070536D02*
X0132124Y0070536D01*
X0131970Y0072134D02*
X0127340Y0072134D01*
X0127146Y0073733D02*
X0131970Y0073733D01*
X0133132Y0075332D02*
X0126178Y0075332D01*
X0124697Y0078529D02*
X0141900Y0078529D01*
X0141900Y0080127D02*
X0126732Y0080127D01*
X0127340Y0081726D02*
X0141900Y0081726D01*
X0141900Y0083324D02*
X0127316Y0083324D01*
X0126587Y0084923D02*
X0141900Y0084923D01*
X0141900Y0086521D02*
X0124238Y0086521D01*
X0126368Y0089718D02*
X0141900Y0089718D01*
X0141900Y0088120D02*
X0109624Y0088120D01*
X0111222Y0089718D02*
X0114712Y0089718D01*
X0113855Y0091317D02*
X0112821Y0091317D01*
X0114025Y0100908D02*
X0097056Y0100908D01*
X0097340Y0102506D02*
X0113740Y0102506D01*
X0114088Y0104105D02*
X0106669Y0104105D01*
X0107722Y0105703D02*
X0115274Y0105703D01*
X0125226Y0096112D02*
X0141900Y0096112D01*
X0141900Y0094514D02*
X0126823Y0094514D01*
X0127340Y0092915D02*
X0141900Y0092915D01*
X0141900Y0091317D02*
X0127225Y0091317D01*
X0127056Y0100908D02*
X0141900Y0100908D01*
X0141900Y0102506D02*
X0127340Y0102506D01*
X0126992Y0104105D02*
X0141900Y0104105D01*
X0141900Y0105703D02*
X0127208Y0105703D01*
X0128806Y0107302D02*
X0141900Y0107302D01*
X0141900Y0108900D02*
X0130405Y0108900D01*
X0132003Y0110499D02*
X0141900Y0110499D01*
X0141900Y0112097D02*
X0133602Y0112097D01*
X0135200Y0113696D02*
X0141900Y0113696D01*
X0141900Y0115294D02*
X0136799Y0115294D01*
X0138397Y0116893D02*
X0141900Y0116893D01*
X0141900Y0118491D02*
X0139996Y0118491D01*
X0141442Y0120090D02*
X0141900Y0120090D01*
X0141900Y0121688D02*
X0141700Y0121688D01*
X0141700Y0123287D02*
X0141900Y0123287D01*
X0141900Y0124885D02*
X0141700Y0124885D01*
X0141700Y0126484D02*
X0141900Y0126484D01*
X0141900Y0128082D02*
X0141700Y0128082D01*
X0141700Y0129681D02*
X0141900Y0129681D01*
X0141900Y0131279D02*
X0141700Y0131279D01*
X0141700Y0132878D02*
X0141900Y0132878D01*
X0141900Y0134476D02*
X0141700Y0134476D01*
X0141700Y0136075D02*
X0141900Y0136075D01*
X0141900Y0137673D02*
X0141700Y0137673D01*
X0141700Y0139272D02*
X0141900Y0139272D01*
X0141900Y0140870D02*
X0141700Y0140870D01*
X0141700Y0142469D02*
X0141900Y0142469D01*
X0141900Y0144068D02*
X0141700Y0144068D01*
X0141700Y0145666D02*
X0141900Y0145666D01*
X0141900Y0147265D02*
X0141700Y0147265D01*
X0141700Y0148863D02*
X0141900Y0148863D01*
X0141900Y0150462D02*
X0141700Y0150462D01*
X0141700Y0152060D02*
X0141900Y0152060D01*
X0141900Y0153659D02*
X0141700Y0153659D01*
X0141700Y0155257D02*
X0141900Y0155257D01*
X0141900Y0156856D02*
X0141700Y0156856D01*
X0141700Y0158454D02*
X0141900Y0158454D01*
X0136900Y0161651D02*
X0055422Y0161651D01*
X0057020Y0160053D02*
X0136029Y0160053D01*
X0134430Y0158454D02*
X0058619Y0158454D01*
X0060217Y0156856D02*
X0132832Y0156856D01*
X0129317Y0155257D02*
X0126253Y0155257D01*
X0136000Y0152060D02*
X0136900Y0152060D01*
X0136900Y0150462D02*
X0136000Y0150462D01*
X0136900Y0148863D02*
X0134803Y0148863D01*
X0136900Y0147265D02*
X0064200Y0147265D01*
X0064200Y0148863D02*
X0069447Y0148863D01*
X0068250Y0150060D02*
X0070710Y0147600D01*
X0074189Y0147600D01*
X0075989Y0149400D01*
X0085030Y0149400D01*
X0085561Y0148869D01*
X0087105Y0148230D01*
X0093976Y0148230D01*
X0095519Y0148869D01*
X0096701Y0150051D01*
X0097340Y0151594D01*
X0097340Y0153265D01*
X0096701Y0154809D01*
X0095519Y0155991D01*
X0093976Y0156630D01*
X0087105Y0156630D01*
X0085561Y0155991D01*
X0084380Y0154809D01*
X0084127Y0154200D01*
X0075989Y0154200D01*
X0074189Y0156000D01*
X0070710Y0156000D01*
X0068250Y0153540D01*
X0068250Y0150060D01*
X0068250Y0150462D02*
X0064200Y0150462D01*
X0064200Y0152060D02*
X0068250Y0152060D01*
X0068368Y0153659D02*
X0063414Y0153659D01*
X0061816Y0155257D02*
X0069967Y0155257D01*
X0072450Y0151800D02*
X0090540Y0151800D01*
X0090540Y0152430D01*
X0095504Y0148863D02*
X0115576Y0148863D01*
X0114209Y0150462D02*
X0096871Y0150462D01*
X0097340Y0152060D02*
X0113740Y0152060D01*
X0113903Y0153659D02*
X0097177Y0153659D01*
X0096253Y0155257D02*
X0114828Y0155257D01*
X0104766Y0165944D02*
X0105256Y0166434D01*
X0105663Y0166994D01*
X0105978Y0167611D01*
X0106192Y0168270D01*
X0106300Y0168954D01*
X0106300Y0169300D01*
X0106300Y0169646D01*
X0106192Y0170330D01*
X0105978Y0170989D01*
X0105663Y0171606D01*
X0105256Y0172166D01*
X0104766Y0172656D01*
X0104206Y0173063D01*
X0103589Y0173378D01*
X0102930Y0173592D01*
X0102246Y0173700D01*
X0099300Y0173700D01*
X0099300Y0169300D01*
X0099300Y0169300D01*
X0106300Y0169300D01*
X0099300Y0169300D01*
X0099300Y0169300D01*
X0099300Y0173700D01*
X0096354Y0173700D01*
X0095670Y0173592D01*
X0095011Y0173378D01*
X0094394Y0173063D01*
X0093834Y0172656D01*
X0093344Y0172166D01*
X0092937Y0171606D01*
X0092622Y0170989D01*
X0092408Y0170330D01*
X0092300Y0169646D01*
X0092300Y0169300D01*
X0099300Y0169300D01*
X0099300Y0164900D01*
X0102246Y0164900D01*
X0102930Y0165008D01*
X0103589Y0165222D01*
X0104206Y0165537D01*
X0104766Y0165944D01*
X0105266Y0166447D02*
X0109671Y0166447D01*
X0109270Y0168045D02*
X0106119Y0168045D01*
X0106300Y0169644D02*
X0109270Y0169644D01*
X0110020Y0171242D02*
X0105849Y0171242D01*
X0104512Y0172841D02*
X0111618Y0172841D01*
X0110363Y0176038D02*
X0104577Y0176038D01*
X0099300Y0172841D02*
X0099300Y0172841D01*
X0099300Y0171242D02*
X0099300Y0171242D01*
X0099300Y0169644D02*
X0099300Y0169644D01*
X0099300Y0169300D02*
X0099300Y0169300D01*
X0099300Y0169300D01*
X0099300Y0164900D01*
X0096354Y0164900D01*
X0095670Y0165008D01*
X0095011Y0165222D01*
X0094394Y0165537D01*
X0093834Y0165944D01*
X0093344Y0166434D01*
X0092937Y0166994D01*
X0092622Y0167611D01*
X0092408Y0168270D01*
X0092300Y0168954D01*
X0092300Y0169300D01*
X0099300Y0169300D01*
X0099300Y0168045D02*
X0099300Y0168045D01*
X0099300Y0166447D02*
X0099300Y0166447D01*
X0093334Y0166447D02*
X0050626Y0166447D01*
X0049028Y0168045D02*
X0092481Y0168045D01*
X0092300Y0169644D02*
X0047429Y0169644D01*
X0045831Y0171242D02*
X0092751Y0171242D01*
X0094088Y0172841D02*
X0044232Y0172841D01*
X0041054Y0176038D02*
X0094023Y0176038D01*
X0099300Y0179300D02*
X0074300Y0179300D01*
X0071800Y0181800D01*
X0071800Y0185757D01*
X0072174Y0186131D01*
X0068525Y0184030D02*
X0067949Y0184030D01*
X0069400Y0182432D02*
X0066279Y0182432D01*
X0069603Y0180833D02*
X0052827Y0180833D01*
X0054346Y0182432D02*
X0054447Y0182432D01*
X0058405Y0182432D02*
X0062321Y0182432D01*
X0060651Y0184030D02*
X0060075Y0184030D01*
X0059635Y0188826D02*
X0061091Y0188826D01*
X0067509Y0188826D02*
X0068965Y0188826D01*
X0074770Y0190424D02*
X0053830Y0190424D01*
X0052014Y0192023D02*
X0076586Y0192023D01*
X0083510Y0192023D02*
X0093483Y0192023D01*
X0093139Y0191679D02*
X0092500Y0190135D01*
X0092500Y0188465D01*
X0093139Y0186921D01*
X0094321Y0185739D01*
X0095865Y0185100D01*
X0102735Y0185100D01*
X0104279Y0185739D01*
X0105142Y0186603D01*
X0108076Y0186455D01*
X0110060Y0184470D01*
X0113540Y0184470D01*
X0116000Y0186930D01*
X0116000Y0190410D01*
X0113540Y0192870D01*
X0110060Y0192870D01*
X0108433Y0191243D01*
X0105582Y0191386D01*
X0105461Y0191679D01*
X0104279Y0192861D01*
X0102735Y0193500D01*
X0095865Y0193500D01*
X0094321Y0192861D01*
X0093139Y0191679D01*
X0092620Y0190424D02*
X0085327Y0190424D01*
X0086258Y0188826D02*
X0092500Y0188826D01*
X0093012Y0187227D02*
X0086817Y0187227D01*
X0086817Y0185629D02*
X0094588Y0185629D01*
X0093892Y0182432D02*
X0085842Y0182432D01*
X0086504Y0184030D02*
X0144890Y0184030D01*
X0143291Y0185629D02*
X0124981Y0185629D01*
X0126200Y0186848D02*
X0123623Y0184270D01*
X0121800Y0184270D01*
X0121800Y0188670D01*
X0121800Y0188670D01*
X0121800Y0184270D01*
X0119977Y0184270D01*
X0117400Y0186848D01*
X0117400Y0188670D01*
X0121800Y0188670D01*
X0121800Y0188670D01*
X0126200Y0188670D01*
X0126200Y0186848D01*
X0126200Y0187227D02*
X0143250Y0187227D01*
X0143250Y0188826D02*
X0126200Y0188826D01*
X0126200Y0188670D02*
X0126200Y0190493D01*
X0123623Y0193070D01*
X0121800Y0193070D01*
X0121800Y0188670D01*
X0121800Y0188670D01*
X0126200Y0188670D01*
X0126200Y0190424D02*
X0144524Y0190424D01*
X0147450Y0187410D02*
X0158060Y0176800D01*
X0181800Y0176800D01*
X0184320Y0179320D01*
X0194300Y0179320D01*
X0192233Y0174439D02*
X0182372Y0174439D01*
X0184432Y0176038D02*
X0190087Y0176038D01*
X0190060Y0172841D02*
X0152297Y0172841D01*
X0151587Y0174439D02*
X0157488Y0174439D01*
X0155428Y0176038D02*
X0150876Y0176038D01*
X0150166Y0177636D02*
X0153829Y0177636D01*
X0152231Y0179235D02*
X0149455Y0179235D01*
X0148671Y0180833D02*
X0150632Y0180833D01*
X0149034Y0182432D02*
X0115848Y0182432D01*
X0114698Y0185629D02*
X0118619Y0185629D01*
X0117400Y0187227D02*
X0116000Y0187227D01*
X0116000Y0188826D02*
X0117400Y0188826D01*
X0117400Y0188670D02*
X0121800Y0188670D01*
X0121800Y0188670D01*
X0121800Y0193070D01*
X0119977Y0193070D01*
X0117400Y0190493D01*
X0117400Y0188670D01*
X0117400Y0190424D02*
X0115985Y0190424D01*
X0114387Y0192023D02*
X0118930Y0192023D01*
X0121800Y0192023D02*
X0121800Y0192023D01*
X0121800Y0190424D02*
X0121800Y0190424D01*
X0121800Y0188826D02*
X0121800Y0188826D01*
X0121800Y0187227D02*
X0121800Y0187227D01*
X0121800Y0185629D02*
X0121800Y0185629D01*
X0124670Y0192023D02*
X0189683Y0192023D01*
X0191106Y0193621D02*
X0023589Y0193621D01*
X0024010Y0192023D02*
X0045090Y0192023D01*
X0043273Y0190424D02*
X0024010Y0190424D01*
X0023633Y0188826D02*
X0042342Y0188826D01*
X0041783Y0187227D02*
X0037822Y0187227D01*
X0035936Y0187227D02*
X0022971Y0187227D01*
X0021456Y0185629D02*
X0033504Y0185629D01*
X0031097Y0184030D02*
X0018404Y0184030D01*
X0015196Y0184030D02*
X0006600Y0184030D01*
X0006600Y0182432D02*
X0028732Y0182432D01*
X0028002Y0180833D02*
X0006600Y0180833D01*
X0006600Y0179235D02*
X0027980Y0179235D01*
X0028594Y0177636D02*
X0006600Y0177636D01*
X0006600Y0176038D02*
X0028638Y0176038D01*
X0027980Y0174439D02*
X0006600Y0174439D01*
X0006600Y0172841D02*
X0027980Y0172841D01*
X0036879Y0176800D02*
X0061800Y0151879D01*
X0061800Y0106800D01*
X0071800Y0096800D01*
X0099300Y0096800D01*
X0096745Y0099309D02*
X0095959Y0099309D01*
X0096992Y0104105D02*
X0101931Y0104105D01*
X0104300Y0106800D02*
X0081800Y0106800D01*
X0074300Y0114300D01*
X0074300Y0141800D01*
X0076836Y0139272D02*
X0085158Y0139272D01*
X0084040Y0140870D02*
X0077791Y0140870D01*
X0077881Y0142469D02*
X0083740Y0142469D01*
X0084072Y0144068D02*
X0077097Y0144068D01*
X0075452Y0148863D02*
X0085576Y0148863D01*
X0085237Y0145666D02*
X0064200Y0145666D01*
X0064200Y0144068D02*
X0071503Y0144068D01*
X0070719Y0142469D02*
X0064200Y0142469D01*
X0064200Y0140870D02*
X0070809Y0140870D01*
X0071764Y0139272D02*
X0064200Y0139272D01*
X0064200Y0137673D02*
X0071900Y0137673D01*
X0071900Y0136075D02*
X0064200Y0136075D01*
X0064200Y0134476D02*
X0071900Y0134476D01*
X0071900Y0132878D02*
X0064200Y0132878D01*
X0064200Y0131279D02*
X0071900Y0131279D01*
X0071900Y0129681D02*
X0064200Y0129681D01*
X0064200Y0128082D02*
X0071900Y0128082D01*
X0071900Y0126484D02*
X0064200Y0126484D01*
X0064200Y0124885D02*
X0071900Y0124885D01*
X0071900Y0123287D02*
X0064200Y0123287D01*
X0064200Y0121688D02*
X0071900Y0121688D01*
X0071900Y0120090D02*
X0064200Y0120090D01*
X0064200Y0118491D02*
X0071900Y0118491D01*
X0071900Y0116893D02*
X0064200Y0116893D01*
X0064200Y0115294D02*
X0071900Y0115294D01*
X0071953Y0113696D02*
X0064200Y0113696D01*
X0064200Y0112097D02*
X0073109Y0112097D01*
X0074707Y0110499D02*
X0064200Y0110499D01*
X0064200Y0108900D02*
X0076306Y0108900D01*
X0077904Y0107302D02*
X0064692Y0107302D01*
X0066291Y0105703D02*
X0079503Y0105703D01*
X0084088Y0104105D02*
X0067889Y0104105D01*
X0069488Y0102506D02*
X0083740Y0102506D01*
X0084025Y0100908D02*
X0071086Y0100908D01*
X0072685Y0099309D02*
X0085121Y0099309D01*
X0083740Y0092915D02*
X0051700Y0092915D01*
X0051700Y0091317D02*
X0083855Y0091317D01*
X0090540Y0086521D02*
X0090540Y0086521D01*
X0090540Y0084923D02*
X0090540Y0084923D01*
X0090540Y0083324D02*
X0090540Y0083324D01*
X0090540Y0081726D02*
X0090540Y0081726D01*
X0090540Y0080127D02*
X0090540Y0080127D01*
X0090540Y0078529D02*
X0090540Y0078529D01*
X0097146Y0073733D02*
X0104400Y0073733D01*
X0104400Y0072134D02*
X0097340Y0072134D01*
X0096902Y0070536D02*
X0104400Y0070536D01*
X0104400Y0068937D02*
X0095587Y0068937D01*
X0095769Y0065740D02*
X0104400Y0065740D01*
X0104400Y0064142D02*
X0096977Y0064142D01*
X0097340Y0062543D02*
X0104400Y0062543D01*
X0104400Y0060945D02*
X0097071Y0060945D01*
X0104400Y0067339D02*
X0066211Y0067339D01*
X0062867Y0076930D02*
X0051700Y0076930D01*
X0051700Y0078529D02*
X0060854Y0078529D01*
X0060302Y0080127D02*
X0051700Y0080127D01*
X0051700Y0081726D02*
X0060420Y0081726D01*
X0061328Y0083324D02*
X0051700Y0083324D01*
X0051700Y0094514D02*
X0071048Y0094514D01*
X0069094Y0096112D02*
X0051700Y0096112D01*
X0051700Y0097711D02*
X0067495Y0097711D01*
X0065897Y0099309D02*
X0051700Y0099309D01*
X0051700Y0100908D02*
X0064298Y0100908D01*
X0062700Y0102506D02*
X0051700Y0102506D01*
X0051700Y0104105D02*
X0061101Y0104105D01*
X0060441Y0104765D02*
X0060441Y0104765D01*
X0059657Y0105703D02*
X0051700Y0105703D01*
X0051700Y0107302D02*
X0059400Y0107302D01*
X0059400Y0108900D02*
X0051700Y0108900D01*
X0051700Y0110499D02*
X0059400Y0110499D01*
X0059400Y0112097D02*
X0051700Y0112097D01*
X0051700Y0113696D02*
X0059400Y0113696D01*
X0059400Y0115294D02*
X0051700Y0115294D01*
X0051700Y0116893D02*
X0059400Y0116893D01*
X0059400Y0118491D02*
X0051700Y0118491D01*
X0051700Y0120090D02*
X0059400Y0120090D01*
X0059400Y0121688D02*
X0051700Y0121688D01*
X0051700Y0123287D02*
X0059400Y0123287D01*
X0059400Y0124885D02*
X0051700Y0124885D01*
X0051700Y0126484D02*
X0059400Y0126484D01*
X0059400Y0128082D02*
X0051700Y0128082D01*
X0051700Y0129681D02*
X0059400Y0129681D01*
X0059400Y0131279D02*
X0051700Y0131279D01*
X0051700Y0132878D02*
X0059400Y0132878D01*
X0059400Y0134476D02*
X0051700Y0134476D01*
X0051700Y0136075D02*
X0059400Y0136075D01*
X0059400Y0137673D02*
X0051700Y0137673D01*
X0051700Y0139272D02*
X0059400Y0139272D01*
X0059400Y0140870D02*
X0051700Y0140870D01*
X0051700Y0142469D02*
X0059400Y0142469D01*
X0059400Y0144068D02*
X0051700Y0144068D01*
X0051328Y0145666D02*
X0059400Y0145666D01*
X0059400Y0147265D02*
X0049730Y0147265D01*
X0048131Y0148863D02*
X0059400Y0148863D01*
X0059400Y0150462D02*
X0046533Y0150462D01*
X0044934Y0152060D02*
X0058225Y0152060D01*
X0056626Y0153659D02*
X0043336Y0153659D01*
X0041737Y0155257D02*
X0055028Y0155257D01*
X0053429Y0156856D02*
X0040138Y0156856D01*
X0038540Y0158454D02*
X0051831Y0158454D01*
X0050232Y0160053D02*
X0036941Y0160053D01*
X0035343Y0161651D02*
X0048633Y0161651D01*
X0041051Y0177636D02*
X0072570Y0177636D01*
X0070971Y0179235D02*
X0040348Y0179235D01*
X0040459Y0180833D02*
X0044277Y0180833D01*
X0042758Y0182432D02*
X0041054Y0182432D01*
X0041012Y0184030D02*
X0042096Y0184030D01*
X0041783Y0185629D02*
X0040253Y0185629D01*
X0012144Y0185629D02*
X0006600Y0185629D01*
X0006600Y0187227D02*
X0010629Y0187227D01*
X0009967Y0188826D02*
X0006600Y0188826D01*
X0006600Y0190424D02*
X0009590Y0190424D01*
X0009590Y0192023D02*
X0006600Y0192023D01*
X0006600Y0193621D02*
X0010011Y0193621D01*
X0074932Y0155257D02*
X0084828Y0155257D01*
X0099300Y0179300D02*
X0113670Y0178670D01*
X0146800Y0179300D01*
X0156800Y0156800D01*
X0156800Y0091800D01*
X0171800Y0076800D01*
X0194300Y0076800D01*
X0192342Y0081726D02*
X0170269Y0081726D01*
X0171867Y0080127D02*
X0190132Y0080127D01*
X0190281Y0083324D02*
X0168670Y0083324D01*
X0167072Y0084923D02*
X0189341Y0084923D01*
X0189000Y0086521D02*
X0165473Y0086521D01*
X0163874Y0088120D02*
X0189110Y0088120D01*
X0189772Y0089718D02*
X0162276Y0089718D01*
X0160677Y0091317D02*
X0191355Y0091317D01*
X0190690Y0092915D02*
X0159200Y0092915D01*
X0159200Y0094514D02*
X0189510Y0094514D01*
X0189000Y0096112D02*
X0159200Y0096112D01*
X0159200Y0097711D02*
X0189000Y0097711D01*
X0189603Y0099309D02*
X0159200Y0099309D01*
X0159200Y0100908D02*
X0190912Y0100908D01*
X0191098Y0102506D02*
X0159200Y0102506D01*
X0159200Y0104105D02*
X0189680Y0104105D01*
X0189018Y0105703D02*
X0159200Y0105703D01*
X0159200Y0107302D02*
X0189000Y0107302D01*
X0189433Y0108900D02*
X0159200Y0108900D01*
X0159200Y0110499D02*
X0190503Y0110499D01*
X0191804Y0112097D02*
X0159200Y0112097D01*
X0159200Y0113696D02*
X0189909Y0113696D01*
X0189187Y0115294D02*
X0159200Y0115294D01*
X0159200Y0116893D02*
X0189000Y0116893D01*
X0189264Y0118491D02*
X0159200Y0118491D01*
X0159200Y0120090D02*
X0190095Y0120090D01*
X0192252Y0121688D02*
X0159200Y0121688D01*
X0159200Y0123287D02*
X0190318Y0123287D01*
X0189356Y0124885D02*
X0159200Y0124885D01*
X0159200Y0126484D02*
X0189000Y0126484D01*
X0189095Y0128082D02*
X0159200Y0128082D01*
X0159200Y0129681D02*
X0189757Y0129681D01*
X0191284Y0131279D02*
X0159200Y0131279D01*
X0159200Y0132878D02*
X0190727Y0132878D01*
X0189526Y0134476D02*
X0159200Y0134476D01*
X0159200Y0136075D02*
X0189000Y0136075D01*
X0189000Y0137673D02*
X0159200Y0137673D01*
X0159200Y0139272D02*
X0164956Y0139272D01*
X0165607Y0138620D02*
X0163030Y0141198D01*
X0163030Y0143020D01*
X0167430Y0143020D01*
X0167430Y0138620D01*
X0169252Y0138620D01*
X0171830Y0141198D01*
X0171830Y0143020D01*
X0167430Y0143020D01*
X0167430Y0143020D01*
X0167430Y0138620D01*
X0165607Y0138620D01*
X0167430Y0139272D02*
X0167430Y0139272D01*
X0167430Y0140870D02*
X0167430Y0140870D01*
X0167430Y0142469D02*
X0167430Y0142469D01*
X0167430Y0143020D02*
X0167430Y0143021D01*
X0167430Y0143021D01*
X0167430Y0147420D01*
X0169252Y0147420D01*
X0171830Y0144843D01*
X0171830Y0143021D01*
X0167430Y0143021D01*
X0167430Y0147420D01*
X0165607Y0147420D01*
X0163030Y0144843D01*
X0163030Y0143021D01*
X0167430Y0143021D01*
X0167430Y0143020D01*
X0167430Y0144068D02*
X0167430Y0144068D01*
X0167430Y0145666D02*
X0167430Y0145666D01*
X0167430Y0147265D02*
X0167430Y0147265D01*
X0169408Y0147265D02*
X0189415Y0147265D01*
X0189000Y0148863D02*
X0159200Y0148863D01*
X0159200Y0147265D02*
X0165451Y0147265D01*
X0163853Y0145666D02*
X0159200Y0145666D01*
X0159200Y0144068D02*
X0163030Y0144068D01*
X0163030Y0142469D02*
X0159200Y0142469D01*
X0159200Y0140870D02*
X0163357Y0140870D01*
X0169904Y0139272D02*
X0189587Y0139272D01*
X0190875Y0140870D02*
X0171502Y0140870D01*
X0171830Y0142469D02*
X0193850Y0142469D01*
X0193130Y0144068D02*
X0171830Y0144068D01*
X0171007Y0145666D02*
X0190458Y0145666D01*
X0189036Y0150462D02*
X0159200Y0150462D01*
X0159200Y0152060D02*
X0189698Y0152060D01*
X0191144Y0153659D02*
X0159200Y0153659D01*
X0159200Y0155257D02*
X0190867Y0155257D01*
X0189584Y0156856D02*
X0159200Y0156856D01*
X0158691Y0158454D02*
X0189000Y0158454D01*
X0189000Y0160053D02*
X0157981Y0160053D01*
X0157270Y0161651D02*
X0189529Y0161651D01*
X0190735Y0163250D02*
X0156560Y0163250D01*
X0155849Y0164848D02*
X0191097Y0164848D01*
X0189591Y0166447D02*
X0155139Y0166447D01*
X0154428Y0168045D02*
X0188933Y0168045D01*
X0188800Y0169644D02*
X0153718Y0169644D01*
X0153008Y0171242D02*
X0189142Y0171242D01*
X0180841Y0179235D02*
X0169584Y0179235D01*
X0171182Y0180833D02*
X0182439Y0180833D01*
X0188100Y0187227D02*
X0166617Y0187227D01*
X0165019Y0188826D02*
X0186927Y0188826D01*
X0187180Y0190424D02*
X0160375Y0190424D01*
X0163040Y0187410D02*
X0157450Y0187410D01*
X0154524Y0190424D02*
X0150375Y0190424D01*
X0151650Y0188826D02*
X0153250Y0188826D01*
X0153250Y0187227D02*
X0151650Y0187227D01*
X0152625Y0185629D02*
X0153291Y0185629D01*
X0154224Y0184030D02*
X0154890Y0184030D01*
X0155822Y0182432D02*
X0163230Y0182432D01*
X0163026Y0184030D02*
X0160009Y0184030D01*
X0157421Y0180833D02*
X0163677Y0180833D01*
X0165276Y0179235D02*
X0159019Y0179235D01*
X0163040Y0187410D02*
X0167430Y0183020D01*
X0170761Y0185629D02*
X0190496Y0185629D01*
X0191823Y0184030D02*
X0171630Y0184030D01*
X0171630Y0182432D02*
X0189917Y0182432D01*
X0189320Y0189320D02*
X0194300Y0189320D01*
X0152728Y0160053D02*
X0146700Y0160053D01*
X0146700Y0161651D02*
X0152018Y0161651D01*
X0151307Y0163250D02*
X0146700Y0163250D01*
X0146700Y0164848D02*
X0150597Y0164848D01*
X0149886Y0166447D02*
X0146700Y0166447D01*
X0147656Y0168045D02*
X0149176Y0168045D01*
X0148465Y0169644D02*
X0147881Y0169644D01*
X0147755Y0171242D02*
X0147372Y0171242D01*
X0147044Y0172841D02*
X0145110Y0172841D01*
X0143490Y0172841D02*
X0142572Y0172841D01*
X0142881Y0174439D02*
X0146334Y0174439D01*
X0145624Y0176038D02*
X0142456Y0176038D01*
X0146700Y0158454D02*
X0153438Y0158454D01*
X0154149Y0156856D02*
X0146700Y0156856D01*
X0146700Y0155257D02*
X0154400Y0155257D01*
X0154400Y0153659D02*
X0146700Y0153659D01*
X0146700Y0152060D02*
X0154400Y0152060D01*
X0154400Y0150462D02*
X0146700Y0150462D01*
X0146700Y0148863D02*
X0154400Y0148863D01*
X0154400Y0147265D02*
X0146700Y0147265D01*
X0146700Y0145666D02*
X0154400Y0145666D01*
X0154400Y0144068D02*
X0146700Y0144068D01*
X0146700Y0142469D02*
X0154400Y0142469D01*
X0154400Y0140870D02*
X0146700Y0140870D01*
X0146700Y0139272D02*
X0154400Y0139272D01*
X0154400Y0137673D02*
X0146700Y0137673D01*
X0146700Y0136075D02*
X0154400Y0136075D01*
X0154400Y0134476D02*
X0146700Y0134476D01*
X0146700Y0132878D02*
X0154400Y0132878D01*
X0154400Y0131279D02*
X0146700Y0131279D01*
X0146700Y0129681D02*
X0154400Y0129681D01*
X0154400Y0128082D02*
X0146700Y0128082D01*
X0146700Y0126484D02*
X0154400Y0126484D01*
X0154400Y0124885D02*
X0146700Y0124885D01*
X0146700Y0123287D02*
X0154400Y0123287D01*
X0154400Y0121688D02*
X0146700Y0121688D01*
X0146700Y0120090D02*
X0154400Y0120090D01*
X0154400Y0118491D02*
X0146700Y0118491D01*
X0146700Y0116893D02*
X0154400Y0116893D01*
X0154400Y0115294D02*
X0146700Y0115294D01*
X0146700Y0113696D02*
X0154400Y0113696D01*
X0154400Y0112097D02*
X0146700Y0112097D01*
X0146700Y0110499D02*
X0154400Y0110499D01*
X0154400Y0108900D02*
X0146700Y0108900D01*
X0146700Y0107302D02*
X0154400Y0107302D01*
X0154400Y0105703D02*
X0146700Y0105703D01*
X0146700Y0104105D02*
X0154400Y0104105D01*
X0154400Y0102506D02*
X0146700Y0102506D01*
X0146700Y0100908D02*
X0154400Y0100908D01*
X0154400Y0099309D02*
X0146700Y0099309D01*
X0146700Y0097711D02*
X0154400Y0097711D01*
X0154400Y0096112D02*
X0146700Y0096112D01*
X0146700Y0094514D02*
X0154400Y0094514D01*
X0154400Y0092915D02*
X0146700Y0092915D01*
X0146700Y0091317D02*
X0154402Y0091317D01*
X0155488Y0089718D02*
X0146700Y0089718D01*
X0146700Y0088120D02*
X0157086Y0088120D01*
X0158685Y0086521D02*
X0146700Y0086521D01*
X0146700Y0084923D02*
X0160283Y0084923D01*
X0161882Y0083324D02*
X0146700Y0083324D01*
X0146700Y0081726D02*
X0163480Y0081726D01*
X0165079Y0080127D02*
X0146700Y0080127D01*
X0146700Y0078529D02*
X0166677Y0078529D01*
X0168276Y0076930D02*
X0146700Y0076930D01*
X0146700Y0075332D02*
X0169874Y0075332D01*
X0189872Y0073733D02*
X0146700Y0073733D01*
X0146700Y0072134D02*
X0191714Y0072134D01*
X0190258Y0070536D02*
X0146700Y0070536D01*
X0146700Y0068937D02*
X0189216Y0068937D01*
X0141900Y0056149D02*
X0125136Y0056149D01*
X0126808Y0054551D02*
X0141900Y0054551D01*
X0141900Y0052952D02*
X0127340Y0052952D01*
X0127240Y0051354D02*
X0141900Y0051354D01*
X0141900Y0049755D02*
X0126405Y0049755D01*
X0116932Y0046558D02*
X0109200Y0046558D01*
X0109200Y0044960D02*
X0114530Y0044960D01*
X0113780Y0043361D02*
X0109200Y0043361D01*
X0109200Y0041763D02*
X0113740Y0041763D01*
X0114333Y0040164D02*
X0108558Y0040164D01*
X0106960Y0038566D02*
X0116294Y0038566D01*
X0114179Y0070536D02*
X0109200Y0070536D01*
X0109200Y0072134D02*
X0113740Y0072134D01*
X0113934Y0073733D02*
X0109200Y0073733D01*
X0109200Y0075332D02*
X0114902Y0075332D01*
X0084194Y0110499D02*
X0081495Y0110499D01*
X0079897Y0112097D02*
X0083740Y0112097D01*
X0083918Y0113696D02*
X0078298Y0113696D01*
X0076700Y0115294D02*
X0084865Y0115294D01*
X0086474Y0118491D02*
X0076700Y0118491D01*
X0076700Y0116893D02*
X0131609Y0116893D01*
X0133207Y0118491D02*
X0124607Y0118491D01*
X0126717Y0120090D02*
X0134806Y0120090D01*
X0136404Y0121688D02*
X0127340Y0121688D01*
X0127331Y0123287D02*
X0136900Y0123287D01*
X0136900Y0124885D02*
X0126624Y0124885D01*
X0124328Y0126484D02*
X0136900Y0126484D01*
X0130010Y0115294D02*
X0126215Y0115294D01*
X0127162Y0113696D02*
X0128412Y0113696D01*
X0136423Y0153659D02*
X0136900Y0153659D01*
X0111492Y0182432D02*
X0104708Y0182432D01*
X0104012Y0185629D02*
X0108902Y0185629D01*
X0111800Y0188670D02*
X0099300Y0189300D01*
X0105117Y0192023D02*
X0109213Y0192023D01*
X0084456Y0124885D02*
X0076700Y0124885D01*
X0076700Y0123287D02*
X0083749Y0123287D01*
X0083740Y0121688D02*
X0076700Y0121688D01*
X0076700Y0120090D02*
X0084363Y0120090D01*
D18*
X0104300Y0106800D03*
X0099300Y0096800D03*
X0074300Y0141800D03*
X0026800Y0084300D03*
X0139300Y0174300D03*
X0144300Y0169300D03*
M02*
