G75*
%MOIN*%
%OFA0B0*%
%FSLAX25Y25*%
%IPPOS*%
%LPD*%
%AMOC8*
5,1,8,0,0,1.08239X$1,22.5*
%
%ADD10C,0.00000*%
%ADD11C,0.01600*%
%ADD12C,0.00400*%
%ADD13C,0.00300*%
%ADD14R,0.00059X0.00059*%
%ADD15R,0.01181X0.00059*%
%ADD16R,0.01890X0.00059*%
%ADD17R,0.02539X0.00059*%
%ADD18R,0.03248X0.00059*%
%ADD19R,0.03839X0.00059*%
%ADD20R,0.04488X0.00059*%
%ADD21R,0.05138X0.00059*%
%ADD22R,0.05787X0.00059*%
%ADD23R,0.06378X0.00059*%
%ADD24R,0.06969X0.00059*%
%ADD25R,0.07559X0.00059*%
%ADD26R,0.08209X0.00059*%
%ADD27R,0.08799X0.00059*%
%ADD28R,0.09390X0.00059*%
%ADD29R,0.09980X0.00059*%
%ADD30R,0.10689X0.00059*%
%ADD31R,0.11339X0.00059*%
%ADD32R,0.11870X0.00059*%
%ADD33R,0.12402X0.00059*%
%ADD34R,0.09331X0.00059*%
%ADD35R,0.09272X0.00059*%
%ADD36R,0.00531X0.00059*%
%ADD37R,0.00118X0.00059*%
%ADD38R,0.09213X0.00059*%
%ADD39R,0.00945X0.00059*%
%ADD40R,0.00236X0.00059*%
%ADD41R,0.03189X0.00059*%
%ADD42R,0.09154X0.00059*%
%ADD43R,0.01476X0.00059*%
%ADD44R,0.00354X0.00059*%
%ADD45R,0.01949X0.00059*%
%ADD46R,0.00472X0.00059*%
%ADD47R,0.09094X0.00059*%
%ADD48R,0.02421X0.00059*%
%ADD49R,0.00650X0.00059*%
%ADD50R,0.09035X0.00059*%
%ADD51R,0.02953X0.00059*%
%ADD52R,0.00768X0.00059*%
%ADD53R,0.08563X0.00059*%
%ADD54R,0.03425X0.00059*%
%ADD55R,0.00886X0.00059*%
%ADD56R,0.08031X0.00059*%
%ADD57R,0.03898X0.00059*%
%ADD58R,0.01063X0.00059*%
%ADD59R,0.03130X0.00059*%
%ADD60R,0.07028X0.00059*%
%ADD61R,0.05020X0.00059*%
%ADD62R,0.01299X0.00059*%
%ADD63R,0.06614X0.00059*%
%ADD64R,0.05492X0.00059*%
%ADD65R,0.06083X0.00059*%
%ADD66R,0.05965X0.00059*%
%ADD67R,0.01594X0.00059*%
%ADD68R,0.05610X0.00059*%
%ADD69R,0.00295X0.00059*%
%ADD70R,0.06024X0.00059*%
%ADD71R,0.01713X0.00059*%
%ADD72R,0.05079X0.00059*%
%ADD73R,0.03071X0.00059*%
%ADD74R,0.04606X0.00059*%
%ADD75R,0.02008X0.00059*%
%ADD76R,0.04134X0.00059*%
%ADD77R,0.01772X0.00059*%
%ADD78R,0.02185X0.00059*%
%ADD79R,0.03661X0.00059*%
%ADD80R,0.02244X0.00059*%
%ADD81R,0.02303X0.00059*%
%ADD82R,0.03012X0.00059*%
%ADD83R,0.02776X0.00059*%
%ADD84R,0.01831X0.00059*%
%ADD85R,0.03780X0.00059*%
%ADD86R,0.02717X0.00059*%
%ADD87R,0.01240X0.00059*%
%ADD88R,0.04252X0.00059*%
%ADD89R,0.02835X0.00059*%
%ADD90R,0.00591X0.00059*%
%ADD91R,0.04724X0.00059*%
%ADD92R,0.05197X0.00059*%
%ADD93R,0.05374X0.00059*%
%ADD94R,0.02362X0.00059*%
%ADD95R,0.02598X0.00059*%
%ADD96R,0.00709X0.00059*%
%ADD97R,0.02480X0.00059*%
%ADD98R,0.00827X0.00059*%
%ADD99R,0.01358X0.00059*%
%ADD100R,0.01654X0.00059*%
%ADD101R,0.01417X0.00059*%
%ADD102R,0.05315X0.00059*%
%ADD103R,0.02067X0.00059*%
%ADD104R,0.01122X0.00059*%
%ADD105R,0.01535X0.00059*%
%ADD106R,0.01004X0.00059*%
%ADD107R,0.02126X0.00059*%
%ADD108R,0.03307X0.00059*%
%ADD109R,0.05256X0.00059*%
%ADD110R,0.03957X0.00059*%
%ADD111R,0.03720X0.00059*%
%ADD112R,0.04429X0.00059*%
%ADD113R,0.04075X0.00059*%
%ADD114R,0.06142X0.00059*%
%ADD115R,0.00177X0.00059*%
%ADD116R,0.03543X0.00059*%
%ADD117R,0.06201X0.00059*%
%ADD118R,0.04370X0.00059*%
%ADD119R,0.04193X0.00059*%
%ADD120R,0.00413X0.00059*%
%ADD121R,0.04016X0.00059*%
%ADD122R,0.03366X0.00059*%
%ADD123R,0.02894X0.00059*%
%ADD124R,0.06260X0.00059*%
%ADD125R,0.02657X0.00059*%
%ADD126R,0.04783X0.00059*%
%ADD127R,0.04311X0.00059*%
%ADD128R,0.08091X0.00059*%
%ADD129R,0.08740X0.00059*%
%ADD130R,0.07441X0.00059*%
%ADD131R,0.06850X0.00059*%
%ADD132R,0.04902X0.00059*%
%ADD133R,0.03484X0.00059*%
%ADD134R,0.03602X0.00059*%
%ADD135R,0.04665X0.00059*%
%ADD136R,0.04547X0.00059*%
%ADD137R,0.04961X0.00059*%
%ADD138R,0.04843X0.00059*%
%ADD139C,0.00600*%
%ADD140C,0.01200*%
%ADD141C,0.01000*%
%ADD142C,0.00800*%
%ADD143R,0.03400X0.02400*%
%ADD144R,0.02400X0.03400*%
%ADD145C,0.00500*%
D10*
X0001800Y0001800D02*
X0001800Y0198650D01*
X0198650Y0198650D01*
X0198650Y0001800D01*
X0001800Y0001800D01*
X0046583Y0186131D02*
X0046585Y0186219D01*
X0046591Y0186307D01*
X0046601Y0186395D01*
X0046615Y0186483D01*
X0046632Y0186569D01*
X0046654Y0186655D01*
X0046679Y0186739D01*
X0046709Y0186823D01*
X0046741Y0186905D01*
X0046778Y0186985D01*
X0046818Y0187064D01*
X0046862Y0187141D01*
X0046909Y0187216D01*
X0046959Y0187288D01*
X0047013Y0187359D01*
X0047069Y0187426D01*
X0047129Y0187492D01*
X0047191Y0187554D01*
X0047257Y0187614D01*
X0047324Y0187670D01*
X0047395Y0187724D01*
X0047467Y0187774D01*
X0047542Y0187821D01*
X0047619Y0187865D01*
X0047698Y0187905D01*
X0047778Y0187942D01*
X0047860Y0187974D01*
X0047944Y0188004D01*
X0048028Y0188029D01*
X0048114Y0188051D01*
X0048200Y0188068D01*
X0048288Y0188082D01*
X0048376Y0188092D01*
X0048464Y0188098D01*
X0048552Y0188100D01*
X0048640Y0188098D01*
X0048728Y0188092D01*
X0048816Y0188082D01*
X0048904Y0188068D01*
X0048990Y0188051D01*
X0049076Y0188029D01*
X0049160Y0188004D01*
X0049244Y0187974D01*
X0049326Y0187942D01*
X0049406Y0187905D01*
X0049485Y0187865D01*
X0049562Y0187821D01*
X0049637Y0187774D01*
X0049709Y0187724D01*
X0049780Y0187670D01*
X0049847Y0187614D01*
X0049913Y0187554D01*
X0049975Y0187492D01*
X0050035Y0187426D01*
X0050091Y0187359D01*
X0050145Y0187288D01*
X0050195Y0187216D01*
X0050242Y0187141D01*
X0050286Y0187064D01*
X0050326Y0186985D01*
X0050363Y0186905D01*
X0050395Y0186823D01*
X0050425Y0186739D01*
X0050450Y0186655D01*
X0050472Y0186569D01*
X0050489Y0186483D01*
X0050503Y0186395D01*
X0050513Y0186307D01*
X0050519Y0186219D01*
X0050521Y0186131D01*
X0050519Y0186043D01*
X0050513Y0185955D01*
X0050503Y0185867D01*
X0050489Y0185779D01*
X0050472Y0185693D01*
X0050450Y0185607D01*
X0050425Y0185523D01*
X0050395Y0185439D01*
X0050363Y0185357D01*
X0050326Y0185277D01*
X0050286Y0185198D01*
X0050242Y0185121D01*
X0050195Y0185046D01*
X0050145Y0184974D01*
X0050091Y0184903D01*
X0050035Y0184836D01*
X0049975Y0184770D01*
X0049913Y0184708D01*
X0049847Y0184648D01*
X0049780Y0184592D01*
X0049709Y0184538D01*
X0049637Y0184488D01*
X0049562Y0184441D01*
X0049485Y0184397D01*
X0049406Y0184357D01*
X0049326Y0184320D01*
X0049244Y0184288D01*
X0049160Y0184258D01*
X0049076Y0184233D01*
X0048990Y0184211D01*
X0048904Y0184194D01*
X0048816Y0184180D01*
X0048728Y0184170D01*
X0048640Y0184164D01*
X0048552Y0184162D01*
X0048464Y0184164D01*
X0048376Y0184170D01*
X0048288Y0184180D01*
X0048200Y0184194D01*
X0048114Y0184211D01*
X0048028Y0184233D01*
X0047944Y0184258D01*
X0047860Y0184288D01*
X0047778Y0184320D01*
X0047698Y0184357D01*
X0047619Y0184397D01*
X0047542Y0184441D01*
X0047467Y0184488D01*
X0047395Y0184538D01*
X0047324Y0184592D01*
X0047257Y0184648D01*
X0047191Y0184708D01*
X0047129Y0184770D01*
X0047069Y0184836D01*
X0047013Y0184903D01*
X0046959Y0184974D01*
X0046909Y0185046D01*
X0046862Y0185121D01*
X0046818Y0185198D01*
X0046778Y0185277D01*
X0046741Y0185357D01*
X0046709Y0185439D01*
X0046679Y0185523D01*
X0046654Y0185607D01*
X0046632Y0185693D01*
X0046615Y0185779D01*
X0046601Y0185867D01*
X0046591Y0185955D01*
X0046585Y0186043D01*
X0046583Y0186131D01*
X0078079Y0186131D02*
X0078081Y0186219D01*
X0078087Y0186307D01*
X0078097Y0186395D01*
X0078111Y0186483D01*
X0078128Y0186569D01*
X0078150Y0186655D01*
X0078175Y0186739D01*
X0078205Y0186823D01*
X0078237Y0186905D01*
X0078274Y0186985D01*
X0078314Y0187064D01*
X0078358Y0187141D01*
X0078405Y0187216D01*
X0078455Y0187288D01*
X0078509Y0187359D01*
X0078565Y0187426D01*
X0078625Y0187492D01*
X0078687Y0187554D01*
X0078753Y0187614D01*
X0078820Y0187670D01*
X0078891Y0187724D01*
X0078963Y0187774D01*
X0079038Y0187821D01*
X0079115Y0187865D01*
X0079194Y0187905D01*
X0079274Y0187942D01*
X0079356Y0187974D01*
X0079440Y0188004D01*
X0079524Y0188029D01*
X0079610Y0188051D01*
X0079696Y0188068D01*
X0079784Y0188082D01*
X0079872Y0188092D01*
X0079960Y0188098D01*
X0080048Y0188100D01*
X0080136Y0188098D01*
X0080224Y0188092D01*
X0080312Y0188082D01*
X0080400Y0188068D01*
X0080486Y0188051D01*
X0080572Y0188029D01*
X0080656Y0188004D01*
X0080740Y0187974D01*
X0080822Y0187942D01*
X0080902Y0187905D01*
X0080981Y0187865D01*
X0081058Y0187821D01*
X0081133Y0187774D01*
X0081205Y0187724D01*
X0081276Y0187670D01*
X0081343Y0187614D01*
X0081409Y0187554D01*
X0081471Y0187492D01*
X0081531Y0187426D01*
X0081587Y0187359D01*
X0081641Y0187288D01*
X0081691Y0187216D01*
X0081738Y0187141D01*
X0081782Y0187064D01*
X0081822Y0186985D01*
X0081859Y0186905D01*
X0081891Y0186823D01*
X0081921Y0186739D01*
X0081946Y0186655D01*
X0081968Y0186569D01*
X0081985Y0186483D01*
X0081999Y0186395D01*
X0082009Y0186307D01*
X0082015Y0186219D01*
X0082017Y0186131D01*
X0082015Y0186043D01*
X0082009Y0185955D01*
X0081999Y0185867D01*
X0081985Y0185779D01*
X0081968Y0185693D01*
X0081946Y0185607D01*
X0081921Y0185523D01*
X0081891Y0185439D01*
X0081859Y0185357D01*
X0081822Y0185277D01*
X0081782Y0185198D01*
X0081738Y0185121D01*
X0081691Y0185046D01*
X0081641Y0184974D01*
X0081587Y0184903D01*
X0081531Y0184836D01*
X0081471Y0184770D01*
X0081409Y0184708D01*
X0081343Y0184648D01*
X0081276Y0184592D01*
X0081205Y0184538D01*
X0081133Y0184488D01*
X0081058Y0184441D01*
X0080981Y0184397D01*
X0080902Y0184357D01*
X0080822Y0184320D01*
X0080740Y0184288D01*
X0080656Y0184258D01*
X0080572Y0184233D01*
X0080486Y0184211D01*
X0080400Y0184194D01*
X0080312Y0184180D01*
X0080224Y0184170D01*
X0080136Y0184164D01*
X0080048Y0184162D01*
X0079960Y0184164D01*
X0079872Y0184170D01*
X0079784Y0184180D01*
X0079696Y0184194D01*
X0079610Y0184211D01*
X0079524Y0184233D01*
X0079440Y0184258D01*
X0079356Y0184288D01*
X0079274Y0184320D01*
X0079194Y0184357D01*
X0079115Y0184397D01*
X0079038Y0184441D01*
X0078963Y0184488D01*
X0078891Y0184538D01*
X0078820Y0184592D01*
X0078753Y0184648D01*
X0078687Y0184708D01*
X0078625Y0184770D01*
X0078565Y0184836D01*
X0078509Y0184903D01*
X0078455Y0184974D01*
X0078405Y0185046D01*
X0078358Y0185121D01*
X0078314Y0185198D01*
X0078274Y0185277D01*
X0078237Y0185357D01*
X0078205Y0185439D01*
X0078175Y0185523D01*
X0078150Y0185607D01*
X0078128Y0185693D01*
X0078111Y0185779D01*
X0078097Y0185867D01*
X0078087Y0185955D01*
X0078081Y0186043D01*
X0078079Y0186131D01*
D11*
X0179300Y0186800D02*
X0179300Y0191800D01*
X0184300Y0189300D01*
X0179300Y0186800D01*
X0179300Y0187227D02*
X0180155Y0187227D01*
X0179300Y0188826D02*
X0183352Y0188826D01*
X0182051Y0190424D02*
X0179300Y0190424D01*
X0073280Y0082650D02*
X0073280Y0059650D01*
X0073277Y0059431D01*
X0073269Y0059212D01*
X0073256Y0058993D01*
X0073237Y0058775D01*
X0073213Y0058557D01*
X0073184Y0058340D01*
X0073150Y0058123D01*
X0073110Y0057908D01*
X0073065Y0057693D01*
X0073014Y0057480D01*
X0072959Y0057268D01*
X0072898Y0057057D01*
X0072833Y0056848D01*
X0072762Y0056641D01*
X0072686Y0056435D01*
X0072605Y0056231D01*
X0072520Y0056029D01*
X0072429Y0055830D01*
X0072334Y0055633D01*
X0072233Y0055438D01*
X0072128Y0055245D01*
X0072019Y0055055D01*
X0071905Y0054868D01*
X0071786Y0054684D01*
X0071663Y0054503D01*
X0071535Y0054325D01*
X0071403Y0054149D01*
X0071267Y0053978D01*
X0071127Y0053809D01*
X0070983Y0053644D01*
X0070835Y0053483D01*
X0070683Y0053325D01*
X0070527Y0053171D01*
X0070367Y0053021D01*
X0070204Y0052874D01*
X0070037Y0052732D01*
X0069867Y0052594D01*
X0069693Y0052460D01*
X0069517Y0052330D01*
X0069337Y0052205D01*
X0069154Y0052084D01*
X0068968Y0051968D01*
X0068780Y0051856D01*
X0068589Y0051749D01*
X0068395Y0051646D01*
X0068199Y0051548D01*
X0068001Y0051455D01*
X0067800Y0051367D01*
X0067597Y0051284D01*
X0067392Y0051205D01*
X0067186Y0051132D01*
X0066978Y0051064D01*
X0066768Y0051001D01*
X0066556Y0050943D01*
X0066344Y0050890D01*
X0066130Y0050842D01*
X0065915Y0050800D01*
X0065699Y0050763D01*
X0065482Y0050731D01*
X0065264Y0050704D01*
X0065046Y0050683D01*
X0064828Y0050667D01*
X0064609Y0050656D01*
X0064390Y0050651D01*
X0064170Y0050651D01*
X0063951Y0050656D01*
X0063732Y0050667D01*
X0063514Y0050683D01*
X0063296Y0050704D01*
X0063078Y0050731D01*
X0062861Y0050763D01*
X0062645Y0050800D01*
X0062430Y0050842D01*
X0062216Y0050890D01*
X0062004Y0050943D01*
X0061792Y0051001D01*
X0061582Y0051064D01*
X0061374Y0051132D01*
X0061168Y0051205D01*
X0060963Y0051284D01*
X0060760Y0051367D01*
X0060559Y0051455D01*
X0060361Y0051548D01*
X0060165Y0051646D01*
X0059971Y0051749D01*
X0059780Y0051856D01*
X0059592Y0051968D01*
X0059406Y0052084D01*
X0059223Y0052205D01*
X0059043Y0052330D01*
X0058867Y0052460D01*
X0058693Y0052594D01*
X0058523Y0052732D01*
X0058356Y0052874D01*
X0058193Y0053021D01*
X0058033Y0053171D01*
X0057877Y0053325D01*
X0057725Y0053483D01*
X0057577Y0053644D01*
X0057433Y0053809D01*
X0057293Y0053978D01*
X0057157Y0054149D01*
X0057025Y0054325D01*
X0056897Y0054503D01*
X0056774Y0054684D01*
X0056655Y0054868D01*
X0056541Y0055055D01*
X0056432Y0055245D01*
X0056327Y0055438D01*
X0056226Y0055633D01*
X0056131Y0055830D01*
X0056040Y0056029D01*
X0055955Y0056231D01*
X0055874Y0056435D01*
X0055798Y0056641D01*
X0055727Y0056848D01*
X0055662Y0057057D01*
X0055601Y0057268D01*
X0055546Y0057480D01*
X0055495Y0057693D01*
X0055450Y0057908D01*
X0055410Y0058123D01*
X0055376Y0058340D01*
X0055347Y0058557D01*
X0055323Y0058775D01*
X0055304Y0058993D01*
X0055291Y0059212D01*
X0055283Y0059431D01*
X0055280Y0059650D01*
X0055280Y0082650D01*
X0055283Y0082869D01*
X0055291Y0083088D01*
X0055304Y0083307D01*
X0055323Y0083525D01*
X0055347Y0083743D01*
X0055376Y0083960D01*
X0055410Y0084177D01*
X0055450Y0084392D01*
X0055495Y0084607D01*
X0055546Y0084820D01*
X0055601Y0085032D01*
X0055662Y0085243D01*
X0055727Y0085452D01*
X0055798Y0085659D01*
X0055874Y0085865D01*
X0055955Y0086069D01*
X0056040Y0086271D01*
X0056131Y0086470D01*
X0056226Y0086667D01*
X0056327Y0086862D01*
X0056432Y0087055D01*
X0056541Y0087245D01*
X0056655Y0087432D01*
X0056774Y0087616D01*
X0056897Y0087797D01*
X0057025Y0087975D01*
X0057157Y0088151D01*
X0057293Y0088322D01*
X0057433Y0088491D01*
X0057577Y0088656D01*
X0057725Y0088817D01*
X0057877Y0088975D01*
X0058033Y0089129D01*
X0058193Y0089279D01*
X0058356Y0089426D01*
X0058523Y0089568D01*
X0058693Y0089706D01*
X0058867Y0089840D01*
X0059043Y0089970D01*
X0059223Y0090095D01*
X0059406Y0090216D01*
X0059592Y0090332D01*
X0059780Y0090444D01*
X0059971Y0090551D01*
X0060165Y0090654D01*
X0060361Y0090752D01*
X0060559Y0090845D01*
X0060760Y0090933D01*
X0060963Y0091016D01*
X0061168Y0091095D01*
X0061374Y0091168D01*
X0061582Y0091236D01*
X0061792Y0091299D01*
X0062004Y0091357D01*
X0062216Y0091410D01*
X0062430Y0091458D01*
X0062645Y0091500D01*
X0062861Y0091537D01*
X0063078Y0091569D01*
X0063296Y0091596D01*
X0063514Y0091617D01*
X0063732Y0091633D01*
X0063951Y0091644D01*
X0064170Y0091649D01*
X0064390Y0091649D01*
X0064609Y0091644D01*
X0064828Y0091633D01*
X0065046Y0091617D01*
X0065264Y0091596D01*
X0065482Y0091569D01*
X0065699Y0091537D01*
X0065915Y0091500D01*
X0066130Y0091458D01*
X0066344Y0091410D01*
X0066556Y0091357D01*
X0066768Y0091299D01*
X0066978Y0091236D01*
X0067186Y0091168D01*
X0067392Y0091095D01*
X0067597Y0091016D01*
X0067800Y0090933D01*
X0068001Y0090845D01*
X0068199Y0090752D01*
X0068395Y0090654D01*
X0068589Y0090551D01*
X0068780Y0090444D01*
X0068968Y0090332D01*
X0069154Y0090216D01*
X0069337Y0090095D01*
X0069517Y0089970D01*
X0069693Y0089840D01*
X0069867Y0089706D01*
X0070037Y0089568D01*
X0070204Y0089426D01*
X0070367Y0089279D01*
X0070527Y0089129D01*
X0070683Y0088975D01*
X0070835Y0088817D01*
X0070983Y0088656D01*
X0071127Y0088491D01*
X0071267Y0088322D01*
X0071403Y0088151D01*
X0071535Y0087975D01*
X0071663Y0087797D01*
X0071786Y0087616D01*
X0071905Y0087432D01*
X0072019Y0087245D01*
X0072128Y0087055D01*
X0072233Y0086862D01*
X0072334Y0086667D01*
X0072429Y0086470D01*
X0072520Y0086271D01*
X0072605Y0086069D01*
X0072686Y0085865D01*
X0072762Y0085659D01*
X0072833Y0085452D01*
X0072898Y0085243D01*
X0072959Y0085032D01*
X0073014Y0084820D01*
X0073065Y0084607D01*
X0073110Y0084392D01*
X0073150Y0084177D01*
X0073184Y0083960D01*
X0073213Y0083743D01*
X0073237Y0083525D01*
X0073256Y0083307D01*
X0073269Y0083088D01*
X0073277Y0082869D01*
X0073280Y0082650D01*
D12*
X0039100Y0068510D02*
X0039100Y0066975D01*
X0038333Y0066208D01*
X0035263Y0069277D01*
X0038333Y0069277D01*
X0039100Y0068510D01*
X0038333Y0066208D02*
X0035263Y0066208D01*
X0034496Y0066975D01*
X0034496Y0068510D01*
X0035263Y0069277D01*
X0035263Y0064673D02*
X0036031Y0064673D01*
X0036798Y0063906D01*
X0037565Y0064673D01*
X0038333Y0064673D01*
X0039100Y0063906D01*
X0039100Y0062371D01*
X0038333Y0061604D01*
X0038333Y0060069D02*
X0037565Y0060069D01*
X0036798Y0059302D01*
X0036798Y0058535D01*
X0036798Y0059302D02*
X0036031Y0060069D01*
X0035263Y0060069D01*
X0034496Y0059302D01*
X0034496Y0057767D01*
X0035263Y0057000D01*
X0038333Y0057000D02*
X0039100Y0057767D01*
X0039100Y0059302D01*
X0038333Y0060069D01*
X0036798Y0063139D02*
X0036798Y0063906D01*
X0035263Y0064673D02*
X0034496Y0063906D01*
X0034496Y0062371D01*
X0035263Y0061604D01*
X0026777Y0065267D02*
X0026777Y0068337D01*
X0026010Y0069104D01*
X0023708Y0069104D01*
X0023708Y0064500D01*
X0026010Y0064500D01*
X0026777Y0065267D01*
X0022173Y0064500D02*
X0022173Y0069104D01*
X0019104Y0069104D02*
X0019104Y0064500D01*
X0017569Y0065267D02*
X0017569Y0066802D01*
X0016035Y0066802D01*
X0017569Y0068337D02*
X0016802Y0069104D01*
X0015267Y0069104D01*
X0014500Y0068337D01*
X0014500Y0065267D01*
X0015267Y0064500D01*
X0016802Y0064500D01*
X0017569Y0065267D01*
X0019104Y0069104D02*
X0022173Y0064500D01*
X0021406Y0074500D02*
X0019871Y0074500D01*
X0019104Y0075267D01*
X0020639Y0076802D02*
X0021406Y0076802D01*
X0022173Y0076035D01*
X0022173Y0075267D01*
X0021406Y0074500D01*
X0021406Y0076802D02*
X0022173Y0077569D01*
X0022173Y0078337D01*
X0021406Y0079104D01*
X0019871Y0079104D01*
X0019104Y0078337D01*
X0017569Y0076802D02*
X0014500Y0076802D01*
X0016035Y0078337D02*
X0016035Y0075267D01*
X0023708Y0076035D02*
X0025242Y0074500D01*
X0026777Y0076035D01*
X0026777Y0079104D01*
X0028312Y0078337D02*
X0029079Y0079104D01*
X0030614Y0079104D01*
X0031381Y0078337D01*
X0031381Y0077569D01*
X0030614Y0076802D01*
X0031381Y0076035D01*
X0031381Y0075267D01*
X0030614Y0074500D01*
X0029079Y0074500D01*
X0028312Y0075267D01*
X0029846Y0076802D02*
X0030614Y0076802D01*
X0023708Y0076035D02*
X0023708Y0079104D01*
X0021406Y0084500D02*
X0021406Y0089104D01*
X0019104Y0086802D01*
X0022173Y0086802D01*
X0017569Y0086802D02*
X0014500Y0086802D01*
X0014500Y0087569D02*
X0016035Y0089104D01*
X0017569Y0087569D01*
X0017569Y0084500D01*
X0014500Y0084500D02*
X0014500Y0087569D01*
X0014500Y0094500D02*
X0016802Y0094500D01*
X0017569Y0095267D01*
X0017569Y0096035D01*
X0016802Y0096802D01*
X0014500Y0096802D01*
X0014500Y0094500D02*
X0014500Y0099104D01*
X0016802Y0099104D01*
X0017569Y0098337D01*
X0017569Y0097569D01*
X0016802Y0096802D01*
X0019104Y0096802D02*
X0022173Y0096802D01*
X0021406Y0094500D02*
X0021406Y0099104D01*
X0019104Y0096802D01*
X0019871Y0104500D02*
X0019104Y0105267D01*
X0019871Y0104500D02*
X0021406Y0104500D01*
X0022173Y0105267D01*
X0022173Y0106035D01*
X0021406Y0106802D01*
X0020639Y0106802D01*
X0021406Y0106802D02*
X0022173Y0107569D01*
X0022173Y0108337D01*
X0021406Y0109104D01*
X0019871Y0109104D01*
X0019104Y0108337D01*
X0017569Y0108337D02*
X0017569Y0107569D01*
X0016802Y0106802D01*
X0014500Y0106802D01*
X0014500Y0104500D02*
X0014500Y0109104D01*
X0016802Y0109104D01*
X0017569Y0108337D01*
X0016802Y0106802D02*
X0017569Y0106035D01*
X0017569Y0105267D01*
X0016802Y0104500D01*
X0014500Y0104500D01*
X0014500Y0114500D02*
X0016802Y0114500D01*
X0017569Y0115267D01*
X0017569Y0116035D01*
X0016802Y0116802D01*
X0014500Y0116802D01*
X0014500Y0114500D02*
X0014500Y0119104D01*
X0016802Y0119104D01*
X0017569Y0118337D01*
X0017569Y0117569D01*
X0016802Y0116802D01*
X0019104Y0118337D02*
X0019871Y0119104D01*
X0021406Y0119104D01*
X0022173Y0118337D01*
X0022173Y0117569D01*
X0019104Y0114500D01*
X0022173Y0114500D01*
X0022173Y0124500D02*
X0019104Y0124500D01*
X0020639Y0124500D02*
X0020639Y0129104D01*
X0019104Y0127569D01*
X0017569Y0127569D02*
X0017569Y0124500D01*
X0017569Y0126802D02*
X0014500Y0126802D01*
X0014500Y0127569D02*
X0016035Y0129104D01*
X0017569Y0127569D01*
X0014500Y0127569D02*
X0014500Y0124500D01*
X0014500Y0134500D02*
X0014500Y0137569D01*
X0016035Y0139104D01*
X0017569Y0137569D01*
X0017569Y0134500D01*
X0019104Y0135267D02*
X0022173Y0138337D01*
X0022173Y0135267D01*
X0021406Y0134500D01*
X0019871Y0134500D01*
X0019104Y0135267D01*
X0019104Y0138337D01*
X0019871Y0139104D01*
X0021406Y0139104D01*
X0022173Y0138337D01*
X0017569Y0136802D02*
X0014500Y0136802D01*
X0034496Y0115465D02*
X0037565Y0112396D01*
X0036798Y0113163D02*
X0039100Y0115465D01*
X0039100Y0112396D02*
X0034496Y0112396D01*
X0035263Y0110861D02*
X0038333Y0107792D01*
X0039100Y0108559D01*
X0039100Y0110094D01*
X0038333Y0110861D01*
X0035263Y0110861D01*
X0034496Y0110094D01*
X0034496Y0108559D01*
X0035263Y0107792D01*
X0038333Y0107792D01*
X0039100Y0106257D02*
X0039100Y0103188D01*
X0039100Y0104723D02*
X0034496Y0104723D01*
X0036031Y0103188D01*
X0043188Y0149500D02*
X0046257Y0149500D01*
X0044723Y0149500D02*
X0044723Y0154104D01*
X0043188Y0152569D01*
X0047792Y0153337D02*
X0047792Y0150267D01*
X0050861Y0153337D01*
X0050861Y0150267D01*
X0050094Y0149500D01*
X0048559Y0149500D01*
X0047792Y0150267D01*
X0047792Y0153337D02*
X0048559Y0154104D01*
X0050094Y0154104D01*
X0050861Y0153337D01*
X0052396Y0154104D02*
X0052396Y0149500D01*
X0052396Y0151035D02*
X0055465Y0154104D01*
X0053163Y0151802D02*
X0055465Y0149500D01*
X0119496Y0171035D02*
X0124100Y0171035D01*
X0124100Y0172569D02*
X0124100Y0169500D01*
X0121031Y0169500D02*
X0119496Y0171035D01*
X0121031Y0174104D02*
X0123333Y0174104D01*
X0124100Y0174871D01*
X0124100Y0177173D01*
X0121031Y0177173D01*
X0121798Y0178708D02*
X0121798Y0180242D01*
X0119496Y0178708D02*
X0119496Y0181777D01*
X0119496Y0178708D02*
X0124100Y0178708D01*
X0127000Y0187000D02*
X0130069Y0187000D01*
X0128535Y0187000D02*
X0128535Y0191604D01*
X0127000Y0190069D01*
X0131604Y0190069D02*
X0131604Y0187767D01*
X0132371Y0187000D01*
X0134673Y0187000D01*
X0134673Y0190069D01*
X0136208Y0189302D02*
X0137742Y0189302D01*
X0136208Y0187000D02*
X0136208Y0191604D01*
X0139277Y0191604D01*
X0164496Y0168510D02*
X0164496Y0166975D01*
X0165263Y0166208D01*
X0168333Y0166208D01*
X0165263Y0169277D01*
X0168333Y0169277D01*
X0169100Y0168510D01*
X0169100Y0166975D01*
X0168333Y0166208D01*
X0168333Y0164673D02*
X0169100Y0163906D01*
X0169100Y0162371D01*
X0168333Y0161604D01*
X0168333Y0160069D02*
X0169100Y0159302D01*
X0169100Y0157767D01*
X0168333Y0157000D01*
X0166798Y0158535D02*
X0166798Y0159302D01*
X0167565Y0160069D01*
X0168333Y0160069D01*
X0166798Y0159302D02*
X0166031Y0160069D01*
X0165263Y0160069D01*
X0164496Y0159302D01*
X0164496Y0157767D01*
X0165263Y0157000D01*
X0165263Y0161604D02*
X0164496Y0162371D01*
X0164496Y0163906D01*
X0165263Y0164673D01*
X0166031Y0164673D01*
X0166798Y0163906D01*
X0167565Y0164673D01*
X0168333Y0164673D01*
X0166798Y0163906D02*
X0166798Y0163139D01*
X0164496Y0168510D02*
X0165263Y0169277D01*
X0141600Y0155614D02*
X0136996Y0155614D01*
X0136996Y0158683D01*
X0139298Y0157148D02*
X0139298Y0155614D01*
X0138531Y0154079D02*
X0141600Y0154079D01*
X0141600Y0151777D01*
X0140833Y0151010D01*
X0138531Y0151010D01*
X0141600Y0149475D02*
X0141600Y0146406D01*
X0141600Y0147941D02*
X0136996Y0147941D01*
X0138531Y0146406D01*
X0140833Y0144871D02*
X0141600Y0144871D01*
X0141600Y0144104D01*
X0140833Y0144104D01*
X0140833Y0144871D01*
X0140833Y0142569D02*
X0141600Y0141802D01*
X0141600Y0140267D01*
X0140833Y0139500D01*
X0137763Y0142569D01*
X0140833Y0142569D01*
X0140833Y0139500D02*
X0137763Y0139500D01*
X0136996Y0140267D01*
X0136996Y0141802D01*
X0137763Y0142569D01*
X0174500Y0139104D02*
X0174500Y0134500D01*
X0176802Y0134500D01*
X0177569Y0135267D01*
X0177569Y0136035D01*
X0176802Y0136802D01*
X0174500Y0136802D01*
X0174500Y0139104D02*
X0176802Y0139104D01*
X0177569Y0138337D01*
X0177569Y0137569D01*
X0176802Y0136802D01*
X0179104Y0137569D02*
X0180639Y0139104D01*
X0180639Y0134500D01*
X0182173Y0134500D02*
X0179104Y0134500D01*
X0183708Y0135267D02*
X0184475Y0134500D01*
X0186010Y0134500D01*
X0186777Y0135267D01*
X0186777Y0136802D01*
X0186010Y0137569D01*
X0185242Y0137569D01*
X0183708Y0136802D01*
X0183708Y0139104D01*
X0186777Y0139104D01*
X0186010Y0129104D02*
X0183708Y0126802D01*
X0186777Y0126802D01*
X0186010Y0124500D02*
X0186010Y0129104D01*
X0180639Y0129104D02*
X0180639Y0124500D01*
X0182173Y0124500D02*
X0179104Y0124500D01*
X0177569Y0125267D02*
X0176802Y0124500D01*
X0174500Y0124500D01*
X0174500Y0129104D01*
X0176802Y0129104D01*
X0177569Y0128337D01*
X0177569Y0127569D01*
X0176802Y0126802D01*
X0174500Y0126802D01*
X0176802Y0126802D02*
X0177569Y0126035D01*
X0177569Y0125267D01*
X0179104Y0127569D02*
X0180639Y0129104D01*
X0180639Y0119104D02*
X0180639Y0114500D01*
X0182173Y0114500D02*
X0179104Y0114500D01*
X0177569Y0115267D02*
X0176802Y0114500D01*
X0174500Y0114500D01*
X0174500Y0119104D01*
X0176802Y0119104D01*
X0177569Y0118337D01*
X0177569Y0117569D01*
X0176802Y0116802D01*
X0174500Y0116802D01*
X0176802Y0116802D02*
X0177569Y0116035D01*
X0177569Y0115267D01*
X0179104Y0117569D02*
X0180639Y0119104D01*
X0183708Y0118337D02*
X0184475Y0119104D01*
X0186010Y0119104D01*
X0186777Y0118337D01*
X0186777Y0117569D01*
X0186010Y0116802D01*
X0186777Y0116035D01*
X0186777Y0115267D01*
X0186010Y0114500D01*
X0184475Y0114500D01*
X0183708Y0115267D01*
X0185242Y0116802D02*
X0186010Y0116802D01*
X0181406Y0109104D02*
X0179871Y0109104D01*
X0179104Y0108337D01*
X0179104Y0107569D01*
X0179871Y0106802D01*
X0182173Y0106802D01*
X0182173Y0105267D02*
X0182173Y0108337D01*
X0181406Y0109104D01*
X0182173Y0105267D02*
X0181406Y0104500D01*
X0179871Y0104500D01*
X0179104Y0105267D01*
X0177569Y0105267D02*
X0176802Y0104500D01*
X0174500Y0104500D01*
X0174500Y0109104D01*
X0176802Y0109104D01*
X0177569Y0108337D01*
X0177569Y0107569D01*
X0176802Y0106802D01*
X0174500Y0106802D01*
X0176802Y0106802D02*
X0177569Y0106035D01*
X0177569Y0105267D01*
X0176802Y0099104D02*
X0174500Y0099104D01*
X0174500Y0094500D01*
X0176802Y0094500D01*
X0177569Y0095267D01*
X0177569Y0096035D01*
X0176802Y0096802D01*
X0174500Y0096802D01*
X0176802Y0096802D02*
X0177569Y0097569D01*
X0177569Y0098337D01*
X0176802Y0099104D01*
X0179104Y0098337D02*
X0179104Y0097569D01*
X0179871Y0096802D01*
X0181406Y0096802D01*
X0182173Y0096035D01*
X0182173Y0095267D01*
X0181406Y0094500D01*
X0179871Y0094500D01*
X0179104Y0095267D01*
X0179104Y0096035D01*
X0179871Y0096802D01*
X0181406Y0096802D02*
X0182173Y0097569D01*
X0182173Y0098337D01*
X0181406Y0099104D01*
X0179871Y0099104D01*
X0179104Y0098337D01*
X0179104Y0089104D02*
X0182173Y0089104D01*
X0182173Y0088337D01*
X0179104Y0085267D01*
X0179104Y0084500D01*
X0177569Y0085267D02*
X0176802Y0084500D01*
X0174500Y0084500D01*
X0174500Y0089104D01*
X0176802Y0089104D01*
X0177569Y0088337D01*
X0177569Y0087569D01*
X0176802Y0086802D01*
X0174500Y0086802D01*
X0176802Y0086802D02*
X0177569Y0086035D01*
X0177569Y0085267D01*
X0176604Y0079104D02*
X0176604Y0076802D01*
X0178139Y0077569D01*
X0178906Y0077569D01*
X0179673Y0076802D01*
X0179673Y0075267D01*
X0178906Y0074500D01*
X0177371Y0074500D01*
X0176604Y0075267D01*
X0175069Y0076802D02*
X0172000Y0076802D01*
X0173535Y0078337D02*
X0173535Y0075267D01*
X0176604Y0079104D02*
X0179673Y0079104D01*
X0181208Y0079104D02*
X0181208Y0076035D01*
X0182742Y0074500D01*
X0184277Y0076035D01*
X0184277Y0079104D01*
X0183510Y0069104D02*
X0181208Y0069104D01*
X0181208Y0064500D01*
X0183510Y0064500D01*
X0184277Y0065267D01*
X0184277Y0068337D01*
X0183510Y0069104D01*
X0179673Y0069104D02*
X0179673Y0064500D01*
X0176604Y0069104D01*
X0176604Y0064500D01*
X0175069Y0065267D02*
X0175069Y0066802D01*
X0173535Y0066802D01*
X0175069Y0068337D02*
X0174302Y0069104D01*
X0172767Y0069104D01*
X0172000Y0068337D01*
X0172000Y0065267D01*
X0172767Y0064500D01*
X0174302Y0064500D01*
X0175069Y0065267D01*
X0149100Y0064871D02*
X0148333Y0064104D01*
X0145263Y0067173D01*
X0148333Y0067173D01*
X0149100Y0066406D01*
X0149100Y0064871D01*
X0148333Y0064104D02*
X0145263Y0064104D01*
X0144496Y0064871D01*
X0144496Y0066406D01*
X0145263Y0067173D01*
X0146031Y0068708D02*
X0148333Y0068708D01*
X0149100Y0069475D01*
X0149100Y0071777D01*
X0146031Y0071777D01*
X0146798Y0073312D02*
X0146798Y0074846D01*
X0149100Y0073312D02*
X0144496Y0073312D01*
X0144496Y0076381D01*
X0149100Y0062569D02*
X0149100Y0059500D01*
X0149100Y0061035D02*
X0144496Y0061035D01*
X0146031Y0059500D01*
X0146024Y0030364D02*
X0146024Y0026527D01*
X0145256Y0025760D01*
X0143722Y0025760D01*
X0142954Y0026527D01*
X0142954Y0030364D01*
X0147558Y0029596D02*
X0147558Y0028829D01*
X0148326Y0028062D01*
X0149860Y0028062D01*
X0150628Y0027294D01*
X0150628Y0026527D01*
X0149860Y0025760D01*
X0148326Y0025760D01*
X0147558Y0026527D01*
X0147558Y0029596D02*
X0148326Y0030364D01*
X0149860Y0030364D01*
X0150628Y0029596D01*
X0152162Y0030364D02*
X0152162Y0025760D01*
X0155231Y0025760D01*
X0156766Y0025760D02*
X0156766Y0030364D01*
X0159068Y0030364D01*
X0159835Y0029596D01*
X0159835Y0028062D01*
X0159068Y0027294D01*
X0156766Y0027294D01*
X0158301Y0027294D02*
X0159835Y0025760D01*
X0155231Y0030364D02*
X0152162Y0030364D01*
X0152162Y0028062D02*
X0153697Y0028062D01*
X0173220Y0027294D02*
X0175522Y0027294D01*
X0176290Y0028062D01*
X0176290Y0029596D01*
X0175522Y0030364D01*
X0173220Y0030364D01*
X0173220Y0025760D01*
X0174755Y0027294D02*
X0176290Y0025760D01*
X0177824Y0025760D02*
X0180894Y0025760D01*
X0182428Y0026527D02*
X0183196Y0025760D01*
X0184730Y0025760D01*
X0185498Y0026527D01*
X0185498Y0027294D01*
X0184730Y0028062D01*
X0183196Y0028062D01*
X0182428Y0028829D01*
X0182428Y0029596D01*
X0183196Y0030364D01*
X0184730Y0030364D01*
X0185498Y0029596D01*
X0187032Y0030364D02*
X0187032Y0025760D01*
X0190102Y0025760D01*
X0188567Y0028062D02*
X0187032Y0028062D01*
X0187032Y0030364D02*
X0190102Y0030364D01*
X0191636Y0030364D02*
X0194705Y0030364D01*
X0193171Y0030364D02*
X0193171Y0025760D01*
X0180894Y0030364D02*
X0177824Y0030364D01*
X0177824Y0025760D01*
X0177824Y0028062D02*
X0179359Y0028062D01*
X0086183Y0026604D02*
X0083114Y0026604D01*
X0083114Y0022000D01*
X0081579Y0022000D02*
X0081579Y0025069D01*
X0083114Y0024302D02*
X0084648Y0024302D01*
X0081579Y0022000D02*
X0079277Y0022000D01*
X0078510Y0022767D01*
X0078510Y0025069D01*
X0076975Y0022000D02*
X0073906Y0022000D01*
X0075441Y0022000D02*
X0075441Y0026604D01*
X0073906Y0025069D01*
X0072371Y0022767D02*
X0071604Y0022767D01*
X0071604Y0022000D01*
X0072371Y0022000D01*
X0072371Y0022767D01*
X0070069Y0022767D02*
X0069302Y0022000D01*
X0067767Y0022000D01*
X0067000Y0022767D01*
X0070069Y0025837D01*
X0070069Y0022767D01*
X0067000Y0022767D02*
X0067000Y0025837D01*
X0067767Y0026604D01*
X0069302Y0026604D01*
X0070069Y0025837D01*
D13*
X0070181Y0010653D02*
X0071415Y0010653D01*
X0072032Y0010036D01*
X0072032Y0009419D01*
X0071415Y0008802D01*
X0072032Y0008184D01*
X0072032Y0007567D01*
X0071415Y0006950D01*
X0070181Y0006950D01*
X0069563Y0007567D01*
X0068349Y0008802D02*
X0065880Y0008802D01*
X0067732Y0010653D01*
X0067732Y0006950D01*
X0070798Y0008802D02*
X0071415Y0008802D01*
X0073247Y0010036D02*
X0073864Y0010653D01*
X0075098Y0010653D01*
X0075715Y0010036D01*
X0075715Y0009419D01*
X0075098Y0008802D01*
X0075715Y0008184D01*
X0075715Y0007567D01*
X0075098Y0006950D01*
X0073864Y0006950D01*
X0073247Y0007567D01*
X0074481Y0008802D02*
X0075098Y0008802D01*
X0070181Y0010653D02*
X0069563Y0010036D01*
X0060983Y0010653D02*
X0058514Y0010653D01*
X0058514Y0006950D01*
X0060983Y0006950D01*
X0059748Y0008802D02*
X0058514Y0008802D01*
X0057300Y0010653D02*
X0057300Y0006950D01*
X0054831Y0006950D02*
X0054831Y0010653D01*
X0056065Y0009419D01*
X0057300Y0010653D01*
X0049920Y0010653D02*
X0049920Y0006950D01*
X0045023Y0006950D02*
X0043171Y0006950D01*
X0042554Y0007567D01*
X0042554Y0008802D01*
X0043171Y0009419D01*
X0045023Y0009419D01*
X0045023Y0006333D01*
X0044405Y0005716D01*
X0043788Y0005716D01*
X0041339Y0006950D02*
X0041339Y0008802D01*
X0040722Y0009419D01*
X0038871Y0009419D01*
X0038871Y0006950D01*
X0037656Y0006950D02*
X0037656Y0008802D01*
X0037039Y0009419D01*
X0035805Y0009419D01*
X0035805Y0008184D02*
X0037656Y0008184D01*
X0037656Y0006950D02*
X0035805Y0006950D01*
X0035187Y0007567D01*
X0035805Y0008184D01*
X0033973Y0010036D02*
X0033973Y0010653D01*
X0033973Y0010036D02*
X0032739Y0008802D01*
X0032739Y0006950D01*
X0032739Y0008802D02*
X0031504Y0010036D01*
X0031504Y0010653D01*
X0026607Y0008802D02*
X0026607Y0006950D01*
X0024755Y0006950D01*
X0024138Y0007567D01*
X0024755Y0008184D01*
X0026607Y0008184D01*
X0026607Y0008802D02*
X0025990Y0009419D01*
X0024755Y0009419D01*
X0022300Y0010653D02*
X0022300Y0006950D01*
X0021683Y0006950D02*
X0022917Y0006950D01*
X0020468Y0008184D02*
X0017999Y0008184D01*
X0017999Y0007567D02*
X0017999Y0008802D01*
X0018617Y0009419D01*
X0019851Y0009419D01*
X0020468Y0008802D01*
X0020468Y0008184D01*
X0019851Y0006950D02*
X0018617Y0006950D01*
X0017999Y0007567D01*
X0016785Y0006950D02*
X0014933Y0006950D01*
X0014316Y0007567D01*
X0014316Y0008802D01*
X0014933Y0009419D01*
X0016785Y0009419D01*
X0016785Y0006333D01*
X0016168Y0005716D01*
X0015551Y0005716D01*
X0013102Y0006950D02*
X0013102Y0008802D01*
X0012485Y0009419D01*
X0010633Y0009419D01*
X0010633Y0006950D01*
X0009419Y0006950D02*
X0009419Y0009419D01*
X0008184Y0010653D01*
X0006950Y0009419D01*
X0006950Y0006950D01*
X0006950Y0008802D02*
X0009419Y0008802D01*
X0021683Y0010653D02*
X0022300Y0010653D01*
X0080613Y0010653D02*
X0080613Y0006950D01*
X0085524Y0006950D02*
X0087993Y0009419D01*
X0087993Y0010036D01*
X0087375Y0010653D01*
X0086141Y0010653D01*
X0085524Y0010036D01*
X0085524Y0006950D02*
X0087993Y0006950D01*
X0089207Y0007567D02*
X0091676Y0010036D01*
X0091676Y0007567D01*
X0091058Y0006950D01*
X0089824Y0006950D01*
X0089207Y0007567D01*
X0089207Y0010036D01*
X0089824Y0010653D01*
X0091058Y0010653D01*
X0091676Y0010036D01*
X0092890Y0009419D02*
X0094124Y0010653D01*
X0094124Y0006950D01*
X0092890Y0006950D02*
X0095359Y0006950D01*
X0096573Y0007567D02*
X0096573Y0008802D01*
X0098425Y0008802D01*
X0099042Y0008184D01*
X0099042Y0007567D01*
X0098425Y0006950D01*
X0097190Y0006950D01*
X0096573Y0007567D01*
X0096573Y0008802D02*
X0097808Y0010036D01*
X0099042Y0010653D01*
D14*
X0023650Y0034162D03*
X0023650Y0034221D03*
X0023650Y0034280D03*
X0023650Y0034339D03*
X0023650Y0034398D03*
X0023650Y0034457D03*
X0023650Y0034517D03*
X0023650Y0034576D03*
X0023650Y0034635D03*
X0023650Y0034694D03*
X0023650Y0034753D03*
X0023650Y0034812D03*
X0023650Y0034871D03*
X0023650Y0034930D03*
X0023650Y0034989D03*
X0023650Y0035048D03*
X0023650Y0035107D03*
X0023650Y0035166D03*
X0023650Y0035225D03*
X0023650Y0035284D03*
X0023650Y0035343D03*
X0023650Y0035402D03*
X0023650Y0035461D03*
X0023650Y0035520D03*
X0023650Y0035580D03*
X0023650Y0035639D03*
X0023650Y0035698D03*
X0023650Y0035757D03*
X0023650Y0035816D03*
X0023650Y0035875D03*
X0023650Y0036111D03*
X0023178Y0035993D03*
X0023178Y0035934D03*
X0023178Y0036229D03*
X0023178Y0036288D03*
X0023178Y0036347D03*
X0023178Y0036406D03*
X0023178Y0036465D03*
X0023178Y0036524D03*
X0023178Y0036583D03*
X0023178Y0036643D03*
X0023178Y0036702D03*
X0023178Y0036761D03*
X0023178Y0036820D03*
X0023178Y0036879D03*
X0023178Y0036938D03*
X0023178Y0036997D03*
X0023178Y0037056D03*
X0023178Y0037115D03*
X0023178Y0037174D03*
X0023178Y0037233D03*
X0023178Y0037292D03*
X0023178Y0037351D03*
X0023178Y0037410D03*
X0023178Y0037469D03*
X0023178Y0037528D03*
X0023178Y0037587D03*
X0023178Y0037646D03*
X0023178Y0037706D03*
X0023178Y0037765D03*
X0023178Y0037883D03*
X0023769Y0039418D03*
X0023650Y0039536D03*
X0023650Y0039831D03*
X0023650Y0039891D03*
X0023473Y0039950D03*
X0023355Y0039950D03*
X0023355Y0040009D03*
X0023237Y0040127D03*
X0023237Y0039891D03*
X0023237Y0039831D03*
X0023355Y0039713D03*
X0021938Y0040422D03*
X0021938Y0040481D03*
X0021702Y0040540D03*
X0021702Y0040599D03*
X0021702Y0040658D03*
X0021702Y0040717D03*
X0021583Y0040717D03*
X0021347Y0040776D03*
X0021347Y0040835D03*
X0021702Y0040954D03*
X0021702Y0041013D03*
X0021702Y0041072D03*
X0021820Y0041013D03*
X0021938Y0041013D03*
X0021347Y0041367D03*
X0021229Y0041367D03*
X0021111Y0041426D03*
X0021111Y0041485D03*
X0020993Y0041485D03*
X0020993Y0041426D03*
X0020993Y0041367D03*
X0021111Y0041308D03*
X0021111Y0041249D03*
X0020993Y0041544D03*
X0020461Y0042194D03*
X0023414Y0041544D03*
X0021524Y0036583D03*
X0021524Y0036524D03*
X0021524Y0036406D03*
X0021524Y0036347D03*
X0021524Y0036288D03*
X0021524Y0036229D03*
X0021524Y0036170D03*
X0021524Y0036111D03*
X0021524Y0036052D03*
X0021524Y0035993D03*
X0021524Y0035934D03*
X0021524Y0035875D03*
X0021524Y0035816D03*
X0021524Y0035757D03*
X0021524Y0035698D03*
X0021524Y0035639D03*
X0021524Y0035580D03*
X0021524Y0035520D03*
X0021524Y0035461D03*
X0021524Y0035402D03*
X0021524Y0035343D03*
X0021524Y0035284D03*
X0021524Y0035225D03*
X0021524Y0035166D03*
X0021524Y0035107D03*
X0021524Y0035048D03*
X0021524Y0034989D03*
X0021524Y0034930D03*
X0021524Y0034871D03*
X0021524Y0034812D03*
X0020993Y0034930D03*
X0020993Y0034989D03*
X0020993Y0035048D03*
X0020993Y0035107D03*
X0020993Y0035166D03*
X0020993Y0035225D03*
X0020993Y0035284D03*
X0020993Y0035343D03*
X0020993Y0035402D03*
X0020993Y0035461D03*
X0020993Y0035520D03*
X0020993Y0035580D03*
X0015501Y0041603D03*
X0014438Y0041367D03*
X0014202Y0041367D03*
X0014202Y0041426D03*
X0014202Y0041485D03*
X0013611Y0041308D03*
X0013375Y0041249D03*
X0013198Y0041249D03*
X0013198Y0041308D03*
X0013198Y0041367D03*
X0013198Y0041426D03*
X0012725Y0041367D03*
X0012725Y0041308D03*
X0013080Y0040835D03*
X0013316Y0040954D03*
X0011544Y0041072D03*
X0011308Y0040717D03*
X0011308Y0040658D03*
X0010717Y0040835D03*
X0010717Y0040894D03*
X0010481Y0040599D03*
X0010186Y0040599D03*
X0009300Y0040776D03*
X0009300Y0040835D03*
X0009005Y0040717D03*
X0015737Y0044379D03*
X0015737Y0044438D03*
X0015737Y0044497D03*
X0015737Y0044556D03*
X0015737Y0044615D03*
X0015737Y0044792D03*
X0015737Y0044851D03*
X0015737Y0044910D03*
X0015737Y0044969D03*
X0015737Y0045028D03*
X0015737Y0045206D03*
X0015737Y0045265D03*
X0015737Y0045324D03*
X0015737Y0045383D03*
X0016091Y0045383D03*
X0016091Y0045265D03*
X0016918Y0045265D03*
X0016918Y0045324D03*
X0016918Y0045206D03*
X0016918Y0044556D03*
X0016328Y0046091D03*
X0019871Y0015383D03*
D15*
X0019664Y0015442D03*
X0020078Y0017213D03*
X0020078Y0018335D03*
X0020137Y0023828D03*
X0012578Y0029733D03*
X0012578Y0029792D03*
X0012578Y0029851D03*
X0012578Y0029910D03*
X0012578Y0029969D03*
X0012578Y0030028D03*
X0012578Y0030087D03*
X0012578Y0030146D03*
X0012578Y0030206D03*
X0012578Y0030265D03*
X0012578Y0030324D03*
X0012578Y0030383D03*
X0012578Y0030442D03*
X0012578Y0030501D03*
X0012578Y0030560D03*
X0012578Y0030619D03*
X0012578Y0030678D03*
X0012578Y0030737D03*
X0012578Y0030796D03*
X0012578Y0030855D03*
X0008562Y0031032D03*
X0008562Y0031091D03*
X0008562Y0031150D03*
X0008562Y0031209D03*
X0008562Y0031269D03*
X0008562Y0031328D03*
X0008562Y0031387D03*
X0008562Y0031446D03*
X0008562Y0031505D03*
X0008562Y0031564D03*
X0008562Y0031623D03*
X0008562Y0031682D03*
X0008562Y0031741D03*
X0008562Y0031800D03*
X0008562Y0031859D03*
X0008562Y0031918D03*
X0008562Y0031977D03*
X0008562Y0032036D03*
X0008562Y0032095D03*
X0008562Y0032154D03*
X0008562Y0032213D03*
X0008562Y0032272D03*
X0008562Y0032331D03*
X0008562Y0032391D03*
X0008562Y0032450D03*
X0008562Y0032509D03*
X0008562Y0032568D03*
X0008562Y0032627D03*
X0008562Y0032686D03*
X0008562Y0032745D03*
X0008562Y0032804D03*
X0008562Y0032863D03*
X0008562Y0032922D03*
X0008562Y0032981D03*
X0008562Y0033040D03*
X0008562Y0033099D03*
X0008562Y0033158D03*
X0008562Y0033217D03*
X0008562Y0033276D03*
X0008562Y0033335D03*
X0008562Y0033394D03*
X0012105Y0040835D03*
X0017952Y0041485D03*
X0017952Y0041898D03*
X0017952Y0041957D03*
X0019074Y0042902D03*
X0022617Y0040540D03*
D16*
X0022912Y0038532D03*
X0014940Y0040481D03*
X0014467Y0040422D03*
X0014349Y0041190D03*
X0014408Y0041898D03*
X0008680Y0041721D03*
X0018483Y0028375D03*
X0018483Y0028257D03*
X0023975Y0024182D03*
X0024743Y0018394D03*
X0020432Y0017509D03*
X0019428Y0015501D03*
D17*
X0019221Y0015560D03*
X0020757Y0017804D03*
X0015501Y0022587D03*
X0018217Y0033749D03*
X0020934Y0039418D03*
X0012961Y0040658D03*
X0012430Y0040599D03*
X0011485Y0041426D03*
X0011072Y0041367D03*
X0009831Y0042725D03*
D18*
X0010186Y0042843D03*
X0011485Y0039654D03*
X0017627Y0043375D03*
X0021229Y0034339D03*
X0021938Y0016918D03*
X0021524Y0016741D03*
X0021406Y0016682D03*
X0021288Y0016623D03*
X0021111Y0016564D03*
X0019044Y0015619D03*
X0011603Y0017804D03*
D19*
X0011308Y0018749D03*
X0011308Y0018808D03*
X0011308Y0018867D03*
X0011308Y0018926D03*
X0011308Y0018985D03*
X0011308Y0019044D03*
X0011308Y0019103D03*
X0011308Y0019162D03*
X0011308Y0019221D03*
X0011308Y0019280D03*
X0011308Y0019339D03*
X0011308Y0019398D03*
X0011308Y0019457D03*
X0011308Y0019517D03*
X0011308Y0019576D03*
X0011308Y0019635D03*
X0011308Y0019694D03*
X0011308Y0019753D03*
X0011308Y0019812D03*
X0011308Y0019871D03*
X0011308Y0019930D03*
X0011308Y0019989D03*
X0011308Y0020048D03*
X0011308Y0020107D03*
X0011308Y0020166D03*
X0011308Y0020225D03*
X0011308Y0020284D03*
X0011308Y0020343D03*
X0011308Y0020402D03*
X0011308Y0020461D03*
X0011308Y0020520D03*
X0011308Y0020580D03*
X0011308Y0020639D03*
X0011308Y0020698D03*
X0011308Y0020757D03*
X0011308Y0020816D03*
X0011308Y0020875D03*
X0011308Y0020934D03*
X0011249Y0022587D03*
X0011249Y0022646D03*
X0011249Y0022706D03*
X0011249Y0022765D03*
X0011249Y0022824D03*
X0011249Y0029083D03*
X0011249Y0029320D03*
X0011249Y0029379D03*
X0009891Y0033631D03*
X0015146Y0039300D03*
X0021524Y0034162D03*
X0018867Y0015678D03*
D20*
X0018660Y0015737D03*
X0017125Y0017213D03*
X0021790Y0022469D03*
X0021790Y0022528D03*
X0021790Y0022587D03*
X0021790Y0022646D03*
X0021790Y0022706D03*
X0021790Y0022765D03*
X0021790Y0022824D03*
X0021790Y0022883D03*
X0021790Y0022942D03*
X0021790Y0023001D03*
X0021790Y0023060D03*
X0021790Y0023119D03*
X0021790Y0023178D03*
X0021790Y0023237D03*
X0022676Y0023650D03*
X0017243Y0033631D03*
X0017243Y0034930D03*
X0016062Y0043020D03*
X0016593Y0044083D03*
D21*
X0010540Y0039418D03*
X0010540Y0039359D03*
X0010540Y0039300D03*
X0010540Y0039241D03*
X0010540Y0039182D03*
X0010540Y0039123D03*
X0010540Y0039064D03*
X0010540Y0039005D03*
X0010540Y0038946D03*
X0010540Y0038887D03*
X0010540Y0038828D03*
X0010540Y0034517D03*
X0010540Y0034457D03*
X0010540Y0034398D03*
X0010540Y0034339D03*
X0010540Y0034280D03*
X0010540Y0034221D03*
X0010540Y0034162D03*
X0010540Y0034103D03*
X0010540Y0034044D03*
X0010540Y0033985D03*
X0010540Y0033926D03*
X0010540Y0033867D03*
X0010540Y0033808D03*
X0010540Y0033749D03*
X0010540Y0033690D03*
X0016800Y0022528D03*
X0016800Y0022469D03*
X0016800Y0022410D03*
X0016800Y0022351D03*
X0016800Y0022292D03*
X0016800Y0022233D03*
X0016800Y0022174D03*
X0016800Y0022115D03*
X0018454Y0015796D03*
D22*
X0018306Y0015855D03*
D23*
X0018129Y0015914D03*
D24*
X0017952Y0015973D03*
D25*
X0017774Y0016032D03*
X0009920Y0017213D03*
D26*
X0017627Y0016091D03*
D27*
X0017450Y0016150D03*
D28*
X0017272Y0016209D03*
X0016623Y0039891D03*
D29*
X0017095Y0016269D03*
D30*
X0016918Y0016328D03*
D31*
X0016711Y0016387D03*
D32*
X0016564Y0016446D03*
D33*
X0016416Y0016505D03*
D34*
X0014467Y0016564D03*
D35*
X0013965Y0016623D03*
X0013493Y0016682D03*
X0013020Y0016741D03*
D36*
X0019103Y0016741D03*
X0022174Y0024123D03*
X0022233Y0029320D03*
X0024654Y0038414D03*
X0024064Y0039064D03*
X0024064Y0039536D03*
X0024064Y0039595D03*
X0024005Y0039891D03*
X0023887Y0039950D03*
X0023828Y0040009D03*
X0023591Y0040127D03*
X0023828Y0040422D03*
X0023946Y0040363D03*
X0024123Y0040245D03*
X0024241Y0040186D03*
X0024418Y0040068D03*
X0024536Y0040009D03*
X0024595Y0039950D03*
X0024654Y0039831D03*
X0024654Y0039772D03*
X0024654Y0039713D03*
X0024654Y0039654D03*
X0024654Y0039595D03*
X0023532Y0039359D03*
X0023414Y0039418D03*
X0023178Y0039536D03*
X0022883Y0039713D03*
X0023532Y0040599D03*
X0023650Y0040540D03*
X0023355Y0040717D03*
X0023237Y0040776D03*
X0023532Y0041072D03*
X0023650Y0041013D03*
X0023769Y0040954D03*
X0023355Y0041190D03*
X0023237Y0041249D03*
X0023178Y0041839D03*
X0022646Y0041131D03*
X0022351Y0041308D03*
X0021524Y0040422D03*
X0021229Y0040599D03*
X0020107Y0040835D03*
X0020048Y0041839D03*
X0020048Y0041898D03*
X0020048Y0041957D03*
X0020048Y0042017D03*
X0020048Y0042076D03*
X0020048Y0042135D03*
X0020048Y0042194D03*
X0020048Y0042253D03*
X0020048Y0042312D03*
X0020048Y0042666D03*
X0020698Y0041898D03*
X0012076Y0041308D03*
X0009182Y0040422D03*
X0008119Y0041308D03*
D37*
X0009330Y0040954D03*
X0009330Y0040894D03*
X0009270Y0040717D03*
X0009270Y0040658D03*
X0009979Y0040658D03*
X0009979Y0040717D03*
X0009979Y0040776D03*
X0009979Y0040835D03*
X0009979Y0040894D03*
X0009979Y0040954D03*
X0010511Y0040540D03*
X0010747Y0040717D03*
X0010747Y0040776D03*
X0010747Y0040954D03*
X0010747Y0041013D03*
X0010747Y0041072D03*
X0011337Y0041249D03*
X0012519Y0041308D03*
X0012696Y0041249D03*
X0012873Y0040835D03*
X0013522Y0040894D03*
X0013522Y0040954D03*
X0013404Y0041308D03*
X0013404Y0041426D03*
X0013581Y0041426D03*
X0013581Y0041485D03*
X0013581Y0041367D03*
X0013818Y0041308D03*
X0013995Y0041308D03*
X0014231Y0041544D03*
X0013936Y0040894D03*
X0015530Y0041780D03*
X0015885Y0041485D03*
X0015944Y0041426D03*
X0015944Y0041367D03*
X0015944Y0041308D03*
X0016298Y0041308D03*
X0017125Y0041485D03*
X0017125Y0041898D03*
X0018424Y0042607D03*
X0019487Y0043198D03*
X0019015Y0044674D03*
X0017125Y0044674D03*
X0017125Y0044615D03*
X0017125Y0044556D03*
X0017125Y0044733D03*
X0017125Y0044792D03*
X0017125Y0044851D03*
X0017125Y0044910D03*
X0017125Y0044969D03*
X0017125Y0045028D03*
X0017125Y0045087D03*
X0017125Y0045146D03*
X0017125Y0045206D03*
X0017125Y0045265D03*
X0017125Y0045324D03*
X0016889Y0044969D03*
X0016889Y0044910D03*
X0016889Y0044851D03*
X0016889Y0044792D03*
X0016889Y0044733D03*
X0016534Y0044615D03*
X0016534Y0044851D03*
X0016534Y0044910D03*
X0016534Y0044969D03*
X0016534Y0045028D03*
X0016534Y0045087D03*
X0016534Y0045383D03*
X0016534Y0045442D03*
X0016062Y0045442D03*
X0016062Y0045501D03*
X0016062Y0045560D03*
X0016062Y0045324D03*
X0016062Y0045087D03*
X0016062Y0045028D03*
X0016062Y0044969D03*
X0016062Y0044910D03*
X0016062Y0044851D03*
X0016062Y0044615D03*
X0016062Y0044556D03*
X0016062Y0044497D03*
X0016062Y0044438D03*
X0016062Y0044379D03*
X0015767Y0044674D03*
X0015767Y0044733D03*
X0015530Y0044733D03*
X0015530Y0044674D03*
X0015530Y0044615D03*
X0015530Y0044556D03*
X0015530Y0044497D03*
X0015530Y0044438D03*
X0015530Y0044379D03*
X0015530Y0044320D03*
X0015530Y0044792D03*
X0015530Y0044851D03*
X0015530Y0044910D03*
X0015530Y0044969D03*
X0015530Y0045028D03*
X0015530Y0045087D03*
X0015767Y0045146D03*
X0016180Y0039123D03*
X0016180Y0039064D03*
X0016180Y0039005D03*
X0016180Y0038946D03*
X0016180Y0038887D03*
X0016180Y0038828D03*
X0016180Y0038769D03*
X0016180Y0038709D03*
X0016180Y0038650D03*
X0016180Y0038591D03*
X0016180Y0038532D03*
X0016180Y0038473D03*
X0016180Y0038414D03*
X0016180Y0038355D03*
X0016180Y0038296D03*
X0016180Y0038237D03*
X0016180Y0038178D03*
X0016180Y0038119D03*
X0016180Y0038060D03*
X0016180Y0038001D03*
X0015058Y0037824D03*
X0015058Y0037765D03*
X0015058Y0037706D03*
X0015058Y0037646D03*
X0015058Y0037587D03*
X0015058Y0037528D03*
X0015058Y0037469D03*
X0015058Y0037410D03*
X0015058Y0037351D03*
X0015058Y0037292D03*
X0015058Y0037233D03*
X0015058Y0037174D03*
X0015058Y0036938D03*
X0015058Y0036879D03*
X0015058Y0036820D03*
X0015058Y0036761D03*
X0015058Y0036702D03*
X0015058Y0036643D03*
X0015058Y0036583D03*
X0015058Y0036524D03*
X0015058Y0036465D03*
X0015058Y0036406D03*
X0015058Y0036347D03*
X0015058Y0036288D03*
X0015058Y0036229D03*
X0015058Y0036170D03*
X0015058Y0036111D03*
X0015058Y0036052D03*
X0015058Y0035993D03*
X0015058Y0035934D03*
X0015058Y0035875D03*
X0015058Y0035816D03*
X0015058Y0035757D03*
X0015058Y0035698D03*
X0015058Y0035639D03*
X0015058Y0035580D03*
X0015058Y0035520D03*
X0015058Y0035461D03*
X0015058Y0035402D03*
X0015058Y0035343D03*
X0015058Y0035284D03*
X0015058Y0035225D03*
X0015058Y0035166D03*
X0015058Y0035107D03*
X0015058Y0035048D03*
X0015058Y0034989D03*
X0010274Y0034989D03*
X0010274Y0035048D03*
X0010274Y0035107D03*
X0010274Y0035166D03*
X0010274Y0035225D03*
X0010274Y0035284D03*
X0010274Y0035343D03*
X0010274Y0035402D03*
X0010274Y0035461D03*
X0010274Y0035520D03*
X0010274Y0035580D03*
X0010274Y0035639D03*
X0010274Y0035698D03*
X0010274Y0035757D03*
X0010274Y0035816D03*
X0010274Y0035875D03*
X0010274Y0035934D03*
X0010274Y0035993D03*
X0010274Y0036052D03*
X0010274Y0036111D03*
X0010274Y0036170D03*
X0010274Y0036229D03*
X0010274Y0036288D03*
X0010274Y0036347D03*
X0010274Y0036406D03*
X0010274Y0036465D03*
X0010274Y0036524D03*
X0010274Y0036761D03*
X0010274Y0036820D03*
X0010274Y0036879D03*
X0010274Y0036938D03*
X0010274Y0036997D03*
X0010274Y0037056D03*
X0010274Y0037115D03*
X0010274Y0037174D03*
X0010274Y0037233D03*
X0010274Y0037292D03*
X0010274Y0037351D03*
X0010274Y0037410D03*
X0010274Y0037469D03*
X0010274Y0037528D03*
X0010274Y0037587D03*
X0010274Y0037646D03*
X0010274Y0037706D03*
X0010274Y0037765D03*
X0010274Y0037824D03*
X0010274Y0037883D03*
X0010274Y0037942D03*
X0010274Y0038001D03*
X0010274Y0038060D03*
X0010274Y0038119D03*
X0010274Y0038178D03*
X0010274Y0038237D03*
X0010274Y0038296D03*
X0010274Y0038355D03*
X0010274Y0038414D03*
X0010274Y0038473D03*
X0011278Y0038591D03*
X0010274Y0034930D03*
X0010274Y0034871D03*
X0010274Y0034812D03*
X0010274Y0034753D03*
X0010274Y0034694D03*
X0010274Y0034635D03*
X0020963Y0035639D03*
X0020963Y0035698D03*
X0020963Y0035757D03*
X0020963Y0035816D03*
X0020963Y0035875D03*
X0020963Y0035934D03*
X0020963Y0035993D03*
X0020963Y0036052D03*
X0020963Y0036111D03*
X0020963Y0036170D03*
X0020963Y0036229D03*
X0020963Y0036288D03*
X0020963Y0036347D03*
X0020963Y0036406D03*
X0020963Y0036465D03*
X0020963Y0036524D03*
X0020963Y0036583D03*
X0020963Y0036643D03*
X0020963Y0036702D03*
X0020963Y0036761D03*
X0020963Y0036820D03*
X0020963Y0036997D03*
X0020963Y0037056D03*
X0020963Y0037115D03*
X0020963Y0037174D03*
X0020963Y0037233D03*
X0020963Y0037292D03*
X0020963Y0037351D03*
X0020963Y0037410D03*
X0020963Y0037469D03*
X0020963Y0037528D03*
X0020963Y0037587D03*
X0020963Y0037646D03*
X0020963Y0037706D03*
X0020963Y0037765D03*
X0020963Y0037824D03*
X0020963Y0037883D03*
X0020963Y0037942D03*
X0020963Y0038001D03*
X0020963Y0038060D03*
X0020963Y0038119D03*
X0020963Y0038178D03*
X0020963Y0038237D03*
X0020963Y0038296D03*
X0020963Y0038355D03*
X0020963Y0038414D03*
X0020963Y0038473D03*
X0020963Y0038532D03*
X0020963Y0038591D03*
X0020963Y0038650D03*
X0020963Y0038709D03*
X0020963Y0038769D03*
X0020963Y0038828D03*
X0020963Y0038887D03*
X0021495Y0038650D03*
X0021495Y0038591D03*
X0021495Y0038532D03*
X0021495Y0038473D03*
X0021495Y0038414D03*
X0021495Y0038355D03*
X0021495Y0038296D03*
X0021495Y0038237D03*
X0021495Y0038178D03*
X0021495Y0038119D03*
X0021495Y0038060D03*
X0021495Y0038001D03*
X0021495Y0037942D03*
X0021495Y0037883D03*
X0021495Y0037824D03*
X0021495Y0037765D03*
X0021495Y0037706D03*
X0021495Y0037646D03*
X0021495Y0037587D03*
X0021495Y0037528D03*
X0021495Y0037469D03*
X0021495Y0037410D03*
X0021495Y0037351D03*
X0021495Y0037292D03*
X0021495Y0037233D03*
X0021495Y0037174D03*
X0021495Y0037115D03*
X0021495Y0037056D03*
X0021495Y0036997D03*
X0021495Y0036938D03*
X0021495Y0036879D03*
X0021495Y0036820D03*
X0021495Y0036465D03*
X0023207Y0036052D03*
X0023207Y0035875D03*
X0023207Y0035816D03*
X0023207Y0035757D03*
X0023207Y0035698D03*
X0023207Y0035639D03*
X0023207Y0035580D03*
X0023207Y0035520D03*
X0023207Y0035461D03*
X0023207Y0035402D03*
X0023207Y0035343D03*
X0023207Y0035284D03*
X0023207Y0035225D03*
X0023207Y0035166D03*
X0023207Y0035107D03*
X0023207Y0035048D03*
X0023207Y0034989D03*
X0023207Y0034930D03*
X0023207Y0034871D03*
X0023207Y0034812D03*
X0023207Y0034753D03*
X0023207Y0034694D03*
X0023207Y0034635D03*
X0023207Y0034576D03*
X0023207Y0034517D03*
X0023207Y0034457D03*
X0023207Y0034398D03*
X0023207Y0034339D03*
X0023207Y0034280D03*
X0023621Y0036170D03*
X0023621Y0036229D03*
X0023621Y0036288D03*
X0023621Y0036347D03*
X0023621Y0036406D03*
X0023621Y0036465D03*
X0023621Y0036524D03*
X0023621Y0036583D03*
X0023621Y0036643D03*
X0023621Y0036702D03*
X0023621Y0036761D03*
X0023621Y0036820D03*
X0023621Y0036879D03*
X0023621Y0036938D03*
X0023621Y0036997D03*
X0023621Y0037056D03*
X0023621Y0037115D03*
X0023621Y0037174D03*
X0023621Y0037233D03*
X0023621Y0037292D03*
X0023621Y0037351D03*
X0023621Y0037410D03*
X0023621Y0037469D03*
X0023621Y0037528D03*
X0023621Y0037587D03*
X0023621Y0037646D03*
X0023621Y0037706D03*
X0023148Y0037824D03*
X0024270Y0038828D03*
X0023621Y0039477D03*
X0023680Y0039595D03*
X0023680Y0039654D03*
X0023680Y0039713D03*
X0023680Y0039772D03*
X0023503Y0039772D03*
X0023503Y0039713D03*
X0023503Y0039654D03*
X0023503Y0039831D03*
X0023503Y0039891D03*
X0023385Y0040068D03*
X0024093Y0040599D03*
X0021908Y0040540D03*
X0021554Y0040776D03*
X0021554Y0040835D03*
X0021554Y0040894D03*
X0021554Y0040954D03*
X0021554Y0041013D03*
X0021554Y0041072D03*
X0021554Y0041131D03*
X0021554Y0041190D03*
X0021554Y0041249D03*
X0021731Y0041131D03*
X0021259Y0041131D03*
X0021259Y0041190D03*
X0021259Y0041249D03*
X0021259Y0041308D03*
X0021259Y0041072D03*
X0021259Y0041013D03*
X0021259Y0040954D03*
X0021141Y0041544D03*
X0019546Y0016741D03*
D38*
X0012578Y0016800D03*
X0011574Y0016918D03*
D39*
X0018837Y0016800D03*
X0022381Y0019162D03*
X0024979Y0018690D03*
X0013759Y0033749D03*
X0014822Y0041426D03*
X0014822Y0041485D03*
X0019133Y0041485D03*
X0019133Y0041426D03*
X0019133Y0041367D03*
X0019133Y0041308D03*
X0019133Y0041249D03*
X0019133Y0041190D03*
X0019133Y0041131D03*
X0019133Y0041072D03*
X0019133Y0041544D03*
X0019133Y0041603D03*
X0019133Y0041662D03*
X0019133Y0041721D03*
X0019133Y0041780D03*
X0019133Y0041839D03*
X0019133Y0041898D03*
X0019133Y0041957D03*
X0019133Y0042017D03*
X0019133Y0042076D03*
X0019133Y0042135D03*
X0019133Y0042194D03*
X0019133Y0042253D03*
X0019133Y0042312D03*
X0019133Y0042371D03*
X0019133Y0042430D03*
X0019133Y0042489D03*
X0019133Y0042548D03*
X0020255Y0042430D03*
X0019428Y0044143D03*
X0022558Y0040658D03*
X0024389Y0037646D03*
X0007558Y0041072D03*
X0007558Y0041131D03*
X0007558Y0041190D03*
D40*
X0008326Y0039950D03*
X0009211Y0040599D03*
X0009625Y0040599D03*
X0009920Y0040481D03*
X0009920Y0041072D03*
X0009330Y0041013D03*
X0010806Y0040599D03*
X0013109Y0041072D03*
X0013286Y0040835D03*
X0013463Y0041072D03*
X0015530Y0041249D03*
X0015530Y0041662D03*
X0015530Y0041721D03*
X0015944Y0041249D03*
X0016652Y0041249D03*
X0016711Y0041308D03*
X0016770Y0041426D03*
X0016830Y0041544D03*
X0016830Y0041780D03*
X0016830Y0041839D03*
X0016770Y0041898D03*
X0017125Y0042017D03*
X0017125Y0041367D03*
X0016357Y0041839D03*
X0019900Y0042843D03*
X0020550Y0042076D03*
X0023326Y0041662D03*
X0024211Y0038887D03*
X0016889Y0044674D03*
X0016889Y0045028D03*
X0016534Y0044792D03*
X0016121Y0044733D03*
X0016062Y0045146D03*
X0009507Y0033099D03*
X0009448Y0029851D03*
X0009448Y0029674D03*
X0007617Y0018099D03*
X0019605Y0016800D03*
D41*
X0021672Y0016800D03*
X0021790Y0016859D03*
X0022085Y0016977D03*
X0022204Y0017036D03*
X0022322Y0017095D03*
X0022735Y0017272D03*
X0021200Y0034398D03*
X0021200Y0034457D03*
X0021200Y0034517D03*
X0021200Y0034576D03*
X0017243Y0044320D03*
D42*
X0012076Y0016859D03*
D43*
X0018572Y0016859D03*
X0020225Y0017331D03*
X0020225Y0018454D03*
X0024182Y0019280D03*
X0020343Y0034871D03*
X0024123Y0037883D03*
X0022410Y0040186D03*
X0016328Y0045737D03*
X0009950Y0039891D03*
X0008709Y0038473D03*
D44*
X0009625Y0040717D03*
X0009625Y0040776D03*
X0010333Y0040776D03*
X0010333Y0040717D03*
X0010333Y0040658D03*
X0010333Y0040835D03*
X0010333Y0040894D03*
X0008739Y0042371D03*
X0012932Y0040894D03*
X0015944Y0041190D03*
X0016357Y0041721D03*
X0016357Y0041780D03*
X0016652Y0042017D03*
X0017125Y0042076D03*
X0017125Y0041308D03*
X0019959Y0042784D03*
X0019605Y0043552D03*
X0019133Y0044497D03*
X0018660Y0044733D03*
X0017007Y0045442D03*
X0016593Y0045146D03*
X0015589Y0045442D03*
X0015589Y0045501D03*
X0015589Y0045560D03*
X0020609Y0042017D03*
X0021200Y0041662D03*
X0021259Y0041603D03*
X0021495Y0041485D03*
X0021672Y0041367D03*
X0021849Y0041249D03*
X0022026Y0041131D03*
X0023267Y0041721D03*
X0023385Y0040304D03*
X0023385Y0039064D03*
X0024152Y0038650D03*
X0023089Y0036170D03*
X0023503Y0036052D03*
X0023739Y0035934D03*
X0021672Y0036643D03*
X0024802Y0018867D03*
X0019664Y0016859D03*
D45*
X0018335Y0016918D03*
X0020461Y0018631D03*
X0023946Y0019103D03*
X0020520Y0024005D03*
X0022883Y0024477D03*
X0018454Y0028198D03*
X0018513Y0033808D03*
X0018513Y0033867D03*
X0018513Y0033926D03*
X0020639Y0039713D03*
X0022824Y0038591D03*
X0015442Y0040540D03*
X0015146Y0040894D03*
X0014202Y0039064D03*
X0010009Y0041249D03*
X0009595Y0041190D03*
X0008946Y0038532D03*
X0010363Y0033217D03*
D46*
X0009152Y0040481D03*
X0009152Y0040540D03*
X0011160Y0040835D03*
X0011160Y0041013D03*
X0011160Y0041072D03*
X0019487Y0040717D03*
X0020255Y0040717D03*
X0020373Y0040658D03*
X0020491Y0040599D03*
X0020609Y0040540D03*
X0020727Y0040481D03*
X0020668Y0041013D03*
X0020668Y0041072D03*
X0020668Y0041131D03*
X0020668Y0041190D03*
X0020668Y0041249D03*
X0020668Y0041308D03*
X0020668Y0041367D03*
X0020668Y0041426D03*
X0020668Y0041485D03*
X0020668Y0041544D03*
X0020668Y0041603D03*
X0020668Y0041662D03*
X0020668Y0041721D03*
X0020963Y0042135D03*
X0020904Y0042194D03*
X0020786Y0042253D03*
X0021081Y0042076D03*
X0021200Y0042017D03*
X0021259Y0041957D03*
X0021377Y0041898D03*
X0021495Y0041839D03*
X0021554Y0041780D03*
X0021672Y0041721D03*
X0021790Y0041662D03*
X0021849Y0041603D03*
X0021967Y0041544D03*
X0022085Y0041485D03*
X0022144Y0041426D03*
X0022263Y0041367D03*
X0022440Y0041249D03*
X0022558Y0041190D03*
X0022735Y0041072D03*
X0022853Y0041013D03*
X0022971Y0040954D03*
X0023030Y0040894D03*
X0023148Y0040835D03*
X0023444Y0040658D03*
X0023739Y0040481D03*
X0024034Y0040304D03*
X0024330Y0040127D03*
X0024625Y0039891D03*
X0024684Y0039536D03*
X0024684Y0039477D03*
X0024684Y0039418D03*
X0024684Y0039359D03*
X0024684Y0039300D03*
X0024684Y0039241D03*
X0024684Y0039182D03*
X0024684Y0039123D03*
X0024684Y0039064D03*
X0024684Y0039005D03*
X0024684Y0038946D03*
X0024684Y0038887D03*
X0024684Y0038828D03*
X0024684Y0038769D03*
X0024684Y0038709D03*
X0024684Y0038650D03*
X0024093Y0039418D03*
X0024093Y0039477D03*
X0024093Y0039654D03*
X0024093Y0039713D03*
X0023562Y0039300D03*
X0023267Y0039477D03*
X0023562Y0040186D03*
X0023916Y0040835D03*
X0023207Y0041780D03*
X0022381Y0040894D03*
X0021908Y0041190D03*
X0021731Y0040304D03*
X0021790Y0040245D03*
X0021377Y0040127D03*
X0021259Y0040186D03*
X0022144Y0039713D03*
X0022263Y0039654D03*
X0020019Y0042725D03*
X0019664Y0043493D03*
X0019192Y0044438D03*
X0022204Y0029379D03*
X0024920Y0018808D03*
X0019723Y0016918D03*
D47*
X0011101Y0016977D03*
D48*
X0007587Y0017804D03*
X0018099Y0016977D03*
X0020698Y0017745D03*
X0011898Y0033394D03*
X0009182Y0038591D03*
X0017627Y0044438D03*
X0018867Y0040540D03*
X0020875Y0039477D03*
D49*
X0021111Y0040658D03*
X0021052Y0040717D03*
X0020934Y0040776D03*
X0020048Y0040894D03*
X0020048Y0040954D03*
X0020048Y0041013D03*
X0020048Y0041072D03*
X0020048Y0041131D03*
X0020048Y0041190D03*
X0020048Y0041249D03*
X0020048Y0041308D03*
X0020048Y0041367D03*
X0020048Y0041426D03*
X0020048Y0041485D03*
X0020048Y0041544D03*
X0020048Y0041603D03*
X0020048Y0041662D03*
X0020048Y0041721D03*
X0020757Y0041839D03*
X0021111Y0042548D03*
X0021052Y0042607D03*
X0020934Y0042666D03*
X0020816Y0042725D03*
X0020639Y0042843D03*
X0020461Y0042961D03*
X0020343Y0043020D03*
X0020048Y0043198D03*
X0019753Y0043375D03*
X0020107Y0042607D03*
X0021229Y0042489D03*
X0021347Y0042430D03*
X0021406Y0042371D03*
X0021524Y0042312D03*
X0021643Y0042253D03*
X0021702Y0042194D03*
X0021820Y0042135D03*
X0021938Y0042076D03*
X0021997Y0042017D03*
X0022115Y0041957D03*
X0022292Y0041839D03*
X0022410Y0041780D03*
X0022587Y0041662D03*
X0022706Y0041603D03*
X0022883Y0041485D03*
X0023001Y0041426D03*
X0023178Y0041308D03*
X0023119Y0041898D03*
X0022824Y0039772D03*
X0024005Y0039123D03*
X0024595Y0038473D03*
X0018926Y0043788D03*
X0019280Y0044320D03*
X0016328Y0045206D03*
X0012135Y0041898D03*
X0011721Y0041839D03*
X0011308Y0041780D03*
X0010127Y0041603D03*
X0009713Y0041544D03*
X0008532Y0041367D03*
X0008532Y0041013D03*
X0012784Y0033631D03*
X0012784Y0033572D03*
X0013611Y0033513D03*
X0013611Y0033454D03*
X0013611Y0033335D03*
X0013611Y0033276D03*
X0013611Y0033217D03*
X0013611Y0033158D03*
X0013611Y0033099D03*
X0013611Y0033040D03*
X0013611Y0032981D03*
X0013611Y0032922D03*
X0013611Y0032863D03*
X0013611Y0032804D03*
X0013611Y0032745D03*
X0013611Y0032686D03*
X0013611Y0032627D03*
X0013611Y0032568D03*
X0013611Y0032509D03*
X0013611Y0032450D03*
X0013611Y0032391D03*
X0013611Y0032331D03*
X0013611Y0032272D03*
X0013611Y0032213D03*
X0013611Y0032154D03*
X0013611Y0032095D03*
X0013611Y0032036D03*
X0013611Y0031977D03*
X0013611Y0031918D03*
X0013611Y0031859D03*
X0013611Y0031800D03*
X0013611Y0031741D03*
X0013611Y0031682D03*
X0013611Y0031623D03*
X0013611Y0031564D03*
X0013611Y0031505D03*
X0013611Y0031446D03*
X0013611Y0031387D03*
X0013611Y0031328D03*
X0013611Y0031269D03*
X0013611Y0031209D03*
X0013611Y0031150D03*
X0013611Y0031091D03*
X0013611Y0031032D03*
X0013611Y0030973D03*
X0013611Y0030914D03*
X0013611Y0030855D03*
X0013611Y0030796D03*
X0013611Y0030737D03*
X0013611Y0030678D03*
X0013611Y0030619D03*
X0013611Y0030560D03*
X0013611Y0030501D03*
X0013611Y0030442D03*
X0013611Y0030383D03*
X0013611Y0030324D03*
X0013611Y0030265D03*
X0013611Y0030206D03*
X0013611Y0030146D03*
X0013611Y0030087D03*
X0013611Y0030028D03*
X0013611Y0029969D03*
X0013611Y0029910D03*
X0013611Y0029851D03*
X0013611Y0029792D03*
X0013611Y0029733D03*
X0013611Y0029674D03*
X0013611Y0029615D03*
X0013611Y0029556D03*
X0013611Y0029497D03*
X0013611Y0029438D03*
X0013611Y0029379D03*
X0013611Y0029320D03*
X0013611Y0029261D03*
X0013611Y0029202D03*
X0013611Y0029143D03*
X0013611Y0028257D03*
X0013611Y0028198D03*
X0013611Y0028139D03*
X0013611Y0028080D03*
X0013611Y0028020D03*
X0013611Y0027961D03*
X0013611Y0027902D03*
X0013611Y0027843D03*
X0013611Y0027784D03*
X0013611Y0027725D03*
X0013611Y0027666D03*
X0013611Y0027607D03*
X0013611Y0027548D03*
X0013611Y0027489D03*
X0013611Y0027430D03*
X0013611Y0027371D03*
X0013611Y0027312D03*
X0013611Y0027253D03*
X0013611Y0027194D03*
X0013611Y0027135D03*
X0013611Y0027076D03*
X0013611Y0027017D03*
X0013611Y0026957D03*
X0013611Y0026898D03*
X0013611Y0026839D03*
X0013611Y0026780D03*
X0013611Y0026721D03*
X0013611Y0026662D03*
X0013611Y0026603D03*
X0013611Y0026544D03*
X0013611Y0026485D03*
X0013611Y0026426D03*
X0013611Y0026367D03*
X0013611Y0026308D03*
X0013611Y0026249D03*
X0013611Y0026190D03*
X0013611Y0026131D03*
X0013611Y0026072D03*
X0013611Y0026013D03*
X0013611Y0025954D03*
X0013611Y0025894D03*
X0013611Y0025835D03*
X0013611Y0025776D03*
X0013611Y0025717D03*
X0013611Y0025658D03*
X0013611Y0025599D03*
X0013611Y0025540D03*
X0013611Y0025481D03*
X0013611Y0025422D03*
X0013611Y0025363D03*
X0013611Y0025304D03*
X0013611Y0025245D03*
X0013611Y0025186D03*
X0013611Y0025127D03*
X0013611Y0025068D03*
X0013611Y0025009D03*
X0013611Y0024950D03*
X0013611Y0024891D03*
X0013611Y0024831D03*
X0012843Y0023001D03*
X0012843Y0022942D03*
X0013670Y0022824D03*
X0013670Y0022765D03*
X0013670Y0022706D03*
X0013670Y0022646D03*
X0013670Y0022587D03*
X0013670Y0022528D03*
X0013670Y0022469D03*
X0013670Y0022410D03*
X0013670Y0022351D03*
X0013670Y0022292D03*
X0013670Y0022233D03*
X0013670Y0022174D03*
X0013670Y0022115D03*
X0013670Y0022056D03*
X0013670Y0021997D03*
X0013670Y0021938D03*
X0013670Y0021879D03*
X0013670Y0021820D03*
X0013670Y0021761D03*
X0013670Y0021702D03*
X0013670Y0021643D03*
X0013670Y0021583D03*
X0013670Y0021524D03*
X0013670Y0021465D03*
X0013670Y0021406D03*
X0013670Y0021347D03*
X0013670Y0021288D03*
X0013670Y0021229D03*
X0013670Y0021170D03*
X0013670Y0021111D03*
X0013670Y0021052D03*
X0013670Y0020993D03*
X0013670Y0020934D03*
X0013670Y0020875D03*
X0013670Y0020816D03*
X0013670Y0020757D03*
X0013670Y0020698D03*
X0013670Y0020639D03*
X0013670Y0020580D03*
X0013670Y0020520D03*
X0013670Y0020461D03*
X0013670Y0020402D03*
X0013670Y0020343D03*
X0013670Y0020284D03*
X0013670Y0020225D03*
X0013670Y0020166D03*
X0013670Y0020107D03*
X0013670Y0020048D03*
X0013670Y0019989D03*
X0013670Y0019930D03*
X0013670Y0019871D03*
X0013670Y0019812D03*
X0013670Y0019753D03*
X0013670Y0019694D03*
X0013670Y0019635D03*
X0013670Y0019576D03*
X0013670Y0019517D03*
X0013670Y0019457D03*
X0013670Y0019398D03*
X0013670Y0019339D03*
X0013670Y0019280D03*
X0013670Y0019221D03*
X0013670Y0019162D03*
X0013670Y0019103D03*
X0013670Y0019044D03*
X0013670Y0018985D03*
X0013670Y0018926D03*
X0013670Y0018867D03*
X0013670Y0018808D03*
X0013670Y0018749D03*
X0013670Y0018690D03*
X0013670Y0018631D03*
X0013670Y0018572D03*
X0013670Y0018513D03*
X0013670Y0018454D03*
X0013670Y0018394D03*
X0013670Y0018335D03*
X0019812Y0016977D03*
X0022233Y0019044D03*
X0024950Y0018749D03*
X0022233Y0024182D03*
X0013611Y0033690D03*
D50*
X0010658Y0017036D03*
D51*
X0017833Y0017036D03*
X0020963Y0017981D03*
X0014763Y0028375D03*
X0011633Y0034576D03*
X0010393Y0040363D03*
X0018011Y0037233D03*
D52*
X0020048Y0038473D03*
X0020048Y0038532D03*
X0020048Y0038591D03*
X0020048Y0038650D03*
X0020048Y0038709D03*
X0020048Y0038769D03*
X0020048Y0038828D03*
X0020048Y0038887D03*
X0020048Y0038946D03*
X0020048Y0039005D03*
X0020048Y0039064D03*
X0022765Y0039831D03*
X0022410Y0040776D03*
X0023060Y0041957D03*
X0023001Y0042017D03*
X0022528Y0042312D03*
X0022233Y0042489D03*
X0021938Y0042666D03*
X0021465Y0042961D03*
X0021170Y0043139D03*
X0020875Y0043316D03*
X0020580Y0043493D03*
X0020284Y0043670D03*
X0019989Y0043847D03*
X0019812Y0043965D03*
X0019694Y0044024D03*
X0019339Y0044261D03*
X0019812Y0043316D03*
X0016505Y0042548D03*
X0015737Y0042430D03*
X0015324Y0042371D03*
X0014910Y0042312D03*
X0014497Y0042253D03*
X0014910Y0041308D03*
X0015796Y0045619D03*
X0015855Y0045678D03*
X0016741Y0045678D03*
X0016800Y0045619D03*
X0023946Y0039182D03*
X0024536Y0038532D03*
X0024477Y0037528D03*
X0024477Y0037469D03*
X0024477Y0037410D03*
X0024477Y0037351D03*
X0024477Y0037292D03*
X0024477Y0037233D03*
X0024477Y0037174D03*
X0024477Y0037115D03*
X0024477Y0037056D03*
X0024477Y0036997D03*
X0024477Y0036938D03*
X0024477Y0036879D03*
X0024477Y0036820D03*
X0024477Y0036761D03*
X0024477Y0036702D03*
X0024477Y0036643D03*
X0024477Y0036583D03*
X0024477Y0036524D03*
X0024477Y0036465D03*
X0024477Y0036406D03*
X0024477Y0036347D03*
X0024477Y0036288D03*
X0024477Y0036229D03*
X0024477Y0036170D03*
X0024477Y0036111D03*
X0024477Y0036052D03*
X0024477Y0035993D03*
X0024477Y0035934D03*
X0024477Y0035757D03*
X0024477Y0035698D03*
X0024477Y0035639D03*
X0024477Y0035580D03*
X0024477Y0035520D03*
X0024477Y0035461D03*
X0024477Y0035402D03*
X0024477Y0035343D03*
X0024477Y0035284D03*
X0024477Y0035225D03*
X0024477Y0035166D03*
X0024477Y0035107D03*
X0024477Y0035048D03*
X0024477Y0034989D03*
X0024477Y0034930D03*
X0024477Y0034871D03*
X0024477Y0034812D03*
X0024477Y0034753D03*
X0024477Y0034694D03*
X0024477Y0034635D03*
X0024477Y0034576D03*
X0024477Y0034517D03*
X0024477Y0034457D03*
X0024477Y0034398D03*
X0024477Y0034339D03*
X0024477Y0034280D03*
X0024477Y0034221D03*
X0024477Y0034162D03*
X0024477Y0034103D03*
X0024477Y0034044D03*
X0024536Y0031091D03*
X0024536Y0031032D03*
X0024536Y0030973D03*
X0024536Y0030914D03*
X0024536Y0030855D03*
X0024536Y0030796D03*
X0024536Y0030737D03*
X0024536Y0030678D03*
X0024536Y0030619D03*
X0024536Y0030560D03*
X0024536Y0030501D03*
X0024536Y0030442D03*
X0024536Y0030383D03*
X0024536Y0030324D03*
X0024536Y0030265D03*
X0024536Y0030206D03*
X0024536Y0030146D03*
X0024536Y0030087D03*
X0024536Y0030028D03*
X0024536Y0029969D03*
X0024536Y0029910D03*
X0024536Y0029851D03*
X0024536Y0029792D03*
X0024536Y0029733D03*
X0024536Y0029674D03*
X0024536Y0029615D03*
X0024536Y0029556D03*
X0024536Y0029497D03*
X0024536Y0029438D03*
X0024536Y0029379D03*
X0024536Y0029320D03*
X0019930Y0029438D03*
X0024536Y0023237D03*
X0024536Y0023178D03*
X0024536Y0023119D03*
X0024536Y0023060D03*
X0024536Y0023001D03*
X0024536Y0022942D03*
X0024536Y0022883D03*
X0024536Y0022824D03*
X0024536Y0022765D03*
X0024536Y0022706D03*
X0024536Y0022646D03*
X0024536Y0022587D03*
X0024536Y0022528D03*
X0024536Y0022469D03*
X0024536Y0022410D03*
X0024536Y0022351D03*
X0024536Y0022292D03*
X0024536Y0022233D03*
X0024536Y0022174D03*
X0024536Y0022115D03*
X0024536Y0022056D03*
X0024536Y0021997D03*
X0024536Y0021938D03*
X0024536Y0021879D03*
X0024536Y0021820D03*
X0024536Y0021761D03*
X0024536Y0021702D03*
X0024536Y0021643D03*
X0024536Y0021583D03*
X0024536Y0021524D03*
X0024536Y0021465D03*
X0024536Y0021406D03*
X0024536Y0021347D03*
X0024536Y0021288D03*
X0024536Y0021229D03*
X0024536Y0021170D03*
X0024536Y0021111D03*
X0024536Y0021052D03*
X0024536Y0020993D03*
X0024536Y0020934D03*
X0024536Y0020875D03*
X0024536Y0020816D03*
X0024536Y0020757D03*
X0024536Y0020698D03*
X0024536Y0020639D03*
X0024536Y0020580D03*
X0024536Y0020520D03*
X0024536Y0020461D03*
X0024536Y0020402D03*
X0024536Y0020343D03*
X0024536Y0020284D03*
X0024536Y0020225D03*
X0024536Y0020166D03*
X0024536Y0020107D03*
X0024536Y0020048D03*
X0024536Y0019989D03*
X0024536Y0019930D03*
X0024536Y0019871D03*
X0024536Y0019812D03*
X0024536Y0019753D03*
X0024536Y0019694D03*
X0024536Y0019635D03*
X0024536Y0019576D03*
X0019871Y0018158D03*
X0019871Y0018099D03*
X0019871Y0017036D03*
X0012843Y0017509D03*
X0013670Y0034871D03*
X0013670Y0034989D03*
X0013670Y0035048D03*
X0013670Y0035107D03*
X0013670Y0035166D03*
X0013670Y0035225D03*
X0013670Y0035284D03*
X0013670Y0035343D03*
X0013670Y0035402D03*
X0013670Y0035461D03*
X0013670Y0035520D03*
X0013670Y0035580D03*
X0007706Y0041249D03*
D53*
X0015206Y0039772D03*
X0010422Y0017095D03*
D54*
X0017597Y0017095D03*
X0023207Y0023887D03*
X0021318Y0034280D03*
X0013581Y0041662D03*
X0017125Y0044261D03*
D55*
X0017331Y0042666D03*
X0016918Y0042607D03*
X0018099Y0042784D03*
X0019871Y0043257D03*
X0022469Y0040717D03*
X0022706Y0039891D03*
X0023887Y0039241D03*
X0022351Y0036524D03*
X0022410Y0036288D03*
X0024418Y0035816D03*
X0020048Y0035816D03*
X0020048Y0035875D03*
X0020048Y0035934D03*
X0020048Y0035993D03*
X0020048Y0036052D03*
X0020048Y0036111D03*
X0020048Y0036170D03*
X0020048Y0036229D03*
X0020048Y0036288D03*
X0020048Y0036347D03*
X0020048Y0036406D03*
X0020048Y0036465D03*
X0020048Y0036524D03*
X0020048Y0036583D03*
X0020048Y0036643D03*
X0020048Y0036702D03*
X0020048Y0036761D03*
X0020048Y0036820D03*
X0020048Y0036879D03*
X0020048Y0036938D03*
X0020048Y0036997D03*
X0020048Y0037115D03*
X0020048Y0037174D03*
X0020048Y0037233D03*
X0020048Y0037292D03*
X0020048Y0037351D03*
X0020048Y0037410D03*
X0020048Y0037469D03*
X0020048Y0037528D03*
X0020048Y0037587D03*
X0020048Y0037646D03*
X0020048Y0037706D03*
X0020048Y0037765D03*
X0020048Y0037824D03*
X0020048Y0037883D03*
X0020048Y0037942D03*
X0020048Y0038001D03*
X0020048Y0038060D03*
X0020048Y0038119D03*
X0020048Y0038178D03*
X0020048Y0038237D03*
X0020048Y0038296D03*
X0020048Y0038355D03*
X0020048Y0035757D03*
X0020048Y0035698D03*
X0020048Y0035639D03*
X0020048Y0035580D03*
X0020048Y0035520D03*
X0020048Y0035461D03*
X0020048Y0035402D03*
X0020048Y0035343D03*
X0020048Y0035284D03*
X0020048Y0035225D03*
X0020048Y0035166D03*
X0020048Y0035107D03*
X0020048Y0035048D03*
X0012666Y0035048D03*
X0012666Y0034989D03*
X0012666Y0034930D03*
X0012666Y0034871D03*
X0012666Y0034812D03*
X0012666Y0034753D03*
X0012666Y0035107D03*
X0012666Y0035166D03*
X0012666Y0035225D03*
X0012666Y0035284D03*
X0012666Y0035343D03*
X0012666Y0035402D03*
X0012666Y0035461D03*
X0012666Y0035520D03*
X0012666Y0035580D03*
X0012666Y0035639D03*
X0012666Y0035698D03*
X0012666Y0035757D03*
X0012666Y0035816D03*
X0012666Y0035875D03*
X0012666Y0035934D03*
X0012666Y0035993D03*
X0012666Y0036052D03*
X0012666Y0036111D03*
X0012666Y0036170D03*
X0012666Y0036229D03*
X0012666Y0036288D03*
X0012666Y0036347D03*
X0012666Y0036406D03*
X0012666Y0036465D03*
X0012666Y0036524D03*
X0012666Y0036583D03*
X0012666Y0036643D03*
X0012666Y0036702D03*
X0012666Y0036879D03*
X0012666Y0036938D03*
X0012666Y0036997D03*
X0012666Y0037056D03*
X0012666Y0037115D03*
X0012666Y0037174D03*
X0012666Y0037233D03*
X0012666Y0037292D03*
X0012666Y0037351D03*
X0012666Y0037410D03*
X0012666Y0037469D03*
X0012666Y0037528D03*
X0012666Y0037587D03*
X0012666Y0037646D03*
X0012666Y0037706D03*
X0012666Y0037765D03*
X0012666Y0037824D03*
X0012666Y0037883D03*
X0012666Y0037942D03*
X0012666Y0038001D03*
X0012666Y0038060D03*
X0012666Y0038119D03*
X0012666Y0038178D03*
X0012666Y0038237D03*
X0012666Y0038296D03*
X0012666Y0038355D03*
X0012666Y0038414D03*
X0012666Y0038473D03*
X0012666Y0038532D03*
X0012666Y0038591D03*
X0012666Y0038650D03*
X0012666Y0038709D03*
X0012666Y0038769D03*
X0013670Y0038946D03*
X0014851Y0041544D03*
X0007410Y0036761D03*
X0007410Y0036702D03*
X0007410Y0036643D03*
X0007410Y0036583D03*
X0007410Y0036524D03*
X0007410Y0036465D03*
X0007410Y0036406D03*
X0007410Y0036347D03*
X0007410Y0036288D03*
X0007410Y0036229D03*
X0007410Y0036170D03*
X0007410Y0036111D03*
X0007351Y0028965D03*
X0007351Y0028906D03*
X0007351Y0028847D03*
X0007351Y0028788D03*
X0007351Y0028729D03*
X0007351Y0028670D03*
X0007351Y0028611D03*
X0007351Y0028552D03*
X0007351Y0028493D03*
X0007351Y0028434D03*
X0007351Y0028375D03*
X0007351Y0028316D03*
X0007351Y0028257D03*
X0007351Y0028198D03*
X0007351Y0028139D03*
X0007351Y0028080D03*
X0007351Y0028020D03*
X0007351Y0027961D03*
X0007351Y0027902D03*
X0007351Y0027843D03*
X0007351Y0027784D03*
X0007351Y0027725D03*
X0007351Y0027666D03*
X0007351Y0027607D03*
X0007351Y0027548D03*
X0007351Y0027489D03*
X0007351Y0027430D03*
X0007351Y0027371D03*
X0007351Y0027312D03*
X0007351Y0027253D03*
X0007351Y0027194D03*
X0007351Y0027135D03*
X0007351Y0027076D03*
X0007351Y0027017D03*
X0007351Y0026957D03*
X0007351Y0026898D03*
X0007351Y0026839D03*
X0007351Y0026780D03*
X0007351Y0026721D03*
X0007351Y0026662D03*
X0007351Y0026603D03*
X0007351Y0026544D03*
X0007351Y0026485D03*
X0007351Y0026426D03*
X0007351Y0026367D03*
X0007351Y0026308D03*
X0007351Y0026249D03*
X0007351Y0026190D03*
X0007351Y0026131D03*
X0007351Y0026072D03*
X0007351Y0026013D03*
X0007351Y0025954D03*
X0007351Y0025894D03*
X0007351Y0025835D03*
X0007351Y0025776D03*
X0007351Y0025717D03*
X0007351Y0025658D03*
X0007351Y0025599D03*
X0007351Y0025540D03*
X0007351Y0025481D03*
X0007351Y0025422D03*
X0007351Y0025363D03*
X0007351Y0025304D03*
X0007351Y0025245D03*
X0007351Y0025186D03*
X0007351Y0025127D03*
X0007351Y0025068D03*
X0007351Y0025009D03*
X0007351Y0024950D03*
X0007351Y0024891D03*
X0007351Y0024831D03*
X0007351Y0024772D03*
X0007351Y0024713D03*
X0007351Y0024654D03*
X0007351Y0024595D03*
X0007351Y0024536D03*
X0007351Y0024477D03*
X0007351Y0024418D03*
X0007351Y0024359D03*
X0007351Y0024300D03*
X0007351Y0024241D03*
X0007351Y0024182D03*
X0007351Y0024123D03*
X0007351Y0024064D03*
X0007351Y0024005D03*
X0007351Y0023946D03*
X0007351Y0023887D03*
X0007351Y0023828D03*
X0007351Y0023769D03*
X0007351Y0023709D03*
X0007351Y0023650D03*
X0007351Y0023591D03*
X0007351Y0023532D03*
X0007351Y0023473D03*
X0007351Y0023414D03*
X0019989Y0023769D03*
X0022351Y0024241D03*
X0019930Y0018217D03*
X0019930Y0017095D03*
D56*
X0010156Y0017154D03*
D57*
X0017361Y0017154D03*
X0017420Y0022824D03*
X0009684Y0042017D03*
D58*
X0009093Y0042489D03*
X0007558Y0040954D03*
X0007558Y0039772D03*
X0007558Y0039595D03*
X0009920Y0033158D03*
X0012578Y0033158D03*
X0012578Y0033099D03*
X0012578Y0033040D03*
X0012578Y0032981D03*
X0012578Y0032922D03*
X0012578Y0032863D03*
X0012578Y0032804D03*
X0012578Y0033217D03*
X0020137Y0037056D03*
X0022263Y0036583D03*
X0022499Y0036229D03*
X0024330Y0035875D03*
X0021259Y0029438D03*
X0024389Y0024359D03*
X0020019Y0018276D03*
X0020019Y0017154D03*
X0018011Y0041367D03*
X0018011Y0042076D03*
X0019487Y0044083D03*
X0020314Y0042371D03*
X0016298Y0045855D03*
D59*
X0009772Y0040304D03*
X0023355Y0023946D03*
X0021052Y0018040D03*
X0022469Y0017154D03*
X0022587Y0017213D03*
X0022883Y0017331D03*
X0023001Y0017391D03*
X0023119Y0017450D03*
X0023414Y0017568D03*
D60*
X0009654Y0017272D03*
D61*
X0016859Y0017272D03*
D62*
X0020137Y0017272D03*
X0024270Y0019339D03*
X0012578Y0017568D03*
X0008562Y0028316D03*
X0008621Y0033454D03*
X0012459Y0034694D03*
X0012459Y0036820D03*
X0013877Y0039005D03*
X0017893Y0041662D03*
X0017893Y0041721D03*
X0017893Y0041780D03*
X0016298Y0045796D03*
X0008857Y0041072D03*
X0024211Y0037765D03*
D63*
X0009448Y0017331D03*
D64*
X0016623Y0017331D03*
D65*
X0009182Y0017391D03*
D66*
X0016387Y0017391D03*
D67*
X0020284Y0017391D03*
X0024123Y0019221D03*
X0024891Y0018513D03*
X0020343Y0029320D03*
X0012312Y0033454D03*
X0011249Y0036702D03*
X0010599Y0036643D03*
X0014024Y0036938D03*
X0018867Y0042843D03*
D68*
X0017863Y0040245D03*
X0008946Y0017450D03*
D69*
X0013080Y0017450D03*
X0023591Y0035993D03*
X0023237Y0036111D03*
X0021524Y0036702D03*
X0021406Y0036761D03*
X0021229Y0036820D03*
X0021052Y0036879D03*
X0020875Y0036938D03*
X0020698Y0036997D03*
X0024182Y0038946D03*
X0024772Y0038296D03*
X0024005Y0040717D03*
X0021406Y0041544D03*
X0021111Y0041721D03*
X0019576Y0043611D03*
X0019103Y0043847D03*
X0019103Y0044556D03*
X0017036Y0045383D03*
X0016859Y0045087D03*
X0016328Y0046032D03*
X0016741Y0041957D03*
X0016859Y0041721D03*
X0016859Y0041662D03*
X0016859Y0041603D03*
X0016328Y0041367D03*
X0015914Y0041839D03*
X0015560Y0041426D03*
X0015560Y0041367D03*
X0015560Y0041308D03*
X0013906Y0041367D03*
X0013906Y0041426D03*
X0013906Y0041485D03*
X0013788Y0041131D03*
X0013788Y0041072D03*
X0013788Y0041013D03*
X0013788Y0040954D03*
X0013020Y0041013D03*
X0012607Y0041190D03*
X0009654Y0040894D03*
X0009654Y0040835D03*
X0009595Y0040658D03*
D70*
X0016357Y0023650D03*
X0016357Y0023591D03*
X0016357Y0023532D03*
X0016357Y0023473D03*
X0016357Y0023414D03*
X0016357Y0023355D03*
X0016357Y0023296D03*
X0016357Y0023237D03*
X0016357Y0023178D03*
X0016357Y0023119D03*
X0016357Y0023060D03*
X0016357Y0023001D03*
X0016357Y0022942D03*
X0016357Y0022883D03*
X0016357Y0018217D03*
X0016357Y0018158D03*
X0016357Y0018099D03*
X0016357Y0018040D03*
X0016357Y0017981D03*
X0016357Y0017922D03*
X0016357Y0017863D03*
X0016357Y0017804D03*
X0016357Y0017745D03*
X0016357Y0017686D03*
X0016357Y0017627D03*
X0016357Y0017568D03*
X0016357Y0017509D03*
X0016357Y0017450D03*
D71*
X0020343Y0017450D03*
X0022765Y0019457D03*
X0020402Y0023946D03*
X0018513Y0022765D03*
X0018513Y0022706D03*
X0018513Y0022646D03*
X0018513Y0022587D03*
X0022765Y0024418D03*
X0024005Y0037942D03*
X0015383Y0037056D03*
X0011957Y0040127D03*
X0009064Y0040127D03*
D72*
X0008680Y0017509D03*
D73*
X0011633Y0029674D03*
X0014822Y0033867D03*
X0021200Y0039123D03*
X0013759Y0041721D03*
X0009270Y0041898D03*
X0023267Y0017509D03*
X0023562Y0017627D03*
X0023680Y0017686D03*
X0023798Y0017745D03*
D74*
X0008444Y0017568D03*
D75*
X0020491Y0017568D03*
X0022912Y0019576D03*
X0024684Y0018335D03*
X0014290Y0033808D03*
X0012105Y0036761D03*
X0010393Y0041308D03*
X0015294Y0042017D03*
X0015944Y0040599D03*
X0017833Y0044497D03*
X0022676Y0038650D03*
X0022971Y0038473D03*
X0020609Y0034753D03*
D76*
X0015353Y0033926D03*
X0011101Y0042253D03*
X0010747Y0042194D03*
X0016770Y0044143D03*
X0008207Y0017627D03*
D77*
X0012341Y0017627D03*
X0020373Y0018572D03*
X0024034Y0019162D03*
X0024802Y0018454D03*
X0023975Y0038001D03*
X0020550Y0039831D03*
X0019074Y0040599D03*
X0018365Y0043611D03*
X0013463Y0040304D03*
X0012932Y0040245D03*
X0009448Y0042607D03*
X0015885Y0037115D03*
D78*
X0018394Y0039241D03*
X0017922Y0040835D03*
X0017450Y0042312D03*
X0020757Y0039595D03*
X0021997Y0038946D03*
X0009300Y0040186D03*
X0009654Y0042666D03*
X0023828Y0024123D03*
X0024595Y0018276D03*
X0020580Y0017627D03*
X0010422Y0022883D03*
D79*
X0007971Y0017686D03*
X0017656Y0034989D03*
X0017656Y0037174D03*
X0021436Y0034221D03*
D80*
X0020727Y0033454D03*
X0020727Y0033394D03*
X0020727Y0033335D03*
X0020727Y0033276D03*
X0020727Y0033217D03*
X0020727Y0033158D03*
X0020727Y0033099D03*
X0020727Y0033040D03*
X0020727Y0032981D03*
X0020727Y0032922D03*
X0020727Y0032863D03*
X0020727Y0032804D03*
X0020727Y0032745D03*
X0020727Y0032686D03*
X0020727Y0032627D03*
X0020727Y0032568D03*
X0020727Y0032509D03*
X0020727Y0032450D03*
X0020727Y0032391D03*
X0020727Y0032331D03*
X0020727Y0032272D03*
X0020727Y0032213D03*
X0020727Y0032154D03*
X0020727Y0032095D03*
X0020727Y0032036D03*
X0020727Y0031977D03*
X0020727Y0031918D03*
X0020727Y0031859D03*
X0020727Y0031800D03*
X0020727Y0031741D03*
X0020727Y0031682D03*
X0020727Y0031623D03*
X0020727Y0031564D03*
X0020727Y0031505D03*
X0020727Y0031446D03*
X0020727Y0031387D03*
X0020727Y0031328D03*
X0020727Y0031269D03*
X0020727Y0031209D03*
X0020727Y0031150D03*
X0020727Y0031091D03*
X0020727Y0031032D03*
X0020727Y0030973D03*
X0020727Y0030914D03*
X0020727Y0030855D03*
X0020727Y0030796D03*
X0020727Y0030737D03*
X0020727Y0030678D03*
X0020727Y0030619D03*
X0020727Y0030560D03*
X0020727Y0030501D03*
X0020727Y0030442D03*
X0020727Y0030383D03*
X0020727Y0030324D03*
X0020727Y0030265D03*
X0020727Y0030206D03*
X0020668Y0029615D03*
X0020668Y0028080D03*
X0020668Y0028020D03*
X0020668Y0027961D03*
X0020668Y0027902D03*
X0020668Y0027843D03*
X0020668Y0027784D03*
X0020668Y0027725D03*
X0020668Y0027666D03*
X0020668Y0027607D03*
X0020668Y0027548D03*
X0020668Y0027489D03*
X0020668Y0027430D03*
X0020668Y0027371D03*
X0020668Y0027312D03*
X0020668Y0027253D03*
X0020668Y0027194D03*
X0020668Y0027135D03*
X0020668Y0027076D03*
X0020668Y0027017D03*
X0020668Y0026957D03*
X0020668Y0026898D03*
X0020668Y0026839D03*
X0020668Y0026780D03*
X0020668Y0026721D03*
X0020668Y0026662D03*
X0020668Y0026603D03*
X0020668Y0026544D03*
X0020668Y0026485D03*
X0020668Y0026426D03*
X0020668Y0026367D03*
X0020668Y0026308D03*
X0020668Y0026249D03*
X0020668Y0026190D03*
X0020668Y0026131D03*
X0020668Y0026072D03*
X0020668Y0026013D03*
X0020668Y0025954D03*
X0020668Y0025894D03*
X0020668Y0025835D03*
X0020668Y0025776D03*
X0020668Y0025717D03*
X0020668Y0025658D03*
X0020668Y0025599D03*
X0020668Y0025540D03*
X0020668Y0025481D03*
X0020668Y0025422D03*
X0020668Y0025363D03*
X0020668Y0025304D03*
X0020668Y0025245D03*
X0020668Y0025186D03*
X0020668Y0025127D03*
X0020668Y0025068D03*
X0020668Y0025009D03*
X0020668Y0024950D03*
X0020668Y0024891D03*
X0020668Y0024831D03*
X0020668Y0024772D03*
X0020668Y0024713D03*
X0020668Y0024654D03*
X0020668Y0024595D03*
X0020668Y0024536D03*
X0020668Y0024477D03*
X0020668Y0024418D03*
X0020668Y0024359D03*
X0020668Y0024300D03*
X0020668Y0024241D03*
X0020668Y0024182D03*
X0020668Y0024123D03*
X0020668Y0024064D03*
X0020668Y0022351D03*
X0020668Y0022292D03*
X0020668Y0022233D03*
X0020668Y0022174D03*
X0020609Y0018749D03*
X0022440Y0018454D03*
X0022735Y0018572D03*
X0022853Y0018631D03*
X0023030Y0018690D03*
X0023798Y0018985D03*
X0012105Y0017686D03*
X0018365Y0035107D03*
X0018365Y0035166D03*
X0018365Y0035225D03*
X0018365Y0035284D03*
X0018365Y0035343D03*
X0018365Y0035402D03*
X0018365Y0035461D03*
X0018365Y0035520D03*
X0018365Y0035580D03*
X0018365Y0035639D03*
X0018365Y0035698D03*
X0018365Y0035757D03*
X0018365Y0035816D03*
X0018365Y0035875D03*
X0018365Y0035934D03*
X0018365Y0035993D03*
X0018365Y0036052D03*
X0018365Y0036111D03*
X0018365Y0036170D03*
X0018365Y0036229D03*
X0018365Y0036288D03*
X0018365Y0036347D03*
X0018365Y0036406D03*
X0018365Y0036465D03*
X0018365Y0036524D03*
X0018365Y0036583D03*
X0018365Y0036643D03*
X0018365Y0036702D03*
X0018365Y0036761D03*
X0018365Y0036820D03*
X0018365Y0036879D03*
X0018365Y0036938D03*
X0018365Y0036997D03*
X0018365Y0037056D03*
X0018365Y0037115D03*
X0018365Y0037351D03*
X0018365Y0037410D03*
X0018365Y0037469D03*
X0018365Y0037528D03*
X0018365Y0037587D03*
X0018365Y0037646D03*
X0018365Y0037706D03*
X0018365Y0037765D03*
X0018365Y0037824D03*
X0018365Y0037883D03*
X0018365Y0037942D03*
X0018365Y0038001D03*
X0018365Y0038060D03*
X0018365Y0038119D03*
X0018365Y0038178D03*
X0018365Y0038237D03*
X0018365Y0038296D03*
X0018365Y0038355D03*
X0018365Y0038414D03*
X0018365Y0038473D03*
X0018365Y0038532D03*
X0018365Y0038591D03*
X0018365Y0038650D03*
X0018365Y0038709D03*
X0018365Y0038769D03*
X0018365Y0038828D03*
X0018365Y0038887D03*
X0018365Y0038946D03*
X0018365Y0039005D03*
X0018365Y0039064D03*
X0018365Y0039123D03*
X0018365Y0039182D03*
X0018365Y0039300D03*
X0018424Y0040894D03*
X0016239Y0042135D03*
X0014172Y0041839D03*
X0014054Y0040776D03*
X0014349Y0036997D03*
X0021731Y0039064D03*
X0021849Y0039005D03*
X0023089Y0038355D03*
D81*
X0020816Y0039536D03*
X0018335Y0037292D03*
X0020757Y0034635D03*
X0020698Y0030146D03*
X0020698Y0030087D03*
X0020698Y0030028D03*
X0020698Y0029969D03*
X0020698Y0029910D03*
X0020698Y0029851D03*
X0020698Y0029792D03*
X0020698Y0029733D03*
X0020698Y0029674D03*
X0020698Y0029556D03*
X0020698Y0029497D03*
X0020698Y0022410D03*
X0020639Y0022115D03*
X0020639Y0022056D03*
X0020639Y0021997D03*
X0020639Y0021938D03*
X0020639Y0021879D03*
X0020639Y0021820D03*
X0020639Y0021761D03*
X0020639Y0021702D03*
X0020639Y0021643D03*
X0020639Y0021583D03*
X0020639Y0021524D03*
X0020639Y0021465D03*
X0020639Y0021406D03*
X0020639Y0021347D03*
X0020639Y0021288D03*
X0020639Y0021229D03*
X0020639Y0021170D03*
X0020639Y0021111D03*
X0020639Y0021052D03*
X0020639Y0020993D03*
X0020639Y0020934D03*
X0020639Y0020875D03*
X0020639Y0020816D03*
X0020639Y0020757D03*
X0020639Y0020698D03*
X0020639Y0020639D03*
X0020639Y0020580D03*
X0020639Y0020520D03*
X0020639Y0020461D03*
X0020639Y0020402D03*
X0020639Y0020343D03*
X0020639Y0020284D03*
X0020639Y0020225D03*
X0020639Y0020166D03*
X0020639Y0020107D03*
X0020639Y0020048D03*
X0020639Y0019989D03*
X0020639Y0019930D03*
X0020639Y0019871D03*
X0020639Y0019812D03*
X0020639Y0019753D03*
X0020639Y0019694D03*
X0020639Y0019635D03*
X0020639Y0019576D03*
X0020639Y0019517D03*
X0020639Y0019457D03*
X0020639Y0019398D03*
X0020639Y0019339D03*
X0020639Y0019280D03*
X0020639Y0019221D03*
X0020639Y0019162D03*
X0020639Y0019103D03*
X0020639Y0019044D03*
X0020639Y0018985D03*
X0020639Y0018926D03*
X0020639Y0018867D03*
X0020639Y0018808D03*
X0020639Y0017686D03*
X0021997Y0018276D03*
X0022292Y0018394D03*
X0022587Y0018513D03*
X0024536Y0018217D03*
X0014379Y0039123D03*
X0015442Y0040954D03*
X0015028Y0041957D03*
X0016859Y0041131D03*
X0008887Y0041780D03*
D82*
X0009477Y0038650D03*
X0012548Y0041544D03*
X0015560Y0041013D03*
X0017036Y0042194D03*
X0018690Y0040481D03*
X0021170Y0039182D03*
X0014733Y0039182D03*
X0009477Y0033572D03*
X0023414Y0024064D03*
X0023414Y0024005D03*
X0023414Y0018926D03*
X0023946Y0017804D03*
X0024064Y0017863D03*
X0024182Y0017922D03*
X0007765Y0017745D03*
D83*
X0011839Y0017745D03*
X0018099Y0035048D03*
X0021052Y0039300D03*
D84*
X0020580Y0039772D03*
X0018690Y0040954D03*
X0017627Y0042371D03*
X0013965Y0040363D03*
X0009123Y0041131D03*
X0018513Y0028316D03*
X0023887Y0038060D03*
X0023769Y0038119D03*
X0022824Y0019517D03*
X0007410Y0017863D03*
D85*
X0011337Y0017863D03*
X0011278Y0020993D03*
X0011278Y0021052D03*
X0011278Y0021111D03*
X0011278Y0021170D03*
X0011278Y0021229D03*
X0011278Y0021288D03*
X0011278Y0021347D03*
X0011278Y0021406D03*
X0011278Y0021465D03*
X0011278Y0021524D03*
X0011278Y0021583D03*
X0011278Y0021643D03*
X0011278Y0021702D03*
X0011278Y0021761D03*
X0011278Y0021820D03*
X0011278Y0021879D03*
X0011278Y0021938D03*
X0011278Y0021997D03*
X0011278Y0022056D03*
X0011278Y0022115D03*
X0011278Y0022174D03*
X0011278Y0022233D03*
X0011278Y0022292D03*
X0011278Y0022351D03*
X0011278Y0022410D03*
X0011278Y0022469D03*
X0011278Y0022528D03*
X0011278Y0023946D03*
X0011278Y0024005D03*
X0011278Y0024064D03*
X0011278Y0024123D03*
X0011278Y0024182D03*
X0011278Y0024241D03*
X0011278Y0024300D03*
X0011278Y0024359D03*
X0011278Y0024418D03*
X0011278Y0024477D03*
X0011278Y0024536D03*
X0011278Y0024595D03*
X0011278Y0024654D03*
X0011278Y0024713D03*
X0011278Y0024772D03*
X0011278Y0024831D03*
X0011278Y0024891D03*
X0011278Y0024950D03*
X0011278Y0025009D03*
X0011278Y0025068D03*
X0011278Y0025127D03*
X0011278Y0025186D03*
X0011278Y0025245D03*
X0011278Y0025304D03*
X0011278Y0025363D03*
X0011278Y0025422D03*
X0011278Y0025481D03*
X0011278Y0025540D03*
X0011278Y0025599D03*
X0011278Y0025658D03*
X0011278Y0025717D03*
X0011278Y0025776D03*
X0011278Y0025835D03*
X0011278Y0025894D03*
X0011278Y0025954D03*
X0011278Y0026013D03*
X0011278Y0026072D03*
X0011278Y0026131D03*
X0011278Y0026190D03*
X0011278Y0026249D03*
X0011278Y0026308D03*
X0011278Y0026367D03*
X0011278Y0026426D03*
X0011278Y0026485D03*
X0011278Y0026544D03*
X0011278Y0026603D03*
X0011278Y0026662D03*
X0011278Y0026721D03*
X0011278Y0026780D03*
X0011278Y0026839D03*
X0011278Y0026898D03*
X0011278Y0026957D03*
X0011278Y0027017D03*
X0011278Y0027076D03*
X0011278Y0027135D03*
X0011278Y0027194D03*
X0011278Y0027253D03*
X0011278Y0027312D03*
X0011278Y0027371D03*
X0011278Y0027430D03*
X0011278Y0027489D03*
X0011278Y0027548D03*
X0011278Y0027607D03*
X0011278Y0027666D03*
X0011278Y0027725D03*
X0011278Y0027784D03*
X0011278Y0027843D03*
X0011278Y0027902D03*
X0011278Y0027961D03*
X0011278Y0028020D03*
X0011278Y0028080D03*
X0011278Y0028139D03*
X0011278Y0029143D03*
X0011278Y0029202D03*
X0011278Y0029261D03*
X0011278Y0029438D03*
X0011278Y0029497D03*
X0011278Y0029556D03*
X0011278Y0029615D03*
X0011219Y0039595D03*
D86*
X0011751Y0039713D03*
X0009093Y0041839D03*
X0009330Y0036583D03*
X0020845Y0017863D03*
X0024330Y0018040D03*
D87*
X0024950Y0018631D03*
X0022528Y0019280D03*
X0008532Y0019280D03*
X0008532Y0019221D03*
X0008532Y0019162D03*
X0008532Y0019103D03*
X0008532Y0019044D03*
X0008532Y0018985D03*
X0008532Y0018926D03*
X0008532Y0018867D03*
X0008532Y0018808D03*
X0008532Y0018749D03*
X0008532Y0019339D03*
X0008532Y0019398D03*
X0008532Y0019457D03*
X0008532Y0019517D03*
X0008532Y0019576D03*
X0008532Y0019635D03*
X0008532Y0019694D03*
X0008532Y0019753D03*
X0008532Y0019812D03*
X0008532Y0019871D03*
X0008532Y0019930D03*
X0008532Y0019989D03*
X0008532Y0020048D03*
X0008532Y0020107D03*
X0008532Y0020166D03*
X0008532Y0020225D03*
X0008532Y0020284D03*
X0008532Y0020343D03*
X0008532Y0020402D03*
X0008532Y0020461D03*
X0008532Y0020520D03*
X0008532Y0020580D03*
X0008532Y0020639D03*
X0008532Y0020698D03*
X0008532Y0020757D03*
X0008532Y0020816D03*
X0008532Y0020875D03*
X0008532Y0020934D03*
X0008532Y0020993D03*
X0008532Y0021052D03*
X0008532Y0021111D03*
X0008532Y0021170D03*
X0008532Y0021229D03*
X0008532Y0021288D03*
X0008532Y0021347D03*
X0008532Y0021406D03*
X0008532Y0021465D03*
X0008532Y0021524D03*
X0008532Y0021583D03*
X0008532Y0021643D03*
X0008532Y0021702D03*
X0008532Y0021761D03*
X0008532Y0021820D03*
X0008532Y0021879D03*
X0008532Y0021938D03*
X0008532Y0021997D03*
X0008532Y0022056D03*
X0008532Y0022115D03*
X0008532Y0022174D03*
X0008532Y0022233D03*
X0008532Y0022292D03*
X0008532Y0022351D03*
X0008532Y0022410D03*
X0008532Y0022469D03*
X0008532Y0022528D03*
X0008532Y0022587D03*
X0008532Y0022646D03*
X0008532Y0022706D03*
X0008532Y0022765D03*
X0008532Y0022824D03*
X0008532Y0022883D03*
X0008532Y0022942D03*
X0008532Y0023001D03*
X0008532Y0023060D03*
X0008532Y0023119D03*
X0008532Y0023946D03*
X0008532Y0024005D03*
X0008532Y0024064D03*
X0008532Y0024123D03*
X0008532Y0024182D03*
X0008532Y0024241D03*
X0008532Y0024300D03*
X0008532Y0024359D03*
X0008532Y0024418D03*
X0008532Y0024477D03*
X0008532Y0024536D03*
X0008532Y0024595D03*
X0008532Y0024654D03*
X0008532Y0024713D03*
X0008532Y0024772D03*
X0008532Y0024831D03*
X0008532Y0024891D03*
X0008532Y0024950D03*
X0008532Y0025009D03*
X0008532Y0025068D03*
X0008532Y0025127D03*
X0008532Y0025186D03*
X0008532Y0025245D03*
X0008532Y0025304D03*
X0008532Y0025363D03*
X0008532Y0025422D03*
X0008532Y0025481D03*
X0008532Y0025540D03*
X0008532Y0025599D03*
X0008532Y0025658D03*
X0008532Y0025717D03*
X0008532Y0025776D03*
X0008532Y0025835D03*
X0008532Y0025894D03*
X0008532Y0025954D03*
X0008532Y0026013D03*
X0008532Y0026072D03*
X0008532Y0026131D03*
X0008532Y0026190D03*
X0008532Y0026249D03*
X0008532Y0026308D03*
X0008532Y0026367D03*
X0008532Y0026426D03*
X0008532Y0026485D03*
X0008532Y0026544D03*
X0008532Y0026603D03*
X0008532Y0026662D03*
X0008532Y0026721D03*
X0008532Y0026780D03*
X0008532Y0026839D03*
X0008532Y0026898D03*
X0008532Y0026957D03*
X0008532Y0027017D03*
X0008532Y0027076D03*
X0008532Y0027135D03*
X0008532Y0027194D03*
X0008532Y0027253D03*
X0008532Y0027312D03*
X0008532Y0027371D03*
X0008532Y0027430D03*
X0008532Y0027489D03*
X0008532Y0027548D03*
X0008532Y0027607D03*
X0008532Y0027666D03*
X0008532Y0027725D03*
X0008532Y0027784D03*
X0008532Y0027843D03*
X0008532Y0027902D03*
X0008532Y0027961D03*
X0008532Y0028020D03*
X0008532Y0028080D03*
X0008532Y0028139D03*
X0008532Y0028198D03*
X0008532Y0028257D03*
X0008532Y0029083D03*
X0008532Y0029143D03*
X0008532Y0029202D03*
X0008532Y0029261D03*
X0008532Y0029320D03*
X0008532Y0029379D03*
X0008532Y0029438D03*
X0008532Y0029497D03*
X0008532Y0029556D03*
X0008532Y0029615D03*
X0008532Y0029674D03*
X0008532Y0029733D03*
X0008532Y0029792D03*
X0008532Y0029851D03*
X0008532Y0029910D03*
X0008532Y0029969D03*
X0008532Y0030028D03*
X0008532Y0030087D03*
X0008532Y0030146D03*
X0008532Y0030206D03*
X0008532Y0030265D03*
X0008532Y0030324D03*
X0008532Y0030383D03*
X0008532Y0030442D03*
X0008532Y0030501D03*
X0008532Y0030560D03*
X0008532Y0030619D03*
X0008532Y0030678D03*
X0008532Y0030737D03*
X0008532Y0030796D03*
X0008532Y0030855D03*
X0008532Y0030914D03*
X0008532Y0030973D03*
X0008828Y0040068D03*
X0014674Y0041072D03*
X0014674Y0041131D03*
X0017922Y0041544D03*
X0017922Y0041603D03*
X0017922Y0041839D03*
X0022646Y0040481D03*
X0022528Y0040068D03*
X0020225Y0034930D03*
X0007233Y0017922D03*
D88*
X0011101Y0017922D03*
X0022794Y0023709D03*
X0012637Y0042489D03*
X0012282Y0042430D03*
D89*
X0013227Y0040717D03*
X0020904Y0017922D03*
X0024270Y0017981D03*
D90*
X0022204Y0018985D03*
X0013641Y0023709D03*
X0013641Y0023769D03*
X0013641Y0023828D03*
X0013641Y0023887D03*
X0013641Y0023946D03*
X0013641Y0024005D03*
X0013641Y0024064D03*
X0013641Y0024123D03*
X0013641Y0024182D03*
X0013641Y0024241D03*
X0013641Y0024300D03*
X0013641Y0024359D03*
X0013641Y0024418D03*
X0013641Y0024477D03*
X0013641Y0024536D03*
X0013641Y0024595D03*
X0013641Y0024654D03*
X0013641Y0024713D03*
X0013641Y0024772D03*
X0013581Y0033394D03*
X0013581Y0033572D03*
X0013581Y0033631D03*
X0012046Y0041249D03*
X0010924Y0041721D03*
X0010511Y0041662D03*
X0009330Y0041485D03*
X0008916Y0041426D03*
X0008503Y0040954D03*
X0008503Y0040894D03*
X0008503Y0040835D03*
X0008503Y0040776D03*
X0008503Y0040717D03*
X0008503Y0040658D03*
X0008503Y0040599D03*
X0008503Y0040540D03*
X0008503Y0040481D03*
X0008503Y0040422D03*
X0008503Y0040363D03*
X0016298Y0045973D03*
X0019251Y0044379D03*
X0019723Y0043434D03*
X0020078Y0041780D03*
X0021318Y0040540D03*
X0021436Y0040481D03*
X0021672Y0040363D03*
X0022499Y0041721D03*
X0022794Y0041544D03*
X0023089Y0041367D03*
X0023444Y0041131D03*
X0023857Y0040894D03*
X0024034Y0039831D03*
X0023089Y0039595D03*
X0022204Y0041898D03*
X0018247Y0042548D03*
X0007026Y0017981D03*
D91*
X0010865Y0017981D03*
D92*
X0010629Y0018040D03*
X0016770Y0018276D03*
X0016770Y0018335D03*
X0016770Y0018394D03*
X0016770Y0018454D03*
X0016770Y0018513D03*
X0016770Y0018572D03*
X0016770Y0018631D03*
X0016770Y0018690D03*
X0016770Y0018749D03*
X0016770Y0018808D03*
X0016770Y0018867D03*
X0016770Y0018926D03*
X0016770Y0018985D03*
X0016770Y0019044D03*
X0016770Y0019103D03*
X0016770Y0019162D03*
X0016770Y0019221D03*
X0016770Y0019280D03*
X0016770Y0019339D03*
X0016770Y0019398D03*
X0016770Y0019457D03*
X0016770Y0019517D03*
X0016770Y0019576D03*
X0016770Y0019635D03*
X0016770Y0019694D03*
X0016770Y0019753D03*
X0016770Y0019812D03*
X0016770Y0019871D03*
X0016770Y0019930D03*
X0016770Y0019989D03*
X0016770Y0020048D03*
X0016770Y0020107D03*
X0016770Y0020166D03*
X0016770Y0020225D03*
X0016770Y0020284D03*
X0016770Y0020343D03*
X0016770Y0020402D03*
X0016770Y0020461D03*
X0016770Y0020520D03*
X0016770Y0020580D03*
X0016770Y0020639D03*
X0016770Y0020698D03*
X0016770Y0020757D03*
X0016770Y0020816D03*
X0016770Y0020875D03*
X0016770Y0020934D03*
X0016770Y0020993D03*
X0016770Y0021052D03*
X0016770Y0021111D03*
X0016770Y0021170D03*
X0016770Y0021229D03*
X0016770Y0021288D03*
X0016770Y0021347D03*
X0016770Y0021406D03*
X0016770Y0021465D03*
X0016770Y0021524D03*
X0016770Y0021583D03*
X0016770Y0021643D03*
X0016770Y0021702D03*
X0016770Y0021761D03*
X0016770Y0021820D03*
X0016770Y0021879D03*
X0016770Y0021938D03*
X0016770Y0021997D03*
X0016770Y0022056D03*
X0013995Y0043611D03*
X0014349Y0043670D03*
X0014704Y0043729D03*
X0015058Y0043788D03*
X0015471Y0043847D03*
X0015826Y0043906D03*
X0011751Y0043257D03*
D93*
X0022233Y0029261D03*
X0022233Y0029202D03*
X0022233Y0029143D03*
X0022233Y0029083D03*
X0022233Y0029024D03*
X0022233Y0028965D03*
X0022233Y0028906D03*
X0022233Y0028847D03*
X0022233Y0028788D03*
X0022233Y0028729D03*
X0022233Y0028670D03*
X0022233Y0028611D03*
X0022233Y0028552D03*
X0022233Y0023591D03*
X0022233Y0023532D03*
X0022233Y0023473D03*
X0022233Y0023414D03*
X0022233Y0023355D03*
X0022233Y0023296D03*
X0010540Y0018572D03*
X0010540Y0018513D03*
X0010540Y0018454D03*
X0010540Y0018394D03*
X0010540Y0018335D03*
X0010540Y0018276D03*
X0010540Y0018217D03*
X0010540Y0018158D03*
X0010540Y0018099D03*
D94*
X0021554Y0018099D03*
X0021672Y0018158D03*
X0021849Y0018217D03*
X0022144Y0018335D03*
X0023089Y0018749D03*
X0023148Y0038296D03*
D95*
X0023267Y0038178D03*
X0017538Y0044379D03*
X0013995Y0041780D03*
X0011928Y0040540D03*
X0011515Y0040481D03*
X0010983Y0040422D03*
X0023207Y0018867D03*
X0024389Y0018099D03*
D96*
X0019900Y0023650D03*
X0019900Y0023709D03*
X0019900Y0029379D03*
X0024507Y0031150D03*
X0024507Y0031209D03*
X0024507Y0031269D03*
X0024507Y0031328D03*
X0024507Y0031387D03*
X0024507Y0031446D03*
X0024507Y0031505D03*
X0024507Y0031564D03*
X0024507Y0031623D03*
X0024507Y0031682D03*
X0024507Y0031741D03*
X0024507Y0031800D03*
X0024507Y0031859D03*
X0024507Y0031918D03*
X0024507Y0031977D03*
X0024507Y0032036D03*
X0024507Y0032095D03*
X0024507Y0032154D03*
X0024507Y0032213D03*
X0024507Y0032272D03*
X0024507Y0032331D03*
X0024507Y0032391D03*
X0024507Y0032450D03*
X0024507Y0032509D03*
X0024507Y0032568D03*
X0024507Y0032627D03*
X0024507Y0032686D03*
X0024507Y0032745D03*
X0024507Y0032804D03*
X0024507Y0032863D03*
X0024507Y0032922D03*
X0024507Y0032981D03*
X0024507Y0033040D03*
X0024507Y0033099D03*
X0024507Y0033158D03*
X0024507Y0033217D03*
X0024507Y0033276D03*
X0024507Y0033335D03*
X0024507Y0033394D03*
X0024507Y0033454D03*
X0023030Y0039654D03*
X0022381Y0040835D03*
X0020845Y0040835D03*
X0020786Y0040894D03*
X0020786Y0040954D03*
X0020786Y0041780D03*
X0020137Y0042548D03*
X0020550Y0042902D03*
X0020727Y0042784D03*
X0020255Y0043080D03*
X0020137Y0043139D03*
X0018483Y0044674D03*
X0016830Y0045501D03*
X0016830Y0045560D03*
X0014113Y0042194D03*
X0013700Y0042135D03*
X0013286Y0042076D03*
X0012932Y0042017D03*
X0012519Y0041957D03*
X0014940Y0041603D03*
X0014940Y0041367D03*
X0008916Y0042430D03*
X0008562Y0040009D03*
X0013641Y0034930D03*
X0012755Y0033513D03*
X0012814Y0028375D03*
X0012814Y0028316D03*
X0012814Y0028257D03*
X0012814Y0028198D03*
X0013641Y0028316D03*
X0012814Y0023060D03*
X0012814Y0022883D03*
X0013700Y0018276D03*
X0007381Y0018158D03*
D97*
X0023148Y0018808D03*
X0024448Y0018158D03*
X0023207Y0038237D03*
X0018011Y0043493D03*
D98*
X0017715Y0042725D03*
X0019251Y0042961D03*
X0020196Y0042489D03*
X0020668Y0043434D03*
X0020786Y0043375D03*
X0020963Y0043257D03*
X0021081Y0043198D03*
X0021259Y0043080D03*
X0021377Y0043020D03*
X0021554Y0042902D03*
X0021672Y0042843D03*
X0021731Y0042784D03*
X0021849Y0042725D03*
X0022026Y0042607D03*
X0022144Y0042548D03*
X0022322Y0042430D03*
X0022440Y0042371D03*
X0022617Y0042253D03*
X0022735Y0042194D03*
X0022794Y0042135D03*
X0022912Y0042076D03*
X0020491Y0043552D03*
X0020373Y0043611D03*
X0020196Y0043729D03*
X0020078Y0043788D03*
X0019900Y0043906D03*
X0019369Y0044202D03*
X0016298Y0045914D03*
X0016121Y0042489D03*
X0013641Y0038887D03*
X0013641Y0038828D03*
X0013641Y0038769D03*
X0013641Y0038709D03*
X0013641Y0038650D03*
X0013641Y0038591D03*
X0013641Y0038532D03*
X0013641Y0038473D03*
X0013641Y0038414D03*
X0013641Y0038355D03*
X0013641Y0038296D03*
X0013641Y0038237D03*
X0013641Y0038178D03*
X0013641Y0038119D03*
X0013641Y0038060D03*
X0013641Y0038001D03*
X0013641Y0037942D03*
X0013641Y0037883D03*
X0013641Y0037824D03*
X0013641Y0037765D03*
X0013641Y0037706D03*
X0013641Y0037646D03*
X0013641Y0037587D03*
X0013641Y0037528D03*
X0013641Y0037469D03*
X0013641Y0037410D03*
X0013641Y0037351D03*
X0013641Y0037292D03*
X0013641Y0037233D03*
X0013641Y0037174D03*
X0013641Y0037115D03*
X0013641Y0037056D03*
X0013641Y0036879D03*
X0013641Y0036820D03*
X0013641Y0036761D03*
X0013641Y0036702D03*
X0013641Y0036643D03*
X0013641Y0036583D03*
X0013641Y0036524D03*
X0013641Y0036465D03*
X0013641Y0036406D03*
X0013641Y0036347D03*
X0013641Y0036288D03*
X0013641Y0036229D03*
X0013641Y0036170D03*
X0013641Y0036111D03*
X0013641Y0036052D03*
X0013641Y0035993D03*
X0013641Y0035934D03*
X0013641Y0035875D03*
X0013641Y0035816D03*
X0013641Y0035757D03*
X0013641Y0035698D03*
X0013641Y0035639D03*
X0011928Y0041131D03*
X0011928Y0041190D03*
X0008089Y0041544D03*
X0007440Y0039536D03*
X0007440Y0039477D03*
X0007440Y0039418D03*
X0007440Y0039359D03*
X0007440Y0039300D03*
X0007440Y0039241D03*
X0007440Y0039182D03*
X0007440Y0039123D03*
X0007440Y0039064D03*
X0007440Y0039005D03*
X0007440Y0038946D03*
X0007440Y0038887D03*
X0007440Y0038828D03*
X0007440Y0038769D03*
X0007440Y0038709D03*
X0007440Y0038650D03*
X0007440Y0038591D03*
X0007440Y0038532D03*
X0007440Y0038473D03*
X0007440Y0038414D03*
X0007440Y0038355D03*
X0007440Y0038296D03*
X0007440Y0038237D03*
X0007440Y0038178D03*
X0007440Y0038119D03*
X0007440Y0038060D03*
X0007440Y0038001D03*
X0007440Y0037942D03*
X0007440Y0037883D03*
X0007440Y0037824D03*
X0007440Y0037765D03*
X0007440Y0037706D03*
X0007440Y0037646D03*
X0007440Y0037587D03*
X0007440Y0037528D03*
X0007440Y0037469D03*
X0007440Y0037410D03*
X0007440Y0037351D03*
X0007440Y0037292D03*
X0007440Y0037233D03*
X0007440Y0037174D03*
X0007440Y0037115D03*
X0007440Y0037056D03*
X0007440Y0036997D03*
X0007440Y0036938D03*
X0007440Y0036879D03*
X0007440Y0036820D03*
X0007381Y0036052D03*
X0007381Y0035993D03*
X0007381Y0035934D03*
X0007381Y0035875D03*
X0007381Y0035816D03*
X0007381Y0035757D03*
X0007381Y0035698D03*
X0007381Y0035639D03*
X0007381Y0035580D03*
X0007381Y0035520D03*
X0007381Y0035461D03*
X0007381Y0035402D03*
X0007381Y0035343D03*
X0007381Y0035284D03*
X0007381Y0035225D03*
X0007381Y0035166D03*
X0007381Y0035107D03*
X0007381Y0035048D03*
X0007381Y0034989D03*
X0007381Y0034930D03*
X0007381Y0034871D03*
X0007381Y0034812D03*
X0007381Y0034753D03*
X0007381Y0034694D03*
X0007381Y0034635D03*
X0007381Y0034576D03*
X0007381Y0034517D03*
X0007381Y0034457D03*
X0007381Y0034398D03*
X0007381Y0034339D03*
X0007381Y0034280D03*
X0007381Y0034221D03*
X0007381Y0034162D03*
X0007381Y0034103D03*
X0007381Y0034044D03*
X0007381Y0033985D03*
X0007381Y0033926D03*
X0007381Y0033867D03*
X0007381Y0033808D03*
X0007381Y0033749D03*
X0007381Y0033690D03*
X0007381Y0033631D03*
X0007381Y0033572D03*
X0007381Y0033513D03*
X0007381Y0033454D03*
X0007381Y0033394D03*
X0007381Y0033335D03*
X0007381Y0033276D03*
X0007381Y0033217D03*
X0007381Y0033158D03*
X0007381Y0033099D03*
X0007381Y0033040D03*
X0007381Y0032981D03*
X0007381Y0032922D03*
X0007381Y0032863D03*
X0007381Y0032804D03*
X0007381Y0032745D03*
X0007381Y0032686D03*
X0007381Y0032627D03*
X0007381Y0032568D03*
X0007381Y0032509D03*
X0007381Y0032450D03*
X0007381Y0032391D03*
X0007381Y0032331D03*
X0007381Y0032272D03*
X0007381Y0032213D03*
X0007381Y0032154D03*
X0007381Y0032095D03*
X0007381Y0032036D03*
X0007381Y0031977D03*
X0007381Y0031918D03*
X0007381Y0031859D03*
X0007381Y0031800D03*
X0007381Y0031741D03*
X0007381Y0031682D03*
X0007381Y0031623D03*
X0007381Y0031564D03*
X0007381Y0031505D03*
X0007381Y0031446D03*
X0007381Y0031387D03*
X0007381Y0031328D03*
X0007381Y0031269D03*
X0007381Y0031209D03*
X0007381Y0031150D03*
X0007381Y0031091D03*
X0007381Y0031032D03*
X0007381Y0030973D03*
X0007381Y0030914D03*
X0007381Y0030855D03*
X0007381Y0030796D03*
X0007381Y0030737D03*
X0007381Y0030678D03*
X0007381Y0030619D03*
X0007381Y0030560D03*
X0007381Y0030501D03*
X0007381Y0030442D03*
X0007381Y0030383D03*
X0007381Y0030324D03*
X0007381Y0030265D03*
X0007381Y0030206D03*
X0007381Y0030146D03*
X0007381Y0030087D03*
X0007381Y0030028D03*
X0007381Y0029969D03*
X0007381Y0029910D03*
X0007381Y0029851D03*
X0007381Y0029792D03*
X0007381Y0029733D03*
X0007381Y0029674D03*
X0007381Y0029615D03*
X0007381Y0029556D03*
X0007381Y0029497D03*
X0007381Y0029438D03*
X0007381Y0029379D03*
X0007381Y0029320D03*
X0007381Y0029261D03*
X0007381Y0029202D03*
X0007381Y0029143D03*
X0007381Y0029083D03*
X0007381Y0029024D03*
X0007322Y0023355D03*
X0007322Y0023296D03*
X0007322Y0023237D03*
X0007322Y0023178D03*
X0007322Y0023119D03*
X0007322Y0023060D03*
X0007322Y0023001D03*
X0007322Y0022942D03*
X0007322Y0022883D03*
X0007322Y0022824D03*
X0007322Y0022765D03*
X0007322Y0022706D03*
X0007322Y0022646D03*
X0007322Y0022587D03*
X0007322Y0022528D03*
X0007322Y0022469D03*
X0007322Y0022410D03*
X0007322Y0022351D03*
X0007322Y0022292D03*
X0007322Y0022233D03*
X0007322Y0022174D03*
X0007322Y0022115D03*
X0007322Y0022056D03*
X0007322Y0021997D03*
X0007322Y0021938D03*
X0007322Y0021879D03*
X0007322Y0021820D03*
X0007322Y0021761D03*
X0007322Y0021702D03*
X0007322Y0021643D03*
X0007322Y0021583D03*
X0007322Y0021524D03*
X0007322Y0021465D03*
X0007322Y0021406D03*
X0007322Y0021347D03*
X0007322Y0021288D03*
X0007322Y0021229D03*
X0007322Y0021170D03*
X0007322Y0021111D03*
X0007322Y0021052D03*
X0007322Y0020993D03*
X0007322Y0020934D03*
X0007322Y0020875D03*
X0007322Y0020816D03*
X0007322Y0020757D03*
X0007322Y0020698D03*
X0007322Y0020639D03*
X0007322Y0020580D03*
X0007322Y0020520D03*
X0007322Y0020461D03*
X0007322Y0020402D03*
X0007322Y0020343D03*
X0007322Y0020284D03*
X0007322Y0020225D03*
X0007322Y0020166D03*
X0007322Y0020107D03*
X0007322Y0020048D03*
X0007322Y0019989D03*
X0007322Y0019930D03*
X0007322Y0019871D03*
X0007322Y0019812D03*
X0007322Y0019753D03*
X0007322Y0019694D03*
X0007322Y0019635D03*
X0007322Y0019576D03*
X0007322Y0019517D03*
X0007322Y0019457D03*
X0007322Y0019398D03*
X0007322Y0019339D03*
X0007322Y0019280D03*
X0007322Y0019221D03*
X0007322Y0019162D03*
X0007322Y0019103D03*
X0007322Y0019044D03*
X0007322Y0018985D03*
X0007322Y0018926D03*
X0007322Y0018867D03*
X0007322Y0018808D03*
X0007322Y0018749D03*
X0007322Y0018690D03*
X0007322Y0018631D03*
X0007322Y0018572D03*
X0007322Y0018513D03*
X0007322Y0018454D03*
X0007322Y0018394D03*
X0007322Y0018335D03*
X0007322Y0018276D03*
X0007322Y0018217D03*
X0022322Y0019103D03*
X0024507Y0019517D03*
X0024507Y0024418D03*
X0024507Y0024477D03*
X0024507Y0024536D03*
X0024507Y0024595D03*
X0024507Y0024654D03*
X0024507Y0024713D03*
X0024507Y0024772D03*
X0024507Y0024831D03*
X0024507Y0024891D03*
X0024507Y0024950D03*
X0024507Y0025009D03*
X0024507Y0025068D03*
X0024507Y0025127D03*
X0024507Y0025186D03*
X0024507Y0025245D03*
X0024507Y0025304D03*
X0024507Y0025363D03*
X0024507Y0025422D03*
X0024507Y0025481D03*
X0024507Y0025540D03*
X0024507Y0025599D03*
X0024507Y0025658D03*
X0024507Y0025717D03*
X0024507Y0025776D03*
X0024507Y0025835D03*
X0024507Y0025894D03*
X0024507Y0025954D03*
X0024507Y0026013D03*
X0024507Y0026072D03*
X0024507Y0026131D03*
X0024507Y0026190D03*
X0024507Y0026249D03*
X0024507Y0026308D03*
X0024507Y0026367D03*
X0024507Y0026426D03*
X0024507Y0026485D03*
X0024507Y0026544D03*
X0024507Y0026603D03*
X0024507Y0026662D03*
X0024507Y0026721D03*
X0024507Y0026780D03*
X0024507Y0026839D03*
X0024507Y0026898D03*
X0024507Y0026957D03*
X0024507Y0027017D03*
X0024507Y0027076D03*
X0024507Y0027135D03*
X0024507Y0027194D03*
X0024507Y0027253D03*
X0024507Y0027312D03*
X0024507Y0027371D03*
X0024507Y0027430D03*
X0024507Y0027489D03*
X0024507Y0027548D03*
X0024507Y0027607D03*
X0024507Y0027666D03*
X0024507Y0027725D03*
X0024507Y0027784D03*
X0024507Y0027843D03*
X0024507Y0027902D03*
X0024507Y0027961D03*
X0024507Y0028020D03*
X0024507Y0028080D03*
X0024507Y0028139D03*
X0024507Y0028198D03*
X0024507Y0028257D03*
X0024507Y0028316D03*
X0024507Y0028375D03*
X0024507Y0028434D03*
X0024507Y0028493D03*
X0024448Y0033985D03*
X0022381Y0034635D03*
X0022381Y0034694D03*
X0022381Y0034753D03*
X0022381Y0034812D03*
X0022381Y0034871D03*
X0022381Y0034930D03*
X0022381Y0034989D03*
X0022381Y0035048D03*
X0022381Y0035107D03*
X0022381Y0035166D03*
X0022381Y0035225D03*
X0022381Y0035284D03*
X0022381Y0035343D03*
X0022381Y0035402D03*
X0022381Y0035461D03*
X0022381Y0035520D03*
X0022381Y0035580D03*
X0022381Y0035639D03*
X0022381Y0035698D03*
X0022381Y0035757D03*
X0022381Y0035816D03*
X0022381Y0035875D03*
X0022381Y0035934D03*
X0022381Y0035993D03*
X0022381Y0036052D03*
X0022381Y0036111D03*
X0022381Y0036170D03*
X0022381Y0036347D03*
X0022381Y0036406D03*
X0022381Y0036465D03*
X0022381Y0036643D03*
X0022381Y0036702D03*
X0022381Y0036761D03*
X0022381Y0036820D03*
X0022381Y0036879D03*
X0022381Y0036938D03*
X0022381Y0036997D03*
X0022381Y0037056D03*
X0022381Y0037115D03*
X0022381Y0037174D03*
X0022381Y0037233D03*
X0022381Y0037292D03*
X0022381Y0037351D03*
X0022381Y0037410D03*
X0022381Y0037469D03*
X0022381Y0037528D03*
X0022381Y0037587D03*
X0022381Y0037646D03*
X0022381Y0037706D03*
X0022381Y0037765D03*
X0022381Y0037824D03*
X0022381Y0037883D03*
X0022381Y0037942D03*
X0022381Y0038001D03*
X0022381Y0038060D03*
X0022381Y0038119D03*
X0024448Y0037587D03*
X0024507Y0038591D03*
X0020019Y0038414D03*
D99*
X0018926Y0041013D03*
X0022469Y0040127D03*
X0022706Y0040422D03*
X0024182Y0037824D03*
X0014615Y0041249D03*
X0008946Y0039772D03*
X0008650Y0038414D03*
X0008650Y0038355D03*
X0008650Y0038296D03*
X0008650Y0038237D03*
X0008650Y0038178D03*
X0008650Y0038119D03*
X0008650Y0038060D03*
X0008650Y0038001D03*
X0008650Y0037942D03*
X0008650Y0037883D03*
X0008650Y0037824D03*
X0008650Y0037765D03*
X0008650Y0037706D03*
X0008650Y0037646D03*
X0008650Y0037587D03*
X0008650Y0037528D03*
X0008650Y0037469D03*
X0008650Y0037410D03*
X0008650Y0037351D03*
X0008650Y0037292D03*
X0008650Y0037233D03*
X0008650Y0037174D03*
X0008650Y0037115D03*
X0008650Y0037056D03*
X0008650Y0036997D03*
X0008650Y0036938D03*
X0008650Y0036879D03*
X0008650Y0036820D03*
X0008650Y0036761D03*
X0008650Y0036702D03*
X0008650Y0036643D03*
X0008650Y0036406D03*
X0008650Y0036347D03*
X0008650Y0036288D03*
X0008650Y0036229D03*
X0008650Y0036170D03*
X0008650Y0036111D03*
X0008650Y0036052D03*
X0008650Y0035993D03*
X0008650Y0035934D03*
X0008650Y0035875D03*
X0008650Y0035816D03*
X0008650Y0035757D03*
X0008650Y0035698D03*
X0008650Y0035639D03*
X0008650Y0035580D03*
X0008650Y0035520D03*
X0008650Y0035461D03*
X0008650Y0035402D03*
X0008650Y0035343D03*
X0008650Y0035284D03*
X0008650Y0035225D03*
X0008650Y0035166D03*
X0008650Y0035107D03*
X0008650Y0035048D03*
X0008650Y0034989D03*
X0008650Y0034930D03*
X0008650Y0034871D03*
X0008650Y0034812D03*
X0008650Y0034753D03*
X0008650Y0034694D03*
X0008650Y0034635D03*
X0008650Y0034576D03*
X0024241Y0024300D03*
X0020166Y0018394D03*
D100*
X0020314Y0018513D03*
X0024093Y0024241D03*
X0020432Y0034812D03*
X0017715Y0041249D03*
X0012459Y0040186D03*
X0011456Y0040068D03*
X0007853Y0039654D03*
D101*
X0008680Y0036465D03*
X0009270Y0042548D03*
X0017833Y0042430D03*
X0018542Y0043670D03*
X0022794Y0040363D03*
X0022617Y0024359D03*
X0020255Y0023887D03*
X0022617Y0019339D03*
X0024920Y0018572D03*
D102*
X0016770Y0025422D03*
X0016770Y0025481D03*
X0016770Y0025540D03*
X0016770Y0025599D03*
X0016770Y0025658D03*
X0016770Y0025717D03*
X0016770Y0025776D03*
X0016770Y0025835D03*
X0016770Y0025894D03*
X0016770Y0025954D03*
X0016770Y0026013D03*
X0016770Y0026072D03*
X0016770Y0026131D03*
X0016770Y0026190D03*
X0016770Y0026249D03*
X0016770Y0026308D03*
X0016770Y0026367D03*
X0016770Y0026426D03*
X0016770Y0026485D03*
X0016770Y0026544D03*
X0016770Y0026603D03*
X0016770Y0026662D03*
X0016770Y0026721D03*
X0016770Y0026780D03*
X0016770Y0026839D03*
X0016770Y0026898D03*
X0016770Y0026957D03*
X0016770Y0027017D03*
X0016770Y0027076D03*
X0016770Y0027135D03*
X0016770Y0027194D03*
X0016770Y0027253D03*
X0016770Y0027312D03*
X0016770Y0027371D03*
X0016770Y0027430D03*
X0016770Y0027489D03*
X0016770Y0027548D03*
X0016770Y0028080D03*
X0016770Y0029143D03*
X0016770Y0029202D03*
X0016770Y0029261D03*
X0016770Y0029320D03*
X0016770Y0029379D03*
X0016770Y0029438D03*
X0016770Y0029497D03*
X0016770Y0029556D03*
X0016770Y0029615D03*
X0016770Y0029674D03*
X0016770Y0029733D03*
X0016770Y0029792D03*
X0016770Y0029851D03*
X0016770Y0029910D03*
X0016770Y0029969D03*
X0016770Y0030028D03*
X0016770Y0030087D03*
X0016770Y0030146D03*
X0016770Y0030206D03*
X0016770Y0030265D03*
X0016770Y0030324D03*
X0016770Y0030383D03*
X0016770Y0030442D03*
X0016770Y0030501D03*
X0016770Y0030560D03*
X0016770Y0030619D03*
X0016770Y0030678D03*
X0016770Y0030737D03*
X0016770Y0030796D03*
X0016770Y0030855D03*
X0016770Y0030914D03*
X0016770Y0030973D03*
X0016770Y0031032D03*
X0016770Y0031091D03*
X0016770Y0031150D03*
X0016770Y0031209D03*
X0016770Y0031269D03*
X0016770Y0031328D03*
X0016770Y0031387D03*
X0016770Y0031446D03*
X0016770Y0031505D03*
X0016770Y0031564D03*
X0016770Y0031623D03*
X0016770Y0031682D03*
X0016770Y0031741D03*
X0016770Y0031800D03*
X0016770Y0031859D03*
X0016770Y0031918D03*
X0016770Y0031977D03*
X0016770Y0032036D03*
X0016770Y0032095D03*
X0016770Y0032154D03*
X0016770Y0032213D03*
X0016770Y0032272D03*
X0016770Y0032331D03*
X0016770Y0032391D03*
X0016770Y0032450D03*
X0016770Y0032509D03*
X0016770Y0032568D03*
X0016770Y0032627D03*
X0016770Y0032686D03*
X0016770Y0032745D03*
X0016770Y0032804D03*
X0016770Y0032863D03*
X0016770Y0032922D03*
X0016770Y0032981D03*
X0016770Y0033040D03*
X0016770Y0033099D03*
X0016770Y0033158D03*
X0016770Y0033217D03*
X0016770Y0033276D03*
X0016770Y0033335D03*
X0016770Y0033394D03*
X0016770Y0033454D03*
X0016770Y0033513D03*
X0010570Y0018690D03*
X0010570Y0018631D03*
D103*
X0020520Y0018690D03*
X0023887Y0019044D03*
X0022942Y0024536D03*
X0022942Y0024595D03*
X0022942Y0024654D03*
X0022942Y0024713D03*
X0022942Y0024772D03*
X0022942Y0024831D03*
X0022942Y0024891D03*
X0022942Y0024950D03*
X0022942Y0025009D03*
X0022942Y0025068D03*
X0022942Y0025127D03*
X0022942Y0025186D03*
X0022942Y0025245D03*
X0022942Y0025304D03*
X0022942Y0025363D03*
X0022942Y0025422D03*
X0022942Y0025481D03*
X0022942Y0025540D03*
X0022942Y0025599D03*
X0022942Y0025658D03*
X0022942Y0025717D03*
X0022942Y0025776D03*
X0022942Y0025835D03*
X0022942Y0025894D03*
X0022942Y0025954D03*
X0022942Y0026013D03*
X0022942Y0026072D03*
X0022942Y0026131D03*
X0022942Y0026190D03*
X0022942Y0026249D03*
X0022942Y0026308D03*
X0022942Y0026367D03*
X0022942Y0026426D03*
X0022942Y0026485D03*
X0022942Y0026544D03*
X0022942Y0026603D03*
X0022942Y0026662D03*
X0022942Y0026721D03*
X0022942Y0026780D03*
X0022942Y0026839D03*
X0022942Y0026898D03*
X0022942Y0026957D03*
X0022942Y0027017D03*
X0022942Y0027076D03*
X0022942Y0027135D03*
X0022942Y0027194D03*
X0022942Y0027253D03*
X0022942Y0027312D03*
X0022942Y0027371D03*
X0022942Y0027430D03*
X0022942Y0027489D03*
X0022942Y0027548D03*
X0022942Y0027607D03*
X0022942Y0027666D03*
X0022942Y0027725D03*
X0022942Y0027784D03*
X0022942Y0027843D03*
X0022942Y0027902D03*
X0022942Y0027961D03*
X0022942Y0028020D03*
X0022942Y0028080D03*
X0023001Y0029438D03*
X0023001Y0029497D03*
X0023001Y0029556D03*
X0023001Y0029615D03*
X0023001Y0029674D03*
X0023001Y0029733D03*
X0023001Y0029792D03*
X0023001Y0029851D03*
X0023001Y0029910D03*
X0023001Y0029969D03*
X0023001Y0030028D03*
X0023001Y0030087D03*
X0023001Y0030146D03*
X0023001Y0030206D03*
X0023001Y0030265D03*
X0023001Y0030324D03*
X0023001Y0030383D03*
X0023001Y0030442D03*
X0023001Y0030501D03*
X0023001Y0030560D03*
X0023001Y0030619D03*
X0023001Y0030678D03*
X0023001Y0030737D03*
X0023001Y0030796D03*
X0023001Y0030855D03*
X0023001Y0030914D03*
X0023001Y0030973D03*
X0023001Y0031032D03*
X0023001Y0031091D03*
X0023001Y0031150D03*
X0023001Y0031209D03*
X0023001Y0031269D03*
X0023001Y0031328D03*
X0023001Y0031387D03*
X0023001Y0031446D03*
X0023001Y0031505D03*
X0023001Y0031564D03*
X0023001Y0031623D03*
X0023001Y0031682D03*
X0023001Y0031741D03*
X0023001Y0031800D03*
X0023001Y0031859D03*
X0023001Y0031918D03*
X0023001Y0031977D03*
X0023001Y0032036D03*
X0023001Y0032095D03*
X0023001Y0032154D03*
X0023001Y0032213D03*
X0023001Y0032272D03*
X0023001Y0032331D03*
X0023001Y0032391D03*
X0023001Y0032450D03*
X0023001Y0032509D03*
X0023001Y0032568D03*
X0023001Y0032627D03*
X0023001Y0032686D03*
X0023001Y0032745D03*
X0023001Y0032804D03*
X0023001Y0032863D03*
X0023001Y0032922D03*
X0023001Y0032981D03*
X0023001Y0033040D03*
X0023001Y0033099D03*
X0023001Y0033158D03*
X0023001Y0033217D03*
X0023001Y0033276D03*
X0023001Y0033335D03*
X0023001Y0033394D03*
X0023001Y0033454D03*
X0020639Y0034694D03*
X0022410Y0038769D03*
X0020698Y0039654D03*
X0017450Y0041190D03*
X0016918Y0040717D03*
X0016446Y0040658D03*
X0016505Y0041072D03*
X0012076Y0034635D03*
D104*
X0012548Y0032745D03*
X0012548Y0032686D03*
X0012548Y0032627D03*
X0012548Y0032568D03*
X0012548Y0032509D03*
X0012548Y0032450D03*
X0012548Y0032391D03*
X0012548Y0032331D03*
X0012548Y0032272D03*
X0012548Y0032213D03*
X0012548Y0032154D03*
X0012548Y0032095D03*
X0012548Y0032036D03*
X0012548Y0031977D03*
X0012548Y0031918D03*
X0012548Y0031859D03*
X0012548Y0031800D03*
X0012548Y0031741D03*
X0012548Y0031682D03*
X0012548Y0031623D03*
X0012548Y0031564D03*
X0012548Y0031505D03*
X0012548Y0031446D03*
X0012548Y0031387D03*
X0012548Y0031328D03*
X0012548Y0031269D03*
X0012548Y0031209D03*
X0012548Y0031150D03*
X0012548Y0031091D03*
X0012548Y0031032D03*
X0012548Y0030973D03*
X0012548Y0030914D03*
X0014792Y0022646D03*
X0022469Y0024300D03*
X0022469Y0019221D03*
X0024359Y0019398D03*
X0024300Y0037706D03*
X0022587Y0040009D03*
X0019280Y0040658D03*
X0017981Y0041308D03*
X0017981Y0041426D03*
X0017981Y0042017D03*
X0017981Y0042135D03*
X0018276Y0044615D03*
X0013020Y0041131D03*
X0012253Y0041072D03*
X0012135Y0040954D03*
X0012076Y0040894D03*
X0008296Y0041603D03*
D105*
X0008503Y0041662D03*
X0009448Y0039831D03*
X0010452Y0039950D03*
X0010924Y0040009D03*
X0018070Y0044556D03*
X0022676Y0019398D03*
D106*
X0024418Y0019457D03*
X0020107Y0034989D03*
X0022646Y0039950D03*
X0022646Y0040245D03*
X0022646Y0040304D03*
X0022587Y0040599D03*
X0019162Y0042607D03*
X0019162Y0042666D03*
X0019162Y0042725D03*
X0019162Y0042784D03*
X0018749Y0043729D03*
X0018040Y0042489D03*
X0012194Y0041013D03*
X0012253Y0040776D03*
X0007587Y0040894D03*
X0007528Y0040835D03*
X0007528Y0040776D03*
X0007528Y0040717D03*
X0007528Y0040658D03*
X0007528Y0040599D03*
X0007528Y0040540D03*
X0007528Y0040481D03*
X0007528Y0040422D03*
X0007528Y0040363D03*
X0007528Y0040304D03*
X0007528Y0040245D03*
X0007528Y0040186D03*
X0007528Y0040127D03*
X0007528Y0040068D03*
X0007528Y0040009D03*
X0007528Y0039950D03*
X0007528Y0039891D03*
X0007528Y0039831D03*
X0007587Y0041013D03*
D107*
X0008089Y0039713D03*
X0009034Y0036524D03*
X0009034Y0033513D03*
X0014526Y0040835D03*
X0015767Y0042076D03*
X0017420Y0040776D03*
X0018188Y0043552D03*
X0022144Y0038887D03*
X0022263Y0038828D03*
X0022499Y0038709D03*
X0023030Y0038414D03*
X0022971Y0022410D03*
X0022971Y0022351D03*
X0022971Y0022292D03*
X0022971Y0022233D03*
X0022971Y0022174D03*
X0022971Y0022115D03*
X0022971Y0022056D03*
X0022971Y0021997D03*
X0022971Y0021938D03*
X0022971Y0021879D03*
X0022971Y0021820D03*
X0022971Y0021761D03*
X0022971Y0021702D03*
X0022971Y0021643D03*
X0022971Y0021583D03*
X0022971Y0021524D03*
X0022971Y0021465D03*
X0022971Y0021406D03*
X0022971Y0021347D03*
X0022971Y0021288D03*
X0022971Y0021229D03*
X0022971Y0021170D03*
X0022971Y0021111D03*
X0022971Y0021052D03*
X0022971Y0020993D03*
X0022971Y0020934D03*
X0022971Y0020875D03*
X0022971Y0020816D03*
X0022971Y0020757D03*
X0022971Y0020698D03*
X0022971Y0020639D03*
X0022971Y0020580D03*
X0022971Y0020520D03*
X0022971Y0020461D03*
X0022971Y0020402D03*
X0022971Y0020343D03*
X0022971Y0020284D03*
X0022971Y0020225D03*
X0022971Y0020166D03*
X0022971Y0020107D03*
X0022971Y0020048D03*
X0022971Y0019989D03*
X0022971Y0019930D03*
X0022971Y0019871D03*
X0022971Y0019812D03*
X0022971Y0019753D03*
X0022971Y0019694D03*
X0022971Y0019635D03*
D108*
X0011515Y0023119D03*
X0011456Y0033335D03*
D109*
X0010540Y0029024D03*
X0010540Y0028965D03*
X0010540Y0028906D03*
X0010540Y0028847D03*
X0010540Y0028788D03*
X0010540Y0028729D03*
X0010540Y0028670D03*
X0010540Y0028611D03*
X0010540Y0028552D03*
X0010540Y0028493D03*
X0010540Y0028434D03*
X0010540Y0023887D03*
X0010540Y0023828D03*
X0010540Y0023769D03*
X0010540Y0023709D03*
X0010540Y0023650D03*
X0010540Y0023591D03*
X0010540Y0023532D03*
X0010540Y0023473D03*
X0010540Y0023414D03*
X0010540Y0023355D03*
X0010540Y0023296D03*
X0010540Y0023237D03*
X0010540Y0023178D03*
X0016741Y0023709D03*
X0016741Y0023769D03*
X0016741Y0023828D03*
X0016741Y0023887D03*
X0016741Y0023946D03*
X0016741Y0024005D03*
X0016741Y0024064D03*
X0016741Y0024123D03*
X0016741Y0024182D03*
X0016741Y0024241D03*
X0016741Y0024300D03*
X0016741Y0024359D03*
X0016741Y0024418D03*
X0016741Y0024477D03*
X0016741Y0024536D03*
X0016741Y0024595D03*
X0016741Y0024654D03*
X0016741Y0024713D03*
X0016741Y0024772D03*
X0016741Y0024831D03*
X0016741Y0024891D03*
X0016741Y0024950D03*
X0016741Y0025009D03*
X0016741Y0025068D03*
X0016741Y0025127D03*
X0016741Y0025186D03*
X0016741Y0025245D03*
X0016741Y0025304D03*
X0016741Y0025363D03*
X0016800Y0027607D03*
X0016800Y0027666D03*
X0016800Y0027725D03*
X0016800Y0027784D03*
X0016800Y0027843D03*
X0016800Y0027902D03*
X0016800Y0027961D03*
X0016800Y0028020D03*
X0016800Y0028139D03*
X0016800Y0033572D03*
X0016859Y0034871D03*
X0022233Y0033926D03*
X0022233Y0033867D03*
X0022233Y0033808D03*
X0022233Y0033749D03*
X0022233Y0033690D03*
X0022233Y0033631D03*
X0022233Y0033572D03*
X0022233Y0033513D03*
X0016209Y0043965D03*
X0013611Y0043552D03*
X0013257Y0043493D03*
X0012902Y0043434D03*
X0012489Y0043375D03*
X0012135Y0043316D03*
X0011426Y0043198D03*
D110*
X0017272Y0043257D03*
X0022942Y0023769D03*
D111*
X0023060Y0023828D03*
X0011249Y0033276D03*
X0018454Y0040422D03*
X0016977Y0044202D03*
D112*
X0015678Y0042961D03*
X0015324Y0042902D03*
X0014910Y0042843D03*
X0021761Y0028493D03*
X0021761Y0028434D03*
X0021761Y0028375D03*
X0021761Y0028316D03*
X0021761Y0028257D03*
X0021761Y0028198D03*
X0021761Y0028139D03*
D113*
X0021643Y0034103D03*
X0010363Y0042135D03*
X0009950Y0042076D03*
X0009950Y0028375D03*
D114*
X0016357Y0028434D03*
X0016357Y0028493D03*
X0016357Y0028552D03*
X0016357Y0028611D03*
X0016357Y0028670D03*
X0016357Y0028729D03*
X0016357Y0028788D03*
X0016357Y0028847D03*
X0016357Y0028906D03*
X0016357Y0028965D03*
X0016357Y0029024D03*
X0016357Y0029083D03*
X0017656Y0040186D03*
D115*
X0017154Y0041426D03*
X0016800Y0041485D03*
X0016741Y0041367D03*
X0017154Y0041957D03*
X0015914Y0041780D03*
X0015914Y0041721D03*
X0015914Y0041662D03*
X0015855Y0041603D03*
X0015855Y0041544D03*
X0014261Y0041308D03*
X0013611Y0041249D03*
X0013493Y0041013D03*
X0013198Y0041190D03*
X0012961Y0041249D03*
X0012961Y0041308D03*
X0012961Y0041367D03*
X0012961Y0041426D03*
X0011603Y0040776D03*
X0011308Y0041190D03*
X0011072Y0040717D03*
X0010776Y0040658D03*
X0010776Y0041131D03*
X0010776Y0041190D03*
X0009950Y0041013D03*
X0009654Y0040954D03*
X0009595Y0040540D03*
X0009950Y0040540D03*
X0009950Y0040599D03*
X0009064Y0040776D03*
X0009064Y0040835D03*
X0009064Y0040894D03*
X0010304Y0038532D03*
X0011249Y0038532D03*
X0011249Y0038473D03*
X0011249Y0038414D03*
X0011249Y0038355D03*
X0011249Y0038296D03*
X0011249Y0038237D03*
X0011249Y0038178D03*
X0011249Y0038119D03*
X0011249Y0038060D03*
X0011249Y0038001D03*
X0011249Y0037942D03*
X0011249Y0037883D03*
X0011249Y0037824D03*
X0011249Y0037765D03*
X0011249Y0037706D03*
X0011249Y0037646D03*
X0011249Y0037587D03*
X0011249Y0037528D03*
X0011249Y0037469D03*
X0011249Y0037410D03*
X0011249Y0037351D03*
X0011249Y0037292D03*
X0011249Y0037233D03*
X0011249Y0037174D03*
X0011249Y0037115D03*
X0011249Y0037056D03*
X0011249Y0036997D03*
X0011249Y0036938D03*
X0011249Y0036879D03*
X0011249Y0036820D03*
X0011249Y0036583D03*
X0011249Y0036524D03*
X0011249Y0036465D03*
X0011249Y0036406D03*
X0011249Y0036347D03*
X0011249Y0036288D03*
X0011249Y0036229D03*
X0011249Y0036170D03*
X0011249Y0036111D03*
X0011249Y0036052D03*
X0011249Y0035993D03*
X0011249Y0035934D03*
X0011249Y0035875D03*
X0011249Y0035816D03*
X0011249Y0035757D03*
X0011249Y0035698D03*
X0011249Y0035639D03*
X0011249Y0035580D03*
X0011249Y0035520D03*
X0011249Y0035461D03*
X0011249Y0035402D03*
X0011249Y0035343D03*
X0011249Y0035284D03*
X0011249Y0035225D03*
X0011249Y0035166D03*
X0011249Y0035107D03*
X0011249Y0035048D03*
X0011249Y0034989D03*
X0011249Y0034930D03*
X0011249Y0034871D03*
X0011249Y0034812D03*
X0011249Y0034753D03*
X0011249Y0034694D03*
X0010304Y0036702D03*
X0011249Y0038650D03*
X0015087Y0038650D03*
X0015087Y0038591D03*
X0015087Y0038532D03*
X0015087Y0038473D03*
X0015087Y0038414D03*
X0015087Y0038355D03*
X0015087Y0038296D03*
X0015087Y0038237D03*
X0015087Y0038178D03*
X0015087Y0038119D03*
X0015087Y0038060D03*
X0015087Y0038001D03*
X0015087Y0037942D03*
X0015087Y0037883D03*
X0015087Y0038709D03*
X0015087Y0038769D03*
X0015087Y0038828D03*
X0015087Y0038887D03*
X0015087Y0038946D03*
X0015087Y0039005D03*
X0016150Y0037942D03*
X0016150Y0037883D03*
X0016150Y0037824D03*
X0016150Y0037765D03*
X0016150Y0037706D03*
X0016150Y0037646D03*
X0016150Y0037587D03*
X0016150Y0037528D03*
X0016150Y0037469D03*
X0016150Y0037410D03*
X0016150Y0037351D03*
X0016150Y0037292D03*
X0016150Y0037233D03*
X0016150Y0036997D03*
X0016150Y0036938D03*
X0016150Y0036879D03*
X0016150Y0036820D03*
X0016150Y0036761D03*
X0016150Y0036702D03*
X0016150Y0036643D03*
X0016150Y0036583D03*
X0016150Y0036524D03*
X0016150Y0036465D03*
X0016150Y0036406D03*
X0016150Y0036347D03*
X0016150Y0036288D03*
X0016150Y0036229D03*
X0016150Y0036170D03*
X0016150Y0036111D03*
X0016150Y0036052D03*
X0016150Y0035993D03*
X0016150Y0035934D03*
X0016150Y0035875D03*
X0016150Y0035816D03*
X0016150Y0035757D03*
X0016150Y0035698D03*
X0016150Y0035639D03*
X0016150Y0035580D03*
X0016150Y0035520D03*
X0016150Y0035461D03*
X0016150Y0035402D03*
X0016150Y0035343D03*
X0016150Y0035284D03*
X0016150Y0035225D03*
X0016150Y0035166D03*
X0016150Y0035107D03*
X0016150Y0035048D03*
X0021052Y0041013D03*
X0021052Y0041072D03*
X0021052Y0041131D03*
X0021052Y0041190D03*
X0021879Y0040954D03*
X0021879Y0040894D03*
X0021879Y0040835D03*
X0021879Y0040776D03*
X0021879Y0040717D03*
X0021879Y0040658D03*
X0021879Y0040599D03*
X0023355Y0041603D03*
X0024064Y0040658D03*
X0024831Y0038237D03*
X0020520Y0042135D03*
X0019871Y0042902D03*
X0019517Y0043670D03*
X0019457Y0043729D03*
X0019103Y0044024D03*
X0019044Y0044615D03*
X0016918Y0044615D03*
X0016564Y0044674D03*
X0016564Y0044556D03*
X0016564Y0044497D03*
X0016091Y0044792D03*
X0016032Y0044674D03*
X0015796Y0045087D03*
X0015501Y0045146D03*
X0015501Y0045206D03*
X0015501Y0045265D03*
X0015501Y0045324D03*
X0015501Y0045383D03*
X0016505Y0045324D03*
X0016505Y0045265D03*
X0016918Y0045146D03*
X0009477Y0033040D03*
X0009477Y0032981D03*
X0009477Y0032922D03*
X0009477Y0032863D03*
X0009477Y0032804D03*
X0009477Y0032745D03*
X0009477Y0032686D03*
X0009477Y0032627D03*
X0009477Y0032568D03*
X0009477Y0032509D03*
X0009477Y0032450D03*
X0009477Y0032391D03*
X0009477Y0032331D03*
X0009477Y0032272D03*
X0009477Y0032213D03*
X0009477Y0032154D03*
X0009477Y0032095D03*
X0009477Y0032036D03*
X0009477Y0031977D03*
X0009477Y0031918D03*
X0009477Y0031859D03*
X0009477Y0031800D03*
X0009477Y0031741D03*
X0009477Y0031682D03*
X0009477Y0031623D03*
X0009477Y0031564D03*
X0009477Y0031505D03*
X0009477Y0031446D03*
X0009477Y0031387D03*
X0009477Y0031328D03*
X0009477Y0031269D03*
X0009477Y0031209D03*
X0009477Y0031150D03*
X0009477Y0031091D03*
X0009477Y0031032D03*
X0009477Y0030973D03*
X0009477Y0030914D03*
X0009477Y0030855D03*
X0009477Y0030796D03*
X0009477Y0030737D03*
X0009477Y0030678D03*
X0009477Y0030619D03*
X0009477Y0030560D03*
X0009477Y0030501D03*
X0009477Y0030442D03*
X0009477Y0030383D03*
X0009477Y0030324D03*
X0009477Y0030265D03*
X0009477Y0030206D03*
X0009477Y0030146D03*
X0009477Y0030087D03*
X0009477Y0030028D03*
X0009477Y0029969D03*
X0009477Y0029910D03*
X0009477Y0029792D03*
X0009477Y0029733D03*
D116*
X0017715Y0033690D03*
X0009743Y0038709D03*
D117*
X0016387Y0034812D03*
X0016387Y0034753D03*
X0016387Y0034694D03*
X0016387Y0034635D03*
X0016387Y0034576D03*
X0016387Y0034517D03*
X0016387Y0034457D03*
X0016387Y0034398D03*
X0016387Y0034339D03*
X0016387Y0034280D03*
X0016387Y0034221D03*
X0016387Y0034162D03*
X0016387Y0034103D03*
X0016387Y0034044D03*
X0016387Y0033985D03*
D118*
X0021790Y0033985D03*
X0014526Y0042784D03*
X0014172Y0042725D03*
D119*
X0011898Y0042371D03*
X0011485Y0042312D03*
X0021702Y0034044D03*
D120*
X0024064Y0038709D03*
X0023946Y0038769D03*
X0023828Y0038828D03*
X0023709Y0038887D03*
X0023591Y0038946D03*
X0023473Y0039005D03*
X0023296Y0039123D03*
X0023178Y0039182D03*
X0023060Y0039241D03*
X0022942Y0039300D03*
X0022824Y0039359D03*
X0022706Y0039418D03*
X0022587Y0039477D03*
X0022469Y0039536D03*
X0022351Y0039595D03*
X0022056Y0039772D03*
X0021938Y0039831D03*
X0021820Y0039891D03*
X0021702Y0039950D03*
X0021583Y0040009D03*
X0021465Y0040068D03*
X0021170Y0040245D03*
X0021052Y0040304D03*
X0020934Y0040363D03*
X0020816Y0040422D03*
X0020166Y0040776D03*
X0020639Y0041957D03*
X0020698Y0042312D03*
X0021524Y0041426D03*
X0021702Y0041308D03*
X0022115Y0041072D03*
X0022233Y0041013D03*
X0022292Y0040954D03*
X0023473Y0040245D03*
X0023769Y0040068D03*
X0024123Y0039772D03*
X0024123Y0039359D03*
X0024123Y0039300D03*
X0024123Y0039005D03*
X0024713Y0038355D03*
X0023946Y0040776D03*
X0019457Y0043020D03*
X0016564Y0044733D03*
X0015914Y0041898D03*
X0016328Y0041662D03*
X0016328Y0041603D03*
X0016328Y0041544D03*
X0016328Y0041485D03*
X0016328Y0041426D03*
X0012961Y0040954D03*
X0011190Y0041131D03*
X0011131Y0040954D03*
X0011131Y0040894D03*
X0011131Y0040776D03*
X0010363Y0040954D03*
X0010363Y0041013D03*
X0010363Y0041072D03*
X0010363Y0041131D03*
X0007883Y0041485D03*
D121*
X0009979Y0038769D03*
X0010570Y0042961D03*
D122*
X0014910Y0039241D03*
D123*
X0012902Y0041603D03*
X0010009Y0042784D03*
X0017804Y0043434D03*
X0021111Y0039241D03*
D124*
X0016357Y0039359D03*
X0016357Y0039418D03*
X0016357Y0039477D03*
X0016357Y0039536D03*
X0016357Y0039595D03*
X0016357Y0039654D03*
X0016357Y0039713D03*
D125*
X0017213Y0042253D03*
X0020993Y0039359D03*
X0011957Y0041485D03*
X0009536Y0040245D03*
D126*
X0010717Y0039477D03*
D127*
X0010954Y0039536D03*
X0010776Y0043020D03*
X0013020Y0042548D03*
X0013375Y0042607D03*
X0013788Y0042666D03*
X0017095Y0043198D03*
X0018276Y0040363D03*
D128*
X0017036Y0040009D03*
X0015442Y0039831D03*
D129*
X0016830Y0039950D03*
D130*
X0017243Y0040068D03*
D131*
X0017420Y0040127D03*
D132*
X0018040Y0040304D03*
D133*
X0009477Y0041957D03*
D134*
X0010363Y0042902D03*
X0017450Y0043316D03*
D135*
X0010954Y0043080D03*
D136*
X0016446Y0043080D03*
X0016800Y0043139D03*
D137*
X0011160Y0043139D03*
D138*
X0016416Y0044024D03*
D139*
X0032910Y0050910D02*
X0032910Y0052410D01*
X0033410Y0052910D01*
X0033410Y0071910D01*
X0032910Y0072410D01*
X0032910Y0073910D01*
X0032912Y0073970D01*
X0032917Y0074031D01*
X0032926Y0074090D01*
X0032939Y0074149D01*
X0032955Y0074208D01*
X0032975Y0074265D01*
X0032998Y0074320D01*
X0033025Y0074375D01*
X0033054Y0074427D01*
X0033087Y0074478D01*
X0033123Y0074527D01*
X0033161Y0074573D01*
X0033203Y0074617D01*
X0033247Y0074659D01*
X0033293Y0074697D01*
X0033342Y0074733D01*
X0033393Y0074766D01*
X0033445Y0074795D01*
X0033500Y0074822D01*
X0033555Y0074845D01*
X0033612Y0074865D01*
X0033671Y0074881D01*
X0033730Y0074894D01*
X0033789Y0074903D01*
X0033850Y0074908D01*
X0033910Y0074910D01*
X0040910Y0074910D01*
X0040970Y0074908D01*
X0041031Y0074903D01*
X0041090Y0074894D01*
X0041149Y0074881D01*
X0041208Y0074865D01*
X0041265Y0074845D01*
X0041320Y0074822D01*
X0041375Y0074795D01*
X0041427Y0074766D01*
X0041478Y0074733D01*
X0041527Y0074697D01*
X0041573Y0074659D01*
X0041617Y0074617D01*
X0041659Y0074573D01*
X0041697Y0074527D01*
X0041733Y0074478D01*
X0041766Y0074427D01*
X0041795Y0074375D01*
X0041822Y0074320D01*
X0041845Y0074265D01*
X0041865Y0074208D01*
X0041881Y0074149D01*
X0041894Y0074090D01*
X0041903Y0074031D01*
X0041908Y0073970D01*
X0041910Y0073910D01*
X0041910Y0072410D01*
X0041410Y0071910D01*
X0041410Y0052910D01*
X0041910Y0052410D01*
X0041910Y0050910D01*
X0041908Y0050850D01*
X0041903Y0050789D01*
X0041894Y0050730D01*
X0041881Y0050671D01*
X0041865Y0050612D01*
X0041845Y0050555D01*
X0041822Y0050500D01*
X0041795Y0050445D01*
X0041766Y0050393D01*
X0041733Y0050342D01*
X0041697Y0050293D01*
X0041659Y0050247D01*
X0041617Y0050203D01*
X0041573Y0050161D01*
X0041527Y0050123D01*
X0041478Y0050087D01*
X0041427Y0050054D01*
X0041375Y0050025D01*
X0041320Y0049998D01*
X0041265Y0049975D01*
X0041208Y0049955D01*
X0041149Y0049939D01*
X0041090Y0049926D01*
X0041031Y0049917D01*
X0040970Y0049912D01*
X0040910Y0049910D01*
X0033910Y0049910D01*
X0033850Y0049912D01*
X0033789Y0049917D01*
X0033730Y0049926D01*
X0033671Y0049939D01*
X0033612Y0049955D01*
X0033555Y0049975D01*
X0033500Y0049998D01*
X0033445Y0050025D01*
X0033393Y0050054D01*
X0033342Y0050087D01*
X0033293Y0050123D01*
X0033247Y0050161D01*
X0033203Y0050203D01*
X0033161Y0050247D01*
X0033123Y0050293D01*
X0033087Y0050342D01*
X0033054Y0050393D01*
X0033025Y0050445D01*
X0032998Y0050500D01*
X0032975Y0050555D01*
X0032955Y0050612D01*
X0032939Y0050671D01*
X0032926Y0050730D01*
X0032917Y0050789D01*
X0032912Y0050850D01*
X0032910Y0050910D01*
X0057280Y0059650D02*
X0057280Y0082650D01*
X0057282Y0082820D01*
X0057288Y0082991D01*
X0057299Y0083161D01*
X0057313Y0083331D01*
X0057332Y0083500D01*
X0057355Y0083669D01*
X0057381Y0083838D01*
X0057412Y0084005D01*
X0057447Y0084172D01*
X0057487Y0084338D01*
X0057530Y0084503D01*
X0057577Y0084667D01*
X0057628Y0084829D01*
X0057683Y0084991D01*
X0057742Y0085151D01*
X0057805Y0085309D01*
X0057871Y0085466D01*
X0057942Y0085621D01*
X0058016Y0085775D01*
X0058094Y0085926D01*
X0058176Y0086076D01*
X0058261Y0086224D01*
X0058350Y0086369D01*
X0058442Y0086512D01*
X0058538Y0086653D01*
X0058637Y0086792D01*
X0058740Y0086928D01*
X0058845Y0087062D01*
X0058954Y0087193D01*
X0059067Y0087321D01*
X0059182Y0087447D01*
X0059300Y0087570D01*
X0059421Y0087689D01*
X0059546Y0087806D01*
X0059673Y0087920D01*
X0059802Y0088031D01*
X0059935Y0088138D01*
X0060070Y0088242D01*
X0060207Y0088343D01*
X0060347Y0088441D01*
X0060489Y0088535D01*
X0060633Y0088625D01*
X0060780Y0088712D01*
X0060929Y0088796D01*
X0061079Y0088875D01*
X0061232Y0088951D01*
X0061386Y0089024D01*
X0061542Y0089092D01*
X0061700Y0089157D01*
X0061859Y0089218D01*
X0062020Y0089275D01*
X0062182Y0089328D01*
X0062345Y0089377D01*
X0062509Y0089422D01*
X0062675Y0089463D01*
X0062841Y0089501D01*
X0063009Y0089534D01*
X0063177Y0089562D01*
X0063345Y0089587D01*
X0063514Y0089608D01*
X0063684Y0089625D01*
X0063854Y0089637D01*
X0064024Y0089645D01*
X0064195Y0089649D01*
X0064365Y0089649D01*
X0064536Y0089645D01*
X0064706Y0089637D01*
X0064876Y0089625D01*
X0065046Y0089608D01*
X0065215Y0089587D01*
X0065383Y0089562D01*
X0065551Y0089534D01*
X0065719Y0089501D01*
X0065885Y0089463D01*
X0066051Y0089422D01*
X0066215Y0089377D01*
X0066378Y0089328D01*
X0066540Y0089275D01*
X0066701Y0089218D01*
X0066860Y0089157D01*
X0067018Y0089092D01*
X0067174Y0089024D01*
X0067328Y0088951D01*
X0067481Y0088875D01*
X0067631Y0088796D01*
X0067780Y0088712D01*
X0067927Y0088625D01*
X0068071Y0088535D01*
X0068213Y0088441D01*
X0068353Y0088343D01*
X0068490Y0088242D01*
X0068625Y0088138D01*
X0068758Y0088031D01*
X0068887Y0087920D01*
X0069014Y0087806D01*
X0069139Y0087689D01*
X0069260Y0087570D01*
X0069378Y0087447D01*
X0069493Y0087321D01*
X0069606Y0087193D01*
X0069715Y0087062D01*
X0069820Y0086928D01*
X0069923Y0086792D01*
X0070022Y0086653D01*
X0070118Y0086512D01*
X0070210Y0086369D01*
X0070299Y0086224D01*
X0070384Y0086076D01*
X0070466Y0085926D01*
X0070544Y0085775D01*
X0070618Y0085621D01*
X0070689Y0085466D01*
X0070755Y0085309D01*
X0070818Y0085151D01*
X0070877Y0084991D01*
X0070932Y0084829D01*
X0070983Y0084667D01*
X0071030Y0084503D01*
X0071073Y0084338D01*
X0071113Y0084172D01*
X0071148Y0084005D01*
X0071179Y0083838D01*
X0071205Y0083669D01*
X0071228Y0083500D01*
X0071247Y0083331D01*
X0071261Y0083161D01*
X0071272Y0082991D01*
X0071278Y0082820D01*
X0071280Y0082650D01*
X0071280Y0059650D01*
X0071278Y0059480D01*
X0071272Y0059309D01*
X0071261Y0059139D01*
X0071247Y0058969D01*
X0071228Y0058800D01*
X0071205Y0058631D01*
X0071179Y0058462D01*
X0071148Y0058295D01*
X0071113Y0058128D01*
X0071073Y0057962D01*
X0071030Y0057797D01*
X0070983Y0057633D01*
X0070932Y0057471D01*
X0070877Y0057309D01*
X0070818Y0057149D01*
X0070755Y0056991D01*
X0070689Y0056834D01*
X0070618Y0056679D01*
X0070544Y0056525D01*
X0070466Y0056374D01*
X0070384Y0056224D01*
X0070299Y0056076D01*
X0070210Y0055931D01*
X0070118Y0055788D01*
X0070022Y0055647D01*
X0069923Y0055508D01*
X0069820Y0055372D01*
X0069715Y0055238D01*
X0069606Y0055107D01*
X0069493Y0054979D01*
X0069378Y0054853D01*
X0069260Y0054730D01*
X0069139Y0054611D01*
X0069014Y0054494D01*
X0068887Y0054380D01*
X0068758Y0054269D01*
X0068625Y0054162D01*
X0068490Y0054058D01*
X0068353Y0053957D01*
X0068213Y0053859D01*
X0068071Y0053765D01*
X0067927Y0053675D01*
X0067780Y0053588D01*
X0067631Y0053504D01*
X0067481Y0053425D01*
X0067328Y0053349D01*
X0067174Y0053276D01*
X0067018Y0053208D01*
X0066860Y0053143D01*
X0066701Y0053082D01*
X0066540Y0053025D01*
X0066378Y0052972D01*
X0066215Y0052923D01*
X0066051Y0052878D01*
X0065885Y0052837D01*
X0065719Y0052799D01*
X0065551Y0052766D01*
X0065383Y0052738D01*
X0065215Y0052713D01*
X0065046Y0052692D01*
X0064876Y0052675D01*
X0064706Y0052663D01*
X0064536Y0052655D01*
X0064365Y0052651D01*
X0064195Y0052651D01*
X0064024Y0052655D01*
X0063854Y0052663D01*
X0063684Y0052675D01*
X0063514Y0052692D01*
X0063345Y0052713D01*
X0063177Y0052738D01*
X0063009Y0052766D01*
X0062841Y0052799D01*
X0062675Y0052837D01*
X0062509Y0052878D01*
X0062345Y0052923D01*
X0062182Y0052972D01*
X0062020Y0053025D01*
X0061859Y0053082D01*
X0061700Y0053143D01*
X0061542Y0053208D01*
X0061386Y0053276D01*
X0061232Y0053349D01*
X0061079Y0053425D01*
X0060929Y0053504D01*
X0060780Y0053588D01*
X0060633Y0053675D01*
X0060489Y0053765D01*
X0060347Y0053859D01*
X0060207Y0053957D01*
X0060070Y0054058D01*
X0059935Y0054162D01*
X0059802Y0054269D01*
X0059673Y0054380D01*
X0059546Y0054494D01*
X0059421Y0054611D01*
X0059300Y0054730D01*
X0059182Y0054853D01*
X0059067Y0054979D01*
X0058954Y0055107D01*
X0058845Y0055238D01*
X0058740Y0055372D01*
X0058637Y0055508D01*
X0058538Y0055647D01*
X0058442Y0055788D01*
X0058350Y0055931D01*
X0058261Y0056076D01*
X0058176Y0056224D01*
X0058094Y0056374D01*
X0058016Y0056525D01*
X0057942Y0056679D01*
X0057871Y0056834D01*
X0057805Y0056991D01*
X0057742Y0057149D01*
X0057683Y0057309D01*
X0057628Y0057471D01*
X0057577Y0057633D01*
X0057530Y0057797D01*
X0057487Y0057962D01*
X0057447Y0058128D01*
X0057412Y0058295D01*
X0057381Y0058462D01*
X0057355Y0058631D01*
X0057332Y0058800D01*
X0057313Y0058969D01*
X0057299Y0059139D01*
X0057288Y0059309D01*
X0057282Y0059480D01*
X0057280Y0059650D01*
X0067170Y0036910D02*
X0080170Y0036910D01*
X0080257Y0036908D01*
X0080344Y0036902D01*
X0080431Y0036893D01*
X0080517Y0036880D01*
X0080603Y0036863D01*
X0080688Y0036842D01*
X0080771Y0036817D01*
X0080854Y0036789D01*
X0080935Y0036758D01*
X0081015Y0036723D01*
X0081093Y0036684D01*
X0081170Y0036642D01*
X0081245Y0036597D01*
X0081317Y0036548D01*
X0081388Y0036497D01*
X0081456Y0036442D01*
X0081521Y0036385D01*
X0081584Y0036324D01*
X0081645Y0036261D01*
X0081702Y0036196D01*
X0081757Y0036128D01*
X0081808Y0036057D01*
X0081857Y0035985D01*
X0081902Y0035910D01*
X0081944Y0035833D01*
X0081983Y0035755D01*
X0082018Y0035675D01*
X0082049Y0035594D01*
X0082077Y0035511D01*
X0082102Y0035428D01*
X0082123Y0035343D01*
X0082140Y0035257D01*
X0082153Y0035171D01*
X0082162Y0035084D01*
X0082168Y0034997D01*
X0082170Y0034910D01*
X0082170Y0029910D01*
X0082168Y0029823D01*
X0082162Y0029736D01*
X0082153Y0029649D01*
X0082140Y0029563D01*
X0082123Y0029477D01*
X0082102Y0029392D01*
X0082077Y0029309D01*
X0082049Y0029226D01*
X0082018Y0029145D01*
X0081983Y0029065D01*
X0081944Y0028987D01*
X0081902Y0028910D01*
X0081857Y0028835D01*
X0081808Y0028763D01*
X0081757Y0028692D01*
X0081702Y0028624D01*
X0081645Y0028559D01*
X0081584Y0028496D01*
X0081521Y0028435D01*
X0081456Y0028378D01*
X0081388Y0028323D01*
X0081317Y0028272D01*
X0081245Y0028223D01*
X0081170Y0028178D01*
X0081093Y0028136D01*
X0081015Y0028097D01*
X0080935Y0028062D01*
X0080854Y0028031D01*
X0080771Y0028003D01*
X0080688Y0027978D01*
X0080603Y0027957D01*
X0080517Y0027940D01*
X0080431Y0027927D01*
X0080344Y0027918D01*
X0080257Y0027912D01*
X0080170Y0027910D01*
X0067170Y0027910D01*
X0067083Y0027912D01*
X0066996Y0027918D01*
X0066909Y0027927D01*
X0066823Y0027940D01*
X0066737Y0027957D01*
X0066652Y0027978D01*
X0066569Y0028003D01*
X0066486Y0028031D01*
X0066405Y0028062D01*
X0066325Y0028097D01*
X0066247Y0028136D01*
X0066170Y0028178D01*
X0066095Y0028223D01*
X0066023Y0028272D01*
X0065952Y0028323D01*
X0065884Y0028378D01*
X0065819Y0028435D01*
X0065756Y0028496D01*
X0065695Y0028559D01*
X0065638Y0028624D01*
X0065583Y0028692D01*
X0065532Y0028763D01*
X0065483Y0028835D01*
X0065438Y0028910D01*
X0065396Y0028987D01*
X0065357Y0029065D01*
X0065322Y0029145D01*
X0065291Y0029226D01*
X0065263Y0029309D01*
X0065238Y0029392D01*
X0065217Y0029477D01*
X0065200Y0029563D01*
X0065187Y0029649D01*
X0065178Y0029736D01*
X0065172Y0029823D01*
X0065170Y0029910D01*
X0065170Y0034910D01*
X0065172Y0034997D01*
X0065178Y0035084D01*
X0065187Y0035171D01*
X0065200Y0035257D01*
X0065217Y0035343D01*
X0065238Y0035428D01*
X0065263Y0035511D01*
X0065291Y0035594D01*
X0065322Y0035675D01*
X0065357Y0035755D01*
X0065396Y0035833D01*
X0065438Y0035910D01*
X0065483Y0035985D01*
X0065532Y0036057D01*
X0065583Y0036128D01*
X0065638Y0036196D01*
X0065695Y0036261D01*
X0065756Y0036324D01*
X0065819Y0036385D01*
X0065884Y0036442D01*
X0065952Y0036497D01*
X0066023Y0036548D01*
X0066095Y0036597D01*
X0066170Y0036642D01*
X0066247Y0036684D01*
X0066325Y0036723D01*
X0066405Y0036758D01*
X0066486Y0036789D01*
X0066569Y0036817D01*
X0066652Y0036842D01*
X0066737Y0036863D01*
X0066823Y0036880D01*
X0066909Y0036893D01*
X0066996Y0036902D01*
X0067083Y0036908D01*
X0067170Y0036910D01*
X0094040Y0017430D02*
X0117040Y0017430D01*
X0117040Y0157430D01*
X0109540Y0157430D01*
X0109538Y0157304D01*
X0109532Y0157179D01*
X0109522Y0157054D01*
X0109508Y0156929D01*
X0109491Y0156804D01*
X0109469Y0156680D01*
X0109444Y0156557D01*
X0109414Y0156435D01*
X0109381Y0156314D01*
X0109344Y0156194D01*
X0109304Y0156075D01*
X0109259Y0155958D01*
X0109211Y0155841D01*
X0109159Y0155727D01*
X0109104Y0155614D01*
X0109045Y0155503D01*
X0108983Y0155394D01*
X0108917Y0155287D01*
X0108848Y0155182D01*
X0108776Y0155079D01*
X0108701Y0154978D01*
X0108622Y0154880D01*
X0108540Y0154785D01*
X0108456Y0154692D01*
X0108368Y0154602D01*
X0108278Y0154514D01*
X0108185Y0154430D01*
X0108090Y0154348D01*
X0107992Y0154269D01*
X0107891Y0154194D01*
X0107788Y0154122D01*
X0107683Y0154053D01*
X0107576Y0153987D01*
X0107467Y0153925D01*
X0107356Y0153866D01*
X0107243Y0153811D01*
X0107129Y0153759D01*
X0107012Y0153711D01*
X0106895Y0153666D01*
X0106776Y0153626D01*
X0106656Y0153589D01*
X0106535Y0153556D01*
X0106413Y0153526D01*
X0106290Y0153501D01*
X0106166Y0153479D01*
X0106041Y0153462D01*
X0105916Y0153448D01*
X0105791Y0153438D01*
X0105666Y0153432D01*
X0105540Y0153430D01*
X0105414Y0153432D01*
X0105289Y0153438D01*
X0105164Y0153448D01*
X0105039Y0153462D01*
X0104914Y0153479D01*
X0104790Y0153501D01*
X0104667Y0153526D01*
X0104545Y0153556D01*
X0104424Y0153589D01*
X0104304Y0153626D01*
X0104185Y0153666D01*
X0104068Y0153711D01*
X0103951Y0153759D01*
X0103837Y0153811D01*
X0103724Y0153866D01*
X0103613Y0153925D01*
X0103504Y0153987D01*
X0103397Y0154053D01*
X0103292Y0154122D01*
X0103189Y0154194D01*
X0103088Y0154269D01*
X0102990Y0154348D01*
X0102895Y0154430D01*
X0102802Y0154514D01*
X0102712Y0154602D01*
X0102624Y0154692D01*
X0102540Y0154785D01*
X0102458Y0154880D01*
X0102379Y0154978D01*
X0102304Y0155079D01*
X0102232Y0155182D01*
X0102163Y0155287D01*
X0102097Y0155394D01*
X0102035Y0155503D01*
X0101976Y0155614D01*
X0101921Y0155727D01*
X0101869Y0155841D01*
X0101821Y0155958D01*
X0101776Y0156075D01*
X0101736Y0156194D01*
X0101699Y0156314D01*
X0101666Y0156435D01*
X0101636Y0156557D01*
X0101611Y0156680D01*
X0101589Y0156804D01*
X0101572Y0156929D01*
X0101558Y0157054D01*
X0101548Y0157179D01*
X0101542Y0157304D01*
X0101540Y0157430D01*
X0094040Y0157430D01*
X0094040Y0017430D01*
X0131170Y0057930D02*
X0141170Y0057930D01*
X0141230Y0057932D01*
X0141291Y0057937D01*
X0141350Y0057946D01*
X0141409Y0057959D01*
X0141468Y0057975D01*
X0141525Y0057995D01*
X0141580Y0058018D01*
X0141635Y0058045D01*
X0141687Y0058074D01*
X0141738Y0058107D01*
X0141787Y0058143D01*
X0141833Y0058181D01*
X0141877Y0058223D01*
X0141919Y0058267D01*
X0141957Y0058313D01*
X0141993Y0058362D01*
X0142026Y0058413D01*
X0142055Y0058465D01*
X0142082Y0058520D01*
X0142105Y0058575D01*
X0142125Y0058632D01*
X0142141Y0058691D01*
X0142154Y0058750D01*
X0142163Y0058809D01*
X0142168Y0058870D01*
X0142170Y0058930D01*
X0142170Y0075930D01*
X0142168Y0075990D01*
X0142163Y0076051D01*
X0142154Y0076110D01*
X0142141Y0076169D01*
X0142125Y0076228D01*
X0142105Y0076285D01*
X0142082Y0076340D01*
X0142055Y0076395D01*
X0142026Y0076447D01*
X0141993Y0076498D01*
X0141957Y0076547D01*
X0141919Y0076593D01*
X0141877Y0076637D01*
X0141833Y0076679D01*
X0141787Y0076717D01*
X0141738Y0076753D01*
X0141687Y0076786D01*
X0141635Y0076815D01*
X0141580Y0076842D01*
X0141525Y0076865D01*
X0141468Y0076885D01*
X0141409Y0076901D01*
X0141350Y0076914D01*
X0141291Y0076923D01*
X0141230Y0076928D01*
X0141170Y0076930D01*
X0131170Y0076930D01*
X0131110Y0076928D01*
X0131049Y0076923D01*
X0130990Y0076914D01*
X0130931Y0076901D01*
X0130872Y0076885D01*
X0130815Y0076865D01*
X0130760Y0076842D01*
X0130705Y0076815D01*
X0130653Y0076786D01*
X0130602Y0076753D01*
X0130553Y0076717D01*
X0130507Y0076679D01*
X0130463Y0076637D01*
X0130421Y0076593D01*
X0130383Y0076547D01*
X0130347Y0076498D01*
X0130314Y0076447D01*
X0130285Y0076395D01*
X0130258Y0076340D01*
X0130235Y0076285D01*
X0130215Y0076228D01*
X0130199Y0076169D01*
X0130186Y0076110D01*
X0130177Y0076051D01*
X0130172Y0075990D01*
X0130170Y0075930D01*
X0130170Y0058930D01*
X0130172Y0058870D01*
X0130177Y0058809D01*
X0130186Y0058750D01*
X0130199Y0058691D01*
X0130215Y0058632D01*
X0130235Y0058575D01*
X0130258Y0058520D01*
X0130285Y0058465D01*
X0130314Y0058413D01*
X0130347Y0058362D01*
X0130383Y0058313D01*
X0130421Y0058267D01*
X0130463Y0058223D01*
X0130507Y0058181D01*
X0130553Y0058143D01*
X0130602Y0058107D01*
X0130653Y0058074D01*
X0130705Y0058045D01*
X0130760Y0058018D01*
X0130815Y0057995D01*
X0130872Y0057975D01*
X0130931Y0057959D01*
X0130990Y0057946D01*
X0131049Y0057937D01*
X0131110Y0057932D01*
X0131170Y0057930D01*
X0136170Y0065930D02*
X0136170Y0066430D01*
X0136170Y0068430D02*
X0136170Y0068930D01*
X0134300Y0138300D02*
X0129300Y0138300D01*
X0129213Y0138302D01*
X0129126Y0138308D01*
X0129039Y0138317D01*
X0128953Y0138330D01*
X0128867Y0138347D01*
X0128782Y0138368D01*
X0128699Y0138393D01*
X0128616Y0138421D01*
X0128535Y0138452D01*
X0128455Y0138487D01*
X0128377Y0138526D01*
X0128300Y0138568D01*
X0128225Y0138613D01*
X0128153Y0138662D01*
X0128082Y0138713D01*
X0128014Y0138768D01*
X0127949Y0138825D01*
X0127886Y0138886D01*
X0127825Y0138949D01*
X0127768Y0139014D01*
X0127713Y0139082D01*
X0127662Y0139153D01*
X0127613Y0139225D01*
X0127568Y0139300D01*
X0127526Y0139377D01*
X0127487Y0139455D01*
X0127452Y0139535D01*
X0127421Y0139616D01*
X0127393Y0139699D01*
X0127368Y0139782D01*
X0127347Y0139867D01*
X0127330Y0139953D01*
X0127317Y0140039D01*
X0127308Y0140126D01*
X0127302Y0140213D01*
X0127300Y0140300D01*
X0127300Y0153300D01*
X0127302Y0153387D01*
X0127308Y0153474D01*
X0127317Y0153561D01*
X0127330Y0153647D01*
X0127347Y0153733D01*
X0127368Y0153818D01*
X0127393Y0153901D01*
X0127421Y0153984D01*
X0127452Y0154065D01*
X0127487Y0154145D01*
X0127526Y0154223D01*
X0127568Y0154300D01*
X0127613Y0154375D01*
X0127662Y0154447D01*
X0127713Y0154518D01*
X0127768Y0154586D01*
X0127825Y0154651D01*
X0127886Y0154714D01*
X0127949Y0154775D01*
X0128014Y0154832D01*
X0128082Y0154887D01*
X0128153Y0154938D01*
X0128225Y0154987D01*
X0128300Y0155032D01*
X0128377Y0155074D01*
X0128455Y0155113D01*
X0128535Y0155148D01*
X0128616Y0155179D01*
X0128699Y0155207D01*
X0128782Y0155232D01*
X0128867Y0155253D01*
X0128953Y0155270D01*
X0129039Y0155283D01*
X0129126Y0155292D01*
X0129213Y0155298D01*
X0129300Y0155300D01*
X0134300Y0155300D01*
X0134387Y0155298D01*
X0134474Y0155292D01*
X0134561Y0155283D01*
X0134647Y0155270D01*
X0134733Y0155253D01*
X0134818Y0155232D01*
X0134901Y0155207D01*
X0134984Y0155179D01*
X0135065Y0155148D01*
X0135145Y0155113D01*
X0135223Y0155074D01*
X0135300Y0155032D01*
X0135375Y0154987D01*
X0135447Y0154938D01*
X0135518Y0154887D01*
X0135586Y0154832D01*
X0135651Y0154775D01*
X0135714Y0154714D01*
X0135775Y0154651D01*
X0135832Y0154586D01*
X0135887Y0154518D01*
X0135938Y0154447D01*
X0135987Y0154375D01*
X0136032Y0154300D01*
X0136074Y0154223D01*
X0136113Y0154145D01*
X0136148Y0154065D01*
X0136179Y0153984D01*
X0136207Y0153901D01*
X0136232Y0153818D01*
X0136253Y0153733D01*
X0136270Y0153647D01*
X0136283Y0153561D01*
X0136292Y0153474D01*
X0136298Y0153387D01*
X0136300Y0153300D01*
X0136300Y0140300D01*
X0136298Y0140213D01*
X0136292Y0140126D01*
X0136283Y0140039D01*
X0136270Y0139953D01*
X0136253Y0139867D01*
X0136232Y0139782D01*
X0136207Y0139699D01*
X0136179Y0139616D01*
X0136148Y0139535D01*
X0136113Y0139455D01*
X0136074Y0139377D01*
X0136032Y0139300D01*
X0135987Y0139225D01*
X0135938Y0139153D01*
X0135887Y0139082D01*
X0135832Y0139014D01*
X0135775Y0138949D01*
X0135714Y0138886D01*
X0135651Y0138825D01*
X0135586Y0138768D01*
X0135518Y0138713D01*
X0135447Y0138662D01*
X0135375Y0138613D01*
X0135300Y0138568D01*
X0135223Y0138526D01*
X0135145Y0138487D01*
X0135065Y0138452D01*
X0134984Y0138421D01*
X0134901Y0138393D01*
X0134818Y0138368D01*
X0134733Y0138347D01*
X0134647Y0138330D01*
X0134561Y0138317D01*
X0134474Y0138308D01*
X0134387Y0138302D01*
X0134300Y0138300D01*
X0116170Y0165170D02*
X0111170Y0165170D01*
X0111083Y0165172D01*
X0110996Y0165178D01*
X0110909Y0165187D01*
X0110823Y0165200D01*
X0110737Y0165217D01*
X0110652Y0165238D01*
X0110569Y0165263D01*
X0110486Y0165291D01*
X0110405Y0165322D01*
X0110325Y0165357D01*
X0110247Y0165396D01*
X0110170Y0165438D01*
X0110095Y0165483D01*
X0110023Y0165532D01*
X0109952Y0165583D01*
X0109884Y0165638D01*
X0109819Y0165695D01*
X0109756Y0165756D01*
X0109695Y0165819D01*
X0109638Y0165884D01*
X0109583Y0165952D01*
X0109532Y0166023D01*
X0109483Y0166095D01*
X0109438Y0166170D01*
X0109396Y0166247D01*
X0109357Y0166325D01*
X0109322Y0166405D01*
X0109291Y0166486D01*
X0109263Y0166569D01*
X0109238Y0166652D01*
X0109217Y0166737D01*
X0109200Y0166823D01*
X0109187Y0166909D01*
X0109178Y0166996D01*
X0109172Y0167083D01*
X0109170Y0167170D01*
X0109170Y0180170D01*
X0109172Y0180257D01*
X0109178Y0180344D01*
X0109187Y0180431D01*
X0109200Y0180517D01*
X0109217Y0180603D01*
X0109238Y0180688D01*
X0109263Y0180771D01*
X0109291Y0180854D01*
X0109322Y0180935D01*
X0109357Y0181015D01*
X0109396Y0181093D01*
X0109438Y0181170D01*
X0109483Y0181245D01*
X0109532Y0181317D01*
X0109583Y0181388D01*
X0109638Y0181456D01*
X0109695Y0181521D01*
X0109756Y0181584D01*
X0109819Y0181645D01*
X0109884Y0181702D01*
X0109952Y0181757D01*
X0110023Y0181808D01*
X0110095Y0181857D01*
X0110170Y0181902D01*
X0110247Y0181944D01*
X0110325Y0181983D01*
X0110405Y0182018D01*
X0110486Y0182049D01*
X0110569Y0182077D01*
X0110652Y0182102D01*
X0110737Y0182123D01*
X0110823Y0182140D01*
X0110909Y0182153D01*
X0110996Y0182162D01*
X0111083Y0182168D01*
X0111170Y0182170D01*
X0116170Y0182170D01*
X0116257Y0182168D01*
X0116344Y0182162D01*
X0116431Y0182153D01*
X0116517Y0182140D01*
X0116603Y0182123D01*
X0116688Y0182102D01*
X0116771Y0182077D01*
X0116854Y0182049D01*
X0116935Y0182018D01*
X0117015Y0181983D01*
X0117093Y0181944D01*
X0117170Y0181902D01*
X0117245Y0181857D01*
X0117317Y0181808D01*
X0117388Y0181757D01*
X0117456Y0181702D01*
X0117521Y0181645D01*
X0117584Y0181584D01*
X0117645Y0181521D01*
X0117702Y0181456D01*
X0117757Y0181388D01*
X0117808Y0181317D01*
X0117857Y0181245D01*
X0117902Y0181170D01*
X0117944Y0181093D01*
X0117983Y0181015D01*
X0118018Y0180935D01*
X0118049Y0180854D01*
X0118077Y0180771D01*
X0118102Y0180688D01*
X0118123Y0180603D01*
X0118140Y0180517D01*
X0118153Y0180431D01*
X0118162Y0180344D01*
X0118168Y0180257D01*
X0118170Y0180170D01*
X0118170Y0167170D01*
X0118168Y0167083D01*
X0118162Y0166996D01*
X0118153Y0166909D01*
X0118140Y0166823D01*
X0118123Y0166737D01*
X0118102Y0166652D01*
X0118077Y0166569D01*
X0118049Y0166486D01*
X0118018Y0166405D01*
X0117983Y0166325D01*
X0117944Y0166247D01*
X0117902Y0166170D01*
X0117857Y0166095D01*
X0117808Y0166023D01*
X0117757Y0165952D01*
X0117702Y0165884D01*
X0117645Y0165819D01*
X0117584Y0165756D01*
X0117521Y0165695D01*
X0117456Y0165638D01*
X0117388Y0165583D01*
X0117317Y0165532D01*
X0117245Y0165483D01*
X0117170Y0165438D01*
X0117093Y0165396D01*
X0117015Y0165357D01*
X0116935Y0165322D01*
X0116854Y0165291D01*
X0116771Y0165263D01*
X0116688Y0165238D01*
X0116603Y0165217D01*
X0116517Y0165200D01*
X0116431Y0165187D01*
X0116344Y0165178D01*
X0116257Y0165172D01*
X0116170Y0165170D01*
X0110300Y0184170D02*
X0123300Y0184170D01*
X0123387Y0184172D01*
X0123474Y0184178D01*
X0123561Y0184187D01*
X0123647Y0184200D01*
X0123733Y0184217D01*
X0123818Y0184238D01*
X0123901Y0184263D01*
X0123984Y0184291D01*
X0124065Y0184322D01*
X0124145Y0184357D01*
X0124223Y0184396D01*
X0124300Y0184438D01*
X0124375Y0184483D01*
X0124447Y0184532D01*
X0124518Y0184583D01*
X0124586Y0184638D01*
X0124651Y0184695D01*
X0124714Y0184756D01*
X0124775Y0184819D01*
X0124832Y0184884D01*
X0124887Y0184952D01*
X0124938Y0185023D01*
X0124987Y0185095D01*
X0125032Y0185170D01*
X0125074Y0185247D01*
X0125113Y0185325D01*
X0125148Y0185405D01*
X0125179Y0185486D01*
X0125207Y0185569D01*
X0125232Y0185652D01*
X0125253Y0185737D01*
X0125270Y0185823D01*
X0125283Y0185909D01*
X0125292Y0185996D01*
X0125298Y0186083D01*
X0125300Y0186170D01*
X0125300Y0191170D01*
X0125298Y0191257D01*
X0125292Y0191344D01*
X0125283Y0191431D01*
X0125270Y0191517D01*
X0125253Y0191603D01*
X0125232Y0191688D01*
X0125207Y0191771D01*
X0125179Y0191854D01*
X0125148Y0191935D01*
X0125113Y0192015D01*
X0125074Y0192093D01*
X0125032Y0192170D01*
X0124987Y0192245D01*
X0124938Y0192317D01*
X0124887Y0192388D01*
X0124832Y0192456D01*
X0124775Y0192521D01*
X0124714Y0192584D01*
X0124651Y0192645D01*
X0124586Y0192702D01*
X0124518Y0192757D01*
X0124447Y0192808D01*
X0124375Y0192857D01*
X0124300Y0192902D01*
X0124223Y0192944D01*
X0124145Y0192983D01*
X0124065Y0193018D01*
X0123984Y0193049D01*
X0123901Y0193077D01*
X0123818Y0193102D01*
X0123733Y0193123D01*
X0123647Y0193140D01*
X0123561Y0193153D01*
X0123474Y0193162D01*
X0123387Y0193168D01*
X0123300Y0193170D01*
X0110300Y0193170D01*
X0110213Y0193168D01*
X0110126Y0193162D01*
X0110039Y0193153D01*
X0109953Y0193140D01*
X0109867Y0193123D01*
X0109782Y0193102D01*
X0109699Y0193077D01*
X0109616Y0193049D01*
X0109535Y0193018D01*
X0109455Y0192983D01*
X0109377Y0192944D01*
X0109300Y0192902D01*
X0109225Y0192857D01*
X0109153Y0192808D01*
X0109082Y0192757D01*
X0109014Y0192702D01*
X0108949Y0192645D01*
X0108886Y0192584D01*
X0108825Y0192521D01*
X0108768Y0192456D01*
X0108713Y0192388D01*
X0108662Y0192317D01*
X0108613Y0192245D01*
X0108568Y0192170D01*
X0108526Y0192093D01*
X0108487Y0192015D01*
X0108452Y0191935D01*
X0108421Y0191854D01*
X0108393Y0191771D01*
X0108368Y0191688D01*
X0108347Y0191603D01*
X0108330Y0191517D01*
X0108317Y0191431D01*
X0108308Y0191344D01*
X0108302Y0191257D01*
X0108300Y0191170D01*
X0108300Y0186170D01*
X0108302Y0186083D01*
X0108308Y0185996D01*
X0108317Y0185909D01*
X0108330Y0185823D01*
X0108347Y0185737D01*
X0108368Y0185652D01*
X0108393Y0185569D01*
X0108421Y0185486D01*
X0108452Y0185405D01*
X0108487Y0185325D01*
X0108526Y0185247D01*
X0108568Y0185170D01*
X0108613Y0185095D01*
X0108662Y0185023D01*
X0108713Y0184952D01*
X0108768Y0184884D01*
X0108825Y0184819D01*
X0108886Y0184756D01*
X0108949Y0184695D01*
X0109014Y0184638D01*
X0109082Y0184583D01*
X0109153Y0184532D01*
X0109225Y0184483D01*
X0109300Y0184438D01*
X0109377Y0184396D01*
X0109455Y0184357D01*
X0109535Y0184322D01*
X0109616Y0184291D01*
X0109699Y0184263D01*
X0109782Y0184238D01*
X0109867Y0184217D01*
X0109953Y0184200D01*
X0110039Y0184187D01*
X0110126Y0184178D01*
X0110213Y0184172D01*
X0110300Y0184170D01*
X0152449Y0193410D02*
X0152603Y0193408D01*
X0152757Y0193402D01*
X0152911Y0193392D01*
X0153065Y0193378D01*
X0153218Y0193361D01*
X0153370Y0193339D01*
X0153522Y0193313D01*
X0153674Y0193284D01*
X0153824Y0193250D01*
X0153974Y0193213D01*
X0154122Y0193172D01*
X0154270Y0193127D01*
X0154416Y0193078D01*
X0154561Y0193026D01*
X0154704Y0192970D01*
X0154847Y0192910D01*
X0154987Y0192847D01*
X0155126Y0192780D01*
X0155263Y0192709D01*
X0155398Y0192635D01*
X0155531Y0192558D01*
X0155663Y0192477D01*
X0155792Y0192393D01*
X0155919Y0192305D01*
X0156043Y0192214D01*
X0156165Y0192121D01*
X0156285Y0192023D01*
X0156402Y0191923D01*
X0156517Y0191820D01*
X0156629Y0191714D01*
X0156738Y0191606D01*
X0156844Y0191494D01*
X0156948Y0191380D01*
X0157048Y0191263D01*
X0157146Y0191144D01*
X0157240Y0191022D01*
X0157331Y0190897D01*
X0152450Y0181410D02*
X0152298Y0181412D01*
X0152147Y0181418D01*
X0151996Y0181427D01*
X0151844Y0181441D01*
X0151694Y0181458D01*
X0151544Y0181479D01*
X0151394Y0181504D01*
X0151245Y0181532D01*
X0151097Y0181565D01*
X0150950Y0181601D01*
X0150803Y0181640D01*
X0150658Y0181684D01*
X0150514Y0181731D01*
X0150371Y0181782D01*
X0150230Y0181836D01*
X0150089Y0181894D01*
X0149951Y0181955D01*
X0149814Y0182020D01*
X0149678Y0182089D01*
X0149545Y0182160D01*
X0149413Y0182235D01*
X0149283Y0182314D01*
X0149156Y0182395D01*
X0149030Y0182480D01*
X0148906Y0182568D01*
X0148785Y0182659D01*
X0148666Y0182753D01*
X0148550Y0182851D01*
X0148436Y0182951D01*
X0148324Y0183053D01*
X0148216Y0183159D01*
X0148110Y0183267D01*
X0148006Y0183378D01*
X0147906Y0183492D01*
X0147808Y0183608D01*
X0147714Y0183727D01*
X0152450Y0181410D02*
X0152602Y0181412D01*
X0152753Y0181418D01*
X0152904Y0181427D01*
X0153056Y0181441D01*
X0153206Y0181458D01*
X0153356Y0181479D01*
X0153506Y0181504D01*
X0153655Y0181532D01*
X0153803Y0181565D01*
X0153950Y0181601D01*
X0154097Y0181640D01*
X0154242Y0181684D01*
X0154386Y0181731D01*
X0154529Y0181782D01*
X0154670Y0181836D01*
X0154811Y0181894D01*
X0154949Y0181955D01*
X0155086Y0182020D01*
X0155222Y0182089D01*
X0155355Y0182160D01*
X0155487Y0182235D01*
X0155617Y0182314D01*
X0155744Y0182395D01*
X0155870Y0182480D01*
X0155994Y0182568D01*
X0156115Y0182659D01*
X0156234Y0182753D01*
X0156350Y0182851D01*
X0156464Y0182951D01*
X0156576Y0183053D01*
X0156684Y0183159D01*
X0156790Y0183267D01*
X0156894Y0183378D01*
X0156994Y0183492D01*
X0157092Y0183608D01*
X0157186Y0183727D01*
X0152450Y0193410D02*
X0152300Y0193408D01*
X0152149Y0193402D01*
X0151999Y0193393D01*
X0151850Y0193380D01*
X0151700Y0193363D01*
X0151551Y0193342D01*
X0151403Y0193318D01*
X0151255Y0193290D01*
X0151108Y0193258D01*
X0150962Y0193223D01*
X0150817Y0193183D01*
X0150673Y0193141D01*
X0150530Y0193094D01*
X0150388Y0193044D01*
X0150247Y0192991D01*
X0150108Y0192934D01*
X0149970Y0192874D01*
X0149834Y0192810D01*
X0149700Y0192743D01*
X0149567Y0192672D01*
X0149436Y0192598D01*
X0149307Y0192521D01*
X0149180Y0192440D01*
X0149055Y0192357D01*
X0148932Y0192270D01*
X0148811Y0192181D01*
X0148693Y0192088D01*
X0148577Y0191992D01*
X0148463Y0191894D01*
X0148352Y0191793D01*
X0148243Y0191688D01*
X0148138Y0191582D01*
X0148034Y0191472D01*
X0147934Y0191360D01*
X0147836Y0191246D01*
X0147742Y0191129D01*
X0147650Y0191010D01*
X0163930Y0175520D02*
X0170930Y0175520D01*
X0170990Y0175518D01*
X0171051Y0175513D01*
X0171110Y0175504D01*
X0171169Y0175491D01*
X0171228Y0175475D01*
X0171285Y0175455D01*
X0171340Y0175432D01*
X0171395Y0175405D01*
X0171447Y0175376D01*
X0171498Y0175343D01*
X0171547Y0175307D01*
X0171593Y0175269D01*
X0171637Y0175227D01*
X0171679Y0175183D01*
X0171717Y0175137D01*
X0171753Y0175088D01*
X0171786Y0175037D01*
X0171815Y0174985D01*
X0171842Y0174930D01*
X0171865Y0174875D01*
X0171885Y0174818D01*
X0171901Y0174759D01*
X0171914Y0174700D01*
X0171923Y0174641D01*
X0171928Y0174580D01*
X0171930Y0174520D01*
X0171930Y0173020D01*
X0171430Y0172520D01*
X0171430Y0153520D01*
X0171930Y0153020D01*
X0171930Y0151520D01*
X0171928Y0151460D01*
X0171923Y0151399D01*
X0171914Y0151340D01*
X0171901Y0151281D01*
X0171885Y0151222D01*
X0171865Y0151165D01*
X0171842Y0151110D01*
X0171815Y0151055D01*
X0171786Y0151003D01*
X0171753Y0150952D01*
X0171717Y0150903D01*
X0171679Y0150857D01*
X0171637Y0150813D01*
X0171593Y0150771D01*
X0171547Y0150733D01*
X0171498Y0150697D01*
X0171447Y0150664D01*
X0171395Y0150635D01*
X0171340Y0150608D01*
X0171285Y0150585D01*
X0171228Y0150565D01*
X0171169Y0150549D01*
X0171110Y0150536D01*
X0171051Y0150527D01*
X0170990Y0150522D01*
X0170930Y0150520D01*
X0163930Y0150520D01*
X0163870Y0150522D01*
X0163809Y0150527D01*
X0163750Y0150536D01*
X0163691Y0150549D01*
X0163632Y0150565D01*
X0163575Y0150585D01*
X0163520Y0150608D01*
X0163465Y0150635D01*
X0163413Y0150664D01*
X0163362Y0150697D01*
X0163313Y0150733D01*
X0163267Y0150771D01*
X0163223Y0150813D01*
X0163181Y0150857D01*
X0163143Y0150903D01*
X0163107Y0150952D01*
X0163074Y0151003D01*
X0163045Y0151055D01*
X0163018Y0151110D01*
X0162995Y0151165D01*
X0162975Y0151222D01*
X0162959Y0151281D01*
X0162946Y0151340D01*
X0162937Y0151399D01*
X0162932Y0151460D01*
X0162930Y0151520D01*
X0162930Y0153020D01*
X0163430Y0153520D01*
X0163430Y0172520D01*
X0162930Y0173020D01*
X0162930Y0174520D01*
X0162932Y0174580D01*
X0162937Y0174641D01*
X0162946Y0174700D01*
X0162959Y0174759D01*
X0162975Y0174818D01*
X0162995Y0174875D01*
X0163018Y0174930D01*
X0163045Y0174985D01*
X0163074Y0175037D01*
X0163107Y0175088D01*
X0163143Y0175137D01*
X0163181Y0175183D01*
X0163223Y0175227D01*
X0163267Y0175269D01*
X0163313Y0175307D01*
X0163362Y0175343D01*
X0163413Y0175376D01*
X0163465Y0175405D01*
X0163520Y0175432D01*
X0163575Y0175455D01*
X0163632Y0175475D01*
X0163691Y0175491D01*
X0163750Y0175504D01*
X0163809Y0175513D01*
X0163870Y0175518D01*
X0163930Y0175520D01*
X0064950Y0155300D02*
X0064950Y0148300D01*
X0064948Y0148240D01*
X0064943Y0148179D01*
X0064934Y0148120D01*
X0064921Y0148061D01*
X0064905Y0148002D01*
X0064885Y0147945D01*
X0064862Y0147890D01*
X0064835Y0147835D01*
X0064806Y0147783D01*
X0064773Y0147732D01*
X0064737Y0147683D01*
X0064699Y0147637D01*
X0064657Y0147593D01*
X0064613Y0147551D01*
X0064567Y0147513D01*
X0064518Y0147477D01*
X0064467Y0147444D01*
X0064415Y0147415D01*
X0064360Y0147388D01*
X0064305Y0147365D01*
X0064248Y0147345D01*
X0064189Y0147329D01*
X0064130Y0147316D01*
X0064071Y0147307D01*
X0064010Y0147302D01*
X0063950Y0147300D01*
X0062450Y0147300D01*
X0061950Y0147800D01*
X0042950Y0147800D01*
X0042450Y0147300D01*
X0040950Y0147300D01*
X0040890Y0147302D01*
X0040829Y0147307D01*
X0040770Y0147316D01*
X0040711Y0147329D01*
X0040652Y0147345D01*
X0040595Y0147365D01*
X0040540Y0147388D01*
X0040485Y0147415D01*
X0040433Y0147444D01*
X0040382Y0147477D01*
X0040333Y0147513D01*
X0040287Y0147551D01*
X0040243Y0147593D01*
X0040201Y0147637D01*
X0040163Y0147683D01*
X0040127Y0147732D01*
X0040094Y0147783D01*
X0040065Y0147835D01*
X0040038Y0147890D01*
X0040015Y0147945D01*
X0039995Y0148002D01*
X0039979Y0148061D01*
X0039966Y0148120D01*
X0039957Y0148179D01*
X0039952Y0148240D01*
X0039950Y0148300D01*
X0039950Y0155300D01*
X0039952Y0155360D01*
X0039957Y0155421D01*
X0039966Y0155480D01*
X0039979Y0155539D01*
X0039995Y0155598D01*
X0040015Y0155655D01*
X0040038Y0155710D01*
X0040065Y0155765D01*
X0040094Y0155817D01*
X0040127Y0155868D01*
X0040163Y0155917D01*
X0040201Y0155963D01*
X0040243Y0156007D01*
X0040287Y0156049D01*
X0040333Y0156087D01*
X0040382Y0156123D01*
X0040433Y0156156D01*
X0040485Y0156185D01*
X0040540Y0156212D01*
X0040595Y0156235D01*
X0040652Y0156255D01*
X0040711Y0156271D01*
X0040770Y0156284D01*
X0040829Y0156293D01*
X0040890Y0156298D01*
X0040950Y0156300D01*
X0042450Y0156300D01*
X0042950Y0155800D01*
X0061950Y0155800D01*
X0062450Y0156300D01*
X0063950Y0156300D01*
X0064010Y0156298D01*
X0064071Y0156293D01*
X0064130Y0156284D01*
X0064189Y0156271D01*
X0064248Y0156255D01*
X0064305Y0156235D01*
X0064360Y0156212D01*
X0064415Y0156185D01*
X0064467Y0156156D01*
X0064518Y0156123D01*
X0064567Y0156087D01*
X0064613Y0156049D01*
X0064657Y0156007D01*
X0064699Y0155963D01*
X0064737Y0155917D01*
X0064773Y0155868D01*
X0064806Y0155817D01*
X0064835Y0155765D01*
X0064862Y0155710D01*
X0064885Y0155655D01*
X0064905Y0155598D01*
X0064921Y0155539D01*
X0064934Y0155480D01*
X0064943Y0155421D01*
X0064948Y0155360D01*
X0064950Y0155300D01*
X0040300Y0124300D02*
X0033300Y0124300D01*
X0033240Y0124298D01*
X0033179Y0124293D01*
X0033120Y0124284D01*
X0033061Y0124271D01*
X0033002Y0124255D01*
X0032945Y0124235D01*
X0032890Y0124212D01*
X0032835Y0124185D01*
X0032783Y0124156D01*
X0032732Y0124123D01*
X0032683Y0124087D01*
X0032637Y0124049D01*
X0032593Y0124007D01*
X0032551Y0123963D01*
X0032513Y0123917D01*
X0032477Y0123868D01*
X0032444Y0123817D01*
X0032415Y0123765D01*
X0032388Y0123710D01*
X0032365Y0123655D01*
X0032345Y0123598D01*
X0032329Y0123539D01*
X0032316Y0123480D01*
X0032307Y0123421D01*
X0032302Y0123360D01*
X0032300Y0123300D01*
X0032300Y0121800D01*
X0032800Y0121300D01*
X0032800Y0102300D01*
X0032300Y0101800D01*
X0032300Y0100300D01*
X0032302Y0100240D01*
X0032307Y0100179D01*
X0032316Y0100120D01*
X0032329Y0100061D01*
X0032345Y0100002D01*
X0032365Y0099945D01*
X0032388Y0099890D01*
X0032415Y0099835D01*
X0032444Y0099783D01*
X0032477Y0099732D01*
X0032513Y0099683D01*
X0032551Y0099637D01*
X0032593Y0099593D01*
X0032637Y0099551D01*
X0032683Y0099513D01*
X0032732Y0099477D01*
X0032783Y0099444D01*
X0032835Y0099415D01*
X0032890Y0099388D01*
X0032945Y0099365D01*
X0033002Y0099345D01*
X0033061Y0099329D01*
X0033120Y0099316D01*
X0033179Y0099307D01*
X0033240Y0099302D01*
X0033300Y0099300D01*
X0040300Y0099300D01*
X0040360Y0099302D01*
X0040421Y0099307D01*
X0040480Y0099316D01*
X0040539Y0099329D01*
X0040598Y0099345D01*
X0040655Y0099365D01*
X0040710Y0099388D01*
X0040765Y0099415D01*
X0040817Y0099444D01*
X0040868Y0099477D01*
X0040917Y0099513D01*
X0040963Y0099551D01*
X0041007Y0099593D01*
X0041049Y0099637D01*
X0041087Y0099683D01*
X0041123Y0099732D01*
X0041156Y0099783D01*
X0041185Y0099835D01*
X0041212Y0099890D01*
X0041235Y0099945D01*
X0041255Y0100002D01*
X0041271Y0100061D01*
X0041284Y0100120D01*
X0041293Y0100179D01*
X0041298Y0100240D01*
X0041300Y0100300D01*
X0041300Y0101800D01*
X0040800Y0102300D01*
X0040800Y0121300D01*
X0041300Y0121800D01*
X0041300Y0123300D01*
X0041298Y0123360D01*
X0041293Y0123421D01*
X0041284Y0123480D01*
X0041271Y0123539D01*
X0041255Y0123598D01*
X0041235Y0123655D01*
X0041212Y0123710D01*
X0041185Y0123765D01*
X0041156Y0123817D01*
X0041123Y0123868D01*
X0041087Y0123917D01*
X0041049Y0123963D01*
X0041007Y0124007D01*
X0040963Y0124049D01*
X0040917Y0124087D01*
X0040868Y0124123D01*
X0040817Y0124156D01*
X0040765Y0124185D01*
X0040710Y0124212D01*
X0040655Y0124235D01*
X0040598Y0124255D01*
X0040539Y0124271D01*
X0040480Y0124284D01*
X0040421Y0124293D01*
X0040360Y0124298D01*
X0040300Y0124300D01*
X0042111Y0024871D02*
X0042109Y0024719D01*
X0042103Y0024568D01*
X0042094Y0024417D01*
X0042080Y0024265D01*
X0042063Y0024115D01*
X0042042Y0023965D01*
X0042017Y0023815D01*
X0041989Y0023666D01*
X0041956Y0023518D01*
X0041920Y0023371D01*
X0041881Y0023224D01*
X0041837Y0023079D01*
X0041790Y0022935D01*
X0041739Y0022792D01*
X0041685Y0022651D01*
X0041627Y0022510D01*
X0041566Y0022372D01*
X0041501Y0022235D01*
X0041432Y0022099D01*
X0041361Y0021966D01*
X0041286Y0021834D01*
X0041207Y0021704D01*
X0041126Y0021577D01*
X0041041Y0021451D01*
X0040953Y0021327D01*
X0040862Y0021206D01*
X0040768Y0021087D01*
X0040670Y0020971D01*
X0040570Y0020857D01*
X0040468Y0020745D01*
X0040362Y0020637D01*
X0040254Y0020531D01*
X0040143Y0020427D01*
X0040029Y0020327D01*
X0039913Y0020229D01*
X0039794Y0020135D01*
X0030111Y0024871D02*
X0030113Y0025025D01*
X0030119Y0025179D01*
X0030129Y0025333D01*
X0030143Y0025487D01*
X0030160Y0025640D01*
X0030182Y0025792D01*
X0030208Y0025944D01*
X0030237Y0026096D01*
X0030271Y0026246D01*
X0030308Y0026396D01*
X0030349Y0026544D01*
X0030394Y0026692D01*
X0030443Y0026838D01*
X0030495Y0026983D01*
X0030551Y0027126D01*
X0030611Y0027269D01*
X0030674Y0027409D01*
X0030741Y0027548D01*
X0030812Y0027685D01*
X0030886Y0027820D01*
X0030963Y0027953D01*
X0031044Y0028085D01*
X0031128Y0028214D01*
X0031216Y0028341D01*
X0031307Y0028465D01*
X0031400Y0028587D01*
X0031498Y0028707D01*
X0031598Y0028824D01*
X0031701Y0028939D01*
X0031807Y0029051D01*
X0031915Y0029160D01*
X0032027Y0029266D01*
X0032141Y0029370D01*
X0032258Y0029470D01*
X0032377Y0029568D01*
X0032499Y0029662D01*
X0032624Y0029753D01*
X0030111Y0024871D02*
X0030113Y0024721D01*
X0030119Y0024570D01*
X0030128Y0024420D01*
X0030141Y0024271D01*
X0030158Y0024121D01*
X0030179Y0023972D01*
X0030203Y0023824D01*
X0030231Y0023676D01*
X0030263Y0023529D01*
X0030298Y0023383D01*
X0030338Y0023238D01*
X0030380Y0023094D01*
X0030427Y0022951D01*
X0030477Y0022809D01*
X0030530Y0022668D01*
X0030587Y0022529D01*
X0030647Y0022391D01*
X0030711Y0022255D01*
X0030778Y0022121D01*
X0030849Y0021988D01*
X0030923Y0021857D01*
X0031000Y0021728D01*
X0031081Y0021601D01*
X0031164Y0021476D01*
X0031251Y0021353D01*
X0031340Y0021232D01*
X0031433Y0021114D01*
X0031529Y0020998D01*
X0031627Y0020884D01*
X0031728Y0020773D01*
X0031833Y0020664D01*
X0031939Y0020559D01*
X0032049Y0020455D01*
X0032161Y0020355D01*
X0032275Y0020257D01*
X0032392Y0020163D01*
X0032511Y0020071D01*
X0042111Y0024871D02*
X0042109Y0025023D01*
X0042103Y0025174D01*
X0042094Y0025325D01*
X0042080Y0025477D01*
X0042063Y0025627D01*
X0042042Y0025777D01*
X0042017Y0025927D01*
X0041989Y0026076D01*
X0041956Y0026224D01*
X0041920Y0026371D01*
X0041881Y0026518D01*
X0041837Y0026663D01*
X0041790Y0026807D01*
X0041739Y0026950D01*
X0041685Y0027091D01*
X0041627Y0027232D01*
X0041566Y0027370D01*
X0041501Y0027507D01*
X0041432Y0027643D01*
X0041361Y0027776D01*
X0041286Y0027908D01*
X0041207Y0028038D01*
X0041126Y0028165D01*
X0041041Y0028291D01*
X0040953Y0028415D01*
X0040862Y0028536D01*
X0040768Y0028655D01*
X0040670Y0028771D01*
X0040570Y0028885D01*
X0040468Y0028997D01*
X0040362Y0029105D01*
X0040254Y0029211D01*
X0040143Y0029315D01*
X0040029Y0029415D01*
X0039913Y0029513D01*
X0039794Y0029607D01*
D140*
X0072470Y0029410D02*
X0072470Y0035410D01*
X0074970Y0035410D02*
X0074970Y0029410D01*
X0128800Y0145500D02*
X0134800Y0145500D01*
X0134800Y0148000D02*
X0128800Y0148000D01*
X0116670Y0172370D02*
X0110670Y0172370D01*
X0110670Y0174870D02*
X0116670Y0174870D01*
X0115600Y0185670D02*
X0115600Y0191670D01*
X0118100Y0191670D02*
X0118100Y0185670D01*
D141*
X0145503Y0183441D02*
X0145602Y0183272D01*
X0145706Y0183106D01*
X0145813Y0182942D01*
X0145924Y0182781D01*
X0146039Y0182623D01*
X0146158Y0182468D01*
X0146281Y0182315D01*
X0146407Y0182166D01*
X0146537Y0182020D01*
X0146671Y0181877D01*
X0146808Y0181737D01*
X0146948Y0181601D01*
X0147092Y0181468D01*
X0147239Y0181339D01*
X0147389Y0181213D01*
X0147542Y0181092D01*
X0147698Y0180973D01*
X0147857Y0180859D01*
X0148018Y0180749D01*
X0148183Y0180643D01*
X0148349Y0180540D01*
X0148519Y0180442D01*
X0148690Y0180348D01*
X0148864Y0180258D01*
X0149040Y0180173D01*
X0149218Y0180091D01*
X0149398Y0180015D01*
X0149580Y0179942D01*
X0149763Y0179874D01*
X0149948Y0179811D01*
X0150135Y0179752D01*
X0150323Y0179698D01*
X0150512Y0179648D01*
X0150702Y0179603D01*
X0150894Y0179563D01*
X0151086Y0179527D01*
X0151279Y0179496D01*
X0151473Y0179470D01*
X0151668Y0179448D01*
X0151863Y0179432D01*
X0152058Y0179420D01*
X0152254Y0179412D01*
X0152449Y0179410D01*
X0145391Y0191175D02*
X0145484Y0191343D01*
X0145580Y0191509D01*
X0145680Y0191673D01*
X0145785Y0191834D01*
X0145893Y0191993D01*
X0146005Y0192149D01*
X0146121Y0192303D01*
X0146240Y0192453D01*
X0146363Y0192601D01*
X0146489Y0192746D01*
X0146619Y0192887D01*
X0146752Y0193026D01*
X0146889Y0193161D01*
X0147029Y0193293D01*
X0147171Y0193421D01*
X0147317Y0193546D01*
X0147466Y0193668D01*
X0147618Y0193786D01*
X0147772Y0193900D01*
X0147930Y0194010D01*
X0148089Y0194117D01*
X0148252Y0194220D01*
X0148417Y0194319D01*
X0148584Y0194414D01*
X0148753Y0194504D01*
X0148924Y0194591D01*
X0149098Y0194674D01*
X0149273Y0194752D01*
X0149451Y0194826D01*
X0149630Y0194896D01*
X0149810Y0194962D01*
X0149992Y0195023D01*
X0150176Y0195080D01*
X0150361Y0195132D01*
X0150547Y0195180D01*
X0150734Y0195224D01*
X0150922Y0195263D01*
X0151111Y0195297D01*
X0151301Y0195327D01*
X0151491Y0195352D01*
X0151682Y0195373D01*
X0151874Y0195389D01*
X0152066Y0195401D01*
X0152258Y0195408D01*
X0152450Y0195410D01*
X0158557Y0182242D02*
X0158430Y0182096D01*
X0158301Y0181954D01*
X0158167Y0181814D01*
X0158031Y0181678D01*
X0157891Y0181545D01*
X0157748Y0181415D01*
X0157601Y0181289D01*
X0157452Y0181167D01*
X0157300Y0181048D01*
X0157145Y0180933D01*
X0156988Y0180821D01*
X0156828Y0180714D01*
X0156665Y0180610D01*
X0156499Y0180511D01*
X0156332Y0180415D01*
X0156162Y0180323D01*
X0155990Y0180236D01*
X0155816Y0180152D01*
X0155640Y0180073D01*
X0155462Y0179999D01*
X0155282Y0179928D01*
X0155101Y0179862D01*
X0154918Y0179800D01*
X0154734Y0179743D01*
X0154548Y0179690D01*
X0154361Y0179642D01*
X0154173Y0179598D01*
X0153984Y0179559D01*
X0153794Y0179524D01*
X0153604Y0179494D01*
X0153413Y0179468D01*
X0153221Y0179447D01*
X0153028Y0179431D01*
X0152836Y0179419D01*
X0152643Y0179412D01*
X0152450Y0179410D01*
X0158596Y0192532D02*
X0158469Y0192680D01*
X0158339Y0192825D01*
X0158206Y0192966D01*
X0158069Y0193105D01*
X0157929Y0193240D01*
X0157785Y0193371D01*
X0157638Y0193499D01*
X0157489Y0193624D01*
X0157336Y0193745D01*
X0157181Y0193862D01*
X0157022Y0193975D01*
X0156861Y0194084D01*
X0156697Y0194189D01*
X0156531Y0194291D01*
X0156362Y0194388D01*
X0156192Y0194481D01*
X0156018Y0194570D01*
X0155843Y0194655D01*
X0155666Y0194735D01*
X0155487Y0194811D01*
X0155306Y0194883D01*
X0155123Y0194950D01*
X0154939Y0195013D01*
X0154753Y0195071D01*
X0154566Y0195125D01*
X0154378Y0195174D01*
X0154188Y0195219D01*
X0153998Y0195259D01*
X0153806Y0195294D01*
X0153614Y0195325D01*
X0153421Y0195351D01*
X0153227Y0195372D01*
X0153033Y0195389D01*
X0152839Y0195401D01*
X0152645Y0195408D01*
X0152450Y0195410D01*
X0139170Y0068430D02*
X0136170Y0068430D01*
X0133170Y0068430D01*
X0133170Y0066430D02*
X0136170Y0066430D01*
X0139170Y0066430D01*
X0032346Y0017812D02*
X0032178Y0017905D01*
X0032012Y0018001D01*
X0031848Y0018101D01*
X0031687Y0018206D01*
X0031528Y0018314D01*
X0031372Y0018426D01*
X0031218Y0018542D01*
X0031068Y0018661D01*
X0030920Y0018784D01*
X0030775Y0018910D01*
X0030634Y0019040D01*
X0030495Y0019173D01*
X0030360Y0019310D01*
X0030228Y0019450D01*
X0030100Y0019592D01*
X0029975Y0019738D01*
X0029853Y0019887D01*
X0029735Y0020039D01*
X0029621Y0020193D01*
X0029511Y0020351D01*
X0029404Y0020510D01*
X0029301Y0020673D01*
X0029202Y0020838D01*
X0029107Y0021005D01*
X0029017Y0021174D01*
X0028930Y0021345D01*
X0028847Y0021519D01*
X0028769Y0021694D01*
X0028695Y0021872D01*
X0028625Y0022051D01*
X0028559Y0022231D01*
X0028498Y0022413D01*
X0028441Y0022597D01*
X0028389Y0022782D01*
X0028341Y0022968D01*
X0028297Y0023155D01*
X0028258Y0023343D01*
X0028224Y0023532D01*
X0028194Y0023722D01*
X0028169Y0023912D01*
X0028148Y0024103D01*
X0028132Y0024295D01*
X0028120Y0024487D01*
X0028113Y0024679D01*
X0028111Y0024871D01*
X0040080Y0017925D02*
X0040249Y0018024D01*
X0040415Y0018128D01*
X0040579Y0018235D01*
X0040740Y0018346D01*
X0040898Y0018461D01*
X0041053Y0018580D01*
X0041206Y0018703D01*
X0041355Y0018829D01*
X0041501Y0018959D01*
X0041644Y0019093D01*
X0041784Y0019230D01*
X0041920Y0019370D01*
X0042053Y0019514D01*
X0042182Y0019661D01*
X0042308Y0019811D01*
X0042429Y0019964D01*
X0042548Y0020120D01*
X0042662Y0020279D01*
X0042772Y0020440D01*
X0042878Y0020605D01*
X0042981Y0020771D01*
X0043079Y0020941D01*
X0043173Y0021112D01*
X0043263Y0021286D01*
X0043348Y0021462D01*
X0043430Y0021640D01*
X0043506Y0021820D01*
X0043579Y0022002D01*
X0043647Y0022185D01*
X0043710Y0022370D01*
X0043769Y0022557D01*
X0043823Y0022745D01*
X0043873Y0022934D01*
X0043918Y0023124D01*
X0043958Y0023316D01*
X0043994Y0023508D01*
X0044025Y0023701D01*
X0044051Y0023895D01*
X0044073Y0024090D01*
X0044089Y0024285D01*
X0044101Y0024480D01*
X0044109Y0024676D01*
X0044111Y0024871D01*
X0044109Y0025064D01*
X0044102Y0025257D01*
X0044090Y0025449D01*
X0044074Y0025642D01*
X0044053Y0025834D01*
X0044027Y0026025D01*
X0043997Y0026215D01*
X0043962Y0026405D01*
X0043923Y0026594D01*
X0043879Y0026782D01*
X0043831Y0026969D01*
X0043778Y0027155D01*
X0043721Y0027339D01*
X0043659Y0027522D01*
X0043593Y0027703D01*
X0043522Y0027883D01*
X0043448Y0028061D01*
X0043369Y0028237D01*
X0043285Y0028411D01*
X0043198Y0028583D01*
X0043106Y0028753D01*
X0043010Y0028920D01*
X0042911Y0029086D01*
X0042807Y0029249D01*
X0042700Y0029409D01*
X0042588Y0029566D01*
X0042473Y0029721D01*
X0042354Y0029873D01*
X0042232Y0030022D01*
X0042106Y0030169D01*
X0041976Y0030312D01*
X0041843Y0030452D01*
X0041707Y0030588D01*
X0041567Y0030722D01*
X0041425Y0030851D01*
X0041279Y0030978D01*
X0030989Y0031017D02*
X0030841Y0030890D01*
X0030696Y0030760D01*
X0030555Y0030627D01*
X0030416Y0030490D01*
X0030281Y0030350D01*
X0030150Y0030206D01*
X0030022Y0030059D01*
X0029897Y0029910D01*
X0029776Y0029757D01*
X0029659Y0029602D01*
X0029546Y0029443D01*
X0029437Y0029282D01*
X0029332Y0029118D01*
X0029230Y0028952D01*
X0029133Y0028783D01*
X0029040Y0028613D01*
X0028951Y0028439D01*
X0028866Y0028264D01*
X0028786Y0028087D01*
X0028710Y0027908D01*
X0028638Y0027727D01*
X0028571Y0027544D01*
X0028508Y0027360D01*
X0028450Y0027174D01*
X0028396Y0026987D01*
X0028347Y0026799D01*
X0028302Y0026609D01*
X0028262Y0026419D01*
X0028227Y0026227D01*
X0028196Y0026035D01*
X0028170Y0025842D01*
X0028149Y0025648D01*
X0028132Y0025454D01*
X0028120Y0025260D01*
X0028113Y0025066D01*
X0028111Y0024871D01*
D142*
X0009300Y0061800D02*
X0004300Y0061800D01*
X0001800Y0064300D01*
X0001800Y0069300D01*
X0004300Y0071800D01*
X0001800Y0074300D01*
X0001800Y0079300D01*
X0004300Y0081800D01*
X0001800Y0084300D01*
X0001800Y0089300D01*
X0004300Y0091800D01*
X0001800Y0094300D01*
X0001800Y0099300D01*
X0004300Y0101800D01*
X0001800Y0104300D01*
X0001800Y0109300D01*
X0004300Y0111800D01*
X0001800Y0114300D01*
X0001800Y0119300D01*
X0004300Y0121800D01*
X0001800Y0124300D01*
X0001800Y0129300D01*
X0004300Y0131800D01*
X0001800Y0134300D01*
X0001800Y0139300D01*
X0004300Y0141800D01*
X0009300Y0141800D01*
X0011800Y0139300D01*
X0011800Y0134300D01*
X0009300Y0131800D01*
X0011800Y0129300D01*
X0011800Y0124300D01*
X0009300Y0121800D01*
X0011800Y0119300D01*
X0011800Y0114300D01*
X0009300Y0111800D01*
X0011800Y0109300D01*
X0011800Y0104300D01*
X0009300Y0101800D01*
X0011800Y0099300D01*
X0011800Y0094300D01*
X0009300Y0091800D01*
X0011800Y0089300D01*
X0011800Y0084300D01*
X0009300Y0081800D01*
X0011800Y0079300D01*
X0011800Y0074300D01*
X0009300Y0071800D01*
X0011800Y0069300D01*
X0011800Y0064300D01*
X0009300Y0061800D01*
X0189300Y0064300D02*
X0191800Y0061800D01*
X0196800Y0061800D01*
X0199300Y0064300D01*
X0199300Y0069300D01*
X0196800Y0071800D01*
X0199300Y0074300D01*
X0199300Y0079300D01*
X0196800Y0081800D01*
X0199300Y0084300D01*
X0199300Y0089300D01*
X0196800Y0091800D01*
X0199300Y0094300D01*
X0199300Y0099300D01*
X0196800Y0101800D01*
X0199300Y0104300D01*
X0199300Y0109300D01*
X0196800Y0111800D01*
X0199300Y0114300D01*
X0199300Y0119300D01*
X0196800Y0121800D01*
X0199300Y0124300D01*
X0199300Y0129300D01*
X0196800Y0131800D01*
X0199300Y0134300D01*
X0199300Y0139300D01*
X0196800Y0141800D01*
X0191800Y0141800D01*
X0189300Y0139300D01*
X0189300Y0134300D01*
X0191800Y0131800D01*
X0189300Y0129300D01*
X0189300Y0124300D01*
X0191800Y0121800D01*
X0189300Y0119300D01*
X0189300Y0114300D01*
X0191800Y0111800D01*
X0189300Y0109300D01*
X0189300Y0104300D01*
X0191800Y0101800D01*
X0189300Y0099300D01*
X0189300Y0094300D01*
X0191800Y0091800D01*
X0189300Y0089300D01*
X0189300Y0084300D01*
X0191800Y0081800D01*
X0189300Y0079300D01*
X0189300Y0074300D01*
X0191800Y0071800D01*
X0189300Y0069300D01*
X0189300Y0064300D01*
X0191800Y0144320D02*
X0196800Y0144320D01*
X0199300Y0146820D01*
X0199300Y0151820D01*
X0196800Y0154320D01*
X0199300Y0156820D01*
X0199300Y0161820D01*
X0196800Y0164320D01*
X0199300Y0166820D01*
X0199300Y0171820D01*
X0196800Y0174320D01*
X0199300Y0176820D01*
X0199300Y0181820D01*
X0196800Y0184320D01*
X0199300Y0186820D01*
X0199300Y0191820D01*
X0196800Y0194320D01*
X0191800Y0194320D01*
X0189300Y0191820D01*
X0189300Y0186820D01*
X0191800Y0184320D01*
X0189300Y0181820D01*
X0189300Y0176820D01*
X0191800Y0174320D01*
X0189300Y0171820D01*
X0189300Y0166820D01*
X0191800Y0164320D01*
X0189300Y0161820D01*
X0189300Y0156820D01*
X0191800Y0154320D01*
X0189300Y0151820D01*
X0189300Y0146820D01*
X0191800Y0144320D01*
D143*
X0066650Y0151800D03*
X0038250Y0151800D03*
D144*
X0036800Y0126000D03*
X0036800Y0097600D03*
X0037410Y0076610D03*
X0037410Y0048210D03*
X0167430Y0148820D03*
X0167430Y0177220D03*
D145*
X0105800Y0171052D02*
X0105800Y0187548D01*
X0099800Y0184828D02*
X0099800Y0183772D01*
X0103678Y0188846D02*
X0103903Y0188739D01*
X0104126Y0188627D01*
X0104346Y0188510D01*
X0104563Y0188388D01*
X0104778Y0188260D01*
X0104989Y0188127D01*
X0105197Y0187990D01*
X0105401Y0187847D01*
X0105603Y0187700D01*
X0105800Y0187548D01*
X0094828Y0188800D02*
X0094598Y0188688D01*
X0094371Y0188571D01*
X0094147Y0188449D01*
X0093926Y0188321D01*
X0093709Y0188187D01*
X0093494Y0188049D01*
X0093283Y0187905D01*
X0093076Y0187756D01*
X0092872Y0187602D01*
X0092672Y0187444D01*
X0092476Y0187280D01*
X0092284Y0187112D01*
X0092096Y0186939D01*
X0091912Y0186761D01*
X0091733Y0186580D01*
X0091558Y0186393D01*
X0091388Y0186203D01*
X0091223Y0186009D01*
X0091062Y0185810D01*
X0090906Y0185608D01*
X0090755Y0185402D01*
X0090609Y0185192D01*
X0090469Y0184979D01*
X0090333Y0184763D01*
X0090203Y0184543D01*
X0090078Y0184320D01*
X0089959Y0184095D01*
X0089845Y0183866D01*
X0089737Y0183635D01*
X0089634Y0183401D01*
X0089537Y0183165D01*
X0089446Y0182926D01*
X0089361Y0182686D01*
X0089281Y0182443D01*
X0089208Y0182198D01*
X0089140Y0181952D01*
X0089079Y0181704D01*
X0089024Y0181455D01*
X0088974Y0181205D01*
X0088931Y0180953D01*
X0088894Y0180700D01*
X0088863Y0180447D01*
X0088838Y0180193D01*
X0088819Y0179938D01*
X0088807Y0179683D01*
X0088801Y0179428D01*
X0088801Y0179172D01*
X0088807Y0178917D01*
X0088819Y0178662D01*
X0088838Y0178407D01*
X0088863Y0178153D01*
X0088894Y0177900D01*
X0088931Y0177647D01*
X0088974Y0177395D01*
X0089024Y0177145D01*
X0089079Y0176896D01*
X0089140Y0176648D01*
X0089208Y0176402D01*
X0089281Y0176157D01*
X0089361Y0175914D01*
X0089446Y0175674D01*
X0089537Y0175435D01*
X0089634Y0175199D01*
X0089737Y0174965D01*
X0089845Y0174734D01*
X0089959Y0174505D01*
X0090078Y0174280D01*
X0090203Y0174057D01*
X0090333Y0173837D01*
X0090469Y0173621D01*
X0090609Y0173408D01*
X0090755Y0173198D01*
X0090906Y0172992D01*
X0091062Y0172790D01*
X0091223Y0172591D01*
X0091388Y0172397D01*
X0091558Y0172207D01*
X0091733Y0172020D01*
X0091912Y0171839D01*
X0092096Y0171661D01*
X0092284Y0171488D01*
X0092476Y0171320D01*
X0092672Y0171156D01*
X0092872Y0170998D01*
X0093076Y0170844D01*
X0093283Y0170695D01*
X0093494Y0170551D01*
X0093709Y0170413D01*
X0093926Y0170279D01*
X0094147Y0170151D01*
X0094371Y0170029D01*
X0094598Y0169912D01*
X0094828Y0169800D01*
X0099800Y0173772D02*
X0099800Y0174828D01*
X0103772Y0169798D02*
X0103987Y0169902D01*
X0104200Y0170011D01*
X0104410Y0170125D01*
X0104617Y0170244D01*
X0104822Y0170367D01*
X0105024Y0170495D01*
X0105223Y0170628D01*
X0105418Y0170765D01*
X0105611Y0170906D01*
X0105800Y0171052D01*
X0081229Y0177469D02*
X0047371Y0177469D01*
X0047371Y0194792D01*
X0081229Y0194792D01*
X0081229Y0186131D01*
X0081229Y0185737D02*
X0081229Y0177469D01*
X0143670Y0025560D02*
X0163670Y0025560D01*
X0163670Y0005560D01*
X0143670Y0005560D01*
X0143670Y0025560D01*
X0148670Y0015560D02*
X0148672Y0015701D01*
X0148678Y0015842D01*
X0148688Y0015982D01*
X0148702Y0016122D01*
X0148720Y0016262D01*
X0148741Y0016401D01*
X0148767Y0016540D01*
X0148796Y0016678D01*
X0148830Y0016814D01*
X0148867Y0016950D01*
X0148908Y0017085D01*
X0148953Y0017219D01*
X0149002Y0017351D01*
X0149054Y0017482D01*
X0149110Y0017611D01*
X0149170Y0017738D01*
X0149233Y0017864D01*
X0149299Y0017988D01*
X0149370Y0018111D01*
X0149443Y0018231D01*
X0149520Y0018349D01*
X0149600Y0018465D01*
X0149684Y0018578D01*
X0149770Y0018689D01*
X0149860Y0018798D01*
X0149953Y0018904D01*
X0150048Y0019007D01*
X0150147Y0019108D01*
X0150248Y0019206D01*
X0150352Y0019301D01*
X0150459Y0019393D01*
X0150568Y0019482D01*
X0150680Y0019567D01*
X0150794Y0019650D01*
X0150910Y0019730D01*
X0151029Y0019806D01*
X0151150Y0019878D01*
X0151272Y0019948D01*
X0151397Y0020013D01*
X0151523Y0020076D01*
X0151651Y0020134D01*
X0151781Y0020189D01*
X0151912Y0020241D01*
X0152045Y0020288D01*
X0152179Y0020332D01*
X0152314Y0020373D01*
X0152450Y0020409D01*
X0152587Y0020441D01*
X0152725Y0020470D01*
X0152863Y0020495D01*
X0153003Y0020515D01*
X0153143Y0020532D01*
X0153283Y0020545D01*
X0153424Y0020554D01*
X0153564Y0020559D01*
X0153705Y0020560D01*
X0153846Y0020557D01*
X0153987Y0020550D01*
X0154127Y0020539D01*
X0154267Y0020524D01*
X0154407Y0020505D01*
X0154546Y0020483D01*
X0154684Y0020456D01*
X0154822Y0020426D01*
X0154958Y0020391D01*
X0155094Y0020353D01*
X0155228Y0020311D01*
X0155362Y0020265D01*
X0155494Y0020216D01*
X0155624Y0020162D01*
X0155753Y0020105D01*
X0155880Y0020045D01*
X0156006Y0019981D01*
X0156129Y0019913D01*
X0156251Y0019842D01*
X0156371Y0019768D01*
X0156488Y0019690D01*
X0156603Y0019609D01*
X0156716Y0019525D01*
X0156827Y0019438D01*
X0156935Y0019347D01*
X0157040Y0019254D01*
X0157143Y0019157D01*
X0157243Y0019058D01*
X0157340Y0018956D01*
X0157434Y0018851D01*
X0157525Y0018744D01*
X0157613Y0018634D01*
X0157698Y0018522D01*
X0157780Y0018407D01*
X0157859Y0018290D01*
X0157934Y0018171D01*
X0158006Y0018050D01*
X0158074Y0017927D01*
X0158139Y0017802D01*
X0158201Y0017675D01*
X0158258Y0017546D01*
X0158313Y0017416D01*
X0158363Y0017285D01*
X0158410Y0017152D01*
X0158453Y0017018D01*
X0158492Y0016882D01*
X0158527Y0016746D01*
X0158559Y0016609D01*
X0158586Y0016471D01*
X0158610Y0016332D01*
X0158630Y0016192D01*
X0158646Y0016052D01*
X0158658Y0015912D01*
X0158666Y0015771D01*
X0158670Y0015630D01*
X0158670Y0015490D01*
X0158666Y0015349D01*
X0158658Y0015208D01*
X0158646Y0015068D01*
X0158630Y0014928D01*
X0158610Y0014788D01*
X0158586Y0014649D01*
X0158559Y0014511D01*
X0158527Y0014374D01*
X0158492Y0014238D01*
X0158453Y0014102D01*
X0158410Y0013968D01*
X0158363Y0013835D01*
X0158313Y0013704D01*
X0158258Y0013574D01*
X0158201Y0013445D01*
X0158139Y0013318D01*
X0158074Y0013193D01*
X0158006Y0013070D01*
X0157934Y0012949D01*
X0157859Y0012830D01*
X0157780Y0012713D01*
X0157698Y0012598D01*
X0157613Y0012486D01*
X0157525Y0012376D01*
X0157434Y0012269D01*
X0157340Y0012164D01*
X0157243Y0012062D01*
X0157143Y0011963D01*
X0157040Y0011866D01*
X0156935Y0011773D01*
X0156827Y0011682D01*
X0156716Y0011595D01*
X0156603Y0011511D01*
X0156488Y0011430D01*
X0156371Y0011352D01*
X0156251Y0011278D01*
X0156129Y0011207D01*
X0156006Y0011139D01*
X0155880Y0011075D01*
X0155753Y0011015D01*
X0155624Y0010958D01*
X0155494Y0010904D01*
X0155362Y0010855D01*
X0155228Y0010809D01*
X0155094Y0010767D01*
X0154958Y0010729D01*
X0154822Y0010694D01*
X0154684Y0010664D01*
X0154546Y0010637D01*
X0154407Y0010615D01*
X0154267Y0010596D01*
X0154127Y0010581D01*
X0153987Y0010570D01*
X0153846Y0010563D01*
X0153705Y0010560D01*
X0153564Y0010561D01*
X0153424Y0010566D01*
X0153283Y0010575D01*
X0153143Y0010588D01*
X0153003Y0010605D01*
X0152863Y0010625D01*
X0152725Y0010650D01*
X0152587Y0010679D01*
X0152450Y0010711D01*
X0152314Y0010747D01*
X0152179Y0010788D01*
X0152045Y0010832D01*
X0151912Y0010879D01*
X0151781Y0010931D01*
X0151651Y0010986D01*
X0151523Y0011044D01*
X0151397Y0011107D01*
X0151272Y0011172D01*
X0151150Y0011242D01*
X0151029Y0011314D01*
X0150910Y0011390D01*
X0150794Y0011470D01*
X0150680Y0011553D01*
X0150568Y0011638D01*
X0150459Y0011727D01*
X0150352Y0011819D01*
X0150248Y0011914D01*
X0150147Y0012012D01*
X0150048Y0012113D01*
X0149953Y0012216D01*
X0149860Y0012322D01*
X0149770Y0012431D01*
X0149684Y0012542D01*
X0149600Y0012655D01*
X0149520Y0012771D01*
X0149443Y0012889D01*
X0149370Y0013009D01*
X0149299Y0013132D01*
X0149233Y0013256D01*
X0149170Y0013382D01*
X0149110Y0013509D01*
X0149054Y0013638D01*
X0149002Y0013769D01*
X0148953Y0013901D01*
X0148908Y0014035D01*
X0148867Y0014170D01*
X0148830Y0014306D01*
X0148796Y0014442D01*
X0148767Y0014580D01*
X0148741Y0014719D01*
X0148720Y0014858D01*
X0148702Y0014998D01*
X0148688Y0015138D01*
X0148678Y0015278D01*
X0148672Y0015419D01*
X0148670Y0015560D01*
X0173020Y0005560D02*
X0173020Y0025560D01*
X0193020Y0025560D01*
X0193020Y0005560D01*
X0173020Y0005560D01*
X0178020Y0015560D02*
X0178022Y0015701D01*
X0178028Y0015842D01*
X0178038Y0015982D01*
X0178052Y0016122D01*
X0178070Y0016262D01*
X0178091Y0016401D01*
X0178117Y0016540D01*
X0178146Y0016678D01*
X0178180Y0016814D01*
X0178217Y0016950D01*
X0178258Y0017085D01*
X0178303Y0017219D01*
X0178352Y0017351D01*
X0178404Y0017482D01*
X0178460Y0017611D01*
X0178520Y0017738D01*
X0178583Y0017864D01*
X0178649Y0017988D01*
X0178720Y0018111D01*
X0178793Y0018231D01*
X0178870Y0018349D01*
X0178950Y0018465D01*
X0179034Y0018578D01*
X0179120Y0018689D01*
X0179210Y0018798D01*
X0179303Y0018904D01*
X0179398Y0019007D01*
X0179497Y0019108D01*
X0179598Y0019206D01*
X0179702Y0019301D01*
X0179809Y0019393D01*
X0179918Y0019482D01*
X0180030Y0019567D01*
X0180144Y0019650D01*
X0180260Y0019730D01*
X0180379Y0019806D01*
X0180500Y0019878D01*
X0180622Y0019948D01*
X0180747Y0020013D01*
X0180873Y0020076D01*
X0181001Y0020134D01*
X0181131Y0020189D01*
X0181262Y0020241D01*
X0181395Y0020288D01*
X0181529Y0020332D01*
X0181664Y0020373D01*
X0181800Y0020409D01*
X0181937Y0020441D01*
X0182075Y0020470D01*
X0182213Y0020495D01*
X0182353Y0020515D01*
X0182493Y0020532D01*
X0182633Y0020545D01*
X0182774Y0020554D01*
X0182914Y0020559D01*
X0183055Y0020560D01*
X0183196Y0020557D01*
X0183337Y0020550D01*
X0183477Y0020539D01*
X0183617Y0020524D01*
X0183757Y0020505D01*
X0183896Y0020483D01*
X0184034Y0020456D01*
X0184172Y0020426D01*
X0184308Y0020391D01*
X0184444Y0020353D01*
X0184578Y0020311D01*
X0184712Y0020265D01*
X0184844Y0020216D01*
X0184974Y0020162D01*
X0185103Y0020105D01*
X0185230Y0020045D01*
X0185356Y0019981D01*
X0185479Y0019913D01*
X0185601Y0019842D01*
X0185721Y0019768D01*
X0185838Y0019690D01*
X0185953Y0019609D01*
X0186066Y0019525D01*
X0186177Y0019438D01*
X0186285Y0019347D01*
X0186390Y0019254D01*
X0186493Y0019157D01*
X0186593Y0019058D01*
X0186690Y0018956D01*
X0186784Y0018851D01*
X0186875Y0018744D01*
X0186963Y0018634D01*
X0187048Y0018522D01*
X0187130Y0018407D01*
X0187209Y0018290D01*
X0187284Y0018171D01*
X0187356Y0018050D01*
X0187424Y0017927D01*
X0187489Y0017802D01*
X0187551Y0017675D01*
X0187608Y0017546D01*
X0187663Y0017416D01*
X0187713Y0017285D01*
X0187760Y0017152D01*
X0187803Y0017018D01*
X0187842Y0016882D01*
X0187877Y0016746D01*
X0187909Y0016609D01*
X0187936Y0016471D01*
X0187960Y0016332D01*
X0187980Y0016192D01*
X0187996Y0016052D01*
X0188008Y0015912D01*
X0188016Y0015771D01*
X0188020Y0015630D01*
X0188020Y0015490D01*
X0188016Y0015349D01*
X0188008Y0015208D01*
X0187996Y0015068D01*
X0187980Y0014928D01*
X0187960Y0014788D01*
X0187936Y0014649D01*
X0187909Y0014511D01*
X0187877Y0014374D01*
X0187842Y0014238D01*
X0187803Y0014102D01*
X0187760Y0013968D01*
X0187713Y0013835D01*
X0187663Y0013704D01*
X0187608Y0013574D01*
X0187551Y0013445D01*
X0187489Y0013318D01*
X0187424Y0013193D01*
X0187356Y0013070D01*
X0187284Y0012949D01*
X0187209Y0012830D01*
X0187130Y0012713D01*
X0187048Y0012598D01*
X0186963Y0012486D01*
X0186875Y0012376D01*
X0186784Y0012269D01*
X0186690Y0012164D01*
X0186593Y0012062D01*
X0186493Y0011963D01*
X0186390Y0011866D01*
X0186285Y0011773D01*
X0186177Y0011682D01*
X0186066Y0011595D01*
X0185953Y0011511D01*
X0185838Y0011430D01*
X0185721Y0011352D01*
X0185601Y0011278D01*
X0185479Y0011207D01*
X0185356Y0011139D01*
X0185230Y0011075D01*
X0185103Y0011015D01*
X0184974Y0010958D01*
X0184844Y0010904D01*
X0184712Y0010855D01*
X0184578Y0010809D01*
X0184444Y0010767D01*
X0184308Y0010729D01*
X0184172Y0010694D01*
X0184034Y0010664D01*
X0183896Y0010637D01*
X0183757Y0010615D01*
X0183617Y0010596D01*
X0183477Y0010581D01*
X0183337Y0010570D01*
X0183196Y0010563D01*
X0183055Y0010560D01*
X0182914Y0010561D01*
X0182774Y0010566D01*
X0182633Y0010575D01*
X0182493Y0010588D01*
X0182353Y0010605D01*
X0182213Y0010625D01*
X0182075Y0010650D01*
X0181937Y0010679D01*
X0181800Y0010711D01*
X0181664Y0010747D01*
X0181529Y0010788D01*
X0181395Y0010832D01*
X0181262Y0010879D01*
X0181131Y0010931D01*
X0181001Y0010986D01*
X0180873Y0011044D01*
X0180747Y0011107D01*
X0180622Y0011172D01*
X0180500Y0011242D01*
X0180379Y0011314D01*
X0180260Y0011390D01*
X0180144Y0011470D01*
X0180030Y0011553D01*
X0179918Y0011638D01*
X0179809Y0011727D01*
X0179702Y0011819D01*
X0179598Y0011914D01*
X0179497Y0012012D01*
X0179398Y0012113D01*
X0179303Y0012216D01*
X0179210Y0012322D01*
X0179120Y0012431D01*
X0179034Y0012542D01*
X0178950Y0012655D01*
X0178870Y0012771D01*
X0178793Y0012889D01*
X0178720Y0013009D01*
X0178649Y0013132D01*
X0178583Y0013256D01*
X0178520Y0013382D01*
X0178460Y0013509D01*
X0178404Y0013638D01*
X0178352Y0013769D01*
X0178303Y0013901D01*
X0178258Y0014035D01*
X0178217Y0014170D01*
X0178180Y0014306D01*
X0178146Y0014442D01*
X0178117Y0014580D01*
X0178091Y0014719D01*
X0178070Y0014858D01*
X0178052Y0014998D01*
X0178038Y0015138D01*
X0178028Y0015278D01*
X0178022Y0015419D01*
X0178020Y0015560D01*
M02*
